<svg data-bbox="40.645 25 118.711 149.999" viewBox="0 0 200 200" height="200" width="200"
    xmlns="http://www.w3.org/2000/svg" data-type="color">
    <g>
        <path
            d="M94.432 67.087a4.69 4.69 0 0 0 4.688 4.688h55.548c2.588 0 4.688-2.1 4.688-4.688s-2.1-4.688-4.688-4.688H99.12a4.69 4.69 0 0 0-4.688 4.688z"
            fill="#22495A" data-color="1" />
        <path
            d="M81.691 62.399h-6.735c-2.588 0-4.688 2.1-4.688 4.688s2.1 4.688 4.688 4.688h6.735c2.588 0 4.688-2.1 4.688-4.688s-2.1-4.688-4.688-4.688z"
            fill="#22495A" data-color="1" />
        <path
            d="M99.12 84.341c-2.588 0-4.688 2.1-4.688 4.688s2.1 4.688 4.688 4.688h34.024c2.588 0 4.688-2.1 4.688-4.688s-2.1-4.688-4.688-4.688H99.12z"
            fill="#22495A" data-color="1" />
        <path
            d="M81.691 84.341h-6.735c-2.588 0-4.688 2.1-4.688 4.688s2.1 4.688 4.688 4.688h6.735c2.588 0 4.688-2.1 4.688-4.688s-2.1-4.688-4.688-4.688z"
            fill="#22495A" data-color="1" />
        <path
            d="M154.668 106.284H99.12c-2.588 0-4.688 2.1-4.688 4.688s2.1 4.688 4.688 4.688h55.548c2.588 0 4.688-2.1 4.688-4.688s-2.1-4.688-4.688-4.688z"
            fill="#22495A" data-color="1" />
        <path
            d="M81.691 106.284h-6.735c-2.588 0-4.688 2.1-4.688 4.688s2.1 4.688 4.688 4.688h6.735c2.588 0 4.688-2.1 4.688-4.688s-2.1-4.688-4.688-4.688z"
            fill="#22495A" data-color="1" />
        <path
            d="M133.144 137.598c2.588 0 4.688-2.1 4.688-4.688s-2.1-4.688-4.688-4.688H99.12c-2.588 0-4.688 2.1-4.688 4.688s2.1 4.688 4.688 4.688h34.024z"
            fill="#22495A" data-color="1" />
        <path
            d="M81.691 128.223h-6.735c-2.588 0-4.688 2.1-4.688 4.688s2.1 4.688 4.688 4.688h6.735c2.588 0 4.688-2.1 4.688-4.688s-2.1-4.688-4.688-4.688z"
            fill="#22495A" data-color="1" />
        <path
            d="M142.207 145.987a4.69 4.69 0 0 0-4.688 4.688v9.854a5.101 5.101 0 0 1-5.096 5.096H55.116a5.101 5.101 0 0 1-5.096-5.096V39.471a5.101 5.101 0 0 1 5.096-5.096h77.307a5.101 5.101 0 0 1 5.096 5.096v8.078c0 2.588 2.1 4.688 4.688 4.688s4.688-2.1 4.688-4.688v-8.078c0-7.98-6.491-14.471-14.471-14.471H55.116c-7.98 0-14.471 6.491-14.471 14.471v121.057c0 7.98 6.491 14.471 14.471 14.471h77.307c7.98 0 14.471-6.491 14.471-14.471v-9.854a4.688 4.688 0 0 0-4.687-4.687z"
            fill="#22495A" data-color="1" />
    </g>
</svg>