<?xml version="1.0" encoding="UTF-8"?>
<svg version="1.1" xmlns="http://www.w3.org/2000/svg" width="512" height="512">
  <path
    d="M0 0 C0.99 0.99 0.99 0.99 2 2 C6.02176618 1.70895113 8.05427933 0.39654591 11 -2.25 C21.58330418 -10.74105294 35.3432115 -13.41092717 48.671875 -12.84375 C64.50919736 -11.01365942 77.99406466 -4.43976145 88.375 7.8125 C99.27217205 22.41017005 101.56875922 37.24537468 100 55 C98.40908 64.53547631 94.0652944 72.55114766 88 80 C87.54367187 80.59425781 87.08734375 81.18851562 86.6171875 81.80078125 C84.75078085 84.16607018 82.91417118 86.06437161 80.5 87.875 C74.49361597 92.98042642 71.95554162 100.15130577 69.6875 107.5 C69.29208008 108.73363281 69.29208008 108.73363281 68.88867188 109.9921875 C68.2492994 111.9916796 67.62322042 113.99541472 67 116 C67.55488098 115.99111755 68.10976196 115.98223511 68.68145752 115.9730835 C74.45631611 115.88459407 80.23098216 115.82425947 86.00634766 115.78027344 C88.16170067 115.76015724 90.31699911 115.73286075 92.47216797 115.69824219 C95.57012395 115.64972514 98.66735846 115.62703127 101.765625 115.609375 C102.72929993 115.58872986 103.69297485 115.56808472 104.68585205 115.54681396 C105.58648376 115.54651184 106.48711548 115.54620972 107.41503906 115.54589844 C108.20557678 115.53701599 108.9961145 115.52813354 109.81060791 115.51898193 C112.91982464 116.2020891 114.0147858 117.54143991 116 120 C116.48101807 122.7588501 116.48101807 122.7588501 116.45410156 125.96191406 C116.45364838 127.76332855 116.45364838 127.76332855 116.45318604 129.60113525 C116.42221832 131.53880768 116.42221832 131.53880768 116.390625 133.515625 C116.38316071 134.85511429 116.37746866 136.19461452 116.37347412 137.53411865 C116.35823213 141.05251436 116.31896418 144.57024515 116.2746582 148.08837891 C116.23367364 151.68122361 116.2154564 155.2741762 116.1953125 158.8671875 C116.15246745 165.91172966 116.08423446 172.95582132 116 180 C116.67660549 179.99631283 117.35321098 179.99262566 118.05031967 179.98882675 C134.50842419 179.90051569 150.96645372 179.83430998 167.42473984 179.79275131 C175.38383235 179.77212 183.34276677 179.74398872 191.30175781 179.69824219 C198.23827158 179.65839162 205.17467088 179.63257132 212.11129594 179.62364602 C215.78474742 179.61842818 219.45787138 179.6061531 223.13121796 179.57707977 C227.23053051 179.5448978 231.32927251 179.54403943 235.42871094 179.54589844 C237.25858551 179.52432678 237.25858551 179.52432678 239.12542725 179.50231934 C240.24159424 179.50781799 241.35776123 179.51331665 242.50775146 179.51898193 C243.47747768 179.51529476 244.4472039 179.51160759 245.44631577 179.50780869 C248.73615793 180.14188541 249.92526685 181.42793087 252 184 C252.50793457 185.97265625 252.50793457 185.97265625 252.51757812 188.0625 C252.53018677 188.85011719 252.54279541 189.63773438 252.55578613 190.44921875 C252.54364075 191.71185547 252.54364075 191.71185547 252.53125 193 C252.5350769 193.87269531 252.53890381 194.74539062 252.54284668 195.64453125 C252.5455649 197.48699092 252.53820994 199.32948924 252.52148438 201.171875 C252.50007248 203.99045934 252.52128801 206.80649485 252.546875 209.625 C252.54423171 211.41667229 252.53910669 213.20834299 252.53125 215 C252.53934692 215.84175781 252.54744385 216.68351563 252.55578613 217.55078125 C252.53687317 218.73220703 252.53687317 218.73220703 252.51757812 219.9375 C252.51439575 220.62714844 252.51121338 221.31679687 252.50793457 222.02734375 C252 224 252 224 248 228 C241.4 228 234.8 228 228 228 C228 291.36 228 354.72 228 420 C234.6 420 241.2 420 248 420 C252.50114122 424.50114122 252.50114122 424.50114122 252.51757812 429.53125 C252.53018677 430.63919922 252.54279541 431.74714844 252.55578613 432.88867188 C252.54364075 434.6762793 252.54364075 434.6762793 252.53125 436.5 C252.5350769 437.72783203 252.53890381 438.95566406 252.54284668 440.22070312 C252.54556842 442.81641459 252.53818911 445.41215336 252.52148438 448.0078125 C252.50008075 451.98499599 252.52127963 455.96037282 252.546875 459.9375 C252.54423177 462.45833733 252.53910691 464.97917353 252.53125 467.5 C252.53934692 468.69173828 252.54744385 469.88347656 252.55578613 471.11132812 C252.54317749 472.21927734 252.53056885 473.32722656 252.51757812 474.46875 C252.51439575 475.44263672 252.51121338 476.41652344 252.50793457 477.41992188 C251.82536018 480.88709138 250.817622 481.87059295 248 484 C245.16901079 484.39197625 242.72765285 484.53772548 239.89770508 484.50336456 C239.07036173 484.50917833 238.24301838 484.51499209 237.39060402 484.52098203 C234.59995485 484.53565664 231.81017497 484.52166221 229.01953125 484.50793457 C227.00602262 484.51254054 224.99251736 484.51889139 222.97901917 484.52684355 C217.43172013 484.54360177 211.88469497 484.53526104 206.33739471 484.52289867 C200.36048998 484.51387701 194.38363353 484.52780355 188.40673828 484.53881836 C177.36999932 484.55560817 166.33333604 484.55410934 155.29659653 484.54317249 C145.1015302 484.53311901 134.90649604 484.53047936 124.71142578 484.53526306 C124.03574401 484.5355686 123.36006224 484.53587414 122.66390526 484.53618894 C119.92124518 484.53743425 117.17858511 484.53870785 114.43592507 484.540028 C88.69603975 484.55227009 62.95621032 484.54116051 37.21633363 484.51964041 C14.33690081 484.5006573 -8.54244296 484.50235578 -31.421875 484.52148438 C-57.11401232 484.54289265 -82.80610024 484.55140197 -108.49824524 484.53903532 C-111.23597208 484.53775241 -113.97369892 484.53650105 -116.71142578 484.53526306 C-117.38554752 484.53494675 -118.05966926 484.53463044 -118.75421894 484.53430455 C-128.94406964 484.52975041 -139.1338847 484.53508365 -149.32373047 484.54518127 C-160.90748683 484.55660281 -172.49115843 484.55340597 -184.0749054 484.5320583 C-189.98926771 484.52151929 -195.90344894 484.51747454 -201.81781006 484.53065491 C-207.22615637 484.54252565 -212.6341528 484.53610441 -218.04246712 484.5147447 C-220.00471715 484.51025599 -221.96699641 484.51259531 -223.92922783 484.52224785 C-226.58581396 484.53431916 -229.24118371 484.52203201 -231.89770508 484.50336456 C-233.05460877 484.51741156 -233.05460877 484.51741156 -234.23488426 484.53174233 C-237.72944127 484.48227782 -239.64920751 484.26511008 -242.47464752 482.1297946 C-244.42051456 479.4128507 -244.50670779 477.79534838 -244.51757812 474.46875 C-244.53018677 473.36080078 -244.54279541 472.25285156 -244.55578613 471.11132812 C-244.54768921 469.91958984 -244.53959229 468.72785156 -244.53125 467.5 C-244.5350769 466.27216797 -244.53890381 465.04433594 -244.54284668 463.77929688 C-244.54556842 461.18358541 -244.53818911 458.58784664 -244.52148438 455.9921875 C-244.50008075 452.01500401 -244.52127963 448.03962718 -244.546875 444.0625 C-244.54423177 441.54166267 -244.53910691 439.02082647 -244.53125 436.5 C-244.54339539 434.71239258 -244.54339539 434.71239258 -244.55578613 432.88867188 C-244.53687317 431.22674805 -244.53687317 431.22674805 -244.51757812 429.53125 C-244.51439575 428.55736328 -244.51121338 427.58347656 -244.50793457 426.58007812 C-244 424 -244 424 -240 420 C-233.4 420 -226.8 420 -220 420 C-220 356.64 -220 293.28 -220 228 C-226.6 228 -233.2 228 -240 228 C-244.5011443 223.4988557 -244.5011443 223.4988557 -244.51757812 219.9375 C-244.53018677 219.14988281 -244.54279541 218.36226562 -244.55578613 217.55078125 C-244.54364075 216.28814453 -244.54364075 216.28814453 -244.53125 215 C-244.5350769 214.12730469 -244.53890381 213.25460938 -244.54284668 212.35546875 C-244.5455649 210.51300908 -244.53820994 208.67051076 -244.52148438 206.828125 C-244.50007248 204.00954066 -244.52128801 201.19350515 -244.546875 198.375 C-244.54423171 196.58332771 -244.53910669 194.79165701 -244.53125 193 C-244.53934692 192.15824219 -244.54744385 191.31648437 -244.55578613 190.44921875 C-244.53687317 189.26779297 -244.53687317 189.26779297 -244.51757812 188.0625 C-244.51439575 187.37285156 -244.51121338 186.68320313 -244.50793457 185.97265625 C-243.75860535 183.06249999 -242.29686545 181.89468438 -240 180 C-237.44631577 179.50780869 -237.44631577 179.50780869 -234.50775146 179.51898193 C-233.39158447 179.51348328 -232.27541748 179.50798462 -231.12542725 179.50231934 C-229.90551086 179.51670044 -228.68559448 179.53108154 -227.42871094 179.54589844 C-226.14065552 179.54531433 -224.8526001 179.54473022 -223.5255127 179.54412842 C-219.99671301 179.54298087 -216.46845732 179.56649597 -212.93978405 179.59442425 C-209.25092007 179.61943153 -205.56204358 179.62177936 -201.87310791 179.62652588 C-194.88909211 179.63895769 -187.9053268 179.67178189 -180.92142129 179.71192384 C-172.96988282 179.75663531 -165.01833239 179.77862698 -157.0666995 179.79870558 C-140.71098637 179.8405145 -124.35552515 179.91087032 -108 180 C-108.00888245 179.25719788 -108.01776489 178.51439575 -108.0269165 177.74908447 C-108.10709744 170.74550095 -108.16798186 163.74207665 -108.20724869 156.73816299 C-108.22811513 153.13741714 -108.25641421 149.53705084 -108.30175781 145.93652344 C-108.34525125 142.46112087 -108.36914421 138.98608312 -108.37950897 135.51042938 C-108.39048615 133.54054216 -108.421707 131.57080153 -108.45318604 129.60113525 C-108.45348816 128.40019226 -108.45379028 127.19924927 -108.45410156 125.96191406 C-108.46298401 124.90490295 -108.47186646 123.84789185 -108.48101807 122.7588501 C-107.87914119 119.30682158 -106.71959403 118.13785611 -104 116 C-101.81060791 115.51898193 -101.81060791 115.51898193 -99.41503906 115.54589844 C-98.51440735 115.54620056 -97.61377563 115.54650269 -96.68585205 115.54681396 C-95.72217712 115.56745911 -94.7585022 115.58810425 -93.765625 115.609375 C-92.77246277 115.61503479 -91.77930054 115.62069458 -90.75604248 115.62652588 C-87.58686941 115.64889974 -84.4188308 115.69909894 -81.25 115.75 C-79.10027676 115.77006365 -76.95053577 115.78831466 -74.80078125 115.8046875 C-69.53346771 115.84876761 -64.26681491 115.91568967 -59 116 C-60.07838281 112.77683298 -61.17433378 109.5599043 -62.2734375 106.34375 C-62.72867798 104.9820166 -62.72867798 104.9820166 -63.19311523 103.59277344 C-65.82413079 95.94017719 -69.02160227 90.08325824 -75.5 85.0625 C-86.05874936 76.35153178 -91.47730624 61.60048932 -92.875 48.375 C-93.69807456 32.26375323 -88.79057941 17.74511935 -78.31640625 5.3828125 C-56.8354294 -16.71397651 -24.2185782 -18.51689499 0 0 Z M3 93 C1.55102135 97.17053855 0.37209237 101.32440967 -0.625 105.625 C-0.88539063 106.73101562 -1.14578125 107.83703125 -1.4140625 108.9765625 C-2.12683902 112.1412075 -2.12683902 112.1412075 -2 116 C1.96 116 5.92 116 10 116 C9.47963992 110.79639925 8.62656148 105.69615804 7.625 100.5625 C7.39039063 99.34691406 7.15578125 98.13132812 6.9140625 96.87890625 C6.61242187 95.92886719 6.31078125 94.97882813 6 94 C5.01 93.67 4.02 93.34 3 93 Z "
    fill="#000000" transform="translate(252,20)" />
  <path
    d="M0 0 C13.2 0 26.4 0 40 0 C43.875 11.25 43.875 11.25 45.08544922 14.77832031 C45.40529785 15.70225586 45.72514648 16.62619141 46.0546875 17.578125 C46.54171143 18.99206543 46.54171143 18.99206543 47.03857422 20.43457031 C48.55453188 24.9118926 48.55453188 24.9118926 51.75 28.125 C52.86375 28.558125 52.86375 28.558125 54 29 C55.36125 29.556875 55.36125 29.556875 56.75 30.125 C63.42119379 31.92109064 68.04691166 31.40707164 74.140625 28.4609375 C80.12821744 23.75640059 81.22236195 17.20977762 82.75 10.125 C83.4925 6.78375 84.235 3.4425 85 0 C92.26 0 99.52 0 107 0 C109.25 10.125 109.25 10.125 109.93066406 13.28173828 C111.34207788 19.40689724 112.74048596 24.38959689 117.82421875 28.4609375 C122.90897444 30.95534595 127.35267846 31.89938825 133 31 C136.31805142 29.67570727 136.31805142 29.67570727 139 28 C139.99 27.67 140.98 27.34 142 27 C143.81182089 24.07021175 144.82711845 20.82449482 145.9453125 17.578125 C146.26516113 16.65418945 146.58500977 15.73025391 146.91455078 14.77832031 C147.51372314 13.03180176 147.51372314 13.03180176 148.125 11.25 C150.043125 5.68125 150.043125 5.68125 152 0 C165.2 0 178.4 0 192 0 C192 95.04 192 190.08 192 288 C178.8 288 165.6 288 152 288 C151.95101562 282.62074219 151.90203125 277.24148438 151.8515625 271.69921875 C151.81618427 268.29490285 151.78022896 264.89061276 151.7421875 261.48632812 C151.68183871 256.08084776 151.62364788 250.67540359 151.578125 245.26977539 C151.5412971 240.91248951 151.49494406 236.55540028 151.44193649 232.19828224 C151.42337924 230.53451798 151.40827621 228.87071155 151.39665604 227.20688438 C151.37981619 224.87949792 151.35078727 222.55256312 151.31884766 220.2253418 C151.31668747 219.53482224 151.31452728 218.84430267 151.31230164 218.13285828 C151.24904004 214.53336742 151.05791628 213.08687442 149 210 C146.26621127 209.08873709 144.6462035 208.8691516 141.83180237 208.85282898 C140.98362946 208.84567368 140.13545654 208.83851837 139.26158142 208.83114624 C137.87054955 208.82711288 137.87054955 208.82711288 136.45141602 208.82299805 C135.47229248 208.81642685 134.49316895 208.80985565 133.484375 208.80308533 C130.24088467 208.78335659 126.99744055 208.77169266 123.75390625 208.76171875 C122.64736128 208.75764322 121.54081631 208.7535677 120.40073967 208.74936867 C114.54767925 208.72851302 108.69464227 208.71420724 102.84155273 208.70483398 C96.78733118 208.69375088 90.73347528 208.65932743 84.67938328 208.61966228 C80.0306071 208.59356416 75.3819191 208.58514836 70.7330761 208.58155251 C68.5006964 208.5766715 66.26832102 208.56501477 64.03601265 208.54651451 C60.91636929 208.52226081 57.79768657 208.52306266 54.67797852 208.5300293 C53.75264816 208.51721924 52.82731781 208.50440918 51.87394714 208.49121094 C48.0789642 208.52217673 45.70925919 208.56665293 42.429245 210.57069397 C40.51743631 213.82021969 40.42723608 216.67023597 40.45410156 220.33886719 C40.44376389 221.07096909 40.43342621 221.80307098 40.42277527 222.55735779 C40.39334033 224.97075452 40.39184803 227.38331286 40.390625 229.796875 C40.37564373 231.47269287 40.35891669 233.14849598 40.34051514 234.82427979 C40.29682306 239.23012977 40.27683853 243.63578059 40.26177979 248.04180908 C40.23877417 253.33083508 40.18634244 258.61964123 40.13883972 263.90849304 C40.07000826 271.93905279 40.03857358 279.96898109 40 288 C26.8 288 13.6 288 0 288 C0 192.96 0 97.92 0 0 Z "
    fill="#5DD2F1" transform="translate(160,152)" />
  <path
    d="M0 0 C31.68 0 63.36 0 96 0 C96 63.36 96 126.72 96 192 C64.32 192 32.64 192 0 192 C0 128.64 0 65.28 0 0 Z "
    fill="#C7CCEC" transform="translate(368,248)" />
  <path
    d="M0 0 C31.68 0 63.36 0 96 0 C96 63.36 96 126.72 96 192 C64.32 192 32.64 192 0 192 C0 128.64 0 65.28 0 0 Z "
    fill="#C7CCEC" transform="translate(48,248)" />
  <path
    d="M0 0 C153.12 0 306.24 0 464 0 C464 10.56 464 21.12 464 32 C310.88 32 157.76 32 0 32 C0 21.44 0 10.88 0 0 Z "
    fill="#474747" transform="translate(24,456)" />
  <path
    d="M0 0 C42.24 0 84.48 0 128 0 C128 36.96 128 73.92 128 112 C85.76 112 43.52 112 0 112 C0 75.04 0 38.08 0 0 Z "
    fill="#F2F2F2" transform="translate(192,216)" />
  <path
    d="M0 0 C5.20103864 3.21696896 8.73697256 7.52168556 12.48046875 12.3046875 C14.90865336 14.83391935 14.90865336 14.83391935 18.64453125 14.94921875 C23.59968729 14.2858393 25.27473139 11.56933927 28.37109375 7.85546875 C35.11127673 0.40933144 45.22956589 -4.79971824 55.25390625 -5.703125 C67.29530617 -5.94762043 78.35267716 -2.71030161 87.2578125 5.609375 C96.09170967 15.06262289 99.60342907 25.15210919 99.37890625 38.0546875 C98.03708143 50.25561008 91.73449086 59.01800248 83.0625 67.125 C70.2402505 79.91956653 66.46169529 99.6490728 61.18041992 116.40405273 C60.08861759 119.85342952 58.97708853 123.29595887 57.86328125 126.73828125 C57.36940666 128.33800529 57.36940666 128.33800529 56.86555481 129.970047 C56.54809799 130.94584213 56.23064117 131.92163727 55.90356445 132.92700195 C55.63155716 133.788564 55.35954987 134.65012604 55.07929993 135.53779602 C54 137.5 54 137.5 51.88102722 138.28581238 C51.26028824 138.35649429 50.63954926 138.42717621 50 138.5 C47.66922091 132.69347576 46.09298197 127.04104164 44.84375 120.91796875 C44.65534546 120.02314285 44.46694092 119.12831696 44.27282715 118.20637512 C43.67595126 115.36795326 43.08736951 112.52790293 42.5 109.6875 C39.78809651 87.89086923 39.78809651 87.89086923 29.28125 70.25390625 C24.35363285 67.428348 19.60919443 66.38403462 14 67.5 C7.88006218 69.94797513 4.76821877 73.55921 2 79.5 C1.03746238 82.56272696 0.4002567 85.66052266 -0.21875 88.80859375 C-0.40336792 89.69297623 -0.58798584 90.5773587 -0.77819824 91.48854065 C-1.36357521 94.30264233 -1.93252908 97.1197384 -2.5 99.9375 C-3.25541526 103.62473791 -4.01749392 107.31057545 -4.78125 110.99609375 C-5.05666626 112.3330983 -5.05666626 112.3330983 -5.33764648 113.69711304 C-7.00071171 121.69056447 -8.93525891 129.60180275 -11 137.5 C-12.32 137.83 -13.64 138.16 -15 138.5 C-17.78408317 131.77122567 -20.23354573 124.99769722 -22.4609375 118.06640625 C-23.10371963 116.09816125 -23.74696301 114.13006682 -24.390625 112.16210938 C-25.38476168 109.11180587 -26.37561949 106.06057494 -27.35839844 103.0065918 C-33.58616573 82.56981832 -33.58616573 82.56981832 -46.5 66 C-54.77876822 58.18383094 -60.25696808 49.49191308 -61.3359375 37.88671875 C-61.47191183 25.00994987 -58.11134152 14.96543322 -49.1171875 5.5234375 C-35.08326652 -7.40978379 -16.6774025 -8.96021936 0 0 Z "
    fill="#F0F0F1" transform="translate(237,29.5)" />
  <path
    d="M0 0 C1.25335648 -0.0112088 2.50671295 -0.0224176 3.79804993 -0.03396606 C5.17929541 -0.0210561 6.56053626 -0.00764202 7.94177246 0.00622559 C9.40236556 0.00272308 10.86295485 -0.00293697 12.3235321 -0.0105896 C16.28444302 -0.02482899 20.24465901 -0.00778496 24.20550346 0.01569557 C28.35249436 0.03581408 32.49945667 0.0299245 36.64648438 0.02758789 C43.61042735 0.02764145 50.5740989 0.04739183 57.53796387 0.07946777 C65.58658225 0.11636019 73.63484511 0.12514323 81.68353701 0.11817026 C89.4293882 0.11186269 97.1751176 0.12262425 104.92094421 0.14213562 C108.21589393 0.15030552 111.51078136 0.15301992 114.80574036 0.15144348 C118.68659242 0.15056384 122.56710719 0.16480184 126.44787025 0.19067001 C127.87125831 0.19782561 129.29468227 0.19991834 130.71808434 0.19655228 C132.6625838 0.19283137 134.60709037 0.20944302 136.55151367 0.22705078 C138.18302494 0.23264385 138.18302494 0.23264385 139.84749603 0.23834991 C143.1860126 0.67513452 145.07926517 1.63601755 147.77575684 3.62145996 C149.05752863 6.18500355 148.90741551 8.00618649 148.91619873 10.8775177 C148.92190887 11.99212372 148.92761902 13.10672974 148.9335022 14.25511169 C148.93517899 16.09801537 148.93517899 16.09801537 148.93688965 17.97814941 C148.94185455 19.26763489 148.94681946 20.55712036 148.95193481 21.88568115 C148.96506744 25.42917334 148.97150558 28.97264657 148.97594547 32.5161593 C148.97887514 34.72968505 148.98297978 36.9432056 148.98744965 39.15672874 C149.00112758 46.08134764 149.01079247 53.00595469 149.01465154 59.93058616 C149.01913152 67.92571221 149.03667529 75.92066722 149.06565213 83.91574126 C149.0872678 90.09415612 149.09735577 96.27252285 149.09869266 102.45097512 C149.09974088 106.14167773 149.10565212 109.83221964 149.12351227 113.52288246 C149.14305219 117.64088949 149.13870446 121.75853868 149.13220215 125.87658691 C149.14141693 127.09911667 149.15063171 128.32164642 149.16012573 129.58122253 C149.151772 131.26582077 149.151772 131.26582077 149.14324951 132.98445129 C149.14471607 133.95803243 149.14618263 134.93161356 149.14769363 135.93469715 C148.70159756 139.15716489 147.72562302 141.03240215 145.77575684 143.62145996 C142.53888557 144.70041705 140.19070441 144.75261528 136.78529358 144.76190186 C135.53324127 144.767612 134.28118896 144.77332214 132.99119568 144.77920532 C131.60110484 144.78045065 130.21101388 144.78157575 128.82092285 144.78259277 C127.35900751 144.78722134 125.89709339 144.79224605 124.43518066 144.79763794 C120.46207641 144.81075818 116.48898905 144.81720588 112.51586652 144.8216486 C110.03449542 144.82457925 107.55312895 144.828684 105.07176018 144.83315277 C97.31046907 144.84682522 89.54918852 144.85649375 81.7878862 144.86035466 C72.8237996 144.86483831 63.85986526 144.88240141 54.89582497 144.91135526 C47.96921683 144.93295311 41.04265159 144.94305789 34.11601013 144.94439578 C29.97767182 144.94544495 25.83947669 144.95137675 21.70117378 144.96921539 C17.80974702 144.98566393 13.91857158 144.9878674 10.0271225 144.97907639 C8.59845495 144.97830434 7.16977407 144.98267077 5.74114037 144.99253464 C3.79186897 145.00520472 1.84249711 144.99760365 -0.10679626 144.98895264 C-1.19798987 144.9904192 -2.28918348 144.99188576 -3.41344357 144.99339676 C-6.60097484 144.57160924 -7.95555636 143.86904477 -10.22424316 141.62145996 C-11.24531064 138.55825754 -11.35973981 136.45379102 -11.37814331 133.24514771 C-11.38674377 132.12916702 -11.39534424 131.01318634 -11.40420532 129.86338806 C-11.40846527 128.63838089 -11.41272522 127.41337372 -11.41711426 126.15124512 C-11.42529175 124.86161362 -11.43346924 123.57198212 -11.44189453 122.24327087 C-11.46808284 117.96570925 -11.48341631 113.68813798 -11.49768066 109.41052246 C-11.50304116 107.93745289 -11.50841867 106.46438338 -11.51381302 104.99131393 C-11.53543469 98.86454682 -11.55417217 92.73778231 -11.56543541 86.61098671 C-11.58168175 77.8317316 -11.61488367 69.05291853 -11.67183626 60.27383006 C-11.71052491 54.09964477 -11.73006663 47.92557779 -11.73535597 41.75127447 C-11.73901022 38.06380603 -11.7510386 34.37680941 -11.78345871 30.6894722 C-11.81910695 26.57620138 -11.81517134 22.46388241 -11.80773926 18.35046387 C-11.82414459 17.12950516 -11.84054993 15.90854645 -11.85745239 14.65058899 C-11.84913391 13.52896866 -11.84081543 12.40734833 -11.83224487 11.2517395 C-11.83721009 9.79331603 -11.83721009 9.79331603 -11.84227562 8.30542946 C-10.378835 1.95005127 -6.08148739 -0.00398384 0 0 Z M4.77575684 16.62145996 C4.77575684 53.58145996 4.77575684 90.54145996 4.77575684 128.62145996 C47.01575684 128.62145996 89.25575684 128.62145996 132.77575684 128.62145996 C132.77575684 91.66145996 132.77575684 54.70145996 132.77575684 16.62145996 C90.53575684 16.62145996 48.29575684 16.62145996 4.77575684 16.62145996 Z "
    fill="#000000" transform="translate(187.2242431640625,199.3785400390625)" />
  <path
    d="M0 0 C147.84 0 295.68 0 448 0 C448 5.28 448 10.56 448 16 C392.70273279 16.06840676 337.40547094 16.121513 282.10816973 16.15319599 C275.58293665 16.1569482 269.05770366 16.16083116 262.5324707 16.16479492 C260.58384882 16.16597532 260.58384882 16.16597532 258.59586085 16.16717956 C237.5487999 16.18024097 216.50176348 16.20389886 195.45471709 16.23145839 C173.86579791 16.25949213 152.2768916 16.27617196 130.68795496 16.28226548 C117.36157258 16.28638614 104.03525953 16.29941078 90.70889849 16.3237494 C81.57614141 16.33958151 72.44342028 16.34440609 63.31065046 16.34050413 C58.03796689 16.33857866 52.76540465 16.34157396 47.49274254 16.35761642 C42.66702548 16.37219209 37.8415116 16.3729675 33.01578528 16.36269668 C31.26869648 16.36142687 29.52159511 16.36525214 27.77453112 16.37464955 C25.40106894 16.38667546 23.02834178 16.38020822 20.65489101 16.36914349 C19.33612231 16.37028265 18.0173536 16.37142181 16.65862221 16.37259549 C11.04375465 15.80077522 7.27400962 14.2186179 3.125 10.25 C1 7 1 7 0 0 Z "
    fill="#676767" transform="translate(40,456)" />
  <path
    d="M0 0 C5.28 0 10.56 0 16 0 C16 5.28 16 10.56 16 16 C29.2 16 42.4 16 56 16 C56 21.28 56 26.56 56 32 C42.8 32 29.6 32 16 32 C16 37.28 16 42.56 16 48 C29.2 48 42.4 48 56 48 C56 53.28 56 58.56 56 64 C42.8 64 29.6 64 16 64 C16 69.28 16 74.56 16 80 C29.2 80 42.4 80 56 80 C56 85.28 56 90.56 56 96 C61.28 96 66.56 96 72 96 C72 90.72 72 85.44 72 80 C85.2 80 98.4 80 112 80 C112 85.28 112 90.56 112 96 C117.28 96 122.56 96 128 96 C128 101.28 128 106.56 128 112 C85.76 112 43.52 112 0 112 C0 75.04 0 38.08 0 0 Z "
    fill="#E2E7F6" transform="translate(192,216)" />
  <path
    d="M0 0 C1.56687561 -0.01395813 1.56687561 -0.01395813 3.16540527 -0.02819824 C4.28322388 -0.01180298 5.40104248 0.00459229 6.55273438 0.02148438 C8.28892029 0.02142395 8.28892029 0.02142395 10.06018066 0.0213623 C12.50453122 0.02671784 14.94888131 0.0443017 17.39306641 0.07324219 C21.13302271 0.11508377 24.8711773 0.11431072 28.61132812 0.10742188 C30.98764271 0.11791492 33.36394803 0.13085363 35.74023438 0.14648438 C36.85805298 0.14668579 37.97587158 0.14688721 39.12756348 0.14709473 C40.69443909 0.17096252 40.69443909 0.17096252 42.29296875 0.1953125 C43.66600159 0.20794128 43.66600159 0.20794128 45.06677246 0.2208252 C48.18706664 0.69788337 50.09531072 1.78450064 52.64648438 3.61523438 C54.21704643 6.75635849 53.80267254 10.11651468 53.80761719 13.56567383 C53.81506454 14.79764496 53.81506454 14.79764496 53.82266235 16.05450439 C53.83730049 18.77918325 53.84408908 21.50380386 53.84960938 24.22851562 C53.85535992 26.11940005 53.86111767 28.01028445 53.86688232 29.90116882 C53.87739733 33.86990633 53.88323657 37.83862356 53.88671875 41.80737305 C53.89220139 46.89180954 53.91622239 51.97597795 53.9446907 57.06033039 C53.96331971 60.96797975 53.96852285 64.87556461 53.97005463 68.78325462 C53.97308161 70.65753837 53.98111169 72.53182096 53.99423981 74.40606117 C54.01130413 77.02978482 54.00941907 79.65285462 54.00292969 82.27661133 C54.01214447 83.05030563 54.02135925 83.82399994 54.03085327 84.62113953 C53.99610245 89.1087715 53.51709576 92.09625496 50.64648438 95.61523438 C47.6528142 96.61312443 45.63260429 96.75321938 42.50415039 96.77636719 C40.93220665 96.7907785 40.93220665 96.7907785 39.32850647 96.80548096 C38.19722824 96.80973083 37.06595001 96.81398071 35.90039062 96.81835938 C34.73773178 96.82405945 33.57507294 96.82975952 32.37718201 96.83563232 C29.91674714 96.84508288 27.45629961 96.85161652 24.99584961 96.85546875 C21.22747841 96.86518668 17.4596497 96.89621538 13.69140625 96.92773438 C11.30273762 96.93426317 8.91406508 96.93951413 6.52539062 96.94335938 C5.39613663 96.95570618 4.26688263 96.96805298 3.10340881 96.98077393 C2.05229416 96.97777283 1.0011795 96.97477173 -0.08178711 96.97167969 C-1.46719948 96.97714813 -1.46719948 96.97714813 -2.88059998 96.98272705 C-5.85244278 96.54109029 -7.19993397 95.68456894 -9.35351562 93.61523438 C-10.59329621 89.89589263 -10.52511695 86.42666602 -10.54638672 82.55126953 C-10.55456421 81.72980942 -10.5627417 80.9083493 -10.57116699 80.06199646 C-10.59598621 77.34277066 -10.61252624 74.62359686 -10.62695312 71.90429688 C-10.6322768 70.97552105 -10.63760048 70.04674522 -10.64308548 69.08982468 C-10.66979929 64.17577693 -10.68918166 59.26175446 -10.70361328 54.34765625 C-10.71696599 50.27939436 -10.74484544 46.21163245 -10.78564453 42.14355469 C-10.83490559 37.23172237 -10.85972594 32.32034442 -10.86684036 27.4082756 C-10.87356021 25.53674739 -10.88880134 23.6652296 -10.91273117 21.79384232 C-10.94431771 19.17468489 -10.94442997 16.55728581 -10.93701172 13.93798828 C-10.95341705 13.16586502 -10.96982239 12.39374176 -10.98672485 11.59822083 C-10.94163629 7.70785816 -10.48518363 5.79353576 -8.15164185 2.6335144 C-5.07231533 0.41240545 -3.73974157 -0.00839356 0 0 Z "
    fill="#000000" transform="translate(394.353515625,327.384765625)" />
  <path
    d="M0 0 C1.56687561 -0.01395813 1.56687561 -0.01395813 3.16540527 -0.02819824 C4.28322388 -0.01180298 5.40104248 0.00459229 6.55273438 0.02148438 C8.28892029 0.02142395 8.28892029 0.02142395 10.06018066 0.0213623 C12.50453122 0.02671784 14.94888131 0.0443017 17.39306641 0.07324219 C21.13302271 0.11508377 24.8711773 0.11431072 28.61132812 0.10742188 C30.98764271 0.11791492 33.36394803 0.13085363 35.74023438 0.14648438 C36.85805298 0.14668579 37.97587158 0.14688721 39.12756348 0.14709473 C40.69443909 0.17096252 40.69443909 0.17096252 42.29296875 0.1953125 C43.66600159 0.20794128 43.66600159 0.20794128 45.06677246 0.2208252 C48.18706664 0.69788337 50.09531072 1.78450064 52.64648438 3.61523438 C54.21704643 6.75635849 53.80267254 10.11651468 53.80761719 13.56567383 C53.81506454 14.79764496 53.81506454 14.79764496 53.82266235 16.05450439 C53.83730049 18.77918325 53.84408908 21.50380386 53.84960938 24.22851562 C53.85535992 26.11940005 53.86111767 28.01028445 53.86688232 29.90116882 C53.87739733 33.86990633 53.88323657 37.83862356 53.88671875 41.80737305 C53.89220139 46.89180954 53.91622239 51.97597795 53.9446907 57.06033039 C53.96331971 60.96797975 53.96852285 64.87556461 53.97005463 68.78325462 C53.97308161 70.65753837 53.98111169 72.53182096 53.99423981 74.40606117 C54.01130413 77.02978482 54.00941907 79.65285462 54.00292969 82.27661133 C54.01214447 83.05030563 54.02135925 83.82399994 54.03085327 84.62113953 C53.99610245 89.1087715 53.51709576 92.09625496 50.64648438 95.61523438 C47.6528142 96.61312443 45.63260429 96.75321938 42.50415039 96.77636719 C40.93220665 96.7907785 40.93220665 96.7907785 39.32850647 96.80548096 C38.19722824 96.80973083 37.06595001 96.81398071 35.90039062 96.81835938 C34.73773178 96.82405945 33.57507294 96.82975952 32.37718201 96.83563232 C29.91674714 96.84508288 27.45629961 96.85161652 24.99584961 96.85546875 C21.22747841 96.86518668 17.4596497 96.89621538 13.69140625 96.92773438 C11.30273762 96.93426317 8.91406508 96.93951413 6.52539062 96.94335938 C5.39613663 96.95570618 4.26688263 96.96805298 3.10340881 96.98077393 C2.05229416 96.97777283 1.0011795 96.97477173 -0.08178711 96.97167969 C-1.46719948 96.97714813 -1.46719948 96.97714813 -2.88059998 96.98272705 C-5.85244278 96.54109029 -7.19993397 95.68456894 -9.35351562 93.61523438 C-10.59329621 89.89589263 -10.52511695 86.42666602 -10.54638672 82.55126953 C-10.55456421 81.72980942 -10.5627417 80.9083493 -10.57116699 80.06199646 C-10.59598621 77.34277066 -10.61252624 74.62359686 -10.62695312 71.90429688 C-10.6322768 70.97552105 -10.63760048 70.04674522 -10.64308548 69.08982468 C-10.66979929 64.17577693 -10.68918166 59.26175446 -10.70361328 54.34765625 C-10.71696599 50.27939436 -10.74484544 46.21163245 -10.78564453 42.14355469 C-10.83490559 37.23172237 -10.85972594 32.32034442 -10.86684036 27.4082756 C-10.87356021 25.53674739 -10.88880134 23.6652296 -10.91273117 21.79384232 C-10.94431771 19.17468489 -10.94442997 16.55728581 -10.93701172 13.93798828 C-10.95341705 13.16586502 -10.96982239 12.39374176 -10.98672485 11.59822083 C-10.94163629 7.70785816 -10.48518363 5.79353576 -8.15164185 2.6335144 C-5.07231533 0.41240545 -3.73974157 -0.00839356 0 0 Z "
    fill="#000000" transform="translate(74.353515625,327.384765625)" />
  <path
    d="M0 0 C23.76 0 47.52 0 72 0 C72 60.72 72 121.44 72 184 C11 184 11 184 5 180 C3.125 177.75 3.125 177.75 2 176 C2.59246521 175.99191315 3.18493042 175.98382629 3.79534912 175.97549438 C9.9598137 175.8894604 16.1239563 175.78995716 22.28808594 175.68261719 C24.5888122 175.64432583 26.88959835 175.60947326 29.19042969 175.578125 C32.49696262 175.5324783 35.80308312 175.47448253 39.109375 175.4140625 C40.13867126 175.40251129 41.16796753 175.39096008 42.22845459 175.37905884 C43.66949554 175.3492543 43.66949554 175.3492543 45.13964844 175.31884766 C46.40539703 175.29886215 46.40539703 175.29886215 47.69671631 175.2784729 C50.24757145 174.97006798 51.86076854 174.42017797 54 173 C55.24467587 169.2659724 55.14752537 165.79358076 55.14526367 161.90429688 C55.14862228 161.07962418 55.1519809 160.25495148 55.15544128 159.4052887 C55.16494857 156.67642719 55.16689414 153.94762704 55.16796875 151.21875 C55.17118097 149.32450332 55.17454501 147.43025689 55.17805481 145.53601074 C55.18404515 141.56485417 55.18589475 137.59371936 55.18530273 133.62255859 C55.185201 128.52792474 55.19886544 123.43342991 55.21607494 118.33882904 C55.22717827 114.42697505 55.22922247 110.51515488 55.22869301 106.60328674 C55.22987517 104.72456889 55.23431014 102.84585021 55.24202538 100.96714783 C55.2517937 98.34323293 55.24896002 95.71962264 55.24291992 93.09570312 C55.24853943 92.31638931 55.25415894 91.5370755 55.25994873 90.73414612 C55.23772671 86.94618462 55.15448126 85.23172189 53 82 C50.08274166 81.02758055 48.11196561 80.84832181 45.06958008 80.79467773 C43.56836357 80.7647599 43.56836357 80.7647599 42.03681946 80.73423767 C40.95861435 80.71752518 39.88040924 80.70081268 38.76953125 80.68359375 C37.11119514 80.6524221 37.11119514 80.6524221 35.4193573 80.62062073 C31.8838021 80.55517668 28.34817194 80.49626397 24.8125 80.4375 C22.41730992 80.3943099 20.02212745 80.35069546 17.62695312 80.30664062 C11.75137912 80.19950048 5.87572964 80.09821832 0 80 C0 74.72 0 69.44 0 64 C18.48 64 36.96 64 56 64 C56 58.72 56 53.44 56 48 C37.52 48 19.04 48 0 48 C0 42.72 0 37.44 0 32 C18.48 32 36.96 32 56 32 C56 26.72 56 21.44 56 16 C37.52 16 19.04 16 0 16 C0 10.72 0 5.44 0 0 Z "
    fill="#E1E6F5" transform="translate(392,248)" />
  <path
    d="M0 0 C23.76 0 47.52 0 72 0 C72 60.72 72 121.44 72 184 C11 184 11 184 5 180 C3.125 177.75 3.125 177.75 2 176 C2.59246521 175.99191315 3.18493042 175.98382629 3.79534912 175.97549438 C9.9598137 175.8894604 16.1239563 175.78995716 22.28808594 175.68261719 C24.5888122 175.64432583 26.88959835 175.60947326 29.19042969 175.578125 C32.49696262 175.5324783 35.80308312 175.47448253 39.109375 175.4140625 C40.13867126 175.40251129 41.16796753 175.39096008 42.22845459 175.37905884 C43.66949554 175.3492543 43.66949554 175.3492543 45.13964844 175.31884766 C46.40539703 175.29886215 46.40539703 175.29886215 47.69671631 175.2784729 C50.24757145 174.97006798 51.86076854 174.42017797 54 173 C55.24467587 169.2659724 55.14752537 165.79358076 55.14526367 161.90429688 C55.14862228 161.07962418 55.1519809 160.25495148 55.15544128 159.4052887 C55.16494857 156.67642719 55.16689414 153.94762704 55.16796875 151.21875 C55.17118097 149.32450332 55.17454501 147.43025689 55.17805481 145.53601074 C55.18404515 141.56485417 55.18589475 137.59371936 55.18530273 133.62255859 C55.185201 128.52792474 55.19886544 123.43342991 55.21607494 118.33882904 C55.22717827 114.42697505 55.22922247 110.51515488 55.22869301 106.60328674 C55.22987517 104.72456889 55.23431014 102.84585021 55.24202538 100.96714783 C55.2517937 98.34323293 55.24896002 95.71962264 55.24291992 93.09570312 C55.24853943 92.31638931 55.25415894 91.5370755 55.25994873 90.73414612 C55.23772671 86.94618462 55.15448126 85.23172189 53 82 C50.08274166 81.02758055 48.11196561 80.84832181 45.06958008 80.79467773 C43.56836357 80.7647599 43.56836357 80.7647599 42.03681946 80.73423767 C40.95861435 80.71752518 39.88040924 80.70081268 38.76953125 80.68359375 C37.11119514 80.6524221 37.11119514 80.6524221 35.4193573 80.62062073 C31.8838021 80.55517668 28.34817194 80.49626397 24.8125 80.4375 C22.41730992 80.3943099 20.02212745 80.35069546 17.62695312 80.30664062 C11.75137912 80.19950048 5.87572964 80.09821832 0 80 C0 74.72 0 69.44 0 64 C18.48 64 36.96 64 56 64 C56 58.72 56 53.44 56 48 C37.52 48 19.04 48 0 48 C0 42.72 0 37.44 0 32 C18.48 32 36.96 32 56 32 C56 26.72 56 21.44 56 16 C37.52 16 19.04 16 0 16 C0 10.72 0 5.44 0 0 Z "
    fill="#E1E6F5" transform="translate(72,248)" />
  <path
    d="M0 0 C7.92 0 15.84 0 24 0 C24 15.84 24 31.68 24 48 C22.02 48.99 20.04 49.98 18 51 C16.71679815 53.56640371 16.87123436 55.38825914 16.86628723 58.26278687 C16.86202225 59.37883804 16.85775726 60.49488922 16.85336304 61.64476013 C16.85404282 63.49002037 16.85404282 63.49002037 16.85473633 65.37255859 C16.85137772 66.66365036 16.8480191 67.95474213 16.84455872 69.28495789 C16.83570827 72.83252027 16.83338015 76.38005855 16.83274293 79.9276309 C16.83179445 82.88738277 16.8281168 85.84712899 16.82457083 88.80687869 C16.81642208 95.78954962 16.81398696 102.77220767 16.81469727 109.75488281 C16.81529798 116.96099655 16.80474846 124.16703541 16.7889536 131.3731302 C16.77588247 137.55662494 16.7705132 143.7400952 16.77115268 149.92360365 C16.77140782 153.6181467 16.76854787 157.31262325 16.75797462 161.00715256 C16.74650468 165.12770463 16.75103784 169.24808876 16.75708008 173.36865234 C16.74865082 175.20783989 16.74865082 175.20783989 16.74005127 177.08418274 C16.74424576 178.20587357 16.74844025 179.32756439 16.75276184 180.48324585 C16.75194469 181.94500024 16.75194469 181.94500024 16.75111103 183.43628502 C17.01332849 186.13729196 17.5059061 187.74531448 19 190 C21.53770003 191.28254644 21.53770003 191.28254644 24 192 C24.00364563 192.9513382 24.00729126 193.90267639 24.01104736 194.88284302 C24.04802417 203.85802531 24.10582608 212.83286535 24.18390274 221.80778694 C24.22337473 226.4216769 24.25556453 231.0353761 24.27099609 235.64941406 C24.28616459 240.10410277 24.32061332 244.55826699 24.36830902 249.01272202 C24.38312087 250.71027945 24.39104091 252.40791176 24.39188385 254.1055336 C24.39425594 256.48775075 24.42135257 258.8685213 24.45410156 261.25048828 C24.4490712 261.94892349 24.44404083 262.6473587 24.43885803 263.36695862 C24.5443469 268.34188691 25.89734082 271.16015422 29 275 C32.58570594 277.82278978 35.44874062 279.46455772 40 280 C40 282.64 40 285.28 40 288 C26.8 288 13.6 288 0 288 C0 192.96 0 97.92 0 0 Z "
    fill="#4EB4DB" transform="translate(160,152)" />
  <path
    d="M0 0 C26.4 0 52.8 0 80 0 C80 21.12 80 42.24 80 64 C53.6 64 27.2 64 0 64 C0 42.88 0 21.76 0 0 Z "
    fill="#F1F1F2" transform="translate(216,376)" />
  <path
    d="M0 0 C10.56 0 21.12 0 32 0 C32 21.12 32 42.24 32 64 C21.44 64 10.88 64 0 64 C0 42.88 0 21.76 0 0 Z "
    fill="#5DD2F1" transform="translate(400,344)" />
  <path
    d="M0 0 C10.56 0 21.12 0 32 0 C32 21.12 32 42.24 32 64 C21.44 64 10.88 64 0 64 C0 42.88 0 21.76 0 0 Z "
    fill="#5DD2F1" transform="translate(80,344)" />
  <path
    d="M0 0 C39.6 0 79.2 0 120 0 C120 5.28 120 10.56 120 16 C80.4 16 40.8 16 0 16 C0 10.72 0 5.44 0 0 Z "
    fill="#2862BE" transform="translate(368,216)" />
  <path
    d="M0 0 C39.6 0 79.2 0 120 0 C120 5.28 120 10.56 120 16 C80.4 16 40.8 16 0 16 C0 10.72 0 5.44 0 0 Z "
    fill="#2862BE" transform="translate(24,216)" />
  <path
    d="M0 0 C2.64 0 5.28 0 8 0 C8.0093457 1.03817871 8.01869141 2.07635742 8.02832031 3.14599609 C8.06855104 7.04159598 8.13439671 10.93643326 8.20751953 14.83154297 C8.23553914 16.50917679 8.25684709 18.18693796 8.27099609 19.86474609 C8.29284561 35.05554136 8.29284561 35.05554136 14.89453125 48.4375 C15.52746094 48.953125 16.16039062 49.46875 16.8125 50 C17.43769531 50.53625 18.06289062 51.0725 18.70703125 51.625 C25.35720571 55.61283886 32.53042507 55.33510231 40.05859375 55.4140625 C41.77502831 55.44311172 41.77502831 55.44311172 43.52613831 55.4727478 C47.16318422 55.5322908 50.80026221 55.57882812 54.4375 55.625 C56.91082072 55.663203 59.38412846 55.70225608 61.85742188 55.7421875 C67.90483233 55.83797156 73.95232161 55.9230925 80 56 C80 58.64 80 61.28 80 64 C53.6 64 27.2 64 0 64 C0 42.88 0 21.76 0 0 Z "
    fill="#E2E7F5" transform="translate(216,376)" />
  <path
    d="M0 0 C21.12 0 42.24 0 64 0 C64 5.28 64 10.56 64 16 C42.88 16 21.76 16 0 16 C0 10.72 0 5.44 0 0 Z "
    fill="#000000" transform="translate(384,296)" />
  <path
    d="M0 0 C21.12 0 42.24 0 64 0 C64 5.28 64 10.56 64 16 C42.88 16 21.76 16 0 16 C0 10.72 0 5.44 0 0 Z "
    fill="#000000" transform="translate(64,296)" />
  <path
    d="M0 0 C21.12 0 42.24 0 64 0 C64 5.28 64 10.56 64 16 C42.88 16 21.76 16 0 16 C0 10.72 0 5.44 0 0 Z "
    fill="#000000" transform="translate(384,264)" />
  <path
    d="M0 0 C21.12 0 42.24 0 64 0 C64 5.28 64 10.56 64 16 C42.88 16 21.76 16 0 16 C0 10.72 0 5.44 0 0 Z "
    fill="#000000" transform="translate(64,264)" />
  <path
    d="M0 0 C-1.31711976 2.84647683 -2.81259443 5.09378117 -4.8125 7.5 C-12.86036343 17.99378271 -15.16853395 30.09199832 -14 43 C-11.48230865 55.97690054 -5.6327805 65.05600113 4.12109375 73.7734375 C13.66683726 83.68324191 17.21099203 97.40102869 21.375 110.125 C22.31367187 112.94919471 23.25603388 115.77213775 24.19888306 118.59494019 C24.77982704 120.33889137 25.35756724 122.08391385 25.93173218 123.83010864 C26.18935333 124.61207611 26.44697449 125.39404358 26.71240234 126.19970703 C26.93777679 126.88743195 27.16315125 127.57515686 27.39535522 128.28372192 C27.98820397 130.08024176 27.98820397 130.08024176 29 132 C28.44140625 133.9453125 28.44140625 133.9453125 27.5625 136.125 C27.13130859 137.21167969 27.13130859 137.21167969 26.69140625 138.3203125 C26.46324219 138.87460938 26.23507813 139.42890625 26 140 C24.1257019 139.80599976 24.1257019 139.80599976 22 139 C20.87600708 136.90371704 20.87600708 136.90371704 19.98876953 134.10400391 C19.64806427 133.05846344 19.30735901 132.01292297 18.95632935 130.93569946 C18.60206879 129.79418427 18.24780823 128.65266907 17.8828125 127.4765625 C17.50317352 126.30547943 17.12353455 125.13439636 16.73239136 123.92782593 C15.7204516 120.80211992 14.72173193 117.6726292 13.73095703 114.54016113 C12.34684288 110.16559086 10.95093326 105.79497011 9.53903198 101.42929077 C8.78875399 99.10768071 8.04895386 96.78264842 7.32156372 94.45376587 C3.9456271 83.97540019 -0.1934303 74.88061958 -8.5 67.5 C-16.77876822 59.68383094 -22.25696808 50.99191308 -23.3359375 39.38671875 C-23.46372166 27.2855586 -20.6693139 18.4337802 -13 9 C-3.94847328 0 -3.94847328 0 0 0 Z "
    fill="#DDE2F0" transform="translate(199,28)" />
  <path
    d="M0 0 C34.32 0 68.64 0 104 0 C104 2.64 104 5.28 104 8 C91.16112074 8.06945809 78.32228605 8.12279004 65.48325729 8.15543652 C59.52181113 8.17110383 53.56049336 8.19236176 47.59912109 8.22631836 C41.84791041 8.25887349 36.09682335 8.27684499 30.34552765 8.28463173 C28.14943749 8.29018213 25.95335423 8.30102048 23.75731659 8.31719017 C20.68539212 8.33891304 17.6139809 8.34196904 14.54199219 8.34057617 C13.17497917 8.35675491 13.17497917 8.35675491 11.78034973 8.3732605 C8.24508338 8.355873 5.68366923 8.32614472 2.46612549 6.79121399 C1 5 1 5 0 0 Z "
    fill="#3178E9" transform="translate(384,216)" />
  <path
    d="M0 0 C34.32 0 68.64 0 104 0 C104 2.64 104 5.28 104 8 C91.16112074 8.06945809 78.32228605 8.12279004 65.48325729 8.15543652 C59.52181113 8.17110383 53.56049336 8.19236176 47.59912109 8.22631836 C41.84791041 8.25887349 36.09682335 8.27684499 30.34552765 8.28463173 C28.14943749 8.29018213 25.95335423 8.30102048 23.75731659 8.31719017 C20.68539212 8.33891304 17.6139809 8.34196904 14.54199219 8.34057617 C13.17497917 8.35675491 13.17497917 8.35675491 11.78034973 8.3732605 C8.24508338 8.355873 5.68366923 8.32614472 2.46612549 6.79121399 C1 5 1 5 0 0 Z "
    fill="#3178E9" transform="translate(40,216)" />
  <path
    d="M0 0 C2.64 0 5.28 0 8 0 C8.01458252 1.26593994 8.02916504 2.53187988 8.04418945 3.83618164 C8.10236122 8.55342204 8.17959293 13.27019451 8.26245117 17.98706055 C8.29561184 20.02474345 8.32367112 22.06251624 8.34643555 24.1003418 C8.38014462 27.03733463 8.43246874 29.97351023 8.48828125 32.91015625 C8.49467117 33.81459976 8.5010611 34.71904327 8.50764465 35.65089417 C8.65954264 42.25322071 9.53666088 47.35727028 14.19921875 52.359375 C17.6660112 54.39013208 20.8861631 54.88930302 24.8125 55.25 C25.50537109 55.32734375 26.19824219 55.4046875 26.91210938 55.484375 C28.60647581 55.67133957 30.3030858 55.83777927 32 56 C32 58.64 32 61.28 32 64 C21.44 64 10.88 64 0 64 C0 42.88 0 21.76 0 0 Z "
    fill="#4FB5DC" transform="translate(400,344)" />
  <path
    d="M0 0 C2.64 0 5.28 0 8 0 C8.01458252 1.26593994 8.02916504 2.53187988 8.04418945 3.83618164 C8.10236122 8.55342204 8.17959293 13.27019451 8.26245117 17.98706055 C8.29561184 20.02474345 8.32367112 22.06251624 8.34643555 24.1003418 C8.38014462 27.03733463 8.43246874 29.97351023 8.48828125 32.91015625 C8.49467117 33.81459976 8.5010611 34.71904327 8.50764465 35.65089417 C8.65954264 42.25322071 9.53666088 47.35727028 14.19921875 52.359375 C17.6660112 54.39013208 20.8861631 54.88930302 24.8125 55.25 C25.50537109 55.32734375 26.19824219 55.4046875 26.91210938 55.484375 C28.60647581 55.67133957 30.3030858 55.83777927 32 56 C32 58.64 32 61.28 32 64 C21.44 64 10.88 64 0 64 C0 42.88 0 21.76 0 0 Z "
    fill="#4FB5DC" transform="translate(80,344)" />
  <path
    d="M0 0 C13.2 0 26.4 0 40 0 C40 5.28 40 10.56 40 16 C26.8 16 13.6 16 0 16 C0 10.72 0 5.44 0 0 Z "
    fill="#000000" transform="translate(264,296)" />
  <path
    d="M0 0 C13.2 0 26.4 0 40 0 C40 5.28 40 10.56 40 16 C26.8 16 13.6 16 0 16 C0 10.72 0 5.44 0 0 Z "
    fill="#000000" transform="translate(208,296)" />
  <path
    d="M0 0 C13.2 0 26.4 0 40 0 C40 5.28 40 10.56 40 16 C26.8 16 13.6 16 0 16 C0 10.72 0 5.44 0 0 Z "
    fill="#000000" transform="translate(264,264)" />
  <path
    d="M0 0 C13.2 0 26.4 0 40 0 C40 5.28 40 10.56 40 16 C26.8 16 13.6 16 0 16 C0 10.72 0 5.44 0 0 Z "
    fill="#000000" transform="translate(208,264)" />
  <path
    d="M0 0 C13.2 0 26.4 0 40 0 C40 5.28 40 10.56 40 16 C26.8 16 13.6 16 0 16 C0 10.72 0 5.44 0 0 Z "
    fill="#000000" transform="translate(264,232)" />
  <path
    d="M0 0 C13.2 0 26.4 0 40 0 C40 5.28 40 10.56 40 16 C26.8 16 13.6 16 0 16 C0 10.72 0 5.44 0 0 Z "
    fill="#000000" transform="translate(208,232)" />
  <path d="M0 0 C13.2 0 26.4 0 40 0 C40 2.64 40 5.28 40 8 C26.8 8 13.6 8 0 8 C0 5.36 0 2.72 0 0 Z "
    fill="#4FB5DC" transform="translate(312,432)" />
</svg>