<?xml version="1.0" encoding="UTF-8"?>
<svg version="1.1" xmlns="http://www.w3.org/2000/svg" width="512" height="512">
<path d="M0 0 C1.28759216 0.00273422 1.28759216 0.00273422 2.60119629 0.00552368 C15.55651006 0.05180774 28.18134325 0.49599962 40.875 3.3125 C41.64505371 3.47878906 42.41510742 3.64507813 43.20849609 3.81640625 C95.33233946 15.43534347 141.09049029 47.15308421 169.98828125 92.08203125 C194.96406976 131.99908094 208.63962645 183.10833049 198.265625 229.91015625 C194.21265871 246.34281732 188.20125206 262.08213194 180.875 277.3125 C180.50149414 278.10043945 180.12798828 278.88837891 179.74316406 279.70019531 C159.75575527 321.68873186 131.1890069 360.92998417 99.81640625 395.19140625 C97.97171329 397.20683538 96.16743431 399.25058809 94.375 401.3125 C93.20908906 402.64649421 92.04238673 403.97979707 90.875 405.3125 C90.21113281 406.07046875 89.54726563 406.8284375 88.86328125 407.609375 C84.10364658 412.97571355 79.16823015 418.10637036 74.03637695 423.11425781 C71.07182876 426.02683113 68.46390339 429.06824659 65.875 432.3125 C64.71883525 433.38884045 63.5309508 434.4322123 62.3125 435.4375 C58.87893476 438.36238891 55.71558729 441.46234214 52.5625 444.6875 C48.19705009 449.12461359 43.61386582 453.13516093 38.73828125 457.00390625 C36.7285349 458.62431565 34.78398126 460.2543745 32.85546875 461.96484375 C10.19916191 481.9635813 10.19916191 481.9635813 -0.92578125 481.70703125 C-10.7202486 479.94994208 -19.06095084 472.69418713 -26.57861328 466.57080078 C-28.02009532 465.39786134 -29.47631607 464.24309966 -30.93359375 463.08984375 C-37.73576369 457.6500823 -44.11112138 451.81013478 -50.46337891 445.86083984 C-52.10571904 444.33046648 -53.75935883 442.81349264 -55.41796875 441.30078125 C-64.70959209 432.81899099 -73.93583267 424.2225498 -82.09375 414.625 C-84.38547407 412.01596029 -86.75853747 409.49517906 -89.14160156 406.96972656 C-94.61294916 401.17061563 -99.90001575 395.32295819 -104.875 389.0859375 C-106.49090415 387.0941112 -108.12157191 385.1520771 -109.8125 383.2265625 C-118.49280984 373.34036882 -126.34043974 362.9125762 -134.125 352.3125 C-134.69395996 351.54357422 -135.26291992 350.77464844 -135.84912109 349.98242188 C-148.71336524 332.58830145 -160.32826813 314.57741583 -170.82177734 295.65625 C-171.96749123 293.59576793 -173.13081496 291.54675472 -174.30078125 289.5 C-199.56593989 244.58761111 -207.17506491 195.28638803 -193.375 145.5 C-183.2534688 111.30834372 -165.40117433 83.15487912 -141.125 57.3125 C-140.54363281 56.67699219 -139.96226562 56.04148438 -139.36328125 55.38671875 C-112.66834066 27.21246156 -71.92099226 8.60059661 -34.125 2.3125 C-33.0721582 2.13662354 -32.01931641 1.96074707 -30.93457031 1.77954102 C-20.59356032 0.22034743 -10.43992811 -0.0460548 0 0 Z " fill="#143CF6" transform="translate(256.125,15.6875)"/>
<path d="M0 0 C3.00682806 1.97759596 5.86413945 4.04543458 8.6953125 6.265625 C10.74474124 7.80790696 12.67048559 8.94796123 15 10 C15.55945313 9.50371094 16.11890625 9.00742188 16.6953125 8.49609375 C31.22152863 -3.81148808 46.99727119 -9.34747012 65.890625 -8.21142578 C70.96353323 -7.70296067 75.39294395 -6.10192801 80 -4 C81.36318359 -3.41605469 81.36318359 -3.41605469 82.75390625 -2.8203125 C98.97451195 4.97849934 109.13188683 20.55406621 115.0390625 37.06640625 C124.47545431 65.8742528 119.40046803 98.31661227 106.15966797 125.00415039 C101.93479688 133.1345339 96.48595956 142.54580348 89.296875 148.3828125 C87.14991527 151.06004541 87.03413609 154.31947832 86.5625 157.625 C86.31355731 159.1698653 86.06084559 160.7141272 85.8046875 162.2578125 C85.67416992 163.04704102 85.54365234 163.83626953 85.40917969 164.64941406 C82.18714383 183.15881812 76.98654457 208.23897382 61 220 C56.34005623 222.54961803 51.61609141 222.36711182 46.4375 222.375 C45.58736328 222.39949219 44.73722656 222.42398438 43.86132812 222.44921875 C40.08854131 222.46697304 37.73340562 222.47089937 34.51171875 220.40234375 C32.58598897 217.3420755 32.00464232 214.74915143 31.375 211.1875 C31.25511719 210.53168945 31.13523437 209.87587891 31.01171875 209.20019531 C30.19013183 204.56883034 29.58281924 199.91733115 29 195.25 C27.93527254 186.77654396 25.69456647 179.0836994 23 171 C17.06 171 11.12 171 5 171 C4.01 173.97 4.01 173.97 3 177 C2.7429126 177.67772461 2.4858252 178.35544922 2.22094727 179.05371094 C-0.33702651 185.94116637 -1.14395857 192.99238871 -2.0625 200.25 C-2.38081251 202.73513864 -2.70480991 205.21955736 -3.03515625 207.703125 C-3.1731665 208.79270508 -3.31117676 209.88228516 -3.45336914 211.00488281 C-4.14006513 214.7674493 -5.02134039 217.86485421 -7.5390625 220.78515625 C-11.39532607 222.68880382 -15.13359509 222.47306056 -19.375 222.4375 C-20.21289062 222.45748047 -21.05078125 222.47746094 -21.9140625 222.49804688 C-28.48217134 222.49288327 -31.90902166 220.72315837 -36.87109375 216.3515625 C-49.41465204 202.52549575 -55.3499245 180.94876372 -57.53125 162.765625 C-58.65756344 153.95205252 -59.96618419 148.80711552 -66.59765625 142.43359375 C-84.72270029 124.07277678 -91.08136957 94.03312046 -91.25 69.375 C-91.25942627 68.33802979 -91.26885254 67.30105957 -91.27856445 66.23266602 C-91.19418417 46.11990812 -85.46732606 26.26481311 -72 11 C-71.32066406 10.2265625 -70.64132813 9.453125 -69.94140625 8.65625 C-51.09234899 -11.50316953 -23.48001537 -12.19257034 0 0 Z " fill="#FEFEFE" transform="translate(242,117)"/>
<path d="M0 0 C4.43823748 8.87647496 -3.47438699 28.3594195 -6.3984375 37.35546875 C-10.76001878 50.21079448 -15.72083313 61.79696955 -27 70 C-31.15623947 71.38541316 -35.08332459 71.26372283 -39.4375 71.3125 C-40.72624023 71.35600586 -40.72624023 71.35600586 -42.04101562 71.40039062 C-48.2744578 71.46325699 -48.2744578 71.46325699 -51.49609375 69.40625 C-53.41022238 66.34364419 -53.99604713 63.7452515 -54.625 60.1875 C-54.74488281 59.53168945 -54.86476563 58.87587891 -54.98828125 58.20019531 C-55.80986817 53.56883034 -56.41718076 48.91733115 -57 44.25 C-58.06114387 35.80506334 -60.29166682 28.0432826 -63 20 C-61.71609375 19.78085937 -60.4321875 19.56171875 -59.109375 19.3359375 C-38.09663609 15.62497674 -19.10611875 9.55305937 0 0 Z " fill="#A7CFFE" transform="translate(328,268)"/>
<path d="M0 0 C3.11475368 1.18059212 6.1224979 2.51655981 9.125 3.953125 C24.86075614 11.41787714 40.77402592 16.89071127 58.1640625 18.67578125 C61 19 61 19 64 20 C62 26 62 26 61.30029297 27.81567383 C58.71923462 34.79568723 57.86813871 41.89680522 56.9375 49.25 C56.61918749 51.73513864 56.29519009 54.21955736 55.96484375 56.703125 C55.8268335 57.79270508 55.68882324 58.88228516 55.54663086 60.00488281 C54.85993487 63.7674493 53.97865961 66.86485421 51.4609375 69.78515625 C47.60467393 71.68880382 43.86640491 71.47306056 39.625 71.4375 C38.78710938 71.45748047 37.94921875 71.47746094 37.0859375 71.49804688 C30.51782866 71.49288327 27.09097834 69.72315837 22.12890625 65.3515625 C6.58187609 48.21493574 2.41682997 22.1495358 0 0 Z " fill="#A7CFFE" transform="translate(183,268)"/>
<path d="M0 0 C4.72701975 0.53818062 8.165982 2.69639647 12.0625 5.25 C12.67416016 5.63285156 13.28582031 6.01570313 13.91601562 6.41015625 C17.68326414 8.84563151 20.36438765 11.29305395 23 15 C15.75222816 23.89417926 6.66816935 32.60597634 -5 35 C-14.73117042 35.95298359 -14.73117042 35.95298359 -17.8203125 33.6328125 C-19 32 -19 32 -19.0625 29.5 C-18 27 -18 27 -15.375 25.75 C-8.11869206 21.98746996 -4.51493611 14.77887348 -1.7265625 7.359375 C-0.97637933 4.9232963 -0.45338531 2.50695409 0 0 Z " fill="#A9D0FE" transform="translate(233,114)"/>
</svg>
