<?xml version="1.0" encoding="UTF-8"?>
<svg version="1.1" xmlns="http://www.w3.org/2000/svg" width="512" height="512">
<path d="M0 0 C1.37853987 -0.00807831 1.37853987 -0.00807831 2.78492904 -0.01631981 C5.83558012 -0.03052037 8.88579244 -0.02351541 11.9364624 -0.01637268 C14.13507432 -0.02208016 16.33368328 -0.02904588 18.5322876 -0.03717041 C24.48236471 -0.05506926 30.4322941 -0.05394027 36.38239002 -0.04822803 C41.35299352 -0.04513329 46.32356876 -0.05123138 51.29416823 -0.05726677 C63.6861168 -0.07209907 76.07799313 -0.06850732 88.46994039 -0.05640347 C99.22561735 -0.04645912 109.98112257 -0.05943687 120.73677304 -0.08333766 C131.79543927 -0.10772591 142.85402158 -0.11693818 153.91271377 -0.11068493 C160.1156328 -0.10731211 166.31840971 -0.10975296 172.5213089 -0.12693596 C178.3490826 -0.14237688 184.17652715 -0.13848106 190.00428772 -0.11963081 C192.14325141 -0.11593792 194.28223934 -0.11907368 196.42118073 -0.1295166 C199.33976257 -0.14267912 202.2572469 -0.13122101 205.17578125 -0.11352539 C206.02305542 -0.1231304 206.87032959 -0.1327354 207.74327874 -0.14263147 C213.08483608 -0.07593987 216.07756601 0.87671329 220.33392334 4.38768005 C223.96225997 8.20698177 224.64392792 11.27047011 224.83392334 16.38768005 C224.64392792 21.50488999 223.96225997 24.56837833 220.33392334 28.38768005 C215.31013335 32.49481808 211.76313155 32.96180231 205.5486908 32.88647461 C204.67603413 32.89185916 203.80337747 32.89724372 202.90427667 32.90279144 C199.98625093 32.91604366 197.06906921 32.9009265 194.15106201 32.88597107 C192.05642816 32.88979485 189.96179693 32.89541439 187.86717224 32.9026947 C183.35893952 32.91464535 178.85093971 32.91415569 174.34270287 32.90410042 C167.2112172 32.88853964 160.07997071 32.90221834 152.94850159 32.9201355 C139.09360529 32.95096202 125.23878198 32.95245672 111.38385773 32.95048523 C93.75912261 32.94909268 76.13444384 32.95946083 58.50975019 32.99906296 C51.42379484 33.01398565 44.33805126 33.01373421 37.25209272 33.00158513 C32.83871089 32.99686812 28.42540979 33.00440361 24.01204109 33.01512909 C21.96948055 33.01753151 19.92690639 33.01481307 17.88436127 33.00652122 C15.08939752 32.99585595 12.2950512 33.00368517 9.50010681 33.01586914 C8.69775217 33.00829309 7.89539752 33.00071703 7.0687291 32.9929114 C0.47182801 33.05361 -6.12942442 34.04615491 -11.10357666 38.63768005 C-14.84482466 45.22227654 -14.9556057 51.49088009 -14.92677307 58.88764954 C-14.93059862 59.93266982 -14.93442417 60.97769011 -14.93836564 62.05437768 C-14.94866887 65.54948174 -14.94470852 69.0444207 -14.94073486 72.53953552 C-14.94508281 75.04810233 -14.95026624 77.55666782 -14.95622253 80.06523132 C-14.96822434 86.16806659 -14.97076498 92.27084117 -14.96842227 98.37368594 C-14.96663732 103.33578487 -14.96839254 108.29787047 -14.97264671 113.2599678 C-14.9732419 113.96691335 -14.97383709 114.67385889 -14.97445032 115.40222702 C-14.9756621 116.8385167 -14.97687624 118.27480638 -14.97809269 119.71109606 C-14.98896285 133.1731433 -14.98680826 146.63516547 -14.98070785 160.09721412 C-14.9755395 172.40298699 -14.98679287 184.70868069 -15.00580607 197.0144379 C-15.02519501 209.66067923 -15.03343859 222.30688313 -15.02968282 234.95313942 C-15.02777233 242.04875617 -15.03024342 249.14430553 -15.04439735 256.23991013 C-15.05757413 262.91299696 -15.05503681 269.58589983 -15.04198647 276.25899506 C-15.03961991 278.70630827 -15.04235817 281.15363262 -15.05060959 283.60093307 C-15.06107166 286.94538692 -15.05298011 290.28930845 -15.04029846 293.63374329 C-15.05135989 295.08138182 -15.05135989 295.08138182 -15.06264478 296.55826557 C-15.00688078 303.56384939 -14.32997539 310.50178976 -9.41607666 315.82518005 C-3.37485421 319.25769281 2.49906208 319.67824485 9.25959778 319.63923645 C10.57303945 319.64369166 10.57303945 319.64369166 11.91301531 319.64823687 C14.83471676 319.65584979 17.75621557 319.64939403 20.67791748 319.64305115 C22.77756384 319.64580224 24.87720916 319.64948287 26.97685242 319.65402222 C31.49210581 319.66212415 36.00730971 319.66430524 40.52256966 319.66207504 C47.66166856 319.6592401 54.80066866 319.67359984 61.93974304 319.6910553 C82.23819505 319.73806777 102.53664 319.7620302 122.83514404 319.76853943 C134.05049352 319.7722877 145.26573089 319.79029586 156.48103231 319.82363379 C163.57871524 319.84386807 170.67610949 319.8462084 177.77380955 319.83535361 C182.18708449 319.83274931 186.60019075 319.84673641 191.01342201 319.86543465 C193.06046179 319.87076348 195.1075325 319.86924809 197.15456009 319.86039925 C199.94852206 319.84929508 202.74134055 319.86268976 205.53523254 319.88215637 C206.34564359 319.87303172 207.15605464 319.86390706 207.9910236 319.8545059 C213.23097272 319.92557687 216.15111108 320.96764314 220.33392334 324.38768005 C223.96225997 328.20698177 224.64392792 331.27047011 224.83392334 336.38768005 C224.64392792 341.50488999 223.96225997 344.56837833 220.33392334 348.38768005 C215.23015094 352.59545194 211.51994912 352.96239266 205.1892395 352.89561462 C203.82217627 352.90497457 203.82217627 352.90497457 202.4274956 352.9145236 C199.37829958 352.93045837 196.32990242 352.91784699 193.28070068 352.90525818 C191.09241266 352.91067929 188.90412829 352.91780189 186.71585083 352.92649841 C180.77335024 352.94474222 174.83112729 352.93765799 168.88862181 352.92498207 C162.66421481 352.91485229 156.43983152 352.92424841 150.21542358 352.93052673 C139.08596174 352.93827278 127.95660894 352.92583648 116.82716866 352.90548939 C106.75562708 352.88764524 96.68427012 352.89070078 86.61273193 352.90916443 C74.90257292 352.93062221 63.19252159 352.93850913 51.48234522 352.92671537 C45.28924484 352.92049341 39.0962713 352.91960848 32.90317917 352.93286133 C27.07378446 352.94446377 21.24473609 352.9363137 15.41537857 352.9132843 C13.28216882 352.9080192 11.14892965 352.90947305 9.01573181 352.91833496 C-8.89879738 352.98586231 -21.84720476 350.66424282 -35.41607666 338.07518005 C-44.99022767 327.95909597 -48.13271884 316.40691904 -48.05375671 302.78785706 C-48.05914225 301.66071915 -48.06452779 300.53358124 -48.07007653 299.37228763 C-48.08431842 295.61705161 -48.07726145 291.86216996 -48.07012939 288.10691833 C-48.07583493 285.40572505 -48.08269991 282.7045567 -48.09092712 280.00337219 C-48.10807655 273.44072086 -48.10896315 266.87816544 -48.10371422 260.31549753 C-48.09966396 254.9783005 -48.10112622 249.6411317 -48.10646248 244.303936 C-48.1072109 243.54275588 -48.10795932 242.78157575 -48.10873042 241.99732956 C-48.11026199 240.45072166 -48.11180034 238.90411378 -48.11334539 237.3575059 C-48.12705656 222.87097778 -48.12164256 208.38450374 -48.11016018 193.89797686 C-48.10022999 180.6632194 -48.11316719 167.4286018 -48.13709437 154.19386591 C-48.16151387 140.58360749 -48.1710862 126.97341414 -48.16444165 113.36313426 C-48.16095565 105.73033574 -48.16314035 98.09764471 -48.18069267 90.46486282 C-48.19545041 83.96708041 -48.19600373 77.46948119 -48.17862176 70.97170223 C-48.17013823 67.66067076 -48.17008406 64.35023312 -48.18327332 61.03917694 C-48.19651356 57.43963606 -48.18490736 53.84097407 -48.1672821 50.24147034 C-48.17688711 49.2093439 -48.18649212 48.17721747 -48.19638819 47.11381447 C-48.05810745 33.31795375 -42.61535401 22.62030328 -33.35357666 12.63768005 C-23.96029321 3.74760821 -12.76887732 -0.09153864 0 0 Z " fill="#000000" transform="translate(79.66607666015625,79.61231994628906)"/>
<path d="M0 0 C0.95390625 -0.0038269 1.9078125 -0.00765381 2.890625 -0.01159668 C4.90105245 -0.01431036 6.91151553 -0.00698737 8.921875 0.00976562 C11.99038787 0.03118291 15.05655952 0.00994534 18.125 -0.015625 C20.08333848 -0.01298163 22.0416755 -0.00785645 24 0 C25.36898437 -0.01214539 25.36898437 -0.01214539 26.765625 -0.02453613 C32.34723968 0.05719316 35.57473138 0.80813314 40 4.53125 C43.62833663 8.35055172 44.31000458 11.41404006 44.5 16.53125 C44.31000458 21.64845994 43.62833663 24.71194828 40 28.53125 C35.42788179 32.30821721 34.24601419 32.53125 28 32.53125 C28 159.25125 28 285.97125 28 416.53125 C29.98 416.53125 31.96 416.53125 34 416.53125 C38.77054673 419.0119343 41.72954418 421.64103747 44 426.53125 C44.75381535 432.1310212 44.77303575 436.86624991 42.375 442.03125 C38.45186912 446.16086145 35.15249014 448.71057981 29.375 449.04882812 C27.58351958 449.07506004 25.79160196 449.07839477 24 449.0625 C22.56914062 449.06824036 22.56914062 449.06824036 21.109375 449.07409668 C19.09894755 449.07681036 17.08848447 449.06948737 15.078125 449.05273438 C12.00961213 449.03131709 8.94344048 449.05255466 5.875 449.078125 C3.91666152 449.07548163 1.9583245 449.07035645 0 449.0625 C-1.36898438 449.07464539 -1.36898438 449.07464539 -2.765625 449.08703613 C-8.34723968 449.00530684 -11.57473138 448.25436686 -16 444.53125 C-19.62833663 440.71194828 -20.31000458 437.64845994 -20.5 432.53125 C-20.31000458 427.41404006 -19.62833663 424.35055172 -16 420.53125 C-11.42788179 416.75428279 -10.24601419 416.53125 -4 416.53125 C-4 289.81125 -4 163.09125 -4 32.53125 C-5.98 32.53125 -7.96 32.53125 -10 32.53125 C-14.77054673 30.0505657 -17.72954418 27.42146253 -20 22.53125 C-20.75381535 16.9314788 -20.77303575 12.19625009 -18.375 7.03125 C-12.56912379 0.91980136 -8.09275421 -0.07179748 0 0 Z " fill="#000000" transform="translate(324,31.46875)"/>
<path d="M0 0 C1.39757557 -0.00269955 2.79514931 -0.00658582 4.19271851 -0.01159668 C7.11970936 -0.01748178 10.0462108 -0.00896941 12.97314453 0.00976562 C16.69167947 0.03242851 20.40905125 0.01950823 24.1275425 -0.00452423 C27.01557854 -0.01911874 29.90334831 -0.0143125 32.79139328 -0.00401306 C34.81842565 -0.00010896 36.84546909 -0.01209458 38.87246704 -0.02453613 C53.77583061 0.12447489 64.70054816 4.74439534 75.5859375 14.84375 C85.16008851 24.95983408 88.30257968 36.51201101 88.22361755 50.131073 C88.22900309 51.25821091 88.23438863 52.38534882 88.23993737 53.54664242 C88.25417926 57.30187845 88.24712229 61.0567601 88.23999023 64.81201172 C88.24569577 67.513205 88.25256075 70.21437335 88.26078796 72.91555786 C88.27793739 79.47820919 88.27882399 86.04076461 88.27357506 92.60343252 C88.2695248 97.94062955 88.27098706 103.27779836 88.27632332 108.61499405 C88.27707174 109.37617418 88.27782016 110.13735431 88.27859126 110.9216005 C88.28012283 112.46820839 88.28166118 114.01481627 88.28320623 115.56142415 C88.2969174 130.04795228 88.2915034 144.53442632 88.28002102 159.02095319 C88.27009083 172.25571065 88.28302803 185.49032826 88.30695521 198.72506414 C88.33137471 212.33532256 88.34094704 225.94551592 88.33430248 239.55579579 C88.33081649 247.18859431 88.33300119 254.82128534 88.35055351 262.45406723 C88.36531125 268.95184965 88.36586457 275.44944886 88.3484826 281.94722782 C88.33999907 285.25825929 88.3399449 288.56869694 88.35313416 291.87975311 C88.3663744 295.47929399 88.3547682 299.07795598 88.33714294 302.67745972 C88.35155045 304.22564937 88.35155045 304.22564937 88.36624902 305.80511558 C88.22796829 319.6009763 82.78521485 330.29862678 73.5234375 340.28125 C62.33511685 350.87019633 49.98259121 353.00767877 35.0703125 352.96484375 C33.66408031 352.96941554 32.25785034 352.97472405 30.85162354 352.98072815 C27.92345011 352.98960377 24.99555031 352.98729662 22.06738281 352.97729492 C18.32600038 352.96575627 14.58555499 352.98611819 10.8442955 353.01521206 C7.94795815 353.03359374 5.05184524 353.03327874 2.15546417 353.02757454 C0.77603074 353.02742186 -0.60341841 353.03342186 -1.98279572 353.04586601 C-15.25629371 353.14885996 -15.25629371 353.14885996 -20.1640625 348.53125 C-23.79239913 344.71194828 -24.47406708 341.64845994 -24.6640625 336.53125 C-24.47406708 331.41404006 -23.79239913 328.35055172 -20.1640625 324.53125 C-14.59515548 319.58723309 -9.29591597 319.9747335 -2.08203125 320.02734375 C-0.32890373 320.0132119 -0.32890373 320.0132119 1.4596405 319.99879456 C5.18941818 319.97016365 8.91855889 319.967065 12.6484375 319.96875 C16.36751161 319.96513433 20.08612152 319.95549562 23.80509949 319.92799377 C26.11567879 319.91130075 28.42641035 319.90825388 30.73701477 319.92100525 C38.19782472 319.87260556 45.56553984 319.55007861 51.2734375 314.28125 C55.0146855 307.69665352 55.12546654 301.42804996 55.09663391 294.03128052 C55.10045946 292.98626023 55.10428501 291.94123995 55.10822648 290.86455238 C55.11852971 287.36944832 55.11456936 283.87450935 55.1105957 280.37939453 C55.11494365 277.87082772 55.12012708 275.36226224 55.12608337 272.85369873 C55.13808518 266.75086347 55.14062582 260.64808888 55.13828311 254.54524411 C55.13649816 249.58314518 55.13825338 244.62105959 55.14250755 239.65896225 C55.14310274 238.95201671 55.14369793 238.24507117 55.14431116 237.51670303 C55.14552294 236.08041335 55.14673708 234.64412367 55.14795353 233.20783399 C55.15882369 219.74578675 55.1566691 206.28376458 55.15056869 192.82171594 C55.14540034 180.51594306 55.15665371 168.21024937 55.17566691 155.90449215 C55.19505585 143.25825082 55.20329943 130.61204692 55.19954365 117.96579063 C55.19763317 110.87017389 55.20010426 103.77462452 55.21425819 96.67901993 C55.22743497 90.00593309 55.22489765 83.33303022 55.21184731 76.659935 C55.20948075 74.21262178 55.21221901 71.76529743 55.22047043 69.31799698 C55.2309325 65.97354313 55.22284095 62.62962161 55.2101593 59.28518677 C55.22122073 57.83754824 55.22122073 57.83754824 55.23250562 56.36066449 C55.17674162 49.35508066 54.49983623 42.41714029 49.5859375 37.09375 C42.47788616 33.05508447 35.53659504 33.25074298 27.55078125 33.2578125 C25.13996924 33.23753282 22.72916197 33.21668222 20.31835938 33.1953125 C16.53731251 33.17267887 12.75645341 33.1562238 8.9753418 33.15039062 C5.31264803 33.14087404 1.65078821 33.10711846 -2.01171875 33.0703125 C-3.70410423 33.07788071 -3.70410423 33.07788071 -5.43067932 33.08560181 C-11.65813138 33.00753897 -15.4411921 32.72753363 -20.1640625 28.53125 C-23.79239913 24.71194828 -24.47406708 21.64845994 -24.6640625 16.53125 C-24.42201769 10.01217647 -22.63873524 6.85269058 -17.90087891 2.40820312 C-12.66687252 -0.96473954 -5.99085161 -0.04083327 0 0 Z " fill="#000000" transform="translate(392.1640625,79.46875)"/>
</svg>
