<?xml version="1.0" encoding="UTF-8"?>
<svg version="1.1" xmlns="http://www.w3.org/2000/svg" width="512" height="512">
<path d="M0 0 C1.14866043 -0.00101212 1.14866043 -0.00101212 2.32052612 -0.00204468 C13.38846292 0.01348204 23.87194926 0.39480023 34.625 3.25 C35.63191895 3.49943359 35.63191895 3.49943359 36.65917969 3.75390625 C59.13964868 9.36104401 79.18657059 20.03411552 96.625 35.25 C97.35203125 35.85585938 98.0790625 36.46171875 98.828125 37.0859375 C103.58951865 41.10222757 107.6901494 45.42637411 111.625 50.25 C112.38683594 51.17425781 113.14867187 52.09851562 113.93359375 53.05078125 C131.80955015 75.20495567 143.2411679 101.95139233 145.75 130.390625 C145.83394012 131.33205353 145.91788025 132.27348206 146.00436401 133.24343872 C146.89708017 144.20120486 146.84510484 155.1394935 146.75 166.125 C146.7399279 168.19270389 146.73080969 170.26041265 146.72265625 172.328125 C146.7010287 177.302208 146.66674396 182.27604685 146.625 187.25 C147.30916992 187.31203613 147.99333984 187.37407227 148.69824219 187.43798828 C149.59704102 187.52290527 150.49583984 187.60782227 151.421875 187.6953125 C152.31229492 187.77797363 153.20271484 187.86063477 154.12011719 187.94580078 C165.12523512 189.28228976 173.58917391 196.15057271 180.4375 204.4453125 C187.55852353 214.37914032 189.21663576 224.21782042 189.015625 236.23046875 C189.00996521 237.52447098 189.00430542 238.81847321 188.99847412 240.15168762 C188.98337084 243.55327608 188.94422741 246.95415585 188.8996582 250.35546875 C188.85836959 253.84169942 188.84039227 257.32804722 188.8203125 260.81445312 C188.77771324 267.62658893 188.70965425 274.43826023 188.625 281.25 C189.47825111 281.24000725 189.47825111 281.24000725 190.34873962 281.22981262 C196.3028291 281.16311791 202.25681135 281.11805859 208.21118164 281.08520508 C210.4293245 281.07017723 212.64743793 281.04974923 214.86547852 281.02368164 C218.06534108 280.98703376 221.26480861 280.97021312 224.46484375 280.95703125 C225.44645981 280.94154739 226.42807587 280.92606354 227.43943787 280.91011047 C235.89064339 280.9080739 243.67606622 282.27169467 249.94763374 288.33221149 C255.66716861 294.87154551 257.36778693 301.9696728 257.25610352 310.43798828 C257.26683647 311.88393875 257.26683647 311.88393875 257.27778625 313.35910034 C257.29455575 316.51333479 257.27534214 319.66612445 257.25390625 322.8203125 C257.25473589 325.02888099 257.25719886 327.23744941 257.26121521 329.4460144 C257.26406501 334.06071697 257.24944918 338.67493198 257.22192383 343.28955078 C257.18780296 349.19195213 257.19388073 355.09348454 257.2125864 360.99592781 C257.223174 365.5514139 257.21420314 370.10669916 257.19920158 374.6621666 C257.19403497 376.83817828 257.19448302 379.01421107 257.20074654 381.19021988 C257.2062215 384.23420312 257.18575124 387.27695771 257.15844727 390.32080078 C257.16497314 391.21140198 257.17149902 392.10200317 257.17822266 393.01959229 C257.06731627 400.3232625 255.02520589 405.47081423 250.25 411 C241.61961518 418.39747271 233.98606038 419.56556786 223 419.4453125 C222.01249756 419.4424826 221.02499512 419.43965271 220.00756836 419.43673706 C216.87991785 419.4256182 213.75256272 419.40052916 210.625 419.375 C208.49349374 419.36495948 206.36198296 419.35583551 204.23046875 419.34765625 C199.0285465 419.32570612 193.82679436 419.29231207 188.625 419.25 C188.63499275 420.30663345 188.63499275 420.30663345 188.64518738 421.38461304 C188.70560158 428.062584 188.75112709 434.74047734 188.78043652 441.41866112 C188.796012 444.85100453 188.817099 448.28311984 188.85131836 451.71533203 C188.89051595 455.67217158 188.9047763 459.62892268 188.91796875 463.5859375 C188.93345261 464.80300385 188.94893646 466.02007019 188.96488953 467.27401733 C188.96744576 480.36521324 185.38038503 491.03241794 176.625 500.9375 C169.59336024 507.58990526 159.01739134 512.36559826 149.35338497 512.38422108 C148.27931863 512.38867892 147.20525228 512.39313676 146.09863847 512.39772969 C144.91938108 512.39754533 143.74012369 512.39736097 142.52513123 512.39717102 C141.27174062 512.40084771 140.01835002 512.4045244 138.72697788 512.4083125 C135.24556569 512.4183229 131.76417074 512.42204775 128.2827462 512.42470181 C124.52864404 512.42860776 120.77455549 512.43818595 117.02046204 512.44691467 C107.95266419 512.46667169 98.88486525 512.47674468 89.81705126 512.48564246 C85.54528566 512.49002693 81.27352129 512.49539336 77.00175667 512.50063133 C62.79842988 512.51764345 48.59510386 512.53213691 34.39176846 512.53938007 C30.70641008 512.54128992 27.02105171 512.54321026 23.33569336 512.54516602 C21.96175047 512.54589163 21.96175047 512.54589163 20.56005115 512.5466319 C5.7270198 512.55492955 -9.10593083 512.58026206 -23.93892694 512.61274669 C-39.17280549 512.64583683 -54.40664304 512.66383063 -69.64055771 512.66702431 C-78.19171811 512.66918769 -86.74276084 512.67791091 -95.29388618 512.70348549 C-102.57757441 512.72521927 -109.86111636 512.7332298 -117.14483333 512.72351871 C-120.85865192 512.71898162 -124.5721689 512.72082532 -128.28594589 512.74028015 C-132.31959003 512.76122734 -136.35256872 512.75090212 -140.38624573 512.73774719 C-141.54988807 512.74871644 -142.71353041 512.75968568 -143.91243464 512.77098733 C-156.20127983 512.67445041 -166.49987038 508.6154003 -175.53515625 500.25 C-183.3436524 492.07662085 -187.5131613 482.66603727 -187.48852539 471.3581543 C-187.48841209 469.61691536 -187.48841209 469.61691536 -187.48829651 467.84049988 C-187.48313522 466.59762711 -187.47797394 465.35475433 -187.47265625 464.07421875 C-187.4712413 462.79392288 -187.46982635 461.51362701 -187.46836853 460.1945343 C-187.46456397 456.8030296 -187.45475143 453.41156823 -187.44366455 450.02008057 C-187.43340597 446.55440863 -187.42886141 443.08872964 -187.42382812 439.62304688 C-187.41280755 432.83201252 -187.3960757 426.04101019 -187.375 419.25 C-188.68581543 419.26571045 -189.99663086 419.2814209 -191.34716797 419.29760742 C-196.24863447 419.35224495 -201.15007448 419.38647241 -206.05175781 419.41479492 C-208.1660618 419.42980487 -210.28033507 419.4502192 -212.39453125 419.47631836 C-215.44799421 419.51304633 -218.50104257 419.52980474 -221.5546875 419.54296875 C-222.95374832 419.56619453 -222.95374832 419.56619453 -224.381073 419.58988953 C-233.45356801 419.59217326 -242.71935366 417.87177537 -249.375 411.25 C-252.9252546 406.53784389 -255.48250616 402.16872848 -255.52890015 396.16014099 C-255.53750061 395.32905319 -255.54610107 394.49796539 -255.55496216 393.64169312 C-255.55922211 392.73311554 -255.56348206 391.82453796 -255.56787109 390.88842773 C-255.57604858 389.92869553 -255.58422607 388.96896332 -255.59265137 387.98014832 C-255.61749974 384.79796978 -255.63402307 381.61583596 -255.6484375 378.43359375 C-255.65376118 377.34557024 -255.65908485 376.25754673 -255.66456985 375.13655281 C-255.69130336 369.3738386 -255.7106747 363.61114603 -255.72509766 357.84838867 C-255.73841974 353.08679928 -255.7662407 348.32564017 -255.80712891 343.56420898 C-255.85654605 337.80946307 -255.8812305 332.05510657 -255.88832474 326.30015755 C-255.89502267 324.11179417 -255.9102065 321.92343898 -255.93421555 319.73519707 C-255.96599978 316.66212104 -255.96588325 313.59053269 -255.95849609 310.51733398 C-255.9831041 309.17572205 -255.9831041 309.17572205 -256.00820923 307.80700684 C-255.93558463 300.37885516 -253.63645649 293.97791548 -248.69744778 288.33252144 C-241.57102673 281.44369948 -232.66723759 280.80793069 -223.21484375 280.95703125 C-222.18436417 280.96127609 -221.15388458 280.96552094 -220.09217834 280.96989441 C-216.83200885 280.98655784 -213.57247961 281.02418699 -210.3125 281.0625 C-208.0892017 281.07756278 -205.86589361 281.09124838 -203.64257812 281.10351562 C-198.21983719 281.13642076 -192.79746436 281.18649543 -187.375 281.25 C-187.38832367 280.17790535 -187.38832367 280.17790535 -187.4019165 279.08415222 C-187.48251846 272.30352971 -187.54319398 265.52298005 -187.58224869 258.74199963 C-187.6030033 255.25690738 -187.63109382 251.77221545 -187.67675781 248.28735352 C-187.72908311 244.26835589 -187.74804512 240.24976975 -187.765625 236.23046875 C-187.78627014 234.99668991 -187.80691528 233.76291107 -187.82818604 232.491745 C-187.83164577 218.97460606 -183.24051632 208.55925415 -174.25 198.5625 C-166.55960731 191.24641846 -155.90399109 187.25 -145.375 187.25 C-145.38547363 186.00202637 -145.39594727 184.75405273 -145.40673828 183.46826172 C-145.44364814 178.72301237 -145.46615132 173.97777489 -145.48486328 169.23242188 C-145.49476267 167.20017343 -145.50828557 165.16793858 -145.52587891 163.13574219 C-145.61819702 152.17703962 -145.47380714 141.31233653 -144.5 130.390625 C-144.38460373 129.08253372 -144.38460373 129.08253372 -144.26687622 127.74801636 C-140.87544065 93.51523723 -123.12028839 58.36255845 -96.671875 36.1171875 C-95.53492188 35.19292969 -95.53492188 35.19292969 -94.375 34.25 C-93.45203125 33.48945312 -92.5290625 32.72890625 -91.578125 31.9453125 C-65.17021658 10.6313794 -33.82438044 0.02662875 0 0 Z M-98.375 64.25 C-111.77210551 80.03508376 -120.52739455 100.14486447 -124.6875 120.3125 C-124.84702148 121.07852539 -125.00654297 121.84455078 -125.17089844 122.63378906 C-127.94532251 137.30210176 -127.50469347 152.32759986 -127.4375 167.1875 C-127.43247076 169.14257697 -127.42791039 171.0976552 -127.42382812 173.05273438 C-127.41380593 177.78521411 -127.39421172 182.51751354 -127.375 187.25 C-116.155 187.25 -104.935 187.25 -93.375 187.25 C-93.34921875 183.47691406 -93.3234375 179.70382813 -93.296875 175.81640625 C-93.25831102 172.10596698 -93.21319716 168.39565999 -93.16748047 164.68530273 C-93.13949473 162.13393619 -93.11817056 159.58248656 -93.10400391 157.03100586 C-92.92027361 125.79073135 -86.67767989 100.31113425 -64.5 77.0625 C-45.10002503 58.37410712 -19.64522754 51.75920523 6.58203125 52.03515625 C31.21827467 52.65058452 53.83945897 64.61184927 70.76171875 82.14453125 C84.03786304 97.14629597 93.50432115 117.7679113 93.83032227 137.97998047 C93.85026749 139.08066864 93.87021271 140.18135681 93.89076233 141.31539917 C93.91583107 143.07353439 93.91583107 143.07353439 93.94140625 144.8671875 C93.96218735 146.07948029 93.98296844 147.29177307 94.00437927 148.540802 C94.06960982 152.4021453 94.12863651 156.26355491 94.1875 160.125 C94.23071041 162.74740261 94.2743255 165.36979859 94.31835938 167.9921875 C94.42602324 174.41139143 94.52529427 180.83064781 94.625 187.25 C105.845 187.25 117.065 187.25 128.625 187.25 C129.0534444 135.97948671 127.10321999 92.36317397 89.5625 53.75 C73.38295535 37.57453131 53.50124662 27.4195819 31.625 21.25 C30.42359375 20.90839844 29.2221875 20.56679688 27.984375 20.21484375 C-20.02268541 9.04436974 -66.49939764 28.78460795 -98.375 64.25 Z M-51.375 89.25 C-52.28765625 90.02537109 -52.28765625 90.02537109 -53.21875 90.81640625 C-65.75824197 102.18744556 -71.3973076 118.3392304 -75.375 134.25 C-75.375 151.74 -75.375 169.23 -75.375 187.25 C-25.215 187.25 24.945 187.25 76.625 187.25 C79.08563317 147.66185264 79.08563317 147.66185264 68.875 110.9375 C68.36175171 109.94278687 68.36175171 109.94278687 67.83813477 108.92797852 C64.7522033 103.13471855 61.0510504 98.10145811 56.625 93.25 C56.10808594 92.6415625 55.59117187 92.033125 55.05859375 91.40625 C43.01019877 78.1197994 23.55753564 69.91142916 5.91796875 68.9296875 C-15.71369938 68.20318839 -35.21422614 74.50630893 -51.375 89.25 Z M-165.375 216.25 C-174.19131311 236.0867045 -169.375 259.54234646 -169.375 281.25 C-57.175 281.25 55.025 281.25 170.625 281.25 C175.00106469 243.79404282 175.00106469 243.79404282 163.5625 212.4375 C155.89745542 205.40741775 146.07488099 204.6623501 136.13891602 204.74206543 C134.92854707 204.73582547 133.71817812 204.7295855 132.47113132 204.72315645 C129.14203138 204.71004417 125.81384544 204.71465069 122.48480272 204.72710133 C118.88281275 204.73620176 115.28089906 204.72215751 111.67892456 204.71118164 C104.63477971 204.69344476 97.59080586 204.69721474 90.54665446 204.7088322 C84.81902211 204.71788535 79.09143751 204.71908241 73.36380005 204.71473694 C72.13853917 204.71381754 72.13853917 204.71381754 70.88852555 204.71287957 C69.22885345 204.7116006 67.56918137 204.71030374 65.9095093 204.7089892 C50.36619392 204.69759756 34.82297309 204.71067484 19.27967322 204.73219067 C5.95821139 204.75006037 -7.363111 204.74695587 -20.68457031 204.72851562 C-36.17428538 204.70708385 -51.66391769 204.69869606 -67.15364552 204.71096468 C-68.80703035 204.7122388 -70.46041519 204.71349629 -72.11380005 204.71473694 C-72.92718399 204.71535404 -73.74056793 204.71597114 -74.57859987 204.71660694 C-80.29581824 204.72005293 -86.01298389 204.71424775 -91.73019409 204.70481873 C-98.70265896 204.69357168 -105.67494383 204.6966954 -112.64738822 204.7179417 C-116.20124572 204.72841594 -119.75480368 204.73263653 -123.3086586 204.71934509 C-127.16891184 204.70512664 -131.02868026 204.72216429 -134.88891602 204.74206543 C-136.00109214 204.73314254 -137.11326826 204.72421966 -138.25914669 204.71502638 C-149.41095493 204.82621359 -158.2632504 207.39659744 -165.375 216.25 Z M-236.375 302.25 C-238.02546751 305.55093501 -237.54047654 309.22928899 -237.55200195 312.85888672 C-237.55857315 313.75008209 -237.56514435 314.64127747 -237.57191467 315.55947876 C-237.59166733 318.5162158 -237.60331364 321.47290204 -237.61328125 324.4296875 C-237.61735678 325.43785648 -237.6214323 326.44602547 -237.62563133 327.48474503 C-237.64649885 332.81909227 -237.66079854 338.15341372 -237.67016602 343.48779297 C-237.68124168 349.00509925 -237.71565306 354.52200346 -237.75533772 360.0391674 C-237.78144482 364.2753272 -237.78985251 368.51139026 -237.79344749 372.74762344 C-237.79832748 374.78183844 -237.80998139 376.81604871 -237.82848549 378.85018539 C-237.852755 381.69455887 -237.85193446 384.53787956 -237.8449707 387.38232422 C-237.85778076 388.22506897 -237.87059082 389.06781372 -237.88378906 389.93609619 C-237.85126958 393.57360931 -237.72825187 395.77211249 -235.53312683 398.74172974 C-231.4545379 401.59217129 -227.58047853 401.39297417 -222.80459785 401.38142776 C-221.63160957 401.38450672 -221.63160957 401.38450672 -220.43492454 401.38764787 C-217.79279261 401.39333967 -215.15071245 401.39185794 -212.50857544 401.39044189 C-210.60389135 401.39302427 -208.69920781 401.39603708 -206.79452503 401.3994453 C-201.54342634 401.40753335 -196.2923413 401.40930587 -191.04123712 401.41004276 C-185.38469591 401.41189016 -179.72816185 401.41943584 -174.07162476 401.42617798 C-161.69582928 401.43977409 -149.32003703 401.44578785 -136.94423532 401.45018864 C-129.22181409 401.45294859 -121.49939411 401.45718546 -113.77697372 401.46169281 C-92.40988533 401.47388657 -71.04279848 401.48422145 -49.67570686 401.4875679 C-48.29371371 401.48778954 -46.91172055 401.48801132 -45.52972739 401.48823325 C-44.14436944 401.48845389 -42.75901148 401.48867438 -41.37365353 401.4888947 C-38.5943172 401.48933726 -35.81498086 401.48978437 -33.03564453 401.49023438 C-32.34652966 401.49034377 -31.65741479 401.49045316 -30.94741765 401.49056586 C-8.5945648 401.49419783 13.75825565 401.51012317 36.11109609 401.53342474 C59.73518196 401.55800657 83.35924275 401.57173322 106.98334324 401.57293582 C119.86475657 401.57385393 132.74612747 401.57964037 145.62752914 401.59775543 C156.59386046 401.61312267 167.56013622 401.61829687 178.52647625 401.61001733 C184.12499505 401.60609898 189.72340188 401.60709803 195.32190704 401.62107468 C200.44285177 401.63374261 205.56359957 401.63267904 210.68454374 401.62048396 C212.54119479 401.61851458 214.39785945 401.62166211 216.25449131 401.63032833 C218.77087477 401.64133427 221.28655253 401.63399487 223.80291557 401.6219368 C224.89373805 401.63332959 224.89373805 401.63332959 226.00659734 401.64495254 C231.57454844 401.58702965 234.73049761 400.14450239 238.625 396.25 C238.8290408 393.34919307 238.90814946 390.54346685 238.8996582 387.64111328 C238.90476913 386.74991791 238.90988007 385.85872253 238.91514587 384.94052124 C238.92908737 381.98371736 238.9280815 379.02714542 238.92578125 376.0703125 C238.92966607 374.02008985 238.93400029 371.96986801 238.93876648 369.91964722 C238.94623878 365.61714065 238.94593039 361.31471612 238.94067383 357.01220703 C238.93488202 351.4949517 238.95179842 345.97803237 238.9750185 340.4608326 C238.98974267 336.22466056 238.99062926 331.98856965 238.98750877 327.75237656 C238.98802279 325.71818248 238.99327545 323.68398395 239.00332069 321.64981461 C239.01564034 318.80554576 239.00891995 315.9619339 238.99731445 313.11767578 C239.00495819 312.27493103 239.01260193 311.43218628 239.02047729 310.56390381 C238.99036236 307.22921004 238.88140001 304.7282857 237.28923035 301.75827026 C233.74913486 298.54992788 229.50970039 299.10777319 225.02336311 299.11857224 C224.23799417 299.1165196 223.45262523 299.11446697 222.64345723 299.11235213 C219.98983856 299.1066602 217.33627144 299.10814207 214.68264771 299.10955811 C212.76971402 299.10697573 210.85678088 299.10396293 208.94384849 299.1005547 C203.66994666 299.09246656 198.39605843 299.09069413 193.12215114 299.08995724 C187.44106984 299.08810986 181.75999566 299.08056418 176.07891846 299.07382202 C163.64940568 299.06022584 151.21989612 299.05421214 138.79037714 299.04981136 C131.03445396 299.04705142 123.27853204 299.04281455 115.52260971 299.03830719 C94.06287501 299.02611343 72.60314194 299.01577855 51.14340401 299.0124321 C49.75541568 299.01221046 48.36742734 299.01198868 46.97943901 299.01176675 C45.58807106 299.01154611 44.19670311 299.01132562 42.80533516 299.0111053 C40.01394089 299.01066274 37.22254662 299.01021563 34.43115234 299.00976562 C33.73904779 299.00965623 33.04694323 299.00954684 32.33386581 299.00943414 C9.8840094 299.00580217 -12.56581474 298.98987681 -35.01565879 298.96657526 C-58.74220155 298.94199352 -82.46872047 298.92826679 -106.19527733 298.92706418 C-119.13258194 298.92614607 -132.0698443 298.92035951 -145.0071373 298.90224457 C-156.02104569 298.88687744 -167.03489877 298.88170307 -178.04881583 298.88998267 C-183.67163765 298.89390106 -189.29434798 298.89290179 -194.91715622 298.87892532 C-200.06030574 298.86625762 -205.20325917 298.86732075 -210.34640814 298.87951604 C-212.2111345 298.88148546 -214.07587441 298.87833771 -215.94058166 298.86967167 C-218.46785574 298.85866618 -220.99442709 298.86600482 -223.52168083 298.8780632 C-224.25210451 298.87046801 -224.98252818 298.86287282 -225.7350859 298.85504746 C-230.11103069 298.90037684 -232.89386219 299.55848406 -236.375 302.25 Z M-169.375 419.25 C-173.86982484 456.03181518 -173.86982484 456.03181518 -162.34765625 487.6875 C-161.40212891 488.4609375 -161.40212891 488.4609375 -160.4375 489.25 C-159.80972656 489.78625 -159.18195313 490.3225 -158.53515625 490.875 C-152.1543952 494.93653326 -145.55123785 494.53706745 -138.24894714 494.51742554 C-137.01693787 494.52195665 -135.7849286 494.52648776 -134.51558572 494.53115618 C-131.1031721 494.54161825 -127.69096944 494.54312744 -124.2785548 494.54076743 C-120.5954118 494.5403589 -116.91230012 494.55140184 -113.22917175 494.56088257 C-106.01594974 494.57748563 -98.80276042 494.5829918 -91.58952089 494.58410732 C-85.72541493 494.58505812 -79.86131974 494.58916996 -73.99721718 494.59550858 C-57.36631799 494.61311899 -40.7354446 494.62234774 -24.10453602 494.62084763 C-23.20822029 494.62076772 -22.31190455 494.6206878 -21.38842773 494.62060547 C-20.49101588 494.62052371 -19.59360402 494.62044195 -18.66899786 494.62035771 C-4.12573036 494.61954483 10.41743356 494.63868335 24.9606711 494.6668822 C39.89854582 494.69561738 54.83637004 494.70942215 69.7742731 494.70769465 C78.15877735 494.70703097 86.54317302 494.71251345 94.92765236 494.73405075 C102.06643102 494.75227089 109.20505187 494.75660308 116.34384374 494.7430319 C119.98451495 494.73650643 123.62488348 494.73636946 127.26552582 494.7537384 C131.21648904 494.7723936 135.16701141 494.75990351 139.11799622 494.74447632 C140.83513336 494.75990701 140.83513336 494.75990701 142.58696014 494.77564943 C150.42529894 494.70803217 156.76820377 493.42041724 162.9296875 488.35546875 C163.44789063 487.72253906 163.96609375 487.08960938 164.5 486.4375 C165.03367187 485.81230469 165.56734375 485.18710937 166.1171875 484.54296875 C178.67939183 465.43930569 170.625 441.35847632 170.625 419.25 C58.425 419.25 -53.775 419.25 -169.375 419.25 Z " fill="#000000" transform="translate(255.375,-0.24999999999999997)"/>
<path d="M0 0 C2.4375 1.875 2.4375 1.875 4 5 C4.31678953 8.6924157 4.23299116 12.30450139 4 16 C4.85722656 15.4225 5.71445312 14.845 6.59765625 14.25 C7.75206256 13.49916663 8.90704141 12.74921302 10.0625 12 C10.62388672 11.6184375 11.18527344 11.236875 11.76367188 10.84375 C15.99777751 8.13392239 19.02120172 7.46077997 24 8 C27.43250143 9.9401095 28.70166193 11.14227804 30 14.875 C30 18.84615056 29.09755304 20.62037546 27 24 C24.76156472 26.03806204 22.33119039 27.70260979 19.8125 29.375 C18.83120117 30.04982422 18.83120117 30.04982422 17.83007812 30.73828125 C16.22814866 31.83741534 14.6151507 32.92038804 13 34 C14.48113281 35.04800781 14.48113281 35.04800781 15.9921875 36.1171875 C17.2865296 37.03635798 18.58079653 37.95563433 19.875 38.875 C20.52597656 39.33519531 21.17695313 39.79539062 21.84765625 40.26953125 C22.47285156 40.71425781 23.09804688 41.15898437 23.7421875 41.6171875 C24.60626221 42.22989502 24.60626221 42.22989502 25.48779297 42.85498047 C28.20510899 44.9124897 28.96316603 45.86318813 29.875 49.25 C30.02818856 53.84565681 28.8998744 55.52015071 26 59 C22.88641319 60.55679341 20.44475669 60.28498504 17 60 C13.69140625 58.25 13.69140625 58.25 10.5625 56 C9.51191406 55.2575 8.46132813 54.515 7.37890625 53.75 C6.59386719 53.1725 5.80882812 52.595 5 52 C4.98582031 52.73605469 4.97164063 53.47210938 4.95703125 54.23046875 C4.72596113 58.95803841 4.54719946 62.15432811 1.9375 66.1875 C-1.33698491 68.20792686 -3.27421398 68.75875657 -7.06640625 68.46484375 C-10.73986077 67.58173044 -11.9686467 66.13936419 -14 63 C-14.69025526 59.33237503 -14.92819201 55.72748736 -15 52 C-15.61746094 52.49371094 -16.23492187 52.98742187 -16.87109375 53.49609375 C-22.27909112 57.58707502 -26.97749701 60.92802308 -34 60 C-37 58.5 -37 58.5 -39 56 C-40.07414224 52.30763604 -40.50677782 50.12617293 -38.91015625 46.578125 C-36.54028227 43.37952208 -33.71545479 41.35477264 -30.4375 39.1875 C-29.55288086 38.57745117 -29.55288086 38.57745117 -28.65039062 37.95507812 C-24.28482143 35 -24.28482143 35 -22 35 C-22 34.34 -22 33.68 -22 33 C-23.06154297 32.62488281 -23.06154297 32.62488281 -24.14453125 32.2421875 C-27.32268572 30.85962509 -29.88029715 29.15476468 -32.6875 27.125 C-33.64011719 26.44695312 -34.59273437 25.76890625 -35.57421875 25.0703125 C-37.921351 23.06712394 -39.02228597 21.88713202 -40 19 C-39.92558321 14.83265954 -39.63951246 12.73355841 -36.875 9.5625 C-33.01354807 7.46388482 -31.37337508 7.22407862 -27 8 C-18.33727811 12.66272189 -18.33727811 12.66272189 -15 16 C-14.97421875 15.26394531 -14.9484375 14.52789062 -14.921875 13.76953125 C-14.45636275 5.76060458 -14.45636275 5.76060458 -12.125 1.875 C-8.15709439 -1.62609319 -4.94677267 -1.2149968 0 0 Z " fill="#000000" transform="translate(261,316)"/>
<path d="M0 0 C2.5 1.875 2.5 1.875 4 5 C4.31161937 8.69268958 4.2329889 12.30453711 4 16 C4.85722656 15.4225 5.71445312 14.845 6.59765625 14.25 C7.75206256 13.49916663 8.90704141 12.74921302 10.0625 12 C10.62388672 11.6184375 11.18527344 11.236875 11.76367188 10.84375 C15.99331617 8.13677765 19.02418125 7.42586707 24 8 C26.91963173 9.98783437 28.61102978 11.4314697 29.48046875 14.9375 C29.73907106 18.62782481 29.3494027 20.50601687 27.1875 23.5625 C23.57915388 26.63743843 19.37683642 29.00808393 15.328125 31.44921875 C12.89833424 32.78960222 12.89833424 32.78960222 12 35 C12.70640625 35.2475 13.4128125 35.495 14.140625 35.75 C17.36024525 37.15748426 19.92069992 38.92008211 22.75 41 C24.19632813 42.051875 24.19632813 42.051875 25.671875 43.125 C28 45 28 45 29 47 C29.68839635 53.99869622 29.68839635 53.99869622 26.9375 58 C23.21741935 60.53282087 21.44330773 60.44806464 17 60 C13.69140625 58.25 13.69140625 58.25 10.5625 56 C9.51191406 55.2575 8.46132813 54.515 7.37890625 53.75 C6.59386719 53.1725 5.80882812 52.595 5 52 C4.90203125 52.90363281 4.8040625 53.80726563 4.703125 54.73828125 C4.55359375 55.91777344 4.4040625 57.09726562 4.25 58.3125 C4.11078125 59.48425781 3.9715625 60.65601563 3.828125 61.86328125 C3 65 3 65 1.16796875 66.88671875 C-2.19474092 68.61351561 -5.36628855 68.72818424 -9 68 C-11.9375 66.1875 -11.9375 66.1875 -14 63 C-14.69025526 59.33237503 -14.92819201 55.72748736 -15 52 C-15.86882812 52.5775 -16.73765625 53.155 -17.6328125 53.75 C-18.796416 54.50071193 -19.96050451 55.25067247 -21.125 56 C-21.69476563 56.3815625 -22.26453125 56.763125 -22.8515625 57.15625 C-26.73130958 59.62517996 -29.41868047 60.57999636 -34 60 C-37.74785043 57.91786087 -38.79482295 56.7052961 -40 52.5625 C-40 48.46535373 -39.3712149 47.26544425 -37 44 C-34.40625 41.83203125 -34.40625 41.83203125 -31.5 39.8125 C-30.5409375 39.13832031 -29.581875 38.46414063 -28.59375 37.76953125 C-26.73638126 36.50238059 -24.87081646 35.24721097 -23 34 C-23.73605469 33.46890625 -24.47210938 32.9378125 -25.23046875 32.390625 C-26.69419922 31.33101563 -26.69419922 31.33101563 -28.1875 30.25 C-29.15042969 29.55390625 -30.11335938 28.8578125 -31.10546875 28.140625 C-32.06066406 27.43421875 -33.01585937 26.7278125 -34 26 C-34.92167969 25.33226562 -35.84335937 24.66453125 -36.79296875 23.9765625 C-39.70279514 21.37059409 -40.02099929 19.80792062 -40.25390625 16.0390625 C-39.75171045 12.0060439 -38.14648253 10.56855716 -35 8 C-30.11524597 6.80023585 -28.1972861 7.32129303 -23.81640625 9.8046875 C-20.81234886 11.79323903 -17.88633662 13.84486866 -15 16 C-14.97421875 15.26394531 -14.9484375 14.52789062 -14.921875 13.76953125 C-14.35146444 3.95587676 -14.35146444 3.95587676 -10 0 C-6.70778894 -1.64610553 -3.42474077 -0.94755674 0 0 Z " fill="#000000" transform="translate(355,316)"/>
<path d="M0 0 C2.88734483 2.21224622 3.88168412 3.41448806 4.609375 7.015625 C4.65578125 8.08296875 4.7021875 9.1503125 4.75 10.25 C4.80671875 11.32765625 4.8634375 12.4053125 4.921875 13.515625 C4.94765625 14.33546875 4.9734375 15.1553125 5 16 C5.7734375 15.4225 6.546875 14.845 7.34375 14.25 C16.92549445 7.4194495 16.92549445 7.4194495 21.4375 7.125 C25.10186647 8.02501983 27.03303648 8.99648798 29.19921875 12.16015625 C30.34606638 14.79510862 30.52627333 17.17531517 29.96875 19.984375 C27.93261832 24.22084252 23.80733951 26.47124465 20 29 C17.65815529 30.65497712 15.32983253 32.32810306 13 34 C13.97582031 34.67546875 14.95164063 35.3509375 15.95703125 36.046875 C17.24241981 36.94758523 18.52756324 37.84864535 19.8125 38.75 C20.45509766 39.1934375 21.09769531 39.636875 21.75976562 40.09375 C25.04919856 42.41169238 27.93920676 44.45334497 30 48 C30.58490372 51.92721068 30.34594305 53.48108543 28.125 56.8125 C25.6697195 59.33999464 24.77935848 59.9096396 21.3046875 60.3125 C17.1838538 59.92282305 14.4804894 58.24711508 11.125 56 C10.53203125 55.6184375 9.9390625 55.236875 9.328125 54.84375 C7.87755944 53.90790125 6.43764153 52.95558369 5 52 C4.96132812 53.10408203 4.96132812 53.10408203 4.921875 54.23046875 C4.66669048 58.62080235 4.38620631 62.17931158 2.5 66.1875 C-0.72607196 68.52640217 -2.95662771 68.64626856 -6.875 68.43359375 C-9.91469955 67.81336094 -11.23752924 66.49683357 -13 64 C-14.21693876 61.56612247 -14.31959896 59.58161154 -14.5625 56.875 C-14.68818359 55.50988281 -14.68818359 55.50988281 -14.81640625 54.1171875 C-14.90728516 53.06917969 -14.90728516 53.06917969 -15 52 C-15.76183594 52.58910156 -16.52367188 53.17820312 -17.30859375 53.78515625 C-26.79938472 60.69293544 -26.79938472 60.69293544 -32.0625 60.25 C-34.63071619 59.64051391 -35.9385282 59.04656955 -38.0625 57.4375 C-39.42391229 53.89782805 -39.75573558 50.68976782 -39 47 C-35.31231234 41.9601602 -29.3036447 38.25728268 -24 35 C-23.34 35 -22.68 35 -22 35 C-25.71203825 30.99768387 -29.89257414 28.48020672 -34.5390625 25.68359375 C-37 24 -37 24 -39 21 C-39.55377603 16.09512657 -39.75639171 14.10020612 -36.9375 10 C-33.20883675 7.46133566 -31.45692248 7.55430775 -27 8 C-24.4786933 9.25088084 -22.35938191 10.43885868 -20.0625 12 C-19.47404297 12.3815625 -18.88558594 12.763125 -18.27929688 13.15625 C-16.84358233 14.09004808 -15.42041436 15.04308927 -14 16 C-14.05220703 15.00419922 -14.05220703 15.00419922 -14.10546875 13.98828125 C-14.38504937 4.86862785 -14.38504937 4.86862785 -11 1 C-7.44544736 -1.79286279 -4.2131487 -1.05328717 0 0 Z " fill="#000000" transform="translate(73,316)"/>
<path d="M0 0 C2.94131377 2.32208982 3.84963539 4.09398953 4.4609375 7.77734375 C4.72223736 10.52099226 4.90353834 13.24601951 5 16 C5.7734375 15.4225 6.546875 14.845 7.34375 14.25 C16.91982442 7.4234915 16.91982442 7.4234915 21.5 7.25 C25 8 25 8 27.4375 9.5625 C29.51858903 12.80899889 29.93249957 15.15247539 30 19 C27.8192376 23.97994996 24.16741708 26.36408573 19.8125 29.3125 C18.83120117 29.9940918 18.83120117 29.9940918 17.83007812 30.68945312 C16.22608105 31.80171387 14.61384348 32.90207478 13 34 C13.97582031 34.66386719 14.95164063 35.32773437 15.95703125 36.01171875 C17.24254364 36.90313245 18.52768025 37.79508825 19.8125 38.6875 C20.45509766 39.12255859 21.09769531 39.55761719 21.75976562 40.00585938 C25.45624277 42.5914781 28.13290594 44.75218749 30 49 C30 53.25880812 29.67800813 55.24450523 26.8125 58.4375 C23.41428163 60.32539909 21.85183783 60.4115409 18 60 C15.54322083 58.74642703 13.39501411 57.52019045 11.125 56 C10.53203125 55.6184375 9.9390625 55.236875 9.328125 54.84375 C7.87755944 53.90790125 6.43764153 52.95558369 5 52 C4.98582031 52.73605469 4.97164062 53.47210938 4.95703125 54.23046875 C4.72596113 58.95803841 4.54719946 62.15432811 1.9375 66.1875 C-2.16028144 68.71591834 -4.22626273 68.60618886 -9 68 C-11.16796875 66.88671875 -11.16796875 66.88671875 -13 65 C-13.828125 61.86328125 -13.828125 61.86328125 -14.25 58.3125 C-14.39953125 57.13300781 -14.5490625 55.95351563 -14.703125 54.73828125 C-14.80109375 53.83464844 -14.8990625 52.93101562 -15 52 C-15.76183594 52.58910156 -16.52367187 53.17820312 -17.30859375 53.78515625 C-26.79938472 60.69293544 -26.79938472 60.69293544 -32.0625 60.25 C-34.63071619 59.64051391 -35.9385282 59.04656955 -38.0625 57.4375 C-39.42391229 53.89782805 -39.75573558 50.68976782 -39 47 C-35.31231234 41.9601602 -29.3036447 38.25728268 -24 35 C-23.34 35 -22.68 35 -22 35 C-25.08113565 31.67267192 -28.37564386 29.31718798 -32.1875 26.875 C-37.88967972 23.22064057 -37.88967972 23.22064057 -39 21 C-39.41334152 17.94127273 -39.47189841 15.05377934 -39 12 C-36.9375 9.4375 -36.9375 9.4375 -34 8 C-28.216884 7.39527513 -24.74549962 8.8170657 -20.0625 12 C-19.47404297 12.3815625 -18.88558594 12.763125 -18.27929688 13.15625 C-16.84358233 14.09004808 -15.42041436 15.04308927 -14 16 C-14.04640625 15.26394531 -14.0928125 14.52789062 -14.140625 13.76953125 C-14.43711729 5.75365049 -14.43711729 5.75365049 -12.1875 1.875 C-8.15199312 -1.5840059 -4.98809314 -1.22514568 0 0 Z " fill="#000000" transform="translate(167,316)"/>
<path d="M0 0 C1.56687561 -0.00945648 1.56687561 -0.00945648 3.16540527 -0.019104 C4.28322388 -0.01505554 5.40104248 -0.01100708 6.55273438 -0.00683594 C8.28892029 -0.00970612 8.28892029 -0.00970612 10.06018066 -0.01263428 C12.50447813 -0.01399373 14.94878287 -0.01031405 17.39306641 -0.00195312 C21.13265209 0.00874947 24.87175737 -0.00185685 28.61132812 -0.01464844 C30.98763127 -0.0133268 33.36393411 -0.01076432 35.74023438 -0.00683594 C36.85805298 -0.0108844 37.97587158 -0.01493286 39.12756348 -0.019104 C40.17214722 -0.01279968 41.21673096 -0.00649536 42.29296875 0 C43.20832397 0.00159119 44.1236792 0.00318237 45.06677246 0.00482178 C48.67780057 0.36032 51.53580199 1.42030893 54.43164062 3.60644531 C55.99745991 5.73616093 56.07955434 7.06927885 56.08398438 9.69628906 C56.10332031 10.458125 56.12265625 11.21996094 56.14257812 12.00488281 C55.44954224 15.15355767 54.13639036 16.24516698 51.64648438 18.25878906 C48.91455078 18.75999451 48.91455078 18.75999451 45.74804688 18.76049805 C43.96599854 18.77456947 43.96599854 18.77456947 42.14794922 18.78892517 C40.86871582 18.77769119 39.58948242 18.76645721 38.27148438 18.75488281 C36.29656006 18.75706566 36.29656006 18.75706566 34.28173828 18.7592926 C31.4975176 18.76067564 28.71381267 18.7481357 25.9296875 18.7253418 C22.3651429 18.69695648 18.80145492 18.69969527 15.23684692 18.71243191 C11.83163665 18.72106873 8.4266802 18.70593994 5.02148438 18.69238281 C3.10263428 18.69678627 3.10263428 18.69678627 1.14501953 18.70127869 C-0.0430127 18.68859451 -1.23104492 18.67591034 -2.45507812 18.6628418 C-3.50002441 18.65743881 -4.5449707 18.65203583 -5.62158203 18.64646912 C-8.76938626 18.19977418 -10.13266353 17.51511399 -12.35351562 15.25878906 C-13.41009288 10.89160309 -13.86167488 8.55741827 -12.22851562 4.38378906 C-8.84056031 0.54410637 -4.94894962 0.00860289 0 0 Z " fill="#000000" transform="translate(422.353515625,365.7412109375)"/>
<path d="M0 0 C2.00801503 -0.00968068 4.01588859 -0.04087853 6.02368164 -0.07226562 C7.29920898 -0.07742187 8.57473633 -0.08257812 9.88891602 -0.08789062 C11.63555542 -0.10190918 11.63555542 -0.10190918 13.41748047 -0.11621094 C17.16268543 0.28885605 19.53912807 1.22862592 22.71313477 3.24023438 C24.33675032 6.89336938 25.0021517 9.08416666 24.02563477 12.99023438 C22.71900473 15.23017157 21.73157113 16.62668622 19.71313477 18.24023438 C17.44482422 18.58081055 17.44482422 18.58081055 14.82641602 18.53320312 C13.88862305 18.52353516 12.95083008 18.51386719 11.98461914 18.50390625 C10.51992187 18.46620117 10.51992187 18.46620117 9.02563477 18.42773438 C8.03756836 18.41419922 7.04950195 18.40066406 6.03149414 18.38671875 C3.59149246 18.35135641 1.15258758 18.3020047 -1.28686523 18.24023438 C-1.26591797 18.81990967 -1.2449707 19.39958496 -1.22338867 19.99682617 C-1.13989716 22.64028361 -1.08810371 25.28346318 -1.03686523 27.92773438 C-0.9865918 29.29575195 -0.9865918 29.29575195 -0.93530273 30.69140625 C-0.87178963 35.05793233 -0.84964038 37.52748559 -3.17749023 41.32226562 C-5.75308106 43.66414543 -6.67351255 44.20023311 -10.16186523 44.42773438 C-13.24761678 44.24258928 -14.7971009 44.01863747 -17.28686523 42.24023438 C-20.70436118 37.13085562 -19.65877315 30.45369819 -19.6574707 24.54125977 C-19.66184471 22.31318764 -19.69818835 20.08709704 -19.73608398 17.859375 C-19.74195277 16.43555361 -19.74592175 15.01172287 -19.74780273 13.58789062 C-19.75602051 12.29890869 -19.76423828 11.00992676 -19.77270508 9.68188477 C-19.20674596 5.67267586 -18.16180809 4.04136904 -15.28686523 1.24023438 C-10.33338601 -0.41092537 -5.18779418 0.01514132 0 0 Z " fill="#000000" transform="translate(121.286865234375,220.759765625)"/>
</svg>
