<?xml version="1.0" encoding="UTF-8"?>
<svg version="1.1" xmlns="http://www.w3.org/2000/svg" width="512" height="512">
  <path
    d="M0 0 C0.72282166 -0.00067474 1.44564331 -0.00134949 2.19036865 -0.00204468 C48.72944451 0.0664309 96.33222675 13.8437801 134.3125 41.25 C135.7665625 42.29414062 135.7665625 42.29414062 137.25 43.359375 C148.67004373 51.74596962 159.08129149 60.84177648 169.125 70.8125 C169.91334229 71.59157715 170.70168457 72.3706543 171.51391602 73.17333984 C181.79500859 83.50965471 190.13095311 95.2338052 198.3125 107.25 C198.7151709 107.83136719 199.1178418 108.41273438 199.53271484 109.01171875 C203.75959048 115.18845343 206.35949382 120.22601553 205.80078125 127.83984375 C204.79870633 132.78608555 202.32790855 135.33129703 198.6875 138.625 C194.11405451 140.82702931 190.30296524 141.05465156 185.3125 140.25 C179.06490344 137.12620172 175.68884982 132.02165415 172.125 126.1875 C152.93985673 95.76010717 126.83883587 72.33115856 95.3125 55.25 C94.24902344 54.66476563 93.18554688 54.07953125 92.08984375 53.4765625 C75.24166272 44.60064353 56.97031641 38.84299618 38.3125 35.25 C37.46316895 35.08628906 36.61383789 34.92257813 35.73876953 34.75390625 C-14.29050055 25.5836102 -68.41445165 36.80226712 -110.53515625 65.34765625 C-114.84202126 68.33340953 -119.09906758 71.38384124 -123.3125 74.5 C-123.95147217 74.97091064 -124.59044434 75.44182129 -125.2487793 75.92700195 C-129.17098272 78.89307462 -132.66368707 82.09080872 -136.07373047 85.6340332 C-137.70247095 87.26499133 -139.40364126 88.7294374 -141.1875 90.1875 C-145.13165505 93.51811982 -148.39055464 97.28956148 -151.6875 101.25 C-152.41195312 102.10980469 -153.13640625 102.96960938 -153.8828125 103.85546875 C-184.33829898 140.45367199 -201.16832272 186.03164998 -201.0625 233.625 C-201.06228851 234.50440247 -201.06207703 235.38380493 -201.06185913 236.28985596 C-201.02759558 250.59902856 -200.0563418 264.29376225 -196.6875 278.25 C-196.50026367 279.04905762 -196.31302734 279.84811523 -196.12011719 280.67138672 C-194.85625008 285.93749966 -193.35466366 291.09841811 -191.6875 296.25 C-191.45224609 296.98959961 -191.21699219 297.72919922 -190.97460938 298.49121094 C-183.97865826 320.06052196 -172.80260126 339.95050782 -159.1875 358 C-158.65326416 358.7101123 -158.11902832 359.42022461 -157.56860352 360.15185547 C-154.38917761 364.29049471 -151.04294706 368.05204012 -147.27709961 371.66699219 C-145.65343559 373.28392315 -144.19959066 374.97662569 -142.75 376.75 C-139.42112106 380.69371146 -135.65525161 383.96365117 -131.6875 387.25 C-130.93597656 387.87777344 -130.18445313 388.50554687 -129.41015625 389.15234375 C-87.26883564 423.64402431 -34.51186597 440.76139914 19.97607422 435.92480469 C62.28343199 431.18490444 100.98674579 414.98018624 133.3125 387.25 C134.10011719 386.59257812 134.88773437 385.93515625 135.69921875 385.2578125 C151.06918711 372.22607462 163.38373893 356.58008345 173.875 339.4375 C176.97951433 334.49405038 180.00881003 330.90184499 185.3125 328.25 C190.2377115 327.70964406 194.18191718 327.70564531 198.6875 329.875 C203.12539079 333.89023452 205.54332682 337.15599656 206.125 343.1875 C205.79298 351.36625945 200.8334776 357.75424897 196.3125 364.25 C195.87405762 364.88518555 195.43561523 365.52037109 194.98388672 366.17480469 C191.88104957 370.62823505 188.64625658 374.96713123 185.3125 379.25 C184.89838867 379.78270508 184.48427734 380.31541016 184.05761719 380.86425781 C171.81024615 396.40109062 157.38310236 410.70550356 141.3125 422.25 C140.27222656 423.01183594 139.23195313 423.77367187 138.16015625 424.55859375 C118.34819802 438.68900154 96.54679138 449.96623405 73.3125 457.25 C72.53003906 457.50233398 71.74757813 457.75466797 70.94140625 458.01464844 C56.62823645 462.58785316 42.20294176 465.31518766 27.3125 467.25 C26.51714844 467.3545752 25.72179687 467.45915039 24.90234375 467.56689453 C17.18755506 468.46236108 9.44451996 468.49347294 1.6875 468.5 C0.59952118 468.50101212 0.59952118 468.50101212 -0.51043701 468.50204468 C-35.74791417 468.45033998 -69.97364289 460.63435966 -101.6875 445.25 C-102.45271973 444.88036133 -103.21793945 444.51072266 -104.00634766 444.12988281 C-134.62387664 429.14778141 -162.92162889 406.39492956 -183.6875 379.25 C-184.15736328 378.64542969 -184.62722656 378.04085938 -185.11132812 377.41796875 C-206.97942828 349.09836013 -221.32956423 316.44118572 -228.9375 281.5625 C-229.08880371 280.87559082 -229.24010742 280.18868164 -229.39599609 279.48095703 C-232.435128 264.58749367 -233.06223536 249.71519122 -233 234.5625 C-232.99817719 233.6386853 -232.99635437 232.71487061 -232.99447632 231.76306152 C-232.94894765 218.04632736 -232.44603032 204.72498618 -229.6875 191.25 C-229.52121094 190.37682129 -229.35492188 189.50364258 -229.18359375 188.60400391 C-222.1243181 151.91537962 -206.22222846 117.27851623 -182.6875 88.25 C-182.21521973 87.66347656 -181.74293945 87.07695313 -181.25634766 86.47265625 C-169.29712458 71.74604353 -155.95598708 58.51263246 -140.6875 47.25 C-139.74390625 46.53457031 -138.8003125 45.81914063 -137.828125 45.08203125 C-97.99985579 15.32593994 -49.51908631 0.04192077 0 0 Z "
    fill="#000000" transform="translate(232.6875,21.75)" />
  <path
    d="M0 0 C7.33933064 4.17408667 14.08186878 9.54851176 20.89453125 14.5234375 C25.97393989 18.22282648 31.11782905 21.82587094 36.2734375 25.41796875 C60.42722902 42.28805178 60.42722902 42.28805178 62.8359375 47.10546875 C62.98426435 48.85116162 63.05722033 50.60372112 63.0859375 52.35546875 C63.11171875 53.28875 63.1375 54.22203125 63.1640625 55.18359375 C62.67977339 59.49607294 61.49679559 62.59504888 58.22412109 65.57128906 C56.16015461 67.15701299 54.04876572 68.63899211 51.8984375 70.10546875 C51.10574463 70.66161865 50.31305176 71.21776855 49.49633789 71.79077148 C47.8104302 72.97148395 46.12045146 74.14640162 44.42675781 75.31591797 C41.87473007 77.07867365 39.33420661 78.85679502 36.796875 80.640625 C33.45538336 82.98882303 30.10885598 85.32951747 26.7578125 87.6640625 C23.50655865 89.93185697 20.26737215 92.21528831 17.0390625 94.515625 C16.27730713 95.05759521 15.51555176 95.59956543 14.73071289 96.15795898 C13.31134368 97.16914769 11.89371363 98.18278444 10.47827148 99.19946289 C-1.69292348 107.85953037 -1.69292348 107.85953037 -8.95703125 107.48828125 C-13.93091366 106.62555474 -17.16290695 104.35545214 -20.33886719 100.39013672 C-22.4342097 96.61930497 -22.63044269 94.45594976 -22.5546875 90.17578125 C-22.53535156 88.2421875 -22.53535156 88.2421875 -22.515625 86.26953125 C-22.48221156 84.92316607 -22.44835187 83.5768119 -22.4140625 82.23046875 C-22.39397606 80.86070306 -22.37572905 79.49090909 -22.359375 78.12109375 C-22.3123431 74.78182889 -22.24662114 71.44401313 -22.1640625 68.10546875 C-23.0118344 68.10717749 -23.0118344 68.10717749 -23.87673301 68.10892075 C-57.36233833 68.17603219 -90.84792681 68.22751689 -124.33358429 68.25866474 C-128.35284211 68.26241693 -132.3720998 68.26629989 -136.39135742 68.27026367 C-137.19153063 68.2710506 -137.99170384 68.27183753 -138.81612471 68.27264831 C-151.7781536 68.2857078 -164.74014263 68.30936463 -177.70214786 68.33692714 C-190.99902544 68.36496624 -204.29588212 68.38164184 -217.59278804 68.38773423 C-225.79992723 68.39185379 -234.00695379 68.40487236 -242.21405832 68.42921815 C-247.83940466 68.44505689 -253.46469263 68.44987334 -259.09005966 68.44597288 C-262.3372696 68.44404841 -265.5842405 68.44866263 -268.83142471 68.46308517 C-272.35059968 68.47795301 -275.8692879 68.47444285 -279.38847351 68.4662323 C-280.41668345 68.47497082 -281.44489338 68.48370935 -282.5042612 68.49271268 C-291.16102338 68.43790843 -291.16102338 68.43790843 -295.1640625 65.10546875 C-299.55737535 60.10197356 -300.5098331 57.19822321 -300.453125 50.6484375 C-299.90708052 45.84472184 -296.81607117 42.12234548 -293.1640625 39.10546875 C-290.31214885 38.15483087 -288.56528786 37.98104034 -285.60946369 37.98242092 C-284.66994053 37.98042987 -283.73041737 37.97843882 -282.76242381 37.97638744 C-281.72838819 37.97930028 -280.69435258 37.98221312 -279.62898254 37.98521423 C-278.53202724 37.98435981 -277.43507193 37.98350538 -276.30487555 37.98262507 C-272.61054196 37.98097131 -268.91625327 37.98648999 -265.22192383 37.99194336 C-262.58111976 37.99222528 -259.94031849 37.99211149 -257.29951477 37.99150085 C-251.60446008 37.99097603 -245.90941682 37.99411848 -240.21436501 37.99973869 C-231.98023626 38.00785933 -223.74611305 38.01046949 -215.51198073 38.01172668 C-202.15324769 38.01391631 -188.79452075 38.020574 -175.43579102 38.0300293 C-162.45760122 38.03920571 -149.47941308 38.04628542 -136.5012207 38.05053711 C-135.70149406 38.05079983 -134.90176741 38.05106256 -134.07780663 38.05133324 C-130.06588745 38.05263826 -126.05396825 38.05390197 -122.04204905 38.05514514 C-88.74938243 38.06551499 -55.45672328 38.0831309 -22.1640625 38.10546875 C-22.18500977 37.25839355 -22.20595703 36.41131836 -22.22753906 35.53857422 C-22.29600305 32.37406482 -22.34600237 29.20993484 -22.38378906 26.04492188 C-22.40381569 24.67923507 -22.43104582 23.31363306 -22.46582031 21.94824219 C-22.51472682 19.97759773 -22.53497597 18.00630892 -22.5546875 16.03515625 C-22.57563477 14.85163574 -22.59658203 13.66811523 -22.61816406 12.44873047 C-22.06579013 8.38195166 -20.71213465 6.28684038 -18.1640625 3.10546875 C-12.45029978 -1.15184465 -6.84028339 -2.82748176 0 0 Z "
    fill="#000000" transform="translate(449.1640625,202.89453125)" />
</svg>