<?xml version="1.0" encoding="UTF-8"?>
<svg version="1.1" xmlns="http://www.w3.org/2000/svg" width="512" height="512">
  <path
    d="M0 0 C1.11761719 0.54398438 2.23523438 1.08796875 3.38671875 1.6484375 C40.77837272 20.86296656 68.28819899 55.03825752 81.29345703 94.74072266 C85.79947234 109.14938389 88.27007985 123.58921669 88.34375 138.703125 C88.3583728 139.8651947 88.37299561 141.0272644 88.38806152 142.22454834 C88.43404902 145.89966461 88.46851293 149.57473279 88.5 153.25 C88.76258735 197.95264661 88.76258735 197.95264661 111.41748047 235.42578125 C112.96184229 236.93383441 114.51186474 238.43590048 116.0625 239.9375 C129.20154359 252.75762484 136.03665894 268.89262423 136.375 287.1875 C136.32394545 305.00160941 129.4731121 321.72646553 116.88671875 334.30859375 C102.79914105 347.44302005 88.05683817 352.34930684 69.09375 352.1953125 C67.75997125 352.19157544 66.42618972 352.18873175 65.09240723 352.18673706 C61.60717999 352.17915506 58.1221234 352.15955436 54.63696289 352.1373291 C51.07049873 352.11675256 47.5040066 352.10771027 43.9375 352.09765625 C36.9582639 352.07630245 29.97914018 352.04223339 23 352 C22.8673172 352.75431808 22.7346344 353.50863617 22.59793091 354.28581238 C22.33313431 355.77085014 22.33313431 355.77085014 22.06298828 357.28588867 C21.80208908 358.7576783 21.80208908 358.7576783 21.53591919 360.25920105 C18.67928654 374.86859723 9.80411771 389.04971745 0 400 C-0.79921875 400.89332031 -1.5984375 401.78664063 -2.421875 402.70703125 C-18.7637177 419.99167257 -41.39041851 431.23330007 -65.2578125 432.37890625 C-93.2388692 433.14775142 -117.04018097 425.54225871 -137.7578125 406.1484375 C-138.86769531 405.08496094 -138.86769531 405.08496094 -140 404 C-140.63679687 403.41476562 -141.27359375 402.82953125 -141.9296875 402.2265625 C-155.18773305 389.67561272 -162.91496758 372.51850444 -167 355 C-167 354.01 -167 353.02 -167 352 C-167.72059601 352.00888245 -168.44119202 352.01776489 -169.18362427 352.0269165 C-176.03689343 352.10768836 -182.89008977 352.16827823 -189.74371529 352.20724869 C-193.2657139 352.22795882 -196.78731316 352.2559643 -200.30908203 352.30175781 C-204.37536029 352.35428938 -208.44123151 352.3730817 -212.5078125 352.390625 C-213.74798126 352.41127014 -214.98815002 352.43191528 -216.26589966 352.45318604 C-233.99020738 352.45764779 -248.61332415 346.23870153 -261.203125 333.92578125 C-274.51876758 320.32557778 -280.56639614 303.67247726 -280.41943359 284.80566406 C-279.79638816 265.7927291 -271.1341034 251.0951298 -258 238 C-256.79208388 236.87455205 -255.58381668 235.74948063 -254.375 234.625 C-240.61489052 220.96388412 -233.75784307 201.0778145 -233.65625 182.0625 C-233.62809155 179.9413238 -233.59984959 177.82014871 -233.5715332 175.69897461 C-233.56030426 174.60374481 -233.54907532 173.50851501 -233.5375061 172.38009644 C-232.76387991 102.65994745 -232.76387991 102.65994745 -219.1875 81.125 C-215.46778262 77.51156026 -211.65269697 76.21034325 -206.5625 75.5625 C-200.49577606 76.30753627 -196.38968565 78.2539847 -192.5625 83.0625 C-189.20449255 89.37555401 -189.27983334 95.05286664 -191.2421875 101.76953125 C-191.77760579 103.4533614 -192.32216991 105.13430585 -192.875 106.8125 C-198.01452279 123.23867158 -198.99633876 139.06031401 -199.2109375 156.19140625 C-199.22527328 157.27386627 -199.23960907 158.35632629 -199.25437927 159.47158813 C-199.31172688 163.96694053 -199.36645501 168.46217442 -199.40136719 172.95776367 C-199.50769932 185.6342036 -199.71516461 197.69892197 -203 210 C-203.18771973 210.74934814 -203.37543945 211.49869629 -203.56884766 212.27075195 C-208.96527216 232.47713015 -220.66922316 249.05530562 -235.5078125 263.38745117 C-242.18654377 269.95051164 -246.08418652 276.64599605 -246.25 286.125 C-246.12463252 295.54009806 -243.55215073 303.13864665 -237 310 C-228.80492927 317.36084197 -221.63765652 318.29637807 -210.87394714 318.26742554 C-209.64193787 318.27195665 -208.4099286 318.27648776 -207.14058572 318.28115618 C-203.7281721 318.29161825 -200.31596944 318.29312744 -196.9035548 318.29076743 C-193.2204118 318.2903589 -189.53730012 318.30140184 -185.85417175 318.31088257 C-178.64094974 318.32748563 -171.42776042 318.3329918 -164.21452089 318.33410732 C-158.35041493 318.33505812 -152.48631974 318.33916996 -146.62221718 318.34550858 C-129.99131799 318.36311899 -113.3604446 318.37234774 -96.72953602 318.37084763 C-95.83322029 318.37076772 -94.93690455 318.3706878 -94.01342773 318.37060547 C-93.11601588 318.37052371 -92.21860402 318.37044195 -91.29399786 318.37035771 C-76.75073036 318.36954483 -62.20756644 318.38868335 -47.6643289 318.4168822 C-32.72645418 318.44561738 -17.78862996 318.45942215 -2.8507269 318.45769465 C5.53377735 318.45703097 13.91817302 318.46251345 22.30265236 318.48405075 C29.44143102 318.50227089 36.58005187 318.50660308 43.71884374 318.4930319 C47.35951495 318.48650643 50.99988348 318.48636946 54.64052582 318.5037384 C58.59148904 318.5223936 62.54201141 318.50990351 66.49299622 318.49447632 C68.21013336 318.50990701 68.21013336 318.50990701 69.96196014 318.52564943 C79.87173665 318.44016296 87.01088364 315.68271661 94.27734375 308.921875 C100.43690806 302.04998013 102.53534418 292.86497053 102.30078125 283.828125 C101.14821502 272.99100872 94.41418861 266.09236621 86.765625 258.8984375 C65.49024048 238.75472237 56.10579609 209.63220785 55 181 C54.9075316 176.87004162 54.86320193 172.74014723 54.82421875 168.609375 C54.81223953 167.49126434 54.80026031 166.37315369 54.78791809 165.22116089 C54.73940475 160.56523827 54.69195305 155.90957319 54.67407227 151.25341797 C54.59201466 133.2790161 53.37602671 116.21969913 46.8125 99.3125 C46.37031128 98.15016846 46.37031128 98.15016846 45.91918945 96.96435547 C40.64849144 83.59990751 33.13167016 72.02046838 24 61 C23.33226562 60.17886719 22.66453125 59.35773438 21.9765625 58.51171875 C2.61669999 35.63547305 -27.52774628 21.44255175 -57 18 C-82.87636847 16.35370576 -106.67702824 19.53561603 -130.0625 30.875 C-135.42365659 33.37741297 -139.31577117 34.21004947 -145.12890625 32.30078125 C-149.94319649 30.19951645 -152.7084761 27.85803066 -155 23 C-156.59919656 16.91416866 -156.20588314 12.55686412 -153 7 C-149.24283661 2.68748947 -145.48366798 0.38478325 -140.375 -1.9375 C-139.63717285 -2.27740967 -138.8993457 -2.61731934 -138.13916016 -2.9675293 C-94.4136085 -22.51785202 -42.82940528 -20.86352498 0 0 Z M-133 352 C-129.95195514 367.24022428 -119.70527484 379.46227685 -107.37109375 388.4765625 C-92.25458472 398.18898181 -75.7720339 401.73647077 -58.01953125 398.34375 C-45.24257488 395.05379009 -35.25543283 388.22318393 -26 379 C-25.04480469 378.07960938 -25.04480469 378.07960938 -24.0703125 377.140625 C-17.53056865 370.3392914 -12.84133567 361.20667834 -11 352 C-51.26 352 -91.52 352 -133 352 Z "
    fill="#252525" transform="translate(328,48)" />
  <path
    d="M0 0 C3.83084349 2.61193874 6.65161815 5.67823629 8.75 9.875 C9.71428352 17.01558052 8.9796982 22.01998291 4.60546875 27.796875 C-0.28112398 33.26985885 -4.38452122 37.54741705 -11.9375 38.1875 C-16.6987546 38.10858418 -20.40436044 36.66330186 -24.25 33.875 C-28.06570218 29.08091265 -29.63610981 25.15881739 -29.5234375 18.984375 C-28.65565903 12.29008395 -22.90494496 6.40744641 -18.25 1.875 C-12.52042394 -2.11079204 -6.46512569 -2.23792812 0 0 Z "
    fill="#0BC120" transform="translate(158.25,78.125)" />
</svg>