<?xml version="1.0" encoding="UTF-8"?>
<svg version="1.1" xmlns="http://www.w3.org/2000/svg" width="512" height="512">
  <path
    d="M0 0 C9.74843428 6.95818476 16.75896637 16.88354052 19.04296875 28.73046875 C19.61820899 34.24110347 19.45412792 39.78114289 19.3125 45.3125 C20.29605469 45.5084375 21.27960938 45.704375 22.29296875 45.90625 C57.43202342 53.31141037 97.46568709 73.89463352 118.5546875 104.08203125 C120.40550585 105.64950125 120.40550585 105.64950125 123.6015625 105.109375 C127.020534 104.37519586 130.41376296 103.57189085 133.8125 102.75 C157.29288259 97.70377743 182.53083101 101.89035759 203.125 114.125 C226.46394486 129.33853443 241.44749182 150.39799477 247.56640625 177.6171875 C248.49132391 182.1981933 249.12772065 186.64481305 249.3125 191.3125 C249.35246094 192.07175781 249.39242188 192.83101562 249.43359375 193.61328125 C250.08632741 217.07329682 241.82522468 240.73367006 226.3125 258.3125 C225.549375 259.323125 224.78625 260.33375 224 261.375 C210.29255727 276.35755368 190.40288623 287.26688294 170.3125 290.3125 C168.3325 290.3125 166.3525 290.3125 164.3125 290.3125 C164.3125 316.3825 164.3125 342.4525 164.3125 369.3125 C167.2825 369.3125 170.2525 369.3125 173.3125 369.3125 C184.53504869 370.89784145 195.71478526 376.25206583 202.8671875 385.2734375 C210.51389264 396.11578061 213.32986967 407.13029582 212.3125 420.3125 C209.84730117 433.18796618 203.13863636 443.81748252 192.3125 451.3125 C185.34391171 454.84067694 178.7367519 457.44032264 170.8961792 457.43275452 C169.79684052 457.43412918 168.69750183 457.43550385 167.56484985 457.43692017 C166.36363495 457.43332489 165.16242004 457.42972961 163.92480469 457.42602539 C162.65625641 457.42617142 161.38770813 457.42631744 160.08071899 457.4264679 C156.60584589 457.42675474 153.13100732 457.42087617 149.65614223 457.41389394 C146.0233064 457.4076417 142.39046978 457.40705512 138.75762939 457.40586853 C131.87997412 457.40276074 125.00233475 457.39455477 118.12468648 457.38451904 C110.29403149 457.37334078 102.46337573 457.36784313 94.63271475 457.36282361 C78.52596719 457.35237171 62.41923563 457.33478294 46.3125 457.3125 C46.01013428 458.56192383 45.70776855 459.81134766 45.39624023 461.09863281 C41.769825 476.08356417 31.70355856 488.51755325 18.91796875 496.8515625 C3.89475974 505.27537085 -13.66676037 508.17504261 -30.65625 504.625 C-33.79227448 503.71159481 -36.69854323 502.62582949 -39.6875 501.3125 C-40.68523437 500.91160156 -41.68296875 500.51070313 -42.7109375 500.09765625 C-57.87648789 493.37257285 -68.0145759 480.83406721 -74.7421875 465.953125 C-75.76957705 463.08322693 -76.21992657 460.31884699 -76.6875 457.3125 C-77.39188548 457.31618717 -78.09627096 457.31987434 -78.82200146 457.32367325 C-96.0092911 457.41224416 -113.19652233 457.47831611 -130.38399029 457.51974869 C-138.69593725 457.54032086 -147.0077313 457.5683384 -155.31958008 457.61425781 C-162.56931077 457.65429018 -169.81893064 457.6799716 -177.0687688 457.68885398 C-180.90291087 457.69404118 -184.73673608 457.70611941 -188.57077599 457.73542023 C-192.18973352 457.76284964 -195.80824787 457.77089044 -199.4272995 457.76493073 C-201.3678965 457.76653223 -203.30844677 457.78790949 -205.24891663 457.81018066 C-218.6457992 457.74814386 -229.65991975 454.32768032 -239.6875 445.3125 C-246.98966791 437.88586332 -252.08260554 427.79733727 -252.6875 417.3125 C-252.77 416.095625 -252.8525 414.87875 -252.9375 413.625 C-252.7315766 401.79584459 -248.1193755 390.64620447 -240.125 382.0625 C-231.07931702 373.51412798 -220.39760986 369.25791333 -208.0222168 369.29833984 C-206.80504219 369.3014064 -206.80504219 369.3014064 -205.5632782 369.30453491 C-204.94427139 369.30716339 -204.32526459 369.30979187 -203.6875 369.3125 C-203.69026538 368.49603123 -203.69303076 367.67956245 -203.69587994 366.8383522 C-203.76240201 346.88632835 -203.81190734 326.93432385 -203.84293652 306.98221207 C-203.8583444 297.33315271 -203.87931628 287.68416779 -203.91381836 278.03515625 C-203.94390834 269.61597315 -203.96311905 261.19684402 -203.96976548 252.77760863 C-203.97364488 248.32795124 -203.98263188 243.87844812 -204.00469017 239.42884064 C-204.26506952 184.72748641 -190.67456236 137.97295628 -152.6875 97.3125 C-151.88957031 96.44882813 -151.09164062 95.58515625 -150.26953125 94.6953125 C-129.07474962 72.57065392 -101.05995286 56.65048662 -71.6875 48.3125 C-70.6975 48.3125 -69.7075 48.3125 -68.6875 48.3125 C-68.72230469 47.05695312 -68.75710937 45.80140625 -68.79296875 44.5078125 C-69.08224765 29.80892028 -67.46771105 17.24474603 -57.24609375 5.78125 C-41.18312222 -9.35578583 -18.7244124 -11.37405085 0 0 Z M-43.14453125 21.234375 C-48.25037293 28.11110354 -49.20863883 34.96112369 -48.6875 43.3125 C-47.87845215 43.2410376 -47.0694043 43.1695752 -46.23583984 43.09594727 C-36.57244802 42.31576227 -27.00054083 42.1935255 -17.3125 42.25 C-15.78645983 42.25503269 -14.26041802 42.25959242 -12.734375 42.26367188 C-9.05204846 42.27451981 -5.36978531 42.29168346 -1.6875 42.3125 C-1.64507276 40.40383979 -1.61489769 38.4949048 -1.58984375 36.5859375 C-1.57171631 35.52294434 -1.55358887 34.45995117 -1.53491211 33.36474609 C-1.84350311 27.19193865 -4.5389991 23.10934543 -9 19 C-19.9159277 10.51240367 -33.69546809 10.94203161 -43.14453125 21.234375 Z M-143.6875 117.3125 C-176.8275444 156.06132352 -184.15549637 199.29716601 -184.09481621 248.60506058 C-184.09300985 253.29785976 -184.11052305 257.99058343 -184.12658691 262.68334961 C-184.16733518 275.57172126 -184.17900773 288.4600855 -184.19011688 301.34851074 C-184.20063614 313.21923738 -184.21736039 325.08986611 -184.25821257 336.96053219 C-184.27654067 342.53309037 -184.28047306 348.10541457 -184.27327728 353.67799568 C-184.271757 357.13300611 -184.28252652 360.58789871 -184.29665565 364.0428772 C-184.30066046 365.64367224 -184.29952961 367.24448962 -184.29288292 368.84527588 C-184.2845068 371.03003297 -184.29448343 373.21397377 -184.30895996 375.39868164 C-184.30967247 376.62043594 -184.31038498 377.84219025 -184.31111908 379.10096741 C-184.72394951 382.62351153 -185.56145464 384.50056882 -187.6875 387.3125 C-191.05360582 389.14943896 -193.90914279 389.55912802 -197.70703125 389.5859375 C-199.11758789 389.616875 -199.11758789 389.616875 -200.55664062 389.6484375 C-202.50707488 389.67432249 -204.45762526 389.69264507 -206.40820312 389.703125 C-213.89217933 389.88703158 -219.23913666 391.29067637 -224.9296875 396.27734375 C-225.46851563 396.92832031 -226.00734375 397.57929688 -226.5625 398.25 C-227.11679688 398.89839844 -227.67109375 399.54679687 -228.2421875 400.21484375 C-232.35511323 406.18414407 -232.51962478 412.27885584 -231.6875 419.3125 C-229.71029087 425.8878699 -226.4195989 430.22042193 -220.84765625 434.15625 C-215.93199704 436.7874166 -211.49680043 437.56284794 -205.95887184 437.56697559 C-205.30432168 437.57018207 -204.64977152 437.57338855 -203.9753865 437.57669219 C-201.78474019 437.58498554 -199.59436776 437.57907035 -197.40371704 437.57319641 C-195.81619028 437.5762174 -194.22866498 437.58010662 -192.64114225 437.58478898 C-188.28051227 437.5950845 -183.91996436 437.5928832 -179.5593276 437.58860838 C-174.85575056 437.58614398 -170.15219343 437.59515178 -165.44862366 437.60264587 C-156.23445659 437.6154029 -147.02031866 437.61718531 -137.80614425 437.61484561 C-130.31731689 437.61306339 -122.82849839 437.61481003 -115.33967209 437.61907005 C-114.27428073 437.61966524 -113.20888938 437.62026043 -112.11121344 437.62087366 C-109.94694349 437.62208539 -107.78267354 437.62329953 -105.6184036 437.62451603 C-85.31631739 437.63539546 -65.01424778 437.63322718 -44.71216063 437.62713119 C-26.1363619 437.62196182 -7.5606156 437.63321729 11.01517276 437.65222941 C30.08549559 437.67159815 49.15579359 437.67986549 68.22612631 437.67610615 C78.93397536 437.67419263 89.64177978 437.67669641 100.34962082 437.69082069 C109.46541685 437.70272319 118.58114078 437.7041521 127.69693778 437.69203053 C132.34802945 437.68613387 136.99898915 437.68506416 141.6500721 437.69703293 C145.90877592 437.70786464 150.16723716 437.70482075 154.4259295 437.69077124 C155.96558608 437.68811683 157.50526151 437.6905142 159.04489963 437.69850711 C169.37988883 437.74843131 177.84771903 437.38573305 185.7734375 430.0390625 C190.48903037 424.74898116 192.58946478 418.36908085 192.3125 411.3125 C191.18632796 404.36579669 187.72328117 398.784774 182.3125 394.3125 C176.27156213 390.29086691 170.88101657 389.75508995 163.75 389.75 C151.93880083 389.69123782 151.93880083 389.69123782 146.3125 386.3125 C143.79080023 381.86980534 144.0065263 377.3553938 143.99365234 372.39135742 C143.98360672 371.50305237 143.9735611 370.61474731 143.96321106 369.69952393 C143.93239599 366.77234526 143.91534851 363.845258 143.8984375 360.91796875 C143.87972451 358.88486445 143.860151 356.8517679 143.8397522 354.81867981 C143.78843887 349.47417779 143.74880877 344.12965059 143.71160889 338.78503418 C143.67156431 333.32863134 143.62047401 327.87233317 143.5703125 322.41601562 C143.47356262 311.71491728 143.38915474 301.01375983 143.3125 290.3125 C142.09143555 290.04985352 140.87037109 289.78720703 139.61230469 289.51660156 C137.9862859 289.1623031 136.36031169 288.80780004 134.734375 288.453125 C133.93241699 288.28119629 133.13045898 288.10926758 132.30419922 287.93212891 C114.0317456 283.92746272 99.3304984 275.47885166 86.3125 262.3125 C85.51070313 261.52101563 84.70890625 260.72953125 83.8828125 259.9140625 C71.15760736 246.66047514 62.5249421 228.60015432 60.3125 210.3125 C60.17972656 209.23355469 60.04695313 208.15460938 59.91015625 207.04296875 C57.64194213 183.11203553 63.32206107 157.85383391 78.4375 138.75 C79.72098542 137.26372883 81.0117821 135.7837137 82.3125 134.3125 C82.76753906 133.71566406 83.22257812 133.11882812 83.69140625 132.50390625 C88.48905066 126.30277184 95.05322641 121.92801776 101.3125 117.3125 C93.72743544 98.30414543 63.83009181 82.84390195 46.328125 75.0234375 C-19.70646393 46.89854775 -95.8287923 63.64074736 -143.6875 117.3125 Z M107.3125 137.3125 C106.66796875 137.77140625 106.0234375 138.2303125 105.359375 138.703125 C91.08219306 149.77794838 81.67080301 168.69299472 79.3125 186.3125 C77.43815743 206.48321503 81.67795267 225.48462564 94.25 241.6875 C95.58476387 243.24599571 96.93819606 244.78875719 98.3125 246.3125 C98.90417969 246.99699219 99.49585938 247.68148437 100.10546875 248.38671875 C113.85376669 263.30757942 133.83341095 270.79523 153.8125 271.6875 C175.89829238 270.62363717 194.52874402 262.08879993 209.89453125 246.13671875 C224.96227936 228.53739422 229.98761997 208.12395044 228.3125 185.3125 C225.88095941 165.99090325 214.4935554 148.23269051 199.375 136.375 C170.72329655 116.21542515 135.49874469 116.46468588 107.3125 137.3125 Z M-54.6875 457.3125 C-52.71663146 467.16684272 -45.78135362 474.17519682 -37.59375 479.65234375 C-27.15696094 485.61421922 -16.25420162 486.96790128 -4.453125 484.6875 C7.7351745 481.15099859 17.12978693 473.37195199 23.3125 462.3125 C23.6425 460.6625 23.9725 459.0125 24.3125 457.3125 C-1.7575 457.3125 -27.8275 457.3125 -54.6875 457.3125 Z "
    fill="#000000" transform="translate(258.6875,6.6875)" />
  <path
    d="M0 0 C1.00560974 -0.00525696 2.01121948 -0.01051392 3.04730225 -0.01593018 C6.36242326 -0.02910473 9.67706183 -0.02040084 12.9921875 -0.01025391 C15.30094495 -0.01227537 17.60970177 -0.0151874 19.91845703 -0.01895142 C24.75364266 -0.02337133 29.58866186 -0.01695423 34.42382812 -0.00292969 C40.61786141 0.01416179 46.8115047 0.00431886 53.00552368 -0.01364708 C57.7719211 -0.02449376 62.53822625 -0.02103446 67.30462646 -0.0132637 C69.58835903 -0.01126415 71.87210001 -0.01371234 74.15582275 -0.02070236 C77.34889889 -0.02833116 80.54134567 -0.01669198 83.734375 0 C85.14659332 -0.00910904 85.14659332 -0.00910904 86.58734131 -0.0184021 C91.76479508 0.03167345 95.38690014 0.49262061 99.8671875 3.38818359 C101.80268563 5.85154485 101.89756679 7.6225381 102.3046875 10.76318359 C101.71812543 15.62326934 100.38123883 17.03386187 96.8671875 20.38818359 C94.07083684 21.35226562 91.4906152 21.51524921 88.54750061 21.52189636 C87.69098404 21.52616135 86.83446747 21.53042633 85.95199585 21.53482056 C85.02045685 21.53436737 84.08891785 21.53391418 83.12915039 21.53344727 C82.14173355 21.53680588 81.15431671 21.54016449 80.13697815 21.54362488 C76.87125391 21.55312784 73.60558096 21.55507759 70.33984375 21.55615234 C68.07067341 21.55936509 65.80150328 21.56272918 63.53233337 21.5662384 C58.77521281 21.57222783 54.0181104 21.57407846 49.26098633 21.57348633 C43.16329007 21.57338465 37.0657101 21.58704354 30.96804142 21.60425854 C26.2814836 21.61537224 21.59495397 21.61740574 16.90838432 21.6168766 C14.66010576 21.61805741 12.41182648 21.62248482 10.16356087 21.63020897 C7.02049715 21.63999714 3.87768687 21.63713548 0.73461914 21.63110352 C-0.19489563 21.63672302 -1.1244104 21.64234253 -2.08209229 21.64813232 C-7.89568453 21.61975572 -12.04757239 21.36070802 -16.4453125 17.20068359 C-18.58184392 13.63979789 -18.57932317 11.48119807 -18.1328125 7.38818359 C-17.27246556 4.29093459 -16.39912089 3.56029593 -13.68017578 1.80307007 C-9.00432071 -0.06192192 -4.9872014 -0.03216827 0 0 Z "
    fill="#000000" transform="translate(121.1328125,375.61181640625)" />
  <path
    d="M0 0 C3.21954645 2.53453657 4.70432435 4.11297305 6 8 C6.1335461 11.01280011 6.21237379 14.00160023 6.23828125 17.015625 C6.246353 17.90481628 6.25442474 18.79400757 6.26274109 19.71014404 C6.27657043 21.5930385 6.28729773 23.47595791 6.29516602 25.35888672 C6.31235265 28.22542421 6.35624544 31.09080021 6.40039062 33.95703125 C6.41052044 35.78905404 6.41903564 37.62108662 6.42578125 39.453125 C6.44328934 40.30440979 6.46079742 41.15569458 6.47883606 42.03277588 C6.44977698 50.08469121 3.63875083 54.67696608 -1.9841156 60.37530518 C-2.47275589 60.85473572 -2.96139618 61.33416626 -3.46484375 61.828125 C-4.23762413 62.60165314 -4.23762413 62.60165314 -5.02601624 63.39080811 C-6.10741565 64.46988483 -7.19246576 65.5453145 -8.28100586 66.6171875 C-9.93852631 68.25101163 -11.58221372 69.89786172 -13.22460938 71.546875 C-14.28306326 72.59975402 -15.34228237 73.65186445 -16.40234375 74.703125 C-16.88895981 75.19065247 -17.37557587 75.67817993 -17.87693787 76.18048096 C-24.57085938 82.73783305 -24.57085938 82.73783305 -29.31640625 83.25 C-33.18358146 82.81956659 -35.43912344 82.43775732 -38.5625 80 C-40.60097028 75.74580115 -41.28715795 72.60861726 -40 68 C-36.59074867 62.79687559 -32.17259803 58.76891202 -27.09765625 55.26171875 C-22.02349158 51.45806151 -17.02202274 47.59674335 -15.5769043 41.0970459 C-14.59689348 34.17546831 -14.67382981 27.18598105 -14.85546875 20.21313477 C-14.87458313 19.45719025 -14.89369751 18.70124573 -14.91339111 17.9223938 C-14.95939295 16.49176824 -15.02365301 15.06156678 -15.10955811 13.63278198 C-15.31036948 8.95043616 -14.45501152 5.97913341 -12 2 C-8.64496731 -0.73373034 -4.13665466 -0.82076481 0 0 Z "
    fill="#000000" transform="translate(417,156)" />
  <path
    d="M0 0 C1.08925781 -0.020625 2.17851562 -0.04125 3.30078125 -0.0625 C4.35394531 -0.06765625 5.40710938 -0.0728125 6.4921875 -0.078125 C7.93247314 -0.09214355 7.93247314 -0.09214355 9.40185547 -0.10644531 C13.63203692 0.44726322 16.25501728 2.23502016 19 5.4375 C20.53741061 9.28102654 20.48413282 12.33635248 19.125 16.25 C15.1865262 20.29211785 11.74704209 21.36503192 6.23046875 21.453125 C4.25786542 21.4744073 2.28519175 21.48979862 0.3125 21.5 C-0.67298828 21.520625 -1.65847656 21.54125 -2.67382812 21.5625 C-8.16328213 21.59199337 -12.16216469 21.40455912 -16.875 18.25 C-18.91731601 15.94415934 -19.82059305 14.38801202 -19.96875 11.2890625 C-19.70178226 7.69834639 -19.22695009 5.70753512 -17 2.8125 C-11.97980799 -0.87881765 -5.95941643 0.02801136 0 0 Z "
    fill="#000000" transform="translate(257.875,375.75)" />
</svg>