<?xml version="1.0" encoding="UTF-8"?>
<svg version="1.1" xmlns="http://www.w3.org/2000/svg" width="512" height="512">
  <path
    d="M0 0 C1.11130583 -0.00573832 1.11130583 -0.00573832 2.24506229 -0.01159257 C4.71072528 -0.0218554 7.17615247 -0.01794335 9.64183044 -0.01396179 C11.41635858 -0.01831189 13.19088484 -0.02349603 14.96540833 -0.02944946 C19.77311583 -0.04281608 24.58074461 -0.04342092 29.38846707 -0.04088616 C33.40454964 -0.03981525 37.42061635 -0.04470272 41.43669552 -0.04949158 C50.91019661 -0.06057787 60.38365804 -0.06102858 69.85716248 -0.05497742 C79.62805369 -0.04893233 89.3988011 -0.06126425 99.16966778 -0.08254749 C107.56389775 -0.10015925 115.95808191 -0.10616566 124.35232967 -0.10290974 C129.36367547 -0.10109667 134.37491858 -0.10373587 139.38624763 -0.11762428 C144.0968676 -0.1301917 148.807263 -0.12826882 153.51787949 -0.11521339 C155.24563993 -0.11284601 156.97341614 -0.11558811 158.70115852 -0.12383652 C161.06144982 -0.13429174 163.42098578 -0.12621376 165.78125 -0.11352539 C166.80426463 -0.12458682 166.80426463 -0.12458682 167.84794623 -0.13587171 C172.37268463 -0.08477236 175.48357421 0.88471552 179.32713318 3.26069641 C180.8918455 6.39012106 181.02415276 9.87151864 180.32713318 13.26069641 C178.034336 16.33072431 176.84012524 17.18274297 173.00375366 17.76571178 C171.65722933 17.78851807 170.31022554 17.78933624 168.96360779 17.77294922 C168.21980582 17.7797449 167.47600386 17.78654059 166.70966244 17.79354221 C164.21596713 17.81150778 161.72320378 17.80102806 159.22947693 17.79072571 C157.44228867 17.79782236 155.65510669 17.80668525 153.86793518 17.81718445 C149.0126115 17.84082282 144.15755622 17.84005908 139.30218887 17.83526969 C134.22443236 17.83467704 129.146784 17.85735656 124.06907654 17.87783813 C114.44790918 17.91327801 104.82681739 17.92927098 95.20559216 17.93761331 C81.08113166 17.95056294 66.9567346 17.98883155 52.83233643 18.03171253 C51.79724284 18.03485122 50.76214926 18.03798991 49.6956892 18.0412237 C47.63206049 18.04750382 45.56843197 18.05384739 43.50480366 18.0602563 C37.45452266 18.07833703 31.40427891 18.08943228 25.35397339 18.09455335 C21.59312624 18.09838274 17.8322926 18.10599563 14.07145309 18.11436081 C12.32511985 18.11732335 10.5787827 18.11855628 8.83244705 18.11794853 C6.45181865 18.11728252 4.07127569 18.12262296 1.69065857 18.12939453 C0.64999945 18.12676897 0.64999945 18.12676897 -0.41168308 18.12409037 C-3.64595822 18.13930216 -6.57879498 18.27247396 -9.67286682 19.26069641 C-10.94587923 24.1594972 -10.81802102 28.99245758 -10.81330872 34.01557922 C-10.81627984 35.00454319 -10.81925096 35.99350716 -10.82231212 37.01243973 C-10.83099072 40.32957551 -10.83250664 43.64667517 -10.83399963 46.96382141 C-10.83862826 49.34065325 -10.84365298 51.71748435 -10.8490448 54.09431458 C-10.86216324 60.55282461 -10.86864897 67.01132774 -10.87305546 73.46984863 C-10.87582024 77.50271231 -10.88005791 81.5355736 -10.88455963 85.56843567 C-10.89674732 96.73593495 -10.90704908 107.90343232 -10.91043472 119.07093811 C-10.91065429 119.78516662 -10.91087386 120.49939513 -10.91110007 121.23526692 C-10.91131835 121.95118654 -10.91153663 122.66710616 -10.91176152 123.40472031 C-10.91220499 124.85541026 -10.91265155 126.30610021 -10.9131012 127.75679016 C-10.91332263 128.47637988 -10.91354406 129.19596959 -10.9137722 129.93736506 C-10.91772301 141.60577842 -10.93518788 153.27412944 -10.95846072 164.94251871 C-10.98216562 176.92422512 -10.9946361 188.90590022 -10.99580264 200.88763046 C-10.99671965 207.61427459 -11.00247878 214.34083737 -11.02062225 221.06745911 C-11.03705372 227.39084494 -11.03928241 233.71407607 -11.03048325 240.03747559 C-11.02971033 242.36069146 -11.03408892 244.68391549 -11.0439415 247.0071106 C-11.05658498 250.17353116 -11.05082551 253.33939746 -11.0403595 256.5058136 C-11.0484159 257.42944828 -11.05647231 258.35308296 -11.06477284 259.30470657 C-11.058183 260.15456005 -11.05159316 261.00441353 -11.04480362 261.88002014 C-11.04569925 262.97581453 -11.04569925 262.97581453 -11.04661298 264.09374619 C-10.52558257 267.11463866 -9.61474334 268.88431376 -7.67286682 271.26069641 C-4.9157512 272.00925406 -4.9157512 272.00925406 -1.68705654 271.88152218 C-0.42829439 271.89271082 0.83046777 271.90389946 2.12737423 271.91542715 C3.5320639 271.90254287 4.93674936 271.88919273 6.34143066 271.87542725 C7.82752928 271.87903774 9.31362393 271.88483855 10.7997064 271.89264923 C14.89385733 271.907757 18.98738613 271.8915386 23.08148825 271.87034261 C27.49257443 271.85290932 31.90359662 271.86422147 36.31469727 271.87200928 C44.95985136 271.88270028 53.60476259 271.86670339 62.24987967 271.84187102 C72.30875474 271.81399471 82.36758008 271.81259821 92.42648738 271.81242801 C110.36843774 271.81123969 128.31027623 271.78623861 146.25218201 271.74775696 C163.67895347 271.71040413 181.10564356 271.68916121 198.53245544 271.68623352 C200.14255459 271.6859593 200.14255459 271.6859593 201.78518099 271.68567955 C203.39244309 271.68541109 203.39244309 271.68541109 205.03217512 271.68513721 C207.189381 271.68477181 209.34658688 271.68439943 211.50379276 271.68402004 C213.09941748 271.68374177 213.09941748 271.68374177 214.72727704 271.68345788 C231.31170328 271.67989087 247.89611687 271.66144175 264.48053031 271.6415268 C270.50024634 271.63449497 276.51995938 271.62971758 282.53967864 271.62656545 C292.08641273 271.6215244 301.63309004 271.61014363 311.17979486 271.58526515 C315.54452618 271.57401387 319.90920148 271.56593042 324.27394867 271.56639862 C328.26411802 271.56670546 332.25415458 271.5578455 336.24428921 271.5414306 C337.69307528 271.5370889 339.14187612 271.53615854 340.59066618 271.53885668 C342.54950558 271.54199166 344.50835312 271.53177651 346.46716404 271.52075863 C347.55837293 271.51880771 348.64958182 271.51685678 349.77385765 271.51484674 C352.49382615 271.51639747 352.49382615 271.51639747 354.32713318 269.26069641 C354.52581958 266.76585775 354.59911645 264.38151946 354.5854187 261.88539124 C354.59093226 260.73149096 354.59093226 260.73149096 354.5965572 259.55427957 C354.60658061 256.96253701 354.6023778 254.37100718 354.59837341 251.7792511 C354.60275806 249.92664358 354.60805925 248.07403804 354.61421204 246.22143555 C354.62573497 242.22447757 354.63117314 238.22757277 354.63209343 234.23059845 C354.63402978 227.91101228 354.65205976 221.59153642 354.67285156 215.27198792 C354.72210424 199.57113163 354.75292049 183.87024523 354.77415466 168.16932678 C354.79067184 155.97653726 354.81347892 143.78384176 354.85717541 131.59111524 C354.8789712 125.30885974 354.88700772 119.02678276 354.88478267 112.74449205 C354.88644923 108.83381811 354.90049715 104.92326067 354.91799545 101.01262856 C354.92359596 99.19941619 354.92407927 97.38617968 354.91905785 95.57296562 C354.91291862 93.0963559 354.92514406 90.62048188 354.94186401 88.14393616 C354.9356522 87.42738822 354.92944038 86.71084028 354.92304033 85.97257876 C354.97984082 81.35101636 355.91790066 78.19796649 358.32713318 74.26069641 C360.85174009 72.25842196 362.08759749 72.25071576 365.32713318 72.38569641 C368.91079792 73.43093196 370.08170139 74.28956475 372.32713318 77.26069641 C372.7115427 80.02360351 372.85119573 82.38466393 372.80815125 85.14466858 C372.81156894 85.94437899 372.81498664 86.7440894 372.81850791 87.56803346 C372.82510256 90.25078185 372.80308512 92.93253222 372.78123474 95.6151886 C372.7801066 97.5369362 372.78073946 99.45868553 372.78300476 101.38043213 C372.78415415 106.60125368 372.76060832 111.8217089 372.73270893 117.04244518 C372.70773281 122.49703307 372.70535627 127.95162901 372.7006073 133.40626526 C372.68816639 143.73705085 372.65532962 154.06766748 372.61520934 164.39837861 C372.57052638 176.15880419 372.54851333 187.91923777 372.5284276 199.67972708 C372.48659802 223.87347726 372.41622423 248.06707738 372.32713318 272.26069641 C373.57325378 272.24498596 374.81937439 272.22927551 376.10325623 272.21308899 C380.73437516 272.15871568 385.36546595 272.1243193 389.99681091 272.09590149 C391.9997889 272.08083176 394.00273398 272.06037231 396.00559998 272.03437805 C398.88759999 271.99791514 401.76916302 271.98095181 404.65135193 271.96772766 C405.54424423 271.9522438 406.43713654 271.93675995 407.35708618 271.92080688 C412.16186385 271.91951154 415.44994177 272.07877888 419.32713318 275.26069641 C421.99685312 280.60013629 420.90880337 288.66146162 419.64353943 294.31538391 C415.99816669 304.99435966 409.81360708 314.03100881 399.71275806 319.39607811 C392.39571989 322.52464606 384.27921001 321.81857897 376.46963501 321.78208923 C374.63900213 321.78813419 372.8083743 321.79591414 370.97775537 321.80527437 C365.95887067 321.82582746 360.94027182 321.82147264 355.92136371 321.81291318 C350.50403254 321.80797742 345.08677009 321.82600861 339.66946411 321.84098816 C329.06067213 321.86648311 318.45198139 321.87006941 307.84316393 321.86538763 C299.21932756 321.86182099 290.59552192 321.86532119 281.97168922 321.87383652 C280.74411292 321.8750269 279.51653661 321.87621727 278.25176102 321.87744372 C275.7578956 321.87986724 273.26403018 321.88229551 270.77016477 321.88472848 C247.38386412 321.90648006 223.99762115 321.90215429 200.61131725 321.88995878 C179.2221863 321.87931617 157.83324139 321.90212926 136.444146 321.94015522 C114.4763448 321.97891029 92.5086298 321.99542428 70.54079419 321.98790872 C58.2097339 321.98408426 45.87882865 321.98906379 33.54779625 322.0173378 C23.04982969 322.04116529 12.55211363 322.04397558 2.05414363 322.01975746 C-3.30034797 322.00797956 -8.65438139 322.00578115 -14.00884247 322.02976227 C-18.91487579 322.05147934 -23.8200684 322.04527584 -28.72606238 322.0172389 C-30.49651965 322.01194464 -32.26704279 322.01667953 -34.03743539 322.03271063 C-45.60678956 322.13016352 -55.00703616 321.17876962 -64.09551936 313.10981143 C-71.66337381 305.46019709 -75.84103665 295.49180454 -75.92286682 284.82319641 C-75.94864807 283.50448547 -75.97442932 282.18577454 -76.00099182 280.82710266 C-75.66292633 277.15265269 -75.31010631 275.76853864 -72.67286682 273.26069641 C-69.9170133 272.34207857 -68.31325992 272.13865319 -65.4768219 272.14717102 C-64.63617691 272.14724655 -63.79553192 272.14732208 -62.92941284 272.1473999 C-62.02619797 272.15256119 -61.12298309 272.15772247 -60.19239807 272.16304016 C-59.26440903 272.16445511 -58.33641998 272.16587006 -57.38031006 272.16732788 C-54.41529624 272.17292704 -51.45035783 272.18547937 -48.48536682 272.19819641 C-46.47560229 272.20321152 -44.46583657 272.20777441 -42.45606995 272.21186829 C-37.5283065 272.2228962 -32.60059945 272.24016024 -27.67286682 272.26069641 C-27.835109 271.47367718 -27.99735117 270.68665794 -28.16450977 269.87578964 C-28.79904935 265.36337121 -28.81426204 260.96988564 -28.80657959 256.41920471 C-28.80884515 255.43291415 -28.8111107 254.44662359 -28.81344491 253.43044543 C-28.8197711 250.12808226 -28.81895643 246.82576028 -28.81813049 243.52339172 C-28.82112286 241.15452522 -28.82452557 238.7856592 -28.82830811 236.41679382 C-28.83714483 229.98279597 -28.8394861 223.54881142 -28.84012389 217.11480808 C-28.8406183 213.09412847 -28.8429053 209.07345118 -28.84562111 205.05277252 C-28.85442505 191.74719446 -28.85904096 178.44162445 -28.85829064 165.13604346 C-28.85825068 164.41921018 -28.85821072 163.70237691 -28.85816956 162.96382141 C-28.85812867 162.24610875 -28.85808779 161.52839609 -28.85804567 160.78893456 C-28.8576394 149.16277664 -28.86720487 137.53665113 -28.88130792 125.91050258 C-28.89568774 113.96151091 -28.90257721 102.01253504 -28.90171415 90.0635345 C-28.9013827 83.35968049 -28.90430216 76.65586555 -28.9148922 69.95201874 C-28.92458316 63.64504354 -28.92464544 57.33814001 -28.91737556 51.03116226 C-28.91633094 48.71972422 -28.91868534 46.4082817 -28.92473602 44.09685135 C-28.93247621 40.93452466 -28.9277976 37.77244423 -28.92010498 34.61012268 C-28.92524854 33.70173433 -28.93039211 32.79334597 -28.93569154 31.8574307 C-28.88242928 21.90645412 -27.78442567 13.59290029 -20.67286682 6.26069641 C-14.42336466 1.20790743 -7.88533009 -0.04383956 0 0 Z M-57.67286682 289.26069641 C-56.71964654 294.02679782 -56.38816273 295.09622535 -53.36036682 298.44819641 C-52.4689801 299.45946594 -52.4689801 299.45946594 -51.55958557 300.49116516 C-47.42089466 304.37279453 -43.99536666 304.5119794 -38.3882618 304.51796532 C-37.27983871 304.52322443 -37.27983871 304.52322443 -36.14902323 304.52858979 C-33.65926716 304.53793442 -31.16974342 304.53297263 -28.67997742 304.52812195 C-26.88238645 304.53185666 -25.0847971 304.53645747 -23.28721035 304.54185259 C-18.33672671 304.55412003 -13.38631047 304.55381773 -8.4358151 304.55146384 C-3.10101348 304.55105662 2.23376625 304.56208571 7.56855774 304.57157898 C18.02426634 304.58821023 28.47995239 304.59368948 38.9356731 304.59480374 C47.43190734 304.59575316 55.92813412 304.59985816 64.424366 304.60620499 C88.49750559 304.62382283 112.57062733 304.63304295 136.64377342 304.63154404 C137.94226554 304.63146413 139.24075766 304.63138421 140.57859802 304.63130188 C142.52870628 304.63117924 142.52870628 304.63117924 144.51821066 304.63105412 C165.59480991 304.63024096 186.67133774 304.64938476 207.74791633 304.67757861 C229.37425436 304.70628029 251.00055753 304.72012042 272.6269151 304.71839106 C284.77450457 304.71772624 296.92201917 304.72325877 309.06959152 304.74474716 C319.41116317 304.7629232 329.752626 304.76733576 340.09420668 304.75372832 C345.37289857 304.7471807 350.65138147 304.74714603 355.93005371 304.76443481 C360.75994037 304.78009138 365.58945104 304.77737818 370.41932811 304.75986655 C372.16896889 304.75678024 373.91863722 304.76048996 375.66824554 304.7715867 C378.04290388 304.7856533 380.41623341 304.77516572 382.79084587 304.75847435 C383.47343501 304.76841071 384.15602415 304.77834707 384.85929781 304.78858453 C389.76715871 304.71542711 392.51916665 303.27539735 396.32713318 300.26069641 C398.23761673 298.29482534 398.23761673 298.29482534 399.70213318 296.19819641 C400.20486755 295.52659485 400.70760193 294.85499329 401.22557068 294.16304016 C402.57768634 292.19438039 402.57768634 292.19438039 402.32713318 289.26069641 C250.52713318 289.26069641 98.72713318 289.26069641 -57.67286682 289.26069641 Z "
    fill="#252525" transform="translate(75.67286682128906,154.7393035888672)" />
  <path
    d="M0 0 C0.94230469 0.70898438 1.88460937 1.41796875 2.85546875 2.1484375 C3.39405518 2.54450195 3.9326416 2.94056641 4.48754883 3.34863281 C5.6895048 4.23564314 6.88509585 5.1313238 8.07519531 6.03417969 C10.19309905 7.63705969 12.33037996 9.21110589 14.47265625 10.78125 C17.70390905 13.15085778 20.92848425 15.52912434 24.1484375 17.9140625 C28.75468457 21.31935288 33.39302939 24.67816106 38.04296875 28.0234375 C48.23674191 35.36317724 58.33698983 42.82798712 68.43847656 50.29394531 C77.08813861 56.68502567 85.75240069 63.05220796 94.48046875 69.3359375 C99.67070629 73.07531631 104.85198169 76.8246286 109.98046875 80.6484375 C110.89699219 81.33164063 111.81351562 82.01484375 112.7578125 82.71875 C117.87409969 86.75930501 117.87409969 86.75930501 118.51171875 89.64453125 C118.5271875 90.79115234 118.5271875 90.79115234 118.54296875 91.9609375 C118.589375 93.10369141 118.589375 93.10369141 118.63671875 94.26953125 C117.72856533 97.71692944 116.00651223 98.5644372 113.04296875 100.5234375 C109.829136 101.71059178 106.54601426 102.51470666 103.21875 103.3203125 C102.27613815 103.5588092 101.33352631 103.79730591 100.36235046 104.04302979 C97.36292301 104.79852928 94.35935189 105.53587798 91.35546875 106.2734375 C89.32328519 106.78403313 87.29138046 107.29573987 85.25976562 107.80859375 C81.5540691 108.73787554 77.84824147 109.666412 74.13793945 110.57714844 C73.02138725 110.85217194 73.02138725 110.85217194 71.88227844 111.13275146 C70.04296875 111.5234375 70.04296875 111.5234375 68.04296875 111.5234375 C67.93194824 112.29002686 67.82092773 113.05661621 67.70654297 113.84643555 C66.43406858 122.39615374 64.88762859 130.86551042 63.16796875 139.3359375 C62.92433594 140.59341797 62.68070313 141.85089844 62.4296875 143.14648438 C60.18734085 154.17813281 57.22613484 162.73028549 48.01953125 169.8671875 C30.65210458 181.04063683 11.73694041 186.82452216 -8.95703125 187.5234375 C-9.78332031 187.56339844 -10.60960937 187.60335937 -11.4609375 187.64453125 C-43.29656562 188.47079946 -75.599611 178.22046621 -99.95703125 157.5234375 C-100.76527344 156.87117187 -101.57351563 156.21890625 -102.40625 155.546875 C-111.79952865 147.63523142 -120.51834411 136.87035703 -122.95703125 124.5234375 C-123.28969381 118.53504308 -122.69717287 113.00507175 -121.42578125 107.1640625 C-121.27040894 106.41179382 -121.11503662 105.65952515 -120.95495605 104.88446045 C-120.4640155 102.51227958 -119.96146615 100.14278224 -119.45703125 97.7734375 C-118.95402006 95.38955991 -118.45368106 93.00521057 -117.95910645 90.61956787 C-117.65273301 89.14374074 -117.34138681 87.66893428 -117.02429199 86.19537354 C-115.85551437 80.89173478 -115.85551437 80.89173478 -115.95703125 75.5234375 C-117.39399714 73.77276629 -117.39399714 73.77276629 -119.48046875 72.4296875 C-120.62914429 71.60573486 -120.62914429 71.60573486 -121.80102539 70.76513672 C-122.63625732 70.19037598 -123.47148926 69.61561523 -124.33203125 69.0234375 C-125.17950928 68.41902832 -126.0269873 67.81461914 -126.90014648 67.19189453 C-129.57512542 65.28681655 -132.26463317 63.40379628 -134.95703125 61.5234375 C-137.52050629 59.72068971 -140.08039263 57.91338581 -142.63330078 56.09570312 C-144.19678364 54.98363715 -145.76659645 53.88040532 -147.34326172 52.78710938 C-148.05240723 52.28501953 -148.76155273 51.78292969 -149.4921875 51.265625 C-150.11488525 50.8310498 -150.73758301 50.39647461 -151.37915039 49.94873047 C-153.23902072 48.26871763 -154.0671986 46.86046745 -154.95703125 44.5234375 C-154.88627435 40.56105099 -154.76709216 38.35911465 -151.96322632 35.46658325 C-148.08338256 32.95872806 -144.37975503 32.00610176 -139.92041016 30.93310547 C-139.01672195 30.70474503 -138.11303375 30.47638458 -137.18196106 30.24110413 C-134.18541216 29.48708182 -131.18466567 28.75141964 -128.18359375 28.015625 C-126.06427527 27.48595009 -123.94525145 26.95509492 -121.82650757 26.42312622 C-116.21855305 25.01829913 -110.60692023 23.62876281 -104.99432373 22.24261475 C-99.43813193 20.86805183 -93.88511752 19.48079622 -88.33203125 18.09375 C-81.80640201 16.46391998 -75.28042389 14.83563459 -68.75177002 13.21795654 C-58.5898982 10.69758833 -48.43868609 8.14599864 -38.31152344 5.48925781 C-37.40244673 5.25174616 -36.49337002 5.0142345 -35.55674553 4.76952553 C-31.33448859 3.66610907 -27.11495491 2.55408275 -22.89981079 1.42379761 C-21.4181798 1.03488193 -19.93644572 0.64635872 -18.45458984 0.25830078 C-16.55947159 -0.24719803 -16.55947159 -0.24719803 -14.62606812 -0.76290894 C-9.47833798 -1.76417878 -4.8247132 -2.40916987 0 0 Z M-16.75210571 17.57296753 C-17.68861465 17.80567352 -18.6251236 18.03837952 -19.5900116 18.27813721 C-20.60525406 18.5368158 -21.62049652 18.79549438 -22.66650391 19.06201172 C-23.74506149 19.33189911 -24.82361908 19.6017865 -25.93486023 19.87985229 C-29.49846483 20.77332157 -33.05981295 21.67544144 -36.62109375 22.578125 C-39.09532003 23.20145045 -41.56963566 23.82442133 -44.04403687 24.447052 C-49.22825668 25.75300479 -54.41140001 27.06311946 -59.59375 28.37646484 C-65.58423761 29.8945348 -71.57681975 31.40410341 -77.57055819 32.90928257 C-83.34001409 34.35840032 -89.10779695 35.81408901 -94.87488937 37.27258682 C-97.32812673 37.89229752 -99.78180391 38.51026972 -102.23591995 39.12649155 C-105.66085401 39.9873752 -109.08381386 40.85570457 -112.50634766 41.72607422 C-114.03528404 42.10801941 -114.03528404 42.10801941 -115.59510803 42.49768066 C-116.99141197 42.85519913 -116.99141197 42.85519913 -118.41592407 43.21994019 C-119.22521677 43.42457823 -120.03450947 43.62921627 -120.86832619 43.84005547 C-123.22340424 44.50712722 -123.22340424 44.50712722 -125.95703125 46.5234375 C-117.74577007 52.73222491 -109.50208674 58.88755755 -101.14453125 64.8984375 C-90.88584933 72.27680996 -80.72352467 79.78326116 -70.56152344 87.29394531 C-54.30997894 99.32620787 -54.30997894 99.32620787 -37.88085938 111.11376953 C-35.95703125 112.5234375 -35.95703125 112.5234375 -34.20507812 114.03857422 C-30.97177846 116.74544956 -30.97177846 116.74544956 -26.94576454 117.57812786 C-21.63906224 116.8490201 -16.49908435 115.82668908 -11.31396484 114.4855957 C-10.5010347 114.28050888 -9.68810455 114.07542206 -8.85054016 113.86412048 C-6.18402706 113.18987825 -3.51977037 112.5071425 -0.85546875 111.82421875 C1.02700243 111.3462731 2.90960387 110.86884022 4.79232788 110.39189148 C9.74633105 109.13533829 14.69843903 107.87146649 19.65020752 106.60614014 C24.61065605 105.34011866 29.57302105 104.08165647 34.53515625 102.82226562 C53.05405243 98.11865365 71.56679686 93.39263261 90.04296875 88.5234375 C86.52510254 84.93930123 83.0453398 81.95520629 78.91796875 79.0859375 C77.66957895 78.20974783 76.42224053 77.33205884 75.17578125 76.453125 C74.5096582 75.98358398 73.84353516 75.51404297 73.15722656 75.03027344 C69.33380536 72.3053132 65.56631817 69.50460079 61.79296875 66.7109375 C55.57003791 62.1101065 49.3243434 57.54414994 43.04296875 53.0234375 C33.6550893 46.26367134 24.34669593 39.39834005 15.04296875 32.5234375 C11.54375659 29.93903511 8.04355949 27.35597214 4.54296875 24.7734375 C3.73545166 24.17668213 2.92793457 23.57992676 2.09594727 22.96508789 C1.34627686 22.41199951 0.59660645 21.85891113 -0.17578125 21.2890625 C-0.83513672 20.80211914 -1.49449219 20.31517578 -2.17382812 19.81347656 C-7.45470889 15.99308034 -10.55285406 16.01265244 -16.75210571 17.57296753 Z M-98.95703125 87.5234375 C-101.19742886 93.96820195 -102.60709823 100.46871713 -103.95703125 107.1484375 C-104.23675781 108.35628906 -104.51648438 109.56414062 -104.8046875 110.80859375 C-106.39474581 118.88052912 -105.9112765 123.81791108 -101.72070312 130.95996094 C-87.56286696 151.53821117 -61.91353038 163.24478617 -38.20703125 168.2734375 C-13.34766939 172.86166174 12.15522923 170.39625686 34.578125 158.24609375 C41.40833876 153.47252122 43.68860763 150.08139458 45.29882812 141.953125 C45.57436523 140.37917969 45.57436523 140.37917969 45.85546875 138.7734375 C46.05849609 137.73960937 46.26152344 136.70578125 46.47070312 135.640625 C47.68254686 129.28944398 48.49915037 122.96352498 49.04296875 116.5234375 C41.00490817 117.83423188 33.15583426 119.66507044 25.27192116 121.69803238 C23.19903707 122.23187479 21.12474327 122.75988682 19.04997253 123.28634644 C13.15980547 124.78156707 7.27143078 126.28365534 1.38598633 127.79736328 C-2.23619532 128.72853781 -5.86065572 129.65034562 -9.48668861 130.56640244 C-10.85699151 130.91451975 -12.22641288 131.26612795 -13.59486961 131.62143326 C-30.60993589 136.03691275 -30.60993589 136.03691275 -36.30786133 133.46044922 C-36.94103271 132.96303223 -37.5742041 132.46561523 -38.2265625 131.953125 C-38.96003906 131.39367187 -39.69351563 130.83421875 -40.44921875 130.2578125 C-41.21492188 129.64421875 -41.980625 129.030625 -42.76953125 128.3984375 C-44.45273784 127.1036632 -46.13634278 125.80940662 -47.8203125 124.515625 C-48.67318848 123.85014648 -49.52606445 123.18466797 -50.40478516 122.49902344 C-54.36719246 119.43189125 -58.41252803 116.48091215 -62.45703125 113.5234375 C-64.02657173 112.36921003 -65.59557971 111.21425811 -67.1640625 110.05859375 C-67.94604004 109.48254395 -68.72801758 108.90649414 -69.53369141 108.31298828 C-72.05742636 106.44929926 -74.57600851 104.5788077 -77.09375 102.70703125 C-77.939375 102.07990234 -78.785 101.45277344 -79.65625 100.80664062 C-81.26092049 99.61636307 -82.86391536 98.42382158 -84.46484375 97.22851562 C-89.16031075 93.7502391 -93.95117511 90.53849206 -98.95703125 87.5234375 Z "
    fill="#252525" transform="translate(393.95703125,37.4765625)" />
  <path
    d="M0 0 C1.24912621 0.64256871 2.49145165 1.29847737 3.7277832 1.96533203 C4.40026596 2.31554916 5.07274872 2.6657663 5.76560974 3.02659607 C7.94284122 4.16396702 10.11056691 5.31828486 12.27856445 6.47314453 C13.78368464 7.26354979 15.28938463 8.05285194 16.7956543 8.84106445 C20.43733238 10.74988925 24.07200577 12.6715815 27.7041626 14.59844971 C30.19259866 15.91684189 32.68625646 17.22515194 35.1809082 18.53173828 C38.14623302 20.08587104 41.10844046 21.6456378 44.06762695 23.21142578 C49.39740123 26.02879641 54.7446081 28.81259953 60.09106445 31.59814453 C67.86871614 35.65144079 75.63752948 39.72080515 83.39453125 43.81347656 C87.62630156 46.04426644 91.86427985 48.26233954 96.1105957 50.46533203 C106.07446202 55.63519095 116.01732505 60.84360706 125.90356445 66.16064453 C127.31859253 66.911604 127.31859253 66.911604 128.76220703 67.67773438 C129.62998779 68.14775879 130.49776855 68.6177832 131.3918457 69.10205078 C132.1566626 69.51269775 132.92147949 69.92334473 133.70947266 70.34643555 C135.59106445 71.59814453 135.59106445 71.59814453 137.59106445 74.59814453 C138.12742809 80.22996271 138.12742809 80.22996271 137.59106445 82.59814453 C134.55729632 86.16242261 131.23621655 88.03652772 127.0871582 90.13720703 C126.14091331 90.620681 126.14091331 90.620681 125.17555237 91.11392212 C123.1300285 92.15732052 121.07934497 93.19012258 119.02856445 94.22314453 C117.60819519 94.9458988 116.18827541 95.66953706 114.76879883 96.39404297 C111.96979593 97.8223784 109.16937132 99.2478604 106.36791992 100.67138672 C101.75286447 103.02071826 97.1669207 105.42345327 92.59106445 107.84814453 C85.76935413 111.45398142 78.93399638 115.03273522 72.09106445 118.59814453 C65.12451178 122.2285449 58.16438229 125.87046657 51.21606445 129.53564453 C42.79299439 133.97794861 34.34737811 138.37634696 25.89111328 142.75512695 C20.9036106 145.34068345 15.92835742 147.9435318 10.9855957 150.61376953 C10.12321289 151.0771875 9.26083008 151.54060547 8.37231445 152.01806641 C6.77855764 152.87672811 5.18841349 153.74214536 3.6027832 154.61572266 C-0.38640195 156.75900305 -3.79700657 158.32645505 -8.40893555 158.59814453 C-11.93799621 156.99402605 -13.23666462 155.85655092 -15.40893555 152.59814453 C-15.66061783 149.92880344 -15.66061783 149.92880344 -15.66290283 146.64564514 C-15.66854248 145.40200699 -15.67418213 144.15836884 -15.67999268 142.87704468 C-15.67610393 141.49639835 -15.67200759 140.11575259 -15.66772461 138.73510742 C-15.67043428 137.28304366 -15.67399508 135.83098128 -15.67834473 134.37892151 C-15.68747467 130.43264126 -15.68392179 126.48646541 -15.67758656 122.54018331 C-15.67252872 118.41272653 -15.67721749 114.28527878 -15.68035889 110.15782166 C-15.68399957 103.22490838 -15.67919718 96.29203768 -15.66967773 89.35913086 C-15.65879727 81.34240366 -15.66231537 73.32577821 -15.67333055 65.30905348 C-15.68240562 58.42914841 -15.68368749 51.54927399 -15.67845321 44.66936487 C-15.67533417 40.5590148 -15.67492227 36.44871256 -15.68152618 32.33836555 C-15.68730207 28.4732315 -15.68329833 24.60822863 -15.67173767 20.74310875 C-15.6690922 19.3241256 -15.66985427 17.90513142 -15.674263 16.48615265 C-15.67972413 14.54998162 -15.67166306 12.61378648 -15.66290283 10.67762756 C-15.66214878 9.5938083 -15.66139473 8.50998903 -15.66061783 7.39332676 C-15.40751674 4.58238722 -14.92600221 2.9540778 -13.40893555 0.59814453 C-9.08580772 -2.48980391 -4.73361943 -1.9466048 0 0 Z M1.59106445 21.59814453 C1.59106445 59.21814453 1.59106445 96.83814453 1.59106445 135.59814453 C14.78605039 129.45212279 14.78605039 129.45212279 27.71606445 122.84814453 C29.31214936 121.99868009 30.90851688 121.14974649 32.50512695 120.30126953 C33.32658203 119.86363281 34.14803711 119.42599609 34.99438477 118.97509766 C39.67988194 116.4904978 44.38671916 114.04681056 49.09106445 111.59814453 C56.85871867 107.55048352 64.61810313 103.48777875 72.36376953 99.39819336 C76.76748891 97.0755212 81.1804764 94.77197367 85.6027832 92.48486328 C86.62887695 91.953125 87.6549707 91.42138672 88.7121582 90.87353516 C90.69898826 89.84468621 92.68718744 88.81847517 94.67700195 87.79541016 C100.15294665 84.95703261 105.40755945 81.94214482 110.59106445 78.59814453 C107.20665145 75.85104577 103.51961367 73.89824921 99.6496582 71.93798828 C98.97434555 71.59201599 98.2990329 71.2460437 97.60325623 70.8895874 C96.16062663 70.15096138 94.71714471 69.4139981 93.27288818 68.67855835 C89.5015177 66.75800144 85.73629719 64.82544333 81.9699707 62.89501953 C81.23186157 62.51717819 80.49375244 62.13933685 79.73327637 61.75004578 C74.29230178 58.96345626 68.86943943 56.14455074 63.46606445 53.28564453 C56.68605531 49.70052358 49.8927304 46.1420293 43.09106445 42.59814453 C35.79492153 38.79416217 28.50079793 34.98643981 21.21606445 31.16064453 C20.47420898 30.77199219 19.73235352 30.38333984 18.96801758 29.98291016 C14.4101034 27.58596891 9.91471954 25.10175058 5.4519043 22.53149414 C3.6400756 21.44869817 3.6400756 21.44869817 1.59106445 21.59814453 Z "
    fill="#252525" transform="translate(206.408935546875,225.40185546875)" />
</svg>