<svg width="429" height="55.24294254887728" viewBox="0 0 369.82524271844665 47.62292456088518"
  class="looka-1j8o68f">
  <defs id="SvgjsDefs12665"></defs>
  <g id="SvgjsG12666" featurekey="Ez5wPW-0"
    transform="matrix(12.185386585476198,0,0,12.185386585476198,-9.104706018946102,-5.059250775947913)"
    fill="#b9d4f1">
    <title xmlns="http://www.w3.org/2000/svg">icon</title>
    <path xmlns="http://www.w3.org/2000/svg"
      d="M.76105,1.331a.185.185,0,0,0,.07256.16612.61547.61547,0,0,0,.11976.07763c.06486.03511.12857.071.19657.1009a4.51654,4.51654,0,0,0,.447.165q.05491.01754.11012.03431a1.9216,1.9216,0,0,0-.22417-.0137l-.00412-.0022a.55261.55261,0,0,0-.36048-.05595l-.00688.00157c.01.001.00547.00168-.0138.00222l-.02047.00536a.42511.42511,0,0,0-.0487.0177.24071.24071,0,0,0-.08055.0596.19841.19841,0,0,0-.049.12857A.43429.43429,0,0,0,.797,2.134a.39625.39625,0,0,0-.01307.359.76229.76229,0,0,0,.05106.09372.90786.90786,0,0,0,.06528.0886,1.14538,1.14538,0,0,0,.16167.15781,2.10421,2.10421,0,0,0,.3769.23514q.1068.05459.21778.10191l-.01448.008a.27931.27931,0,0,0-.13491.26538.26458.26458,0,0,0,.16221.19545.82636.82636,0,0,0,.27659.07328.94235.94235,0,0,0,.24274.00117,1.24591,1.24591,0,0,0,.32014-.09356.739.739,0,0,0,.24393-.16281,1.09462,1.09462,0,0,0,.17664-.00234.5954.5954,0,0,0,.33207-.13288A.2128.2128,0,0,0,3.279,2.9862q-.018-.019-.03726-.03656a.62385.62385,0,0,0,.01745-.17446.88986.88986,0,0,0-.10509-.3632,1.50015,1.50015,0,0,0-.108-.18148c.20808.084.40932.182.61517.27a2.51309,2.51309,0,0,0,.40626.14621c.04488.01062.08811.02477.13264.03607.05223.01324.13819.01588.16406-.06147a.07709.07709,0,0,0-.01665-.09122,1.38784,1.38784,0,0,0-.413-.22354c-.14878-.05366-.30121-.0995-.45486-.14188-.17285-.04772-.347-.09227-.5212-.13678Q2.91365,2.01347,2.86833,2A1.84124,1.84124,0,0,0,2.644,1.78032a2.93465,2.93465,0,0,0-.79072-.4652,2.23475,2.23475,0,0,0-.71664-.15748.52832.52832,0,0,0-.27885.04191A.18386.18386,0,0,0,.76105,1.331Zm.38743.80653-.00166-.00178a.53345.53345,0,0,1-.05946-.077c.02063-.00777.04128-.01457.06028-.02026a.95523.95523,0,0,1,.19161-.03738q.04087-.0034.08133-.00423c.01338.00779.02643.016.039.02486a.52964.52964,0,0,1,.05057.04065l.01649.01581.02325.02753a.39451.39451,0,0,1,.06944.13344,1.08126,1.08126,0,0,1,.04856.221,2.07419,2.07419,0,0,1-.23668-.11475,1.63408,1.63408,0,0,1-.18373-.123c-.02489-.01925-.04966-.03911-.07312-.06014l-.01726-.01619Zm.6464.37152c.0004-.06128.00339-.12249-.00143-.18312a.59592.59592,0,0,0-.04973-.19963A.51956.51956,0,0,0,1.673,2.01155q.03228.004.06435.00891.08515.01291.17046.0306a.2569.2569,0,0,0,.04785.14244,1.14215,1.14215,0,0,0,.09211.12841,1.08575,1.08575,0,0,0,.14322.13952,1.11005,1.11005,0,0,0-.21832-.04051.08976.08976,0,0,0-.07309.037.094.094,0,0,0-.01672.07983l.00026.00126-.048-.01588Zm1.04133-.03794.01443.01427.015.01658a.42735.42735,0,0,1,.03782.05054l.01062.01855c-.0043-.00774.00542.01284.00711.01785l.00428.01817.00023.00419.00012.00192-.00094.005-.0004.001-.00114.00246-.00423.0054-.00042.00051L2.908,2.63658l-.00975.007-.02175.01118-.022.00917c.01464-.00564-.01.00253-.01057.00269a.398.398,0,0,1-.0407.00887,3.05586,3.05586,0,0,0-.30182-.203A1.47416,1.47416,0,0,1,2.169,2.211a1.00192,1.00192,0,0,1-.08666-.1181,2.36322,2.36322,0,0,1,.48061.1863A1.23133,1.23133,0,0,1,2.83621,2.47109Zm-.16038.37569.05267-.00252.01518.01333a.77932.77932,0,0,1,.13243.15376c.009.01366.01771.02753.02589.04175l.00982.01906.00049.00108a.60642.60642,0,0,1-.17063-.04175,1.19779,1.19779,0,0,1-.1957-.08474,1.44738,1.44738,0,0,1-.17081-.11662A1.846,1.846,0,0,0,2.67583,2.84678Zm.1383-.607-.00652-.00444a1.7322,1.7322,0,0,0-.21378-.12083q.07354.01849.14729.03656Q2.77869,2.19436,2.81413,2.23981Zm-1.32774.64191c-.04938-.02557-.11861-.06526-.17592-.10219a1.54834,1.54834,0,0,1-.173-.12923c-.02578-.02236-.05045-.046-.07426-.07059L1.05188,2.568l-.01474-.01623c-.01317-.01471-.02566-.03-.03784-.04559a.76528.76528,0,0,1-.05621-.0818l-.00922-.016L.9267,2.39388A.42434.42434,0,0,1,.91,2.352a.21569.21569,0,0,1-.00758-.13442l.00114-.00645L.911,2.194l.0062-.01214C.91453,2.187.9223,2.17367.92366,2.17163l.01282-.017.01273.02224a.5659.5659,0,0,0,.07426.0952,1.27888,1.27888,0,0,0,.32711.23642,2.89488,2.89488,0,0,0,.68551.254c.01752.01668.03546.03291.05338.049a2.30781,2.30781,0,0,0,.3348.26393,1.26594,1.26594,0,0,0,.233.11148l-.021.00117-.05195.00154c-.03766.00066-.075-.00044-.11213-.00245A1.7802,1.7802,0,0,1,2.25933,3.162l-.00639-.0011-.00608-.00122-.02507-.005-.05-.011c-.036-.00833-.07162-.01771-.107-.02772-.06781-.01913-.13431-.04147-.19984-.06575A3.37616,3.37616,0,0,1,1.48639,2.88172Zm.92142.66366a1.12182,1.12182,0,0,1-.17264.04748c-.02044.00407-.041.00727-.06137.00978l-.0044.00049-.00756.00063-.02928.00143A1.08931,1.08931,0,0,1,1.87571,3.582a.72068.72068,0,0,1-.13241-.04191.24.24,0,0,1-.04638-.02456.27647.27647,0,0,1-.04411-.03481l-.00589-.00648-.008-.01039-.01266-.02035c.00365.00636-.00482-.01324-.006-.01717l-.0026-.01015c.0018.00763-.00077-.00814-.00093-.01069-.0003-.00458-.00023-.00926-.00019-.01389l0-.00164.00033-.00276a.21826.21826,0,0,1,.00634-.03041l.00058-.00232.00157-.00409.00664-.016.00659-.01273c-.00437.00814.00594-.00811.00765-.01039l.0072-.00854c-.0043.00491.00468-.00433.00646-.00587l.01221-.00975.00234-.0018.00166-.00094A.233.233,0,0,1,1.70445,3.27l.00973-.00386.01705-.005c.01092-.00295.022-.0051.033-.007l.01707-.00255.0113-.00124a.62187.62187,0,0,1,.07071-.00117,2.50626,2.50626,0,0,0,.37646.09637q.05024.00867.10139.01448a1.80054,1.80054,0,0,0,.20761.06617q.03551.00835.07171.01478A.92986.92986,0,0,1,2.40781,3.54538Zm.79233-.44653a.249.249,0,0,1,.02056.03193l.00274.00662.00517.01579.00105.0043.00077.01495L3.2297,3.177l-.00222.00842-.0043.00957L3.22212,3.197l-.00243.00344-.01261.01567-.00014.00012-.00522.005a.328.328,0,0,1-.03962.031l-.01307.008-.02032.01132c-.01375.00723-.02783.01349-.042.01937a.50119.50119,0,0,1-.0871.02528.69994.69994,0,0,1-.14991.01366.6363.6363,0,0,0,.24573-.13234.46592.46592,0,0,0,.09248-.11386Zm-.11957-.32659c.00161.01385.00262.02793.00335.04206l.00051.02007c-.03672-.02206-.07459-.04245-.11288-.06184a.24905.24905,0,0,0,.074-.07349l.01375-.02519c.00631.02154.01186.04358.01642.06594l.00208.01158ZM.992,1.321l.02526-.00166.033-.0007c.02318-.00014.04624.00063.06919.00192.0342.00187.06809.00519.10179.009a2.29822,2.29822,0,0,1,.80215.26175c.05232.02741.12551.07017.18389.107.065.04107.12792.08516.18892.13173q.04077.03108.08062.06425c-.038-.0094-.07639-.01766-.11548-.02341-.2491-.06841-.49645-.14052-.74038-.22155a4.26662,4.26662,0,0,1-.44438-.16873c-.05426-.025-.10759-.05176-.16095-.07836l-.00765-.004L.99757,1.39275l-.03116-.0192A.28072.28072,0,0,1,.93778,1.352L.93039,1.34511.923,1.33557l.00014-.00009.0044-.00178.00622-.00185A.34865.34865,0,0,1,.992,1.321Z"
      fill="#b9d4f1"></path>
  </g>
  <g id="SvgjsG12667" featurekey="ujU5uU-0"
    transform="matrix(3.4162785320226408,0,0,3.4162785320226408,62.7018121378608,-21.522552145328962)"
    fill="#21273d">
    <path
      d="M5.8 17.68 c1.6 0 2.8 -1.22 2.8 -2.76 c0 -1.52 -1.24 -2.76 -2.8 -2.76 c-1.52 0 -2.7 1.24 -2.7 2.76 c0 1.54 1.18 2.76 2.7 2.76 z M8.56 20 l0 -0.76 c-0.72 0.56 -1.84 0.9 -3 0.9 c-2.8 0 -5.18 -2.26 -5.18 -5.22 s2.38 -5.28 5.18 -5.28 c1.16 0 2.28 0.36 3 0.92 l0 -4.26 l2.78 0 l0 13.7 l-2.78 0 z M15.24 8.86 l-2.78 0 l0 -2.56 l2.78 0 l0 2.56 z M15.24 20 l-2.78 0 l0 -10.26 l2.78 0 l0 10.26 z M16.2 16.78 l2.82 0 c0 0.62 0.42 1.38 1.9 1.4 c1.04 0 1.52 -0.48 1.52 -0.96 c0 -1.8 -6.06 0.04 -6.06 -4.28 c0 -1.86 1.64 -3.32 4.24 -3.32 s4.24 1.34 4.4 3.4 l-2.78 0 c-0.04 -0.74 -0.34 -1.3 -1.58 -1.3 c-0.8 0 -1.46 0.26 -1.46 0.9 c0 1.84 6.2 0.22 6.2 4.12 c0 2.44 -2.04 3.46 -4.62 3.46 c-2.8 0 -4.52 -1.46 -4.58 -3.42 z M29.080000000000002 6.300000000000001 l0 4.48 c0.4 -0.52 1.5 -1.22 2.94 -1.22 c2.4 0 3.96 1.66 3.96 4.14 l0 6.3 l-2.76 0 l0 -5.82 c0 -1.22 -0.7 -2.06 -1.88 -2.06 c-1.36 0 -2.26 0.86 -2.26 2.28 l0 5.6 l-2.78 0 l0 -13.7 l2.78 0 z M47.18000000000001 17.8 c-1 1.5 -2.58 2.44 -4.86 2.44 c-3.28 0 -5.4 -2.3 -5.4 -5.34 c0 -2.96 2.2 -5.36 5.42 -5.36 c3.24 0 5.2 2.24 5.2 5.22 c0 0.4 -0.04 0.92 -0.04 0.98 l-7.84 0 c0.3 1.3 1.28 2.14 2.72 2.14 c1.24 0 2.14 -0.54 2.72 -1.36 z M42.32000000000001 11.82 c-1.3 0 -2.2 0.7 -2.56 1.86 l4.98 0 c-0.3 -1.24 -1.3 -1.86 -2.42 -1.86 z M51.300000000000004 14.34 l3.4 -4.6 l3.16 0 l-3.94 5.1 l4.1 5.16 l-3.46 0 l-3.26 -4.22 l0 4.22 l-2.8 0 l0 -13.7 l2.8 0 l0 8.04 z M61.34 8.86 l-2.78 0 l0 -2.56 l2.78 0 l0 2.56 z M61.34 20 l-2.78 0 l0 -10.26 l2.78 0 l0 10.26 z M65.2 9.74 l0 1.02 c0.52 -0.54 1.46 -1.2 2.84 -1.2 c1.16 0 2.2 0.42 2.94 1.4 c0.8 -0.84 1.88 -1.4 3.36 -1.4 c2.5 0 4 1.64 4 4.08 l0 6.36 l-2.76 0 l0 -5.9 c0 -1.18 -0.64 -1.98 -1.72 -1.98 c-1.24 0 -2.08 0.84 -2.08 2.22 l0 5.66 l-2.74 0 l0 -5.9 c0 -1.18 -0.64 -1.98 -1.72 -1.98 c-1.24 0 -2.08 0.84 -2.08 2.22 l0 5.66 l-2.78 0 l0 -10.26 l2.74 0 z M89.54 17.8 c-1 1.5 -2.58 2.44 -4.86 2.44 c-3.28 0 -5.4 -2.3 -5.4 -5.34 c0 -2.96 2.2 -5.36 5.42 -5.36 c3.24 0 5.2 2.24 5.2 5.22 c0 0.4 -0.04 0.92 -0.04 0.98 l-7.84 0 c0.3 1.3 1.28 2.14 2.72 2.14 c1.24 0 2.14 -0.54 2.72 -1.36 z M84.68 11.82 c-1.3 0 -2.2 0.7 -2.56 1.86 l4.98 0 c-0.3 -1.24 -1.3 -1.86 -2.42 -1.86 z"></path>
  </g>
</svg>