<svg viewBox="0 0 370.00000000000006 70" preserveAspectRatio="xMidYMid meet" class="css-8aabad"
  id="gedahgaf">
  <defs id="SvgjsDefs1231"></defs>
  <g id="SvgjsG1232" featurekey="symbolFeature-0"
    transform="matrix(0.7777777777777778,0,0,0.7777777777777778,-3.888888888888889,-3.888888888888889)"
    fill="#111">
    <path xmlns="http://www.w3.org/2000/svg" fill="#111"
      d="M95,52c0-12.871-5.692-24.431-14.682-32.318C72.431,10.692,60.871,5,48,5C24.29,5,5,24.29,5,48  c0,12.868,5.69,24.426,14.677,32.313C27.564,89.306,39.126,95,52,95c0.084,0,0.166-0.006,0.25-0.006S52.416,95,52.5,95  C75.972,95,95,75.972,95,52.5c0-0.084-0.006-0.166-0.006-0.25S95,52.084,95,52z M21.828,73.371  c-4.245-5.978-6.77-13.259-6.822-21.121c0.135-20.511,16.732-37.109,37.244-37.244c7.862,0.052,15.144,2.577,21.121,6.822  C80.224,28.473,84.5,37.758,84.5,48c0,20.126-16.374,36.5-36.5,36.5C37.758,84.5,28.473,80.224,21.828,73.371z M6,48  C6,24.841,24.841,6,48,6c9.858,0,18.926,3.422,26.1,9.13C67.637,11.242,60.076,9,52,9C28.29,9,9,28.29,9,52  c0,8.074,2.241,15.633,6.127,22.095C9.421,66.923,6,57.856,6,48z M52,89c-10.08,0-19.227-4.055-25.905-10.615  C32.269,82.854,39.838,85.5,48,85.5c20.678,0,37.5-16.822,37.5-37.5c0-8.162-2.646-15.731-7.115-21.905  C84.945,32.773,89,41.92,89,52C89,72.402,72.402,89,52,89z"></path>
  </g>
  <g id="SvgjsG1233" featurekey="nameFeature-0"
    transform="matrix(1.4468789577092136,0,0,1.4468789577092136,87.68499173587344,-0.5589111743196913)"
    fill="#111">
    <path
      d="M22.04 36.72 c0 2.16 0.36 2.84 1.56 3.64 l0 0.12 l-7.64 -1.24 s0.04 0 0.04 -0.04 c-1.28 0.68 -2.88 1.08 -4.76 1.08 c-5.84 0 -9.64 -3.56 -9.64 -9.12 c0 -5.84 4.08 -10.8 12.56 -10.8 c0.92 0 1.84 0.08 2.8 0.2 l0 -6.84 c0 -1.6 -1.04 -1.4 -3.6 -0.64 l0 -0.24 l8.88 -4.16 l-0.2 1.8 l0 26.24 z M6.68 28.84 c0 5.8 3.04 10.16 7.08 10.16 c1.32 0 2.32 -0.48 3.12 -1.36 c0.04 -0.4 0.08 -0.84 0.08 -1.44 l0 -12.92 c-1.24 -1.36 -2.68 -2.16 -4.6 -2.16 c-3.76 0 -5.68 3.08 -5.68 7.72 z M30.2 17.44 c-1.64 0 -2.92 -1.28 -2.92 -2.96 c0 -1.64 1.28 -2.92 2.92 -2.92 s2.92 1.28 2.92 2.92 c0 1.68 -1.28 2.96 -2.92 2.96 z M27.6 40 l0.24 -2.76 l0 -15.36 c-0.56 -0.36 -1.6 -0.64 -2.44 -0.72 l0 -0.16 l7.72 -0.6 l-0.2 2.96 l0 12.92 c0 2.16 0.36 2.92 1.56 3.72 l-6.88 0 z M45.04 40.28 c-3.08 0 -6.36 -1.04 -7.96 -2.36 l2.52 -4.08 l0.08 0 c-0.12 3.48 3.56 5.76 6.88 5.76 c2.4 0 3.48 -1.12 3.48 -3 c0 -2.44 -1.8 -3.56 -5.2 -4.04 c-6.12 -0.8 -7.36 -4.2 -7.36 -6.44 c0 -3.6 3.36 -5.76 8.04 -5.76 c3.16 0 5.64 1 7.12 2.36 l-2.72 3.76 l-0.08 0 c0.24 -3.2 -2.84 -5.52 -5.76 -5.52 c-2.64 0 -3.08 1.8 -3.08 2.88 c0 2.52 2.2 3.44 4.92 3.92 c4.56 0.8 7.28 2.84 7.28 6.2 c0 3.64 -3.2 6.32 -8.16 6.32 z M72.08 40 l0.24 -2.76 l0 -9.52 c0 -4.48 -1.6 -5.52 -3.48 -5.52 c-2.48 0 -4.4 1.6 -5.96 2.68 l0 11.24 c0 2.16 0.28 3.28 2.28 3.72 l0 0.16 l-7.72 0 l0.36 -2.48 l0 -23.8 c0 -1.6 -1.04 -1.4 -3.6 -0.64 l0 -0.24 l8.88 -4.16 l-0.2 1.8 l0 13.44 c1.88 -1.28 5.04 -3.56 8.6 -3.56 c2.52 0 5.92 1.24 5.92 7.28 l0 8.64 c0 2.16 0.36 2.92 1.56 3.72 l-6.88 0 z M101 36.08 l0.2 0.16 c-1.2 2.24 -4.44 4.04 -8.68 4.04 c-6.4 0 -10.76 -3.96 -10.76 -9.68 c0 -6.44 5.56 -10.24 11.52 -10.24 c8.64 0 9.36 8.52 4.24 8.52 l-10.56 0 c0.08 5.68 3.32 9.44 8.12 9.44 c1.92 0 4.68 -0.6 5.92 -2.24 z M91.96 21 c-2.72 0 -4.84 2.72 -5 7.2 l8.04 -0.08 c2.72 -0.04 1.6 -7.12 -3.04 -7.12 z M126.08 40 l-7.64 0 l0 -0.68 l-7.28 -8.52 l-0.8 0 l0 5.32 c0 2.16 0.28 3.28 2.28 3.72 l0 0.16 l-7.72 0 l0.36 -2.48 l0 -23.8 c0 -1.6 -1.04 -1.4 -3.6 -0.64 l0 -0.24 l8.88 -4.16 l-0.2 1.8 l0 20.2 l8 -7.92 c0.76 -0.76 1.16 -1.6 -0.8 -1.92 l0.08 -0.24 l6.96 0 l-0.08 0.24 c-1.68 0.2 -4.36 1.16 -7.8 4.6 l-2.48 2.48 l5.88 6.8 c2.76 3.16 3.88 4.24 5.96 5.28 z M131.28 17.44 c-1.64 0 -2.92 -1.28 -2.92 -2.96 c0 -1.64 1.28 -2.92 2.92 -2.92 s2.92 1.28 2.92 2.92 c0 1.68 -1.28 2.96 -2.92 2.96 z M128.68 40 l0.24 -2.76 l0 -15.36 c-0.56 -0.36 -1.6 -0.64 -2.44 -0.72 l0 -0.16 l7.72 -0.6 l-0.2 2.96 l0 12.92 c0 2.16 0.36 2.92 1.56 3.72 l-6.88 0 z M166 40 l0.24 -2.76 l0 -9.52 c0 -4.44 -1.28 -5.52 -3.08 -5.52 c-2.08 0 -3.96 1.68 -5.4 2.84 c0.16 0.72 0.24 1.6 0.24 2.6 l0 8.64 c0 2.16 0.36 2.92 1.56 3.72 l-6.88 0 l0.24 -2.76 l0 -9.52 c0 -4.44 -1.28 -5.52 -3.08 -5.52 c-1.96 0 -3.68 1.48 -5.16 2.6 l0 11.48 c0 2.16 0.36 2.92 1.56 3.72 l-6.88 0 l0.24 -2.76 l0 -15.36 c-0.56 -0.36 -1.6 -0.64 -2.44 -0.72 l0 -0.16 l7.72 -0.6 l-0.2 2.96 l0 0.52 c1.72 -1.36 4.44 -3.52 7.64 -3.52 c1.84 0 4.24 0.76 5.24 3.88 c1.56 -1.2 4.56 -3.88 8.08 -3.88 c2.4 0 5.68 1.24 5.68 7.28 l0 8.64 c0 2.16 0.36 2.92 1.56 3.72 l-6.88 0 z M194.92 36.08 l0.2 0.16 c-1.2 2.24 -4.44 4.04 -8.68 4.04 c-6.4 0 -10.76 -3.96 -10.76 -9.68 c0 -6.44 5.56 -10.24 11.52 -10.24 c8.64 0 9.36 8.52 4.24 8.52 l-10.56 0 c0.08 5.68 3.32 9.44 8.12 9.44 c1.92 0 4.68 -0.6 5.92 -2.24 z M185.88 21 c-2.72 0 -4.84 2.72 -5 7.2 l8.04 -0.08 c2.72 -0.04 1.6 -7.12 -3.04 -7.12 z"></path>
  </g>
</svg>