<svg class="css-ze2te4 css-qd6ojx" viewBox="0 0 70 70">
  <g transform="translate(-3.888888888888889, -3.888888888888889) scale(0.7777777777777778)"
    class="css-rj7zrw" fill="#5389bc">
    <path xmlns="http://www.w3.org/2000/svg" fill="{{COLOR}}"
      d="M95,52c0-12.871-5.692-24.431-14.682-32.318C72.431,10.692,60.871,5,48,5C24.29,5,5,24.29,5,48  c0,12.868,5.69,24.426,14.677,32.313C27.564,89.306,39.126,95,52,95c0.084,0,0.166-0.006,0.25-0.006S52.416,95,52.5,95  C75.972,95,95,75.972,95,52.5c0-0.084-0.006-0.166-0.006-0.25S95,52.084,95,52z M21.828,73.371  c-4.245-5.978-6.77-13.259-6.822-21.121c0.135-20.511,16.732-37.109,37.244-37.244c7.862,0.052,15.144,2.577,21.121,6.822  C80.224,28.473,84.5,37.758,84.5,48c0,20.126-16.374,36.5-36.5,36.5C37.758,84.5,28.473,80.224,21.828,73.371z M6,48  C6,24.841,24.841,6,48,6c9.858,0,18.926,3.422,26.1,9.13C67.637,11.242,60.076,9,52,9C28.29,9,9,28.29,9,52  c0,8.074,2.241,15.633,6.127,22.095C9.421,66.923,6,57.856,6,48z M52,89c-10.08,0-19.227-4.055-25.905-10.615  C32.269,82.854,39.838,85.5,48,85.5c20.678,0,37.5-16.822,37.5-37.5c0-8.162-2.646-15.731-7.115-21.905  C84.945,32.773,89,41.92,89,52C89,72.402,72.402,89,52,89z"></path>
  </g>
</svg>