<?xml version="1.0" encoding="UTF-8"?>
<svg version="1.1" xmlns="http://www.w3.org/2000/svg" width="512" height="512">
<path d="M0 0 C0.81984375 0.66773437 1.6396875 1.33546875 2.484375 2.0234375 C12.60181244 10.57092775 22.93675111 22.86716771 27.94140625 35.34765625 C28.93097684 37.29327375 28.93097684 37.29327375 31.625 37.75 C32.40875 37.8325 33.1925 37.915 34 38 C33.99097656 38.78117187 33.98195313 39.56234375 33.97265625 40.3671875 C34.21376822 49.78103742 36.22018433 58.18252335 38.78955078 67.21508789 C41.76606733 77.80798501 44.26229923 88.49117357 46.72497559 99.21405029 C57.5731173 146.38776229 71.12489512 191.34062841 96.9375 232.75 C108.89987974 251.94183618 113.68344189 271.43004639 109 294 C104.96539433 310.05401669 96.97492853 323.70117275 86 336 C85.30390625 336.81597656 84.6078125 337.63195312 83.890625 338.47265625 C39.66489091 389.39681356 -31.9985298 413.50146602 -96.625 424.375 C-97.33756958 424.49651428 -98.05013916 424.61802856 -98.78430176 424.7432251 C-119.16603106 428.17599333 -139.47214516 429.38615641 -160.125 429.3125 C-161.72758667 429.30976578 -161.72758667 429.30976578 -163.36254883 429.30697632 C-232.31272705 429.10956058 -298.41783855 409.31925895 -348.6875 360.625 C-354.68151127 354.50740087 -359.88481255 347.85301278 -365 341 C-365.63679688 340.15824219 -366.27359375 339.31648438 -366.9296875 338.44921875 C-393.82971044 301.57015504 -403.13343317 254.75768646 -397 210 C-393.57970811 189.5171156 -386.87209724 170.22789196 -377 152 C-376.65743164 151.35111816 -376.31486328 150.70223633 -375.96191406 150.03369141 C-367.49297002 134.00741845 -357.05125916 119.51653785 -345 106 C-344.14019531 105.02933594 -343.28039062 104.05867187 -342.39453125 103.05859375 C-332.52208866 92.10703631 -322.31782154 81.28869654 -310.71484375 72.15625 C-308.26002473 70.20652324 -305.88800203 68.18432922 -303.52441406 66.12573242 C-278.4195567 44.36175223 -248.95244574 27.05718619 -220 11 C-219.21979492 10.5659082 -218.43958984 10.13181641 -217.63574219 9.68457031 C-184.73700802 -8.49005947 -148.39373286 -22.8449785 -111 -28 C-110.37295166 -28.0928125 -109.74590332 -28.185625 -109.09985352 -28.28125 C-70.0059636 -33.44885967 -30.5748823 -25.64614444 0 0 Z " fill="#EEEEEE" transform="translate(400,56)"/>
<path d="M0 0 C72.93 0 145.86 0 221 0 C221 7.26 221 14.52 221 22 C148.07 22 75.14 22 0 22 C0 14.74 0 7.48 0 0 Z " fill="#070707" transform="translate(195,366)"/>
<path d="M0 0 C72.93 0 145.86 0 221 0 C221 7.26 221 14.52 221 22 C148.07 22 75.14 22 0 22 C0 14.74 0 7.48 0 0 Z " fill="#070707" transform="translate(195,252)"/>
<path d="M0 0 C72.6 0 145.2 0 220 0 C220 6.93 220 13.86 220 21 C147.4 21 74.8 21 0 21 C0 14.07 0 7.14 0 0 Z " fill="#000000" transform="translate(196,139)"/>
<path d="M0 0 C1.546875 0.8353125 1.546875 0.8353125 3.125 1.6875 C10.50457929 7.62324856 16.41473339 14.47507879 18 24 C19.27154591 36.93219991 17.42070918 46.10813804 8.98828125 56.47265625 C1.81218713 63.56916338 -7.54678611 67.16919506 -17.5625 67.625 C-28.02970357 67.13316754 -36.31591912 62.80106085 -43.80078125 55.60546875 C-50.42645098 47.75587424 -53.39121553 38.90920025 -53.28515625 28.7578125 C-52.53617504 21.51424083 -49.44293677 14.71234728 -45 9 C-44.55398437 8.35289063 -44.10796875 7.70578125 -43.6484375 7.0390625 C-33.61091366 -6.26189274 -13.98341999 -7.58646794 0 0 Z " fill="#020302" transform="translate(138,118)"/>
<path d="M0 0 C5.17588667 3.29079137 8.55244054 7.22116595 11.8125 12.375 C12.46412109 13.37273437 12.46412109 13.37273437 13.12890625 14.390625 C17.389429 22.16941914 16.95843216 32.10886232 15.1171875 40.5703125 C11.45839955 51.60816858 5.01172144 58.16415953 -5.203125 63.41015625 C-13.25401362 66.71347887 -23.39965201 66.95109023 -31.640625 64.23828125 C-42.38221218 59.09689341 -48.76196392 53.00074748 -53.16015625 41.92578125 C-56.60916624 31.70708652 -55.86794893 23.08583796 -51.1875 13.375 C-45.94728234 4.29620345 -37.85952254 -1.76527266 -27.9453125 -4.96875 C-17.94558561 -7.34828841 -8.86410151 -4.82764984 0 0 Z " fill="#020302" transform="translate(140.1875,346.625)"/>
<path d="M0 0 C6.84778501 3.50431951 11.19177841 7.68291853 15.328125 14.19140625 C15.74449219 14.81273437 16.16085938 15.4340625 16.58984375 16.07421875 C20.74186615 23.50415356 20.55715204 32.95692509 19.328125 41.19140625 C17.90544254 45.66408605 15.96562402 49.32348044 13.328125 53.19140625 C12.66103516 54.21814453 12.66103516 54.21814453 11.98046875 55.265625 C6.49961572 62.6320193 -2.7922396 66.78194031 -11.671875 68.19140625 C-21.28876782 69.22409273 -29.57582748 66.70117382 -37.421875 61.06640625 C-43.45124587 56.04373464 -50.03031755 48.35813424 -50.87329102 40.25537109 C-51.44058817 27.84731383 -50.86652162 18.14347906 -42.6953125 8.265625 C-31.30448001 -3.4110778 -14.89147224 -6.39798283 0 0 Z " fill="#020202" transform="translate(136.671875,230.80859375)"/>
<path d="M0 0 C3.62011046 2.33296007 5.89022378 4.96794755 7.8125 8.8125 C8.35699744 15.23756974 7.61657493 18.56904537 3.8125 23.8125 C-0.05256577 27.44331936 -4.44423073 27.37421988 -9.5234375 27.23046875 C-13.80505235 26.55871979 -15.36036483 25.07457904 -18.1875 21.8125 C-20.75411353 17.61258694 -21.1359973 12.59587002 -20.1875 7.8125 C-15.60042737 -0.06594618 -8.85194354 -3.29778289 0 0 Z " fill="#2EDB81" transform="translate(127.1875,136.1875)"/>
<path d="M0 0 C3.5677811 2.35149209 5.84221079 4.99692157 7.75 8.8125 C8.34134971 14.7259971 7.19860888 19.04246154 3.75 23.8125 C-0.3049725 26.83015396 -4.13533787 27.35124113 -9.0703125 27.16015625 C-12.60563699 26.59627833 -14.62369461 25.18868106 -17.25 22.8125 C-20.54799116 18.08537934 -21.15379228 13.41601216 -20.25 7.8125 C-15.91326445 -0.86097109 -8.95063053 -3.27042269 0 0 Z " fill="#2EDB82" transform="translate(127.25,250.1875)"/>
<path d="M0 0 C3.33502442 2.32676122 4.89246744 4.21589516 6.6875 7.875 C7.63415211 13.2039068 6.68562622 17.32611884 3.6875 21.875 C0.23097997 25.6365071 -3.00216742 26.6954739 -7.96484375 27.03515625 C-12.02700726 26.75803694 -15.11096586 25.35506166 -18.3125 22.875 C-21.3310688 18.81879818 -21.84686261 14.9902904 -21.6640625 10.0546875 C-20.93848308 5.55609507 -18.48114916 2.87669928 -15.125 0 C-9.95914671 -2.06634131 -5.22081388 -1.7731066 0 0 Z " fill="#2EDC82" transform="translate(128.3125,364.125)"/>
<path d="M0 0 C9.57 0 19.14 0 29 0 C29 4.95 29 9.9 29 15 C19.43 15 9.86 15 0 15 C0 10.05 0 5.1 0 0 Z " fill="#A4AEC0" transform="translate(451,144)"/>
<path d="M0 0 C4.95 0 9.9 0 15 0 C15 9.57 15 19.14 15 29 C10.05 29 5.1 29 0 29 C0 19.43 0 9.86 0 0 Z " fill="#A8B2C3" transform="translate(419,94)"/>
<path d="M0 0 C4.62 0 9.24 0 14 0 C14 9.57 14 19.14 14 29 C9.38 29 4.76 29 0 29 C0 19.43 0 9.86 0 0 Z " fill="#A6B1C2" transform="translate(420,176)"/>
</svg>
