<?xml version="1.0" encoding="UTF-8"?>
<svg version="1.1" xmlns="http://www.w3.org/2000/svg" width="512" height="512">
<path d="M0 0 C0.73013306 0.07261047 1.46026611 0.14522095 2.21252441 0.22003174 C86.67289137 8.71363834 86.67289137 8.71363834 104.66015625 28.859375 C116.43515316 44.7343012 117.59648901 62.24371572 115.25 81.375 C114.08760762 88.47301303 112.55735587 96.24315131 108.45458984 102.27026367 C106.72240327 105.52094815 106.63134632 107.63026668 106.62890625 111.296875 C106.60280273 113.10671875 106.60280273 113.10671875 106.57617188 114.953125 C106.56711359 117.46873908 106.5618571 119.98436995 106.56054688 122.5 C106.43631789 130.55346534 105.97371513 137.74850738 100.25024414 143.87207031 C93.48102261 150.15071178 87.01541717 150.33924614 78.125 150.3125 C76.52978516 150.33666992 76.52978516 150.33666992 74.90234375 150.36132812 C67.18745409 150.36611998 62.46803406 149.31202271 56 145 C55.41992188 145.40992188 54.83984375 145.81984375 54.2421875 146.2421875 C53.46101563 146.78101563 52.67984375 147.31984375 51.875 147.875 C51.10929687 148.40867188 50.34359375 148.94234375 49.5546875 149.4921875 C42.64170409 153.57232756 35.62445286 153.37242187 27.85205078 153.37060547 C25.76901293 153.37496025 23.68813018 153.41128051 21.60546875 153.44921875 C12.17692839 153.52836734 4.90225693 152.26817129 -3 147 C-3.66 147.9075 -4.32 148.815 -5 149.75 C-8.71494252 154.23977339 -13.57635441 156.19211814 -19 158 C-24.30198808 158.27862506 -29.60372941 158.31361904 -34.91235352 158.35009766 C-36.66672093 158.36658273 -38.42102327 158.39377343 -40.17504883 158.43212891 C-60.83052049 158.880864 -60.83052049 158.880864 -68.74829102 151.33349609 C-69.16135498 150.89344238 -69.57441895 150.45338867 -70 150 C-73.55038751 151.70768079 -76.79398379 153.74198184 -80.09765625 155.87890625 C-86.12044166 159.42826849 -94.11264232 158.30337293 -100.91235352 158.35009766 C-102.66672093 158.36658273 -104.42102327 158.39377343 -106.17504883 158.43212891 C-126.07809349 158.86451771 -126.07809349 158.86451771 -134.6940918 151.56469727 C-136.125 150.1875 -136.125 150.1875 -138 148 C-138.9590625 148.4021875 -138.9590625 148.4021875 -139.9375 148.8125 C-140.948125 149.204375 -141.95875 149.59625 -143 150 C-143.56928223 150.24975586 -144.13856445 150.49951172 -144.72509766 150.75683594 C-151.47985453 153.42314397 -158.20730116 153.49123817 -165.37426758 153.44604492 C-167.43086791 153.43752747 -169.48468755 153.4663884 -171.54101562 153.49804688 C-181.73262992 153.55199597 -190.32241368 152.16574723 -198 145 C-198.928125 145.639375 -199.85625 146.27875 -200.8125 146.9375 C-206.75966887 150.78566809 -212.30691267 150.25369156 -219.1875 150.3125 C-220.29931641 150.34150391 -221.41113281 150.37050781 -222.55664062 150.40039062 C-230.42234102 150.46093184 -236.16718437 149.58864011 -242.0234375 144.10546875 C-242.69246094 143.15607422 -242.69246094 143.15607422 -243.375 142.1875 C-243.83648437 141.56230469 -244.29796875 140.93710938 -244.7734375 140.29296875 C-249.04871618 132.30064841 -248.32823278 123.69983625 -248.30273438 114.8671875 C-248.42921416 107.86591918 -249.57195416 103.02318605 -252.71337891 96.79003906 C-257.13788695 87.19548917 -257.4981187 76.89335136 -257.4375 66.5 C-257.45748047 65.28441406 -257.47746094 64.06882812 -257.49804688 62.81640625 C-257.49084265 49.31568306 -254.09595411 38.09880843 -245.17578125 27.91796875 C-220.16588402 3.00334732 -166.46066843 2.24441261 -133.08898926 -0.80859375 C-131.13152432 -0.98794892 -129.17462446 -1.17344131 -127.21777344 -1.359375 C-85.1035856 -5.19728309 -42.04151771 -4.22497673 0 0 Z " fill="#2A4368" transform="translate(327,88)"/>
<path d="M0 0 C1.17240234 -0.02900391 2.34480469 -0.05800781 3.55273438 -0.08789062 C10.38898332 -0.13807201 14.79222235 0.15105993 20.3125 4.3125 C20.9725 4.9725 21.6325 5.6325 22.3125 6.3125 C24.44209402 6.6334198 24.44209402 6.6334198 26.890625 6.62109375 C27.80457031 6.64623047 28.71851563 6.67136719 29.66015625 6.69726562 C31.5793647 6.73213684 33.49864151 6.76344663 35.41796875 6.79101562 C42.0818749 6.98261461 46.62159582 7.83403563 51.6875 12.5 C52.22375 13.098125 52.76 13.69625 53.3125 14.3125 C54.48683594 13.82523437 55.66117187 13.33796875 56.87109375 12.8359375 C63.59735981 10.60130636 70.3567326 10.87578588 77.375 10.9375 C78.71159701 10.92679035 80.04818637 10.91507774 81.38476562 10.90234375 C90.83158908 10.93072679 98.14801996 11.56945996 105.3125 18.3125 C106.3025 19.7975 106.3025 19.7975 107.3125 21.3125 C107.94776611 21.10028809 108.58303223 20.88807617 109.23754883 20.66943359 C116.92180382 18.31428084 123.99609981 17.85741651 132 17.9375 C133.17111328 17.92589844 134.34222656 17.91429687 135.54882812 17.90234375 C143.82263673 17.9303431 150.8297279 18.64007441 157.3125 24.3125 C157.84875 24.044375 158.385 23.77625 158.9375 23.5 C160.113125 22.9121875 160.113125 22.9121875 161.3125 22.3125 C162.281875 21.796875 163.25125 21.28125 164.25 20.75 C171.00776708 17.57798688 178.10904273 18.05922783 185.4375 18 C187.19707031 17.95649414 187.19707031 17.95649414 188.9921875 17.91210938 C196.88324225 17.85511842 203.11037195 19.06888443 210.3125 22.3125 C210.58578125 21.70664062 210.8590625 21.10078125 211.140625 20.4765625 C213.36617832 16.36670738 216.74677148 13.92551626 221.00195312 12.25952148 C226.30234481 10.74328112 231.55214553 10.97891855 237.03320312 10.99682617 C239.04352899 10.99997033 241.05235718 10.976545 243.0625 10.95117188 C250.65969626 10.94738841 257.20698259 11.53605374 264.3125 14.3125 C265.034375 13.52875 265.75625 12.745 266.5 11.9375 C272.50701391 6.33095368 278.86714485 6.99208103 286.65625 7.09765625 C291.70028078 6.99830413 294.59806084 6.41429538 298.63671875 3.30859375 C304.23378939 -0.83030244 309.62064064 -0.54086948 316.375 -0.375 C317.50744141 -0.38982422 318.63988281 -0.40464844 319.80664062 -0.41992188 C326.83799073 -0.35030455 331.97377879 0.52550332 337.3125 5.3125 C340.62601313 9.56059376 342.45682382 12.96818234 342.39428711 18.36572266 C342.3877562 19.17731842 342.38122528 19.98891418 342.37449646 20.82510376 C342.36306107 21.70008514 342.35162567 22.57506653 342.33984375 23.4765625 C342.3271876 25.33984183 342.31482738 27.20312318 342.30273438 29.06640625 C342.27801795 31.99567021 342.25014533 34.9248278 342.21655273 37.85400391 C342.1861032 40.68652982 342.16849283 43.51892375 342.15234375 46.3515625 C342.13888412 47.2143985 342.1254245 48.0772345 342.11155701 48.96621704 C342.0912318 53.96221927 342.59386347 58.46167733 343.81959534 63.30941772 C347.50985699 78.30602511 346.9227932 97.21487894 339.88671875 111.1328125 C337.191957 115.35251695 334.04371449 118.96397418 330.3125 122.3125 C329.2296875 123.3025 329.2296875 123.3025 328.125 124.3125 C301.80231182 143.03085604 260.59154722 145.20185268 229.3125 148.3125 C228.56432007 148.3876886 227.81614014 148.4628772 227.04528809 148.54034424 C184.48140464 152.76173197 140.91564182 153.36051347 98.3125 149.3125 C96.8903088 149.18218995 95.46810789 149.05198576 94.04589844 148.921875 C1.11404704 140.28229456 1.11404704 140.28229456 -18.6875 117.3125 C-26.85584913 106.56650551 -28.18711303 95.18821246 -28.0625 82 C-28.07410156 80.78376953 -28.08570312 79.56753906 -28.09765625 78.31445312 C-28.07318188 70.63357903 -27.13741843 63.69333631 -25.23291016 56.24926758 C-24.67925163 53.26808657 -24.86559985 52.13239869 -25.6875 49.3125 C-25.91082073 44.66066148 -25.91571504 40.00756507 -25.92773438 35.35107422 C-25.93740855 33.08393215 -25.96843954 30.81770963 -26 28.55078125 C-26.12325377 12.27892464 -26.12325377 12.27892464 -20.71484375 6.03515625 C-20.02519531 5.48730469 -19.33554688 4.93945312 -18.625 4.375 C-17.93277344 3.80910156 -17.24054688 3.24320312 -16.52734375 2.66015625 C-11.62624049 -0.92982385 -5.86452919 0.04757595 0 0 Z " fill="#2A4368" transform="translate(97.6875,275.6875)"/>
<path d="M0 0 C3.44332953 0.55451021 6.88961618 1.08280978 10.33789062 1.60546875 C30.11939097 4.70517069 55.4355917 8.93063056 69.36523438 24.43359375 C74.46251832 32.37222085 74.1291331 39.92815594 73.94726562 49.10546875 C73.93373047 50.40484375 73.92019531 51.70421875 73.90625 53.04296875 C73.87108896 56.23090287 73.82187227 59.41796474 73.75976562 62.60546875 C73.09976562 62.93546875 72.43976563 63.26546875 71.75976562 63.60546875 C71.43105469 63.08597656 71.10234375 62.56648438 70.76367188 62.03125 C66.31013751 55.50181343 61.22825936 52.09496666 53.75976562 49.60546875 C46.2532477 48.92710194 40.01866436 49.13050734 33.75976562 53.60546875 C32.39089612 54.90229249 31.04283652 56.22370009 29.75976562 57.60546875 C29.09976562 57.60546875 28.43976563 57.60546875 27.75976562 57.60546875 C26.49804688 56.06640625 26.49804688 56.06640625 25.07226562 53.98046875 C19.37088326 46.22329947 13.30707991 41.70871373 3.75976562 39.60546875 C-6.63414436 38.51721749 -16.32090105 39.17472516 -24.88085938 45.58203125 C-29.13126269 49.12752065 -29.13126269 49.12752065 -32.24023438 53.60546875 C-35.63288707 52.47458452 -36.17507568 51.66249164 -38.30273438 48.91796875 C-43.75124717 42.48826192 -51.71862375 37.31387644 -60.25854492 36.38623047 C-62.52794815 36.26522938 -64.78013248 36.22572824 -67.05273438 36.23046875 C-68.2520459 36.23288574 -68.2520459 36.23288574 -69.47558594 36.23535156 C-75.49428756 36.3605877 -80.12311417 37.28966664 -85.24023438 40.60546875 C-86.27148438 41.20359375 -87.30273438 41.80171875 -88.36523438 42.41796875 C-91.99683984 45.18114682 -95.09322386 48.3124629 -98.24023438 51.60546875 C-99.23023438 52.59546875 -99.23023438 52.59546875 -100.24023438 53.60546875 C-100.78550781 52.94160156 -101.33078125 52.27773437 -101.89257812 51.59375 C-108.43214717 43.9363059 -115.8045242 37.53831796 -126.24487305 36.38378906 C-139.41541011 35.68943158 -148.83102256 37.23108476 -159.25585938 45.7890625 C-161.9010571 48.2103557 -164.0788036 50.74680224 -166.24023438 53.60546875 C-167.69429687 52.30609375 -167.69429687 52.30609375 -169.17773438 50.98046875 C-180.08779763 41.66053617 -189.09771636 38.64712697 -203.27734375 39.41015625 C-207.49694529 39.8300171 -210.73663603 41.30310412 -214.24023438 43.60546875 C-214.93375 44.04117188 -215.62726563 44.476875 -216.34179688 44.92578125 C-221.39459007 48.38893164 -224.84726795 52.5417234 -228.24023438 57.60546875 C-228.8203125 57.19554687 -229.40039062 56.785625 -229.99804688 56.36328125 C-237.67245396 51.06971333 -243.8205414 48.53568061 -253.24023438 49.60546875 C-261.64475552 51.49712079 -266.03707103 55.99949175 -271.24023438 62.60546875 C-272.23023438 63.59546875 -272.23023438 63.59546875 -273.24023438 64.60546875 C-274.41098175 59.34238448 -274.46144908 54.2900238 -274.49023438 48.91796875 C-274.51085937 47.97501953 -274.53148437 47.03207031 -274.55273438 46.06054688 C-274.60287106 36.94193786 -272.98772646 28.60563067 -267.08398438 21.4140625 C-254.18701084 8.76300583 -233.1063188 6.15662589 -216.24023438 2.60546875 C-215.32628906 2.41065918 -214.41234375 2.21584961 -213.47070312 2.01513672 C-195.58736821 -1.72638802 -177.4054006 -3.61627097 -159.24023438 -5.39453125 C-158.01353027 -5.51602539 -156.78682617 -5.63751953 -155.52294922 -5.76269531 C-103.95174463 -10.59727025 -51.0925593 -8.2515653 0 0 Z " fill="#EE605B" transform="translate(356.240234375,104.39453125)"/>
<path d="M0 0 C4.70786517 1.83083645 4.70786517 1.83083645 6.828125 3.05859375 C9.51908823 4.22500048 11.57607692 4.23168016 14.5 4.1875 C15.4384375 4.18105469 16.376875 4.17460937 17.34375 4.16796875 C19.70620585 4.01857816 21.73716665 3.66710889 24 3 C24.35191406 3.45890625 24.70382813 3.9178125 25.06640625 4.390625 C29.44608477 9.83377637 33.94270949 13.62952798 41 15 C48.59751121 15.65366458 53.69988884 15.38268603 60 11 C60.66 11 61.32 11 62 11 C62.268125 11.56847656 62.53625 12.13695312 62.8125 12.72265625 C66.93317203 20.84200673 72.74034679 26.93043925 81.328125 30.3359375 C91.67490891 32.9075066 101.86942044 31.44681355 111 26 C111.70769531 25.28328125 112.41539062 24.5665625 113.14453125 23.828125 C115 22 115 22 118 22 C119.2890625 23.5390625 119.2890625 23.5390625 120.625 25.625 C124.71077694 31.34306003 129.78808533 34.61446818 136.1875 37.375 C148.16150761 39.33795207 156.95823666 38.18577234 166.9375 31.4375 C170.10831819 29.16856672 170.10831819 29.16856672 172 26 C174.89073687 27.31913538 177.044397 28.78743667 179.375 30.9375 C186.89914491 37.52916541 194.5452866 38.48795881 204.2890625 38.40625 C213.64090162 37.38246972 221.10956664 32.1133011 227 25 C228.03707354 23.69529458 229.06281663 22.37821084 230 21 C230.65355469 21.59748047 230.65355469 21.59748047 231.3203125 22.20703125 C239.57400278 29.54959988 246.71980772 31.38000456 257.64453125 31.28125 C265.11595608 30.65500717 272.59209118 27.25615628 278 22 C280.81551318 18.24847844 282.93373349 14.19798037 285 10 C285.65742187 10.54140625 285.65742187 10.54140625 286.328125 11.09375 C292.38128365 15.52289048 297.65312896 15.99538253 305 15 C312.84722861 13.20283954 317.2998164 9.41217101 322 3 C322.55171875 3.15855469 323.1034375 3.31710937 323.671875 3.48046875 C331.7808508 5.29002207 337.93340618 4.11147277 345 0 C345.66 0 346.32 0 347 0 C347.11734237 4.45810752 347.18763372 8.91581128 347.25 13.375 C347.28351563 14.62667969 347.31703125 15.87835938 347.3515625 17.16796875 C347.46443101 27.94691112 345.55875129 36.28662584 338.02954102 44.26904297 C331.79811701 49.58370629 323.39461894 52.15621764 315.6875 54.5625 C314.25156494 55.01181885 314.25156494 55.01181885 312.78662109 55.47021484 C303.97775027 58.14198316 295.15032621 60.01218926 286.07275391 61.49658203 C283.88335604 61.85527728 281.69568686 62.22459218 279.50927734 62.60107422 C264.17830653 65.23979897 248.87444714 67.39213063 233.375 68.75 C232.06249268 68.86545166 230.74998535 68.98090332 229.39770508 69.09985352 C210.29385827 70.66251857 191.20895951 71.16688158 172.04516602 71.13037109 C168.64530123 71.1249325 165.24556435 71.13039795 161.84570312 71.13671875 C159.65104138 71.13605907 157.45637971 71.13478018 155.26171875 71.1328125 C154.26162277 71.13483673 153.26152679 71.13686096 152.23112488 71.13894653 C147.16287284 71.12211858 142.24382322 70.87315051 137.21589661 70.24456787 C133.21867179 69.80339532 129.20426206 69.71543376 125.1875 69.56640625 C114.73405493 69.11536605 104.38729507 68.17803834 94 66.9375 C93.11267181 66.83284424 92.22534363 66.72818848 91.31112671 66.62036133 C78.00784964 65.02477829 64.90458982 62.84774988 51.8125 60 C51.06411865 59.83877655 50.3157373 59.6775531 49.54467773 59.51144409 C13.11509395 51.56631861 13.11509395 51.56631861 4.14453125 39.85546875 C-1.14713464 31.2768295 -1.16133196 21.97896362 -1.125 12.1875 C-1.12886719 11.12595703 -1.13273437 10.06441406 -1.13671875 8.97070312 C-1.13542969 7.96330078 -1.13414063 6.95589844 -1.1328125 5.91796875 C-1.13168457 4.99781982 -1.13055664 4.0776709 -1.12939453 3.12963867 C-1 1 -1 1 0 0 Z " fill="#EE605B" transform="translate(83,344)"/>
<path d="M0 0 C6.86963412 4.97697982 11.07910074 11.31469414 13.3125 19.5 C13.72736127 23.1948366 13.7337309 26.85506423 13.7109375 30.5703125 C13.71380768 31.61017303 13.71667786 32.65003357 13.71963501 33.72140503 C13.72166709 35.90818836 13.71619749 38.09499022 13.70361328 40.28173828 C13.68751526 43.62183285 13.70350848 46.96072341 13.72265625 50.30078125 C13.7206743 52.43229432 13.71683164 54.56380665 13.7109375 56.6953125 C13.72004654 58.18612839 13.72004654 58.18612839 13.7293396 59.70706177 C13.66766971 65.80279244 13.10034395 70.44353567 8.8125 75.14453125 C2.14629394 80.33514482 -4.11240755 79.75151519 -12.20117188 79.79516602 C-13.68499298 79.80666725 -15.16877332 79.82709 -16.65234375 79.85668945 C-18.80497121 79.8996173 -20.95637125 79.91556951 -23.109375 79.92578125 C-25.03668457 79.94765503 -25.03668457 79.94765503 -27.00292969 79.9699707 C-32.09755577 79.32014595 -35.74632358 77.95327647 -38.99468994 73.84796143 C-42.23702579 68.23578923 -42.26999109 62.65937171 -42.21875 56.31640625 C-42.2225769 55.26146469 -42.22640381 54.20652313 -42.23034668 53.11961365 C-42.23305717 50.89833619 -42.22575679 48.67702634 -42.20898438 46.45581055 C-42.18758502 43.07592793 -42.20880572 39.69817605 -42.234375 36.31835938 C-42.23173115 34.15103702 -42.22660501 31.98371598 -42.21875 29.81640625 C-42.22684692 28.81613907 -42.23494385 27.81587189 -42.24328613 26.78529358 C-42.11803466 17.3033471 -39.12506512 10.10061741 -32.5703125 3.23046875 C-24.20809084 -4.45514161 -9.9606374 -5.53200802 0 0 Z " fill="#F0F0F0" transform="translate(303.6875,154.5)"/>
<path d="M0 0 C7.22624218 3.90570905 11.29085821 9.02561321 14.18826294 16.6229248 C15.57999575 21.44854734 15.55089179 26.14931236 15.49609375 31.140625 C15.49754898 32.22204773 15.49900421 33.30347046 15.50050354 34.41766357 C15.49885398 36.68667313 15.4873996 38.95569499 15.46655273 41.22460938 C15.43746318 44.69188899 15.44599162 48.15764931 15.45898438 51.625 C15.4527499 53.83854907 15.44436124 56.05209334 15.43359375 58.265625 C15.43652939 59.29697571 15.43946503 60.32832642 15.44248962 61.39093018 C15.37150697 66.80973339 15.09840574 70.78501603 12 75.4375 C5.48607741 81.4628784 -1.19576771 80.6556643 -9.56860352 80.67773438 C-11.79416562 80.68742021 -14.01879592 80.71844532 -16.24414062 80.75 C-17.66926538 80.75653272 -19.09439671 80.76178214 -20.51953125 80.765625 C-21.80964111 80.7749707 -23.09975098 80.78431641 -24.42895508 80.79394531 C-29.57086916 80.28070305 -32.81327093 78.72045035 -36.3125 74.9375 C-38.69716241 71.4046668 -39.1312923 68.73584737 -39.19287109 64.57397461 C-39.20893402 63.58541977 -39.22499695 62.59686493 -39.24154663 61.57835388 C-39.28621236 57.04255971 -39.32709298 52.50691043 -39.35009766 47.97094727 C-39.36661312 45.58608207 -39.39384418 43.20126546 -39.43212891 40.81665039 C-39.48721241 37.3657887 -39.50882426 33.91608737 -39.5234375 30.46484375 C-39.54610687 29.41030502 -39.56877625 28.3557663 -39.59213257 27.26927185 C-39.56812407 18.75588272 -37.29766183 12.27724323 -31.71875 5.78125 C-30.9865625 5.1728125 -30.254375 4.564375 -29.5 3.9375 C-28.7678125 3.3084375 -28.035625 2.679375 -27.28125 2.03125 C-19.78950822 -3.20270658 -8.40382024 -3.37601744 0 0 Z " fill="#F5F5F5" transform="translate(235,153.5625)"/>
<path d="M0 0 C2.0178214 1.25889036 4.04751427 2.34163553 6.19140625 3.3671875 C6.76246094 2.91988281 7.33351563 2.47257813 7.921875 2.01171875 C20.10209425 -7.07019353 32.16317434 -10.60808615 47.19140625 -8.6328125 C56.295977 -6.83429744 63.29882288 -2.67333259 70.19140625 3.3671875 C71.18140625 4.0271875 72.17140625 4.6871875 73.19140625 5.3671875 C73.78566406 4.90828125 74.37992188 4.449375 74.9921875 3.9765625 C85.62356896 -3.89363591 94.8986554 -6.87078697 108.19140625 -5.6328125 C119.37361886 -3.86137288 127.72783775 3.23634632 135.19140625 11.3671875 C138.62148899 10.0657022 141.74254521 8.52978631 144.94140625 6.7421875 C151.49511098 3.46048054 156.72529356 3.48807189 163.69140625 5.4921875 C169.47431136 7.61631258 174.83428511 11.01006636 179.19140625 15.3671875 C179.38671875 18.1875 179.38671875 18.1875 179.31640625 21.4921875 C179.29835938 22.58789062 179.2803125 23.68359375 179.26171875 24.8125 C179.22691406 26.07707031 179.22691406 26.07707031 179.19140625 27.3671875 C178.53140625 27.6971875 177.87140625 28.0271875 177.19140625 28.3671875 C176.86269531 27.84769531 176.53398437 27.32820313 176.1953125 26.79296875 C171.74177813 20.26353218 166.65989998 16.85668541 159.19140625 14.3671875 C151.68488833 13.68882069 145.45030498 13.89222609 139.19140625 18.3671875 C137.82253674 19.66401124 136.47447715 20.98541884 135.19140625 22.3671875 C134.53140625 22.3671875 133.87140625 22.3671875 133.19140625 22.3671875 C131.9296875 20.828125 131.9296875 20.828125 130.50390625 18.7421875 C124.80252388 10.98501822 118.73872054 6.47043248 109.19140625 4.3671875 C98.79749626 3.27893624 89.11073958 3.93644391 80.55078125 10.34375 C76.30037793 13.8892394 76.30037793 13.8892394 73.19140625 18.3671875 C69.79875356 17.23630327 69.25656495 16.42421039 67.12890625 13.6796875 C61.68039346 7.24998067 53.71301688 2.07559519 45.1730957 1.14794922 C42.90369247 1.02694813 40.65150815 0.98744699 38.37890625 0.9921875 C37.17959473 0.99460449 37.17959473 0.99460449 35.95605469 0.99707031 C29.93735306 1.12230645 25.30852646 2.05138539 20.19140625 5.3671875 C18.64453125 6.264375 18.64453125 6.264375 17.06640625 7.1796875 C13.43480079 9.94286557 10.33841677 13.07418165 7.19140625 16.3671875 C6.53140625 17.0271875 5.87140625 17.6871875 5.19140625 18.3671875 C4.64613281 17.70332031 4.10085937 17.03945312 3.5390625 16.35546875 C-3.00050655 8.69802465 -10.37288358 2.30003671 -20.81323242 1.14550781 C-33.98376948 0.45115033 -43.39938194 1.99280351 -53.82421875 10.55078125 C-56.46941648 12.97207445 -58.64716297 15.50852099 -60.80859375 18.3671875 C-62.26265625 17.0678125 -62.26265625 17.0678125 -63.74609375 15.7421875 C-74.656157 6.42225492 -83.66607573 3.40884572 -97.84570312 4.171875 C-102.06530467 4.59173585 -105.30499541 6.06482287 -108.80859375 8.3671875 C-109.50210938 8.80289063 -110.195625 9.23859375 -110.91015625 9.6875 C-115.96294945 13.15065039 -119.41562732 17.30344215 -122.80859375 22.3671875 C-123.38867188 21.95726562 -123.96875 21.54734375 -124.56640625 21.125 C-132.24081333 15.83143208 -138.38890077 13.29739936 -147.80859375 14.3671875 C-156.2131149 16.25883954 -160.6054304 20.7612105 -165.80859375 27.3671875 C-166.46859375 28.0271875 -167.12859375 28.6871875 -167.80859375 29.3671875 C-168.30859375 27.4296875 -168.30859375 27.4296875 -168.80859375 24.3671875 C-168.93492187 23.67753906 -169.06125 22.98789063 -169.19140625 22.27734375 C-169.46153502 19.72854812 -169.45310643 17.855604 -168.80859375 15.3671875 C-163.3932099 8.69908835 -154.48988661 5.1824026 -146.16796875 3.98828125 C-139.0760063 3.65108672 -134.07450682 5.89568571 -128.49609375 10.1171875 C-126.75682135 11.66480128 -126.75682135 11.66480128 -123.80859375 11.3671875 C-122.45147206 9.70471343 -121.09449376 8.04212209 -119.73828125 6.37890625 C-116.02868927 2.51161907 -111.45688737 -0.03701217 -106.80859375 -2.6328125 C-106.17308594 -2.99761719 -105.53757813 -3.36242187 -104.8828125 -3.73828125 C-97.40440988 -7.27020976 -87.26894999 -6.83664567 -79.421875 -4.71875 C-73.03065214 -2.18190098 -67.33887406 1.30326939 -61.80859375 5.3671875 C-60.94234375 4.5215625 -60.07609375 3.6759375 -59.18359375 2.8046875 C-55.64760519 -0.24483036 -51.78230473 -2.37765348 -47.62109375 -4.4453125 C-46.71206299 -4.89789429 -46.71206299 -4.89789429 -45.78466797 -5.35961914 C-30.35921944 -12.81688469 -13.80286327 -8.77743859 0 0 Z " fill="#FB6E69" transform="translate(250.80859375,139.6328125)"/>
<path d="M0 0 C5.38625629 4.22383773 7.88649647 9.35870816 10.015625 15.74609375 C10.12125425 17.20220041 10.17407597 18.66249939 10.19262695 20.12231445 C10.21187981 21.4443261 10.21187981 21.4443261 10.23152161 22.79304504 C10.23890854 23.74305893 10.24629547 24.69307281 10.25390625 25.671875 C10.261978 26.65222214 10.27004974 27.63256927 10.27836609 28.6426239 C10.2921978 30.71803015 10.30292404 32.79345906 10.31079102 34.86889648 C10.32800268 38.03608483 10.37189723 41.2022289 10.41601562 44.36914062 C10.426143 46.38671108 10.43465896 48.40429041 10.44140625 50.421875 C10.45891434 51.36581619 10.47642242 52.30975739 10.49446106 53.28230286 C10.47578964 58.9675081 9.8333802 62.24526303 6.015625 66.74609375 C1.20444217 71.50188467 -3.75716504 71.240743 -10.171875 71.24414062 C-11.43 71.22416016 -12.688125 71.20417969 -13.984375 71.18359375 C-15.8715625 71.19422852 -15.8715625 71.19422852 -17.796875 71.20507812 C-24.87009119 71.15637484 -29.89519117 70.81298163 -35.734375 66.43359375 C-39.5160282 61.32836193 -39.33150739 55.24044925 -39.390625 49.17578125 C-39.40202515 48.25830109 -39.41342529 47.34082092 -39.4251709 46.39553833 C-39.44400891 44.45742355 -39.45711418 42.5192456 -39.46484375 40.58105469 C-39.48418083 37.65052046 -39.54623971 34.72284102 -39.609375 31.79296875 C-39.72890269 21.25374953 -39.63754082 12.46921904 -32.984375 3.74609375 C-23.66054288 -5.40198282 -11.15769781 -7.05043503 0 0 Z " fill="#F2F3F3" transform="translate(366.984375,158.25390625)"/>
<path d="M0 0 C6.24689208 3.79320301 9.47287534 9.26070459 12 16 C12.63883919 19.63195427 12.68106118 23.14705239 12.62890625 26.828125 C12.63131821 27.82076355 12.63373016 28.8134021 12.63621521 29.83612061 C12.63524269 31.91682973 12.62199274 33.99756667 12.59692383 36.078125 C12.56243379 39.25610106 12.57634266 42.43131857 12.59570312 45.609375 C12.58880843 47.64063677 12.57913947 49.67189144 12.56640625 51.703125 C12.57136612 52.64698059 12.57632599 53.59083618 12.58143616 54.56329346 C12.45641326 61.57554759 10.69690062 65.34295505 5.62109375 70.34375 C-0.1012292 72.96108002 -5.72456611 72.57666345 -11.9375 72.5 C-13.81211914 72.52320313 -13.81211914 72.52320313 -15.72460938 72.546875 C-22.58982111 72.51770788 -27.62010135 72.48948427 -33 68 C-36.52996454 62.65675831 -36.43794553 57.81421441 -36.3984375 51.6328125 C-36.40130768 50.63925751 -36.40417786 49.64570251 -36.40713501 48.62203979 C-36.40917116 46.52585275 -36.40367279 44.4296465 -36.39111328 42.33349609 C-36.37508772 39.14246603 -36.3909601 35.95270905 -36.41015625 32.76171875 C-36.40817307 30.71874723 -36.40432786 28.67577649 -36.3984375 26.6328125 C-36.40451019 25.68673126 -36.41058289 24.74065002 -36.4168396 23.76589966 C-36.34643091 17.05757884 -35.41177415 11.47395447 -31.4921875 5.828125 C-22.15696461 -3.28160941 -11.9204375 -5.6487839 0 0 Z " fill="#F4F4F4" transform="translate(172,157)"/>
<path d="M0 0 C1.75086914 -0.0299707 1.75086914 -0.0299707 3.53710938 -0.06054688 C9.95910187 -0.05688762 14.26978602 -0.04705302 19.0625 4.4375 C21.10184331 7.49651496 21.31713976 8.14737288 21.35302734 11.59838867 C21.36578705 12.43323288 21.37854675 13.26807709 21.39169312 14.1282196 C21.39391876 15.02821182 21.39614441 15.92820404 21.3984375 16.85546875 C21.4050943 17.78668045 21.4117511 18.71789215 21.41860962 19.67732239 C21.42873904 21.65017726 21.43342655 23.62306642 21.43310547 25.59594727 C21.43745858 28.59645168 21.47371914 31.59546098 21.51171875 34.59570312 C21.51759107 36.51561999 21.52155768 38.43554382 21.5234375 40.35546875 C21.53780853 41.24533981 21.55217957 42.13521088 21.56698608 43.05204773 C21.51978877 49.57643856 20.2181242 55.10938733 15.61508179 59.96403503 C9.80186772 65.01298999 5.58330014 65.83434647 -1.9609375 65.6875 C-7.25201506 65.24310503 -10.46697154 63.63444177 -14.625 60.25 C-19.93696491 53.78950213 -21.54439057 48.14642388 -21.43359375 39.86328125 C-21.43504898 38.97642136 -21.43650421 38.08956146 -21.43800354 37.17582703 C-21.43635356 35.31436859 -21.42489408 33.45289522 -21.40405273 31.59155273 C-21.37497235 28.74729524 -21.38348755 25.90489082 -21.39648438 23.06054688 C-21.39024959 21.24478265 -21.38186068 19.42902426 -21.37109375 17.61328125 C-21.37549721 16.34439812 -21.37549721 16.34439812 -21.37998962 15.04988098 C-21.30566238 10.3933485 -21.06400322 7.13945424 -17.9375 3.4375 C-12.44279901 -0.80073946 -6.649484 -0.04025554 0 0 Z " fill="#F2F2F2" transform="translate(336.9375,298.5625)"/>
<path d="M0 0 C1.18078125 -0.02900391 2.3615625 -0.05800781 3.578125 -0.08789062 C14.50323969 -0.1678605 14.50323969 -0.1678605 19.25 4.3125 C21.29432984 7.37899476 21.50887811 8.07800852 21.57226562 11.54931641 C21.59148071 12.40095367 21.6106958 13.25259094 21.63049316 14.1300354 C21.63899292 15.04876434 21.64749268 15.96749329 21.65625 16.9140625 C21.66765015 17.86509857 21.67905029 18.81613464 21.6907959 19.79598999 C21.70969584 21.81170201 21.72276388 23.82747582 21.73046875 25.84326172 C21.74979956 28.90574511 21.81179784 31.96549543 21.875 35.02734375 C21.88806933 36.98956746 21.89856664 38.95181031 21.90625 40.9140625 C21.9309436 41.82064606 21.95563721 42.72722961 21.9810791 43.6612854 C21.93310456 50.61944469 19.7756625 55.05457633 15.25 60.3125 C10.70374269 64.51623826 6.89226431 65.64730223 0.6875 65.875 C-5.97129987 65.58281248 -9.60285333 64.4010951 -14.4296875 59.6640625 C-20.04481421 53.51160309 -21.07471796 48.24597545 -21.15625 40.1015625 C-21.16765015 39.21520111 -21.17905029 38.32883972 -21.1907959 37.4156189 C-21.20964268 35.54470558 -21.2227427 33.67372667 -21.23046875 31.80273438 C-21.2498927 28.95324123 -21.31197743 26.10662978 -21.375 23.2578125 C-21.38806121 21.43491286 -21.39856171 19.61199272 -21.40625 17.7890625 C-21.4309436 16.94405182 -21.45563721 16.09904114 -21.4810791 15.22842407 C-21.43891741 9.57953578 -20.1414422 6.69871178 -16.23474121 2.60824585 C-11.86639121 -1.20404907 -5.47296127 0.04423191 0 0 Z " fill="#F1F1F2" transform="translate(174.75,298.6875)"/>
<path d="M0 0 C1.31162109 0.00451172 2.62324219 0.00902344 3.97460938 0.01367188 C4.98841675 0.04473022 4.98841675 0.04473022 6.02270508 0.07641602 C8.08918944 0.13669966 10.14955706 0.13798355 12.21679688 0.13085938 C23.38499988 0.2901697 23.38499988 0.2901697 28.02734375 4.82421875 C29.16655281 7.10263687 29.17695314 8.43004513 29.22021484 10.96337891 C29.23627777 11.8183194 29.2523407 12.67325989 29.26889038 13.55410767 C29.31346877 17.4808876 29.35444029 21.40749836 29.37744141 25.33447266 C29.393958 27.4003428 29.42119085 29.46615682 29.45947266 31.53173828 C29.51450851 34.51755282 29.53616009 37.50202632 29.55078125 40.48828125 C29.57345062 41.40316315 29.59612 42.31804504 29.61947632 43.26065063 C29.59852632 49.68415789 28.09813777 53.83074783 24.02734375 58.82421875 C18.02923294 64.52242402 12.31578636 65.33978904 4.26171875 65.203125 C-2.0034171 64.46916585 -5.51521306 61.66519962 -9.34765625 56.82421875 C-12.58452924 50.84845322 -13.31168109 46.32854949 -13.37890625 39.61328125 C-13.3903064 38.72691986 -13.40170654 37.84055847 -13.41345215 36.92733765 C-13.43229893 35.05642433 -13.44539895 33.18544542 -13.453125 31.31445312 C-13.47254895 28.46495998 -13.53463368 25.61834853 -13.59765625 22.76953125 C-13.61071746 20.94663161 -13.62121796 19.12371147 -13.62890625 17.30078125 C-13.65359985 16.45577057 -13.67829346 15.61075989 -13.70373535 14.74014282 C-13.66318735 9.30745859 -12.57170066 6.02517211 -8.71694946 2.10491943 C-5.85948439 0.00690205 -3.48809203 -0.03272661 0 0 Z " fill="#F3F4F4" transform="translate(220.97265625,306.17578125)"/>
<path d="M0 0 C1.31162109 0 2.62324219 0 3.97460938 0 C4.65048096 0.01869141 5.32635254 0.03738281 6.02270508 0.05664062 C8.08974342 0.10937244 10.14931239 0.09778023 12.21679688 0.078125 C22.26286829 0.19672102 22.26286829 0.19672102 25.89233398 3.34277344 C26.59688721 4.17325195 27.30144043 5.00373047 28.02734375 5.859375 C28.52234375 6.354375 28.52234375 6.354375 29.02734375 6.859375 C29.1535077 9.8800457 29.21606428 12.87653718 29.23046875 15.8984375 C29.23616882 16.81265472 29.2418689 17.72687195 29.2477417 18.66879272 C29.25721102 20.61072629 29.26373331 22.55267606 29.26757812 24.49462891 C29.27723518 27.45113777 29.30821981 30.40693719 29.33984375 33.36328125 C29.34637849 35.24999587 29.35162711 37.13671547 29.35546875 39.0234375 C29.36781555 39.90287018 29.38016235 40.78230286 29.3928833 41.68838501 C29.36298211 50.02891035 27.06956129 55.81715746 21.02734375 61.859375 C14.86911781 65.70826621 8.12874965 65.8824589 1.02734375 64.859375 C-5.31224888 62.48899946 -9.09143161 58.26325256 -11.95166016 52.25292969 C-14.03055733 45.34315669 -13.7455942 38.13497271 -13.67944336 30.97241211 C-13.66012063 28.16670253 -13.69978251 25.36589125 -13.74414062 22.56054688 C-13.74443086 20.76041375 -13.74129412 18.9602761 -13.734375 17.16015625 C-13.74965744 16.33083084 -13.76493988 15.50150543 -13.78068542 14.64704895 C-13.67390273 9.28216996 -12.5060053 6.02344105 -8.71324158 2.14848328 C-5.86407238 0.03833818 -3.48877472 -0.01412936 0 0 Z " fill="#F4F4F4" transform="translate(274.97265625,306.140625)"/>
<path d="M0 0 C4.70786517 1.83083645 4.70786517 1.83083645 6.828125 3.05859375 C9.51908823 4.22500048 11.57607692 4.23168016 14.5 4.1875 C15.4384375 4.18105469 16.376875 4.17460937 17.34375 4.16796875 C19.70620585 4.01857816 21.73716665 3.66710889 24 3 C24.35191406 3.45890625 24.70382813 3.9178125 25.06640625 4.390625 C29.44608477 9.83377637 33.94270949 13.62952798 41 15 C48.59751121 15.65366458 53.69988884 15.38268603 60 11 C60.66 11 61.32 11 62 11 C62.268125 11.56847656 62.53625 12.13695312 62.8125 12.72265625 C66.93317203 20.84200673 72.74034679 26.93043925 81.328125 30.3359375 C91.67490891 32.9075066 101.86942044 31.44681355 111 26 C111.70769531 25.28328125 112.41539062 24.5665625 113.14453125 23.828125 C115 22 115 22 118 22 C119.2890625 23.5390625 119.2890625 23.5390625 120.625 25.625 C124.71077694 31.34306003 129.78808533 34.61446818 136.1875 37.375 C148.16150761 39.33795207 156.95823666 38.18577234 166.9375 31.4375 C170.10831819 29.16856672 170.10831819 29.16856672 172 26 C174.89073687 27.31913538 177.044397 28.78743667 179.375 30.9375 C186.89914491 37.52916541 194.5452866 38.48795881 204.2890625 38.40625 C213.64090162 37.38246972 221.10956664 32.1133011 227 25 C228.03707354 23.69529458 229.06281663 22.37821084 230 21 C230.65355469 21.59748047 230.65355469 21.59748047 231.3203125 22.20703125 C239.57400278 29.54959988 246.71980772 31.38000456 257.64453125 31.28125 C265.11595608 30.65500717 272.59209118 27.25615628 278 22 C280.81551318 18.24847844 282.93373349 14.19798037 285 10 C285.65742187 10.54140625 285.65742187 10.54140625 286.328125 11.09375 C292.38128365 15.52289048 297.65312896 15.99538253 305 15 C312.84722861 13.20283954 317.2998164 9.41217101 322 3 C322.55171875 3.15855469 323.1034375 3.31710937 323.671875 3.48046875 C331.7808508 5.29002207 337.93340618 4.11147277 345 0 C345.66 0 346.32 0 347 0 C347 1.98 347 3.96 347 6 C340.33748595 9.89694218 333.11601545 12.33990881 325.375 10.3125 C322.96235891 9.71461848 322.96235891 9.71461848 321.26171875 11.29296875 C320.74222656 11.91816406 320.22273438 12.54335938 319.6875 13.1875 C314.23469172 19.07512273 308.5400399 21.55711528 300.53125 22.11328125 C296.37098085 21.92709637 292.81482981 20.57586017 289 19 C288.01 18.67 287.02 18.34 286 18 C285.7421875 18.7425 285.484375 19.485 285.21875 20.25 C281.6536455 28.29433835 273.89297666 32.88567854 266 36 C256.93562754 39.17087022 248.77377157 38.59306836 240 35 C237.84080364 33.68667438 235.80116111 32.32130748 233.7890625 30.79296875 C231.99700097 29.7625279 231.99700097 29.7625279 230.03515625 30.62109375 C227.72466547 32.18655103 225.82037436 33.93661491 223.8125 35.875 C216.17490539 42.81941358 208.11573355 45.34615848 197.93359375 45.2109375 C189.95378674 44.63715644 183.80391033 41.60978362 177.2265625 37.20703125 C174.83602759 35.68227918 174.83602759 35.68227918 171 36 C168.95834938 37.20146018 168.95834938 37.20146018 166.9375 38.8125 C159.2890707 44.11624688 150.24349256 46.22136238 141 45 C132.5983614 43.14767023 126.32663183 39.78933826 120 34 C119.42378906 33.47535156 118.84757812 32.95070313 118.25390625 32.41015625 C117 31 117 31 117 29 C116.32195312 29.39832031 115.64390625 29.79664063 114.9453125 30.20703125 C104.48946511 36.1590441 95.06851558 40.00040595 83.125 36.875 C73.83954214 33.80837413 66.80212598 28.878116 61 21 C60.505 20.01 60.505 20.01 60 19 C58.99582031 19.3196875 57.99164063 19.639375 56.95703125 19.96875 C49.90085546 21.96909338 41.838446 22.51181761 34.9453125 19.796875 C30.77428128 17.34623945 27.24540745 14.60438029 24 11 C24 10.34 24 9.68 24 9 C23.236875 9.350625 22.47375 9.70125 21.6875 10.0625 C15.23878294 11.70200434 8.66063871 11.27759549 2.8125 7.9375 C1.884375 7.298125 0.95625 6.65875 0 6 C0 4.02 0 2.04 0 0 Z " fill="#F96E69" transform="translate(83,344)"/>
<path d="M0 0 C4.88853352 3.25902234 8.08911534 7.27172406 9.8125 12.875 C10.10598335 15.81232426 10.11660723 18.73333682 10.11328125 21.68359375 C10.11756638 22.52793472 10.1218515 23.3722757 10.12626648 24.24220276 C10.1319946 26.02319443 10.13252125 27.8042095 10.12817383 29.58520508 C10.12501449 32.30005052 10.14848918 35.01380479 10.17382812 37.72851562 C10.17610145 39.4635403 10.17680446 41.19856789 10.17578125 42.93359375 C10.184991 43.74001816 10.19420074 44.54644257 10.20368958 45.37730408 C10.16384553 50.26581685 9.54935105 53.65634017 6.8125 57.875 C2.56768332 60.70487779 -1.0705297 60.24289905 -6.0625 60.25 C-6.96097656 60.27449219 -7.85945313 60.29898438 -8.78515625 60.32421875 C-13.09774945 60.34332921 -15.52049324 60.28742403 -19.2578125 57.9765625 C-21.87451616 55.12679212 -22.31454695 53.59126224 -22.38037109 49.82763672 C-22.39643402 48.99271698 -22.41249695 48.15779724 -22.42904663 47.2975769 C-22.47363735 43.46239069 -22.51459778 39.62737754 -22.53759766 35.79199219 C-22.55411224 33.77462187 -22.58134245 31.75730896 -22.61962891 29.74023438 C-22.67468096 26.82391149 -22.69631873 23.90896162 -22.7109375 20.9921875 C-22.73360687 20.09917938 -22.75627625 19.20617126 -22.77963257 18.28610229 C-22.75847284 11.94693217 -21.23355309 7.78556229 -17.1875 2.875 C-11.68135311 -2.01935279 -6.73668132 -2.37765223 0 0 Z " fill="#F1F1F1" transform="translate(411.1875,166.125)"/>
<path d="M0 0 C4.88853352 3.25902234 8.08911534 7.27172406 9.8125 12.875 C10.10598335 15.81232426 10.11660723 18.73333682 10.11328125 21.68359375 C10.11756638 22.52793472 10.1218515 23.3722757 10.12626648 24.24220276 C10.1319946 26.02319443 10.13252125 27.8042095 10.12817383 29.58520508 C10.12501449 32.30005052 10.14848918 35.01380479 10.17382812 37.72851562 C10.17610145 39.4635403 10.17680446 41.19856789 10.17578125 42.93359375 C10.184991 43.74001816 10.19420074 44.54644257 10.20368958 45.37730408 C10.16384553 50.26581685 9.54935105 53.65634017 6.8125 57.875 C2.56768332 60.70487779 -1.0705297 60.24289905 -6.0625 60.25 C-6.96097656 60.27449219 -7.85945313 60.29898438 -8.78515625 60.32421875 C-13.09774945 60.34332921 -15.52049324 60.28742403 -19.2578125 57.9765625 C-21.86594241 55.13612952 -22.31491462 53.59462071 -22.39624023 49.84350586 C-22.41553085 49.01181381 -22.43482147 48.18012177 -22.45469666 47.32322693 C-22.51263219 43.49783747 -22.56177448 39.67263611 -22.5925293 35.84692383 C-22.6140442 33.83633174 -22.64806915 31.82583166 -22.69506836 29.81567383 C-22.76244149 26.90664112 -22.78959426 23.99954917 -22.80859375 21.08984375 C-22.83642441 20.20199692 -22.86425507 19.31415009 -22.89292908 18.3993988 C-22.87042094 11.47330567 -20.61908607 7.14613813 -16.1875 1.875 C-11.32602573 -2.3468066 -5.77899224 -2.03964432 0 0 Z " fill="#F4F4F4" transform="translate(114.1875,166.125)"/>
<path d="M0 0 C1.16692383 -0.00290039 1.16692383 -0.00290039 2.35742188 -0.00585938 C3.15599609 0.01798828 3.95457031 0.04183594 4.77734375 0.06640625 C5.57978516 0.05544922 6.38222656 0.04449219 7.20898438 0.03320312 C11.07487104 0.0813262 13.07531444 0.13950119 16.2109375 2.5390625 C20.10047803 7.94400843 19.01724548 14.85628448 19.06494141 21.29394531 C19.0814357 22.92332304 19.10863915 24.55263038 19.14697266 26.18164062 C19.52910237 42.51685518 19.52910237 42.51685518 15.08837891 48.21435547 C14.6351123 48.68115723 14.1818457 49.14795898 13.71484375 49.62890625 C13.22677246 50.16660645 12.73870117 50.70430664 12.23583984 51.25830078 C9.24989736 53.94900401 5.6647175 54.03306317 1.77734375 53.96875 C-1.96102382 53.35276898 -3.79476815 51.35095836 -6.28515625 48.62890625 C-9.02327116 43.34930506 -9.75229103 39.14544831 -9.75390625 33.24609375 C-9.76151978 32.46879913 -9.7691333 31.69150452 -9.77697754 30.89065552 C-9.78771841 29.25867914 -9.79065629 27.62663436 -9.78613281 25.99462891 C-9.78515592 23.50307232 -9.82693372 21.01455401 -9.87109375 18.5234375 C-9.8762984 16.93099596 -9.87898898 15.33854379 -9.87890625 13.74609375 C-9.89530151 13.0064035 -9.91169678 12.26671326 -9.92858887 11.50460815 C-9.87661141 7.60703049 -9.40779442 5.78930563 -7.01586914 2.66088867 C-4.31347918 0.64998195 -3.27926227 -0.00338495 0 0 Z " fill="#EFEFF0" transform="translate(379.28515625,294.37109375)"/>
<path d="M0 0 C0.82628906 -0.00515625 1.65257813 -0.0103125 2.50390625 -0.015625 C3.78587891 0.00757813 3.78587891 0.00757813 5.09375 0.03125 C5.94839844 0.01578125 6.80304688 0.0003125 7.68359375 -0.015625 C8.92302734 -0.00789063 8.92302734 -0.00789063 10.1875 0 C10.93708984 0.00451172 11.68667969 0.00902344 12.45898438 0.01367188 C15.6413543 0.78524372 16.71293986 1.84430374 18.59375 4.53125 C18.99165802 7.55948018 19.15511695 10.21592052 19.125 13.2421875 C19.1288269 14.08794342 19.13265381 14.93369934 19.13659668 15.80508423 C19.13931513 17.59207348 19.13195854 19.37910257 19.11523438 21.16601562 C19.09387556 23.89023504 19.11500925 26.61180141 19.140625 29.3359375 C19.13798067 31.07552662 19.13285351 32.8151141 19.125 34.5546875 C19.13309692 35.36424896 19.14119385 36.17381042 19.14953613 37.00790405 C19.04747488 43.22002702 17.11061475 46.61168689 13.03125 51.34375 C10.05858971 53.79942589 6.4715391 53.98977311 2.7265625 53.94140625 C-1.22696273 53.18111294 -4.01128696 50.67706632 -6.40625 47.53125 C-8.44885706 42.59355056 -8.72692367 38.24425867 -8.7421875 32.9921875 C-8.7488443 32.18891022 -8.7555011 31.38563293 -8.76235962 30.55801392 C-8.77243941 28.86877723 -8.77717809 27.1795011 -8.77685547 25.49023438 C-8.78124891 22.90689135 -8.81767051 20.32523108 -8.85546875 17.7421875 C-8.86133391 16.09635998 -8.86530531 14.45052439 -8.8671875 12.8046875 C-8.88155853 12.03482513 -8.89592957 11.26496277 -8.91073608 10.47177124 C-8.88112315 7.00143534 -8.67794809 4.91613671 -6.65283203 2.04736328 C-4.17493473 0.37514613 -2.95713707 0.01779876 0 0 Z " fill="#EFF0F0" transform="translate(123.40625,294.46875)"/>
<path d="M0 0 C3.87500288 2.12745256 6.7421568 4.18920124 9 8 C9.55229649 12.25485213 9.47288913 16.50156888 9.44604492 20.78955078 C9.43755319 22.86201931 9.46627683 24.93171112 9.49804688 27.00390625 C9.49740234 28.32003906 9.49675781 29.63617188 9.49609375 30.9921875 C9.49887329 32.79212158 9.49887329 32.79212158 9.50170898 34.62841797 C8.82310463 39.18877133 6.89731468 42.50925275 3.25 45.375 C-1.99677719 46.83243811 -5.65623688 46.72165056 -10.375 44.1875 C-13.529013 41.55915583 -14.88956645 40.05380379 -15.32226562 35.92480469 C-15.39695234 32.58735075 -15.46223136 29.25177614 -15.48046875 25.91357422 C-15.49981756 23.77020943 -15.56182683 21.63073996 -15.625 19.48828125 C-15.80259872 7.99616386 -15.80259872 7.99616386 -12.15625 3.578125 C-8.53274693 0.10578925 -4.9238854 -0.48273386 0 0 Z " fill="#FEFEFE" transform="translate(283,159)"/>
<path d="M0 0 C3.24952748 -0.14546783 6.49821713 -0.2341168 9.75 -0.3125 C10.67039062 -0.35439453 11.59078125 -0.39628906 12.5390625 -0.43945312 C13.87324219 -0.46362305 13.87324219 -0.46362305 15.234375 -0.48828125 C16.45979004 -0.52755737 16.45979004 -0.52755737 17.70996094 -0.56762695 C20 0 20 0 22.26464844 2.08007812 C24.41537672 5.69891749 24.51626999 8.01182545 24.53125 12.20703125 C24.5350769 12.89125656 24.53890381 13.57548187 24.54284668 14.28044128 C24.54555882 15.72351559 24.53824634 17.16663964 24.52148438 18.60961914 C24.50015871 20.79622682 24.52125288 22.97951262 24.546875 25.16601562 C24.56207812 32.6268552 24.3334082 38.64591329 20 45 C16.56493136 48.05339435 14.78121309 48.93596614 10.1875 49.3125 C7 49 7 49 6 48 C5.9015395 45.45242995 5.86286074 42.927068 5.859375 40.37890625 C5.84102273 38.78709535 5.82145025 37.19529813 5.80078125 35.60351562 C5.77200176 33.09555402 5.75000511 30.58845879 5.74951172 28.08032227 C5.82627645 15.36006376 5.82627645 15.36006376 1.06738281 3.73022461 C0 2 0 2 0 0 Z " fill="#F3F3F3" transform="translate(404,288)"/>
<path d="M0 0 C0.84433594 0.01289063 1.68867187 0.02578125 2.55859375 0.0390625 C3.86763672 0.08933594 3.86763672 0.08933594 5.203125 0.140625 C6.09128906 0.15867187 6.97945312 0.17671875 7.89453125 0.1953125 C10.08183348 0.24235126 12.26692316 0.30805491 14.453125 0.390625 C12.453125 5.390625 12.453125 5.390625 11.40429688 7.55029297 C10.16425385 11.25323458 10.13646768 14.78643781 10.109375 18.6484375 C10.0947522 19.43330536 10.08012939 20.21817322 10.06506348 21.02682495 C10.00301636 24.37042408 9.96312933 27.71420104 9.92138672 31.05810547 C9.88767137 33.50507966 9.84257205 35.95166253 9.796875 38.3984375 C9.7915979 39.15472443 9.7863208 39.91101135 9.78088379 40.69021606 C9.709299 44.44911626 9.58984343 46.18554735 7.453125 49.390625 C3.98055896 50.00343077 1.59058489 50.0758418 -1.4921875 48.21875 C-5.14966493 45.24991895 -7.08122947 42.92745885 -8.546875 38.390625 C-8.75774154 35.7594004 -8.8745118 33.236132 -8.8828125 30.60546875 C-8.8894693 29.86736465 -8.8961261 29.12926056 -8.90298462 28.36878967 C-8.91307237 26.81481405 -8.91780284 25.26079544 -8.91748047 23.70678711 C-8.92186821 21.33179779 -8.95826422 18.95864714 -8.99609375 16.58398438 C-9.00195993 15.07031883 -9.00593065 13.5566445 -9.0078125 12.04296875 C-9.02218353 11.33559067 -9.03655457 10.62821259 -9.05136108 9.8993988 C-9.02049337 6.5671258 -8.75294242 4.68046317 -6.80224609 1.93676758 C-4.2458847 0.18428471 -3.06277356 -0.08277766 0 0 Z " fill="#F3F3F4" transform="translate(93.546875,287.609375)"/>
<path d="M0 0 C3.39276174 2.62763262 5.73850417 4.68599493 7.75 8.5 C8.15734375 9.2528125 8.5646875 10.005625 8.984375 10.78125 C10.67169864 14.46740318 11.12774377 17.72727813 11.16113281 21.76513672 C11.17074036 22.70646454 11.1803479 23.64779236 11.19024658 24.61764526 C11.19449646 25.6281192 11.19874634 26.63859314 11.203125 27.6796875 C11.20882507 28.72520782 11.21452515 29.77072815 11.22039795 30.84793091 C11.22983796 33.05860383 11.23637796 35.26929076 11.24023438 37.47998047 C11.2499436 40.8553935 11.28097843 44.23019846 11.3125 47.60546875 C11.31903007 49.75520472 11.32428053 51.90494504 11.328125 54.0546875 C11.3404718 55.06111298 11.3528186 56.06753845 11.36553955 57.10446167 C11.34606279 63.25447722 10.82910358 67.89830051 6.5 72.64453125 C1.44978392 76.57686095 -2.07404145 77.14454994 -8.29296875 77.09765625 C-9.35201164 77.09553383 -9.35201164 77.09553383 -10.43244934 77.09336853 C-12.68417626 77.08777764 -14.93580321 77.07522688 -17.1875 77.0625 C-18.71549335 77.05748382 -20.24348827 77.05292112 -21.77148438 77.04882812 C-25.51436135 77.0378112 -29.25716373 77.02055287 -33 77 C-33 76.67 -33 76.34 -33 76 C-24.09 75.67 -15.18 75.34 -6 75 C-1.69730387 66.53992518 -1.69730387 66.53992518 -0.79467773 57.78442383 C-0.77473251 56.5033223 -0.75478729 55.22222076 -0.73423767 53.90229797 C-0.7172546 52.50387696 -0.70037575 51.10545469 -0.68359375 49.70703125 C-0.66301834 48.2764171 -0.64202171 46.84580895 -0.62062073 45.41520691 C-0.56546067 41.65219994 -0.51602471 37.88913865 -0.46777344 34.1260376 C-0.41751407 30.28514784 -0.36185117 26.44433684 -0.30664062 22.60351562 C-0.19913327 15.06907713 -0.09767189 7.53457309 0 0 Z " fill="#C6C7C9" transform="translate(306,157)"/>
<path d="M0 0 C6.15415258 4.25258858 9.1999977 8.72282586 11 16 C11.49598444 19.91661591 11.53939542 23.75896548 11.49609375 27.703125 C11.49754898 28.78454773 11.49900421 29.86597046 11.50050354 30.98016357 C11.49885398 33.24917313 11.4873996 35.51819499 11.46655273 37.78710938 C11.43746318 41.25438899 11.44599162 44.72014931 11.45898438 48.1875 C11.4527499 50.40104907 11.44436124 52.61459334 11.43359375 54.828125 C11.43652939 55.85947571 11.43946503 56.89082642 11.44248962 57.95343018 C11.37150697 63.37223339 11.09840574 67.34751603 8 72 C3.06520105 76.56468903 -0.37598449 77.12498142 -7 77 C-6.57621063 76.45949005 -6.15242126 75.9189801 -5.71578979 75.36209106 C-0.3157997 67.62914693 -0.1328927 60.45375369 -0.1953125 51.3671875 C-0.18404116 49.8793016 -0.17015133 48.39143347 -0.15377808 46.90359497 C-0.11797396 43.02040849 -0.11733637 39.13801302 -0.12445068 35.25469971 C-0.1253684 31.27903389 -0.09243715 27.30365701 -0.0625 23.328125 C-0.00885823 15.55197834 0.00757098 7.77635386 0 0 Z " fill="#CCCCCC" transform="translate(239,157)"/>
<path d="M0 0 C2.99789294 1.41969183 4.71263401 2.51099839 6.625 5.25 C7.02976562 5.81203125 7.43453125 6.3740625 7.8515625 6.953125 C11.19430697 12.91094167 11.32009487 18.56656692 11.3359375 25.21875 C11.3425943 26.19485229 11.3492511 27.17095459 11.35610962 28.17663574 C11.36620496 30.23411177 11.37092761 32.29162033 11.37060547 34.34912109 C11.37498578 37.48980639 11.41135846 40.62909356 11.44921875 43.76953125 C11.45508619 45.77343272 11.45905607 47.77734083 11.4609375 49.78125 C11.47530853 50.71578003 11.48967957 51.65031006 11.50448608 52.61315918 C11.45548644 59.62965166 9.67125765 63.31986774 4.6484375 68.359375 C-0.56494739 71.52874555 -7.52880798 70.40245837 -13.375 70.25 C-14.68339844 70.23195313 -15.99179687 70.21390625 -17.33984375 70.1953125 C-20.56064689 70.14829348 -23.77994474 70.08258181 -27 70 C-27 69.67 -27 69.34 -27 69 C-19.74 68.67 -12.48 68.34 -5 68 C-1.25941585 60.16785402 -1.25941585 60.16785402 -0.45410156 52.56225586 C-0.43438293 51.38171127 -0.41466431 50.20116669 -0.39434814 48.98484802 C-0.39311951 47.74074661 -0.39189087 46.4966452 -0.390625 45.21484375 C-0.37408875 43.91801163 -0.35755249 42.6211795 -0.34051514 41.28504944 C-0.29715131 37.86731004 -0.27691239 34.44982575 -0.26177979 31.03186035 C-0.24209561 27.53215642 -0.20013915 24.03272359 -0.16015625 20.53320312 C-0.08519105 13.68890506 -0.03469681 6.84461763 0 0 Z " fill="#C4C6C7" transform="translate(366,159)"/>
<path d="M0 0 C3.55538277 1.63414824 5.06554598 3.11546915 7.1875 6.4375 C7.69667969 7.21996094 8.20585937 8.00242188 8.73046875 8.80859375 C10.63809442 12.10144913 11.13060856 14.73350388 11.17700195 18.46801758 C11.19625481 19.82006035 11.19625481 19.82006035 11.21589661 21.19941711 C11.22328354 22.17130478 11.23067047 23.14319244 11.23828125 24.14453125 C11.246353 25.14707443 11.25442474 26.14961761 11.26274109 27.18254089 C11.27657363 29.30502598 11.2872995 31.42753324 11.29516602 33.55004883 C11.31237862 36.78965561 11.35627275 40.02824175 11.40039062 43.26757812 C11.41051787 45.33072167 11.41903387 47.39387388 11.42578125 49.45703125 C11.44328934 50.42284622 11.46079742 51.38866119 11.47883606 52.38374329 C11.45590903 59.52162496 9.76338462 63.2274347 4.6484375 68.359375 C-0.56494739 71.52874555 -7.52880798 70.40245837 -13.375 70.25 C-14.68339844 70.23195313 -15.99179688 70.21390625 -17.33984375 70.1953125 C-20.56064689 70.14829348 -23.77994474 70.08258181 -27 70 C-27 69.67 -27 69.34 -27 69 C-19.74 68.67 -12.48 68.34 -5 68 C-1.1501803 60.7528424 -1.1501803 60.7528424 -0.45410156 53.58398438 C-0.42452362 51.78302307 -0.42452362 51.78302307 -0.39434814 49.94567871 C-0.39311951 48.67454224 -0.39189087 47.40340576 -0.390625 46.09375 C-0.37562008 44.75994889 -0.35888813 43.4261662 -0.34051514 42.09240723 C-0.29708741 38.60724975 -0.27689792 35.12234278 -0.26177979 31.63696289 C-0.24211907 28.07032609 -0.20015969 24.50395637 -0.16015625 20.9375 C-0.0851215 13.95843463 -0.03466896 6.97937959 0 0 Z " fill="#C8C8CA" transform="translate(173,159)"/>
<path d="M0 0 C5.64136227 3.22629974 9.03032791 6.72137149 11 13 C11.29578389 15.93704345 11.30410714 18.85842009 11.30078125 21.80859375 C11.30506638 22.65293472 11.3093515 23.4972757 11.31376648 24.36720276 C11.3194946 26.14819443 11.32002125 27.9292095 11.31567383 29.71020508 C11.31251449 32.42505052 11.33598918 35.13880479 11.36132812 37.85351562 C11.36360145 39.5885403 11.36430446 41.32356789 11.36328125 43.05859375 C11.372491 43.86501816 11.38170074 44.67144257 11.39118958 45.50230408 C11.35134553 50.39081685 10.73685105 53.78134017 8 58 C4.79593538 60.13604308 4.00399253 60.24208908 0.33203125 60.1953125 C-0.56064453 60.18886719 -1.45332031 60.18242187 -2.37304688 60.17578125 C-3.30181641 60.15902344 -4.23058594 60.14226562 -5.1875 60.125 C-6.12787109 60.11597656 -7.06824219 60.10695312 -8.03710938 60.09765625 C-10.35832968 60.07409056 -12.67903644 60.04119116 -15 60 C-15 59.67 -15 59.34 -15 59 C-14.09507812 58.99613281 -14.09507812 58.99613281 -13.171875 58.9921875 C-10.66221649 58.87075241 -8.43012789 58.64943073 -6 58 C-1.88559023 53.37128901 -0.90552479 49.15705976 -0.79467773 43.13964844 C-0.77473251 42.17895447 -0.75478729 41.2182605 -0.73423767 40.22845459 C-0.70916893 38.68451019 -0.70916893 38.68451019 -0.68359375 37.109375 C-0.66281265 36.04962463 -0.64203156 34.98987427 -0.62062073 33.89801025 C-0.55527814 30.51540562 -0.49631119 27.13272388 -0.4375 23.75 C-0.39430025 21.45572122 -0.35068549 19.16145021 -0.30664062 16.8671875 C-0.1996124 11.24487298 -0.09781761 5.6224819 0 0 Z " fill="#C6C7C8" transform="translate(410,166)"/>
<path d="M0 0 C5.64136227 3.22629974 9.03032791 6.72137149 11 13 C11.29578389 15.93704345 11.30410714 18.85842009 11.30078125 21.80859375 C11.30506638 22.65293472 11.3093515 23.4972757 11.31376648 24.36720276 C11.3194946 26.14819443 11.32002125 27.9292095 11.31567383 29.71020508 C11.31251449 32.42505052 11.33598918 35.13880479 11.36132812 37.85351562 C11.36360145 39.5885403 11.36430446 41.32356789 11.36328125 43.05859375 C11.372491 43.86501816 11.38170074 44.67144257 11.39118958 45.50230408 C11.35134553 50.39081685 10.73685105 53.78134017 8 58 C4.79593538 60.13604308 4.00399253 60.24208908 0.33203125 60.1953125 C-0.56064453 60.18886719 -1.45332031 60.18242187 -2.37304688 60.17578125 C-3.30181641 60.15902344 -4.23058594 60.14226562 -5.1875 60.125 C-6.12787109 60.11597656 -7.06824219 60.10695312 -8.03710938 60.09765625 C-10.35832968 60.07409056 -12.67903644 60.04119116 -15 60 C-15 59.67 -15 59.34 -15 59 C-14.09507813 58.99613281 -14.09507813 58.99613281 -13.171875 58.9921875 C-10.66221649 58.87075241 -8.43012789 58.64943073 -6 58 C-1.88559023 53.37128901 -0.90552479 49.15705976 -0.79467773 43.13964844 C-0.77473251 42.17895447 -0.75478729 41.2182605 -0.73423767 40.22845459 C-0.70916893 38.68451019 -0.70916893 38.68451019 -0.68359375 37.109375 C-0.66281265 36.04962463 -0.64203156 34.98987427 -0.62062073 33.89801025 C-0.55527814 30.51540562 -0.49631119 27.13272388 -0.4375 23.75 C-0.39430025 21.45572122 -0.35068549 19.16145021 -0.30664062 16.8671875 C-0.1996124 11.24487298 -0.09781761 5.6224819 0 0 Z " fill="#C7C8C9" transform="translate(113,166)"/>
<path d="M0 0 C2.38658613 1.69051087 3.82084728 3.08081161 4.39187622 6.01062012 C4.54702945 8.59220389 4.58039952 11.14807773 4.56640625 13.734375 C4.57570412 15.1623642 4.57570412 15.1623642 4.58518982 16.61920166 C4.59228938 18.63316832 4.58911161 20.64719365 4.57641602 22.66113281 C4.56260936 25.7257262 4.59654776 28.78722978 4.63476562 31.8515625 C4.63571746 33.81250074 4.63385455 35.77344277 4.62890625 37.734375 C4.64216446 38.64298279 4.65542267 39.55159058 4.66908264 40.48773193 C4.57689552 46.86786565 3.03199081 51.03261501 -1 56 C-4.060186 58.9071767 -6.92855683 60.82142435 -11 62 C-11.99 61.67 -12.98 61.34 -14 61 C-13.69707031 60.47535156 -13.39414063 59.95070313 -13.08203125 59.41015625 C-10.12301866 53.93825913 -8.05327052 48.4481266 -6.3125 42.5 C-6.11052002 41.81301025 -5.90854004 41.12602051 -5.70043945 40.41821289 C-2.97924278 30.80407229 -1.61305348 21.33267232 -0.875 11.375 C-0.78863281 10.27542969 -0.70226562 9.17585938 -0.61328125 8.04296875 C-0.40349336 5.36234576 -0.19916992 2.68142918 0 0 Z " fill="#CACBCB" transform="translate(246,309)"/>
<path d="M0 0 C2.33466607 1.67985954 3.81478197 3.04984391 4.37814331 5.93984985 C4.51337491 8.41172585 4.52783596 10.85657972 4.49609375 13.33203125 C4.49754898 14.24200363 4.49900421 15.15197601 4.50050354 16.08952332 C4.49884499 18.0135722 4.48728863 19.93763441 4.46655273 21.86157227 C4.4377042 24.79175918 4.44592373 27.72012399 4.45898438 30.65039062 C4.45274323 32.52344622 4.44434935 34.39649613 4.43359375 36.26953125 C4.43652939 37.13955276 4.43946503 38.00957428 4.44248962 38.90596008 C4.31558763 47.18421216 1.99533292 53.00466708 -4 59 C-6.35363652 60.42566089 -8.3301061 61.15947785 -11 62 C-11.99 61.67 -12.98 61.34 -14 61 C-13.69707031 60.46375 -13.39414062 59.9275 -13.08203125 59.375 C-3.27788663 41.03370792 -0.81976946 20.49423653 0 0 Z " fill="#CBCBCB" transform="translate(300,309)"/>
<path d="M0 0 C3.8147345 0.70066552 4.76967727 1.45185515 7.0625 4.5625 C7.64880175 7.40870131 7.6215166 10.16576863 7.5625 13.0625 C7.57796875 13.82175781 7.5934375 14.58101562 7.609375 15.36328125 C7.58329504 19.08619493 7.46129509 21.00228786 5.2578125 24.09765625 C3.0625 25.5625 3.0625 25.5625 -0.5625 25.5 C-3.9375 24.5625 -3.9375 24.5625 -5.9375 21.5625 C-6.15966068 18.89080142 -6.26202645 16.35737129 -6.25 13.6875 C-6.26611328 12.97980469 -6.28222656 12.27210938 -6.29882812 11.54296875 C-6.30383412 6.16653055 -5.90511639 1.13076697 0 0 Z " fill="#FDFDFD" transform="translate(394.9375,171.4375)"/>
<path d="M0 0 C2.36446795 2.36446795 2.25725148 2.83780323 2.29052734 6.04736328 C2.3096669 7.29974289 2.3096669 7.29974289 2.32919312 8.5774231 C2.33253159 9.93515335 2.33253159 9.93515335 2.3359375 11.3203125 C2.3425943 12.25293915 2.3492511 13.1855658 2.35610962 14.14645386 C2.36625069 16.12528509 2.37092619 18.10415062 2.37060547 20.08300781 C2.37495288 23.09238337 2.41118498 26.10026167 2.44921875 29.109375 C2.45509198 31.03384917 2.45905798 32.95833029 2.4609375 34.8828125 C2.47530853 35.77582062 2.48967957 36.66882874 2.50448608 37.58889771 C2.45696679 44.18272517 1.13442179 49.702522 -3.51821899 54.59719849 C-7.41581733 58 -7.41581733 58 -10 58 C-9.5625 56.54166667 -9.125 55.08333333 -8.6875 53.625 C-8.41292969 52.696875 -8.13835937 51.76875 -7.85546875 50.8125 C-7.34572602 49.1366335 -6.81431553 47.4667523 -6.23828125 45.8125 C-1.31556051 31.22666078 -0.53482272 15.27011069 0 0 Z " fill="#C9CACB" transform="translate(356,304)"/>
<path d="M0 0 C2.37398135 2.37398135 2.26343925 2.89220036 2.32226562 6.12329102 C2.34148071 6.97500381 2.3606958 7.82671661 2.38049316 8.70423889 C2.38899292 9.62812912 2.39749268 10.55201935 2.40625 11.50390625 C2.41765015 12.45635727 2.42905029 13.40880829 2.4407959 14.39012146 C2.45971711 16.41180977 2.4727723 18.43356006 2.48046875 20.45532227 C2.49977483 23.52667807 2.56174221 26.59529491 2.625 29.66601562 C2.63807131 31.63279665 2.64856784 33.59959679 2.65625 35.56640625 C2.6809436 36.47612686 2.70563721 37.38584747 2.7310791 38.32313538 C2.68349181 45.25071909 0.59889988 49.81295519 -4 55 C-7.55361264 58 -7.55361264 58 -10 58 C-9.81824219 57.46632813 -9.63648438 56.93265625 -9.44921875 56.3828125 C-8.91139903 54.7886597 -8.38083585 53.19204991 -7.85546875 51.59375 C-7.33157793 50.00533216 -6.79539872 48.420821 -6.23828125 46.84375 C-1.23265577 31.80038878 -0.48031419 15.71786766 0 0 Z " fill="#CBCBCC" transform="translate(194,304)"/>
<path d="M0 0 C2.48319402 2.48319402 2.26011201 3.96666047 2.2734375 7.36132812 C2.26570313 8.04646484 2.25796875 8.73160156 2.25 9.4375 C2.25773437 10.11876953 2.26546875 10.80003906 2.2734375 11.50195312 C2.25889434 15.21409442 2.10940418 16.83589372 0 20 C-3 20.3125 -3 20.3125 -6 20 C-8 18 -8 18 -8.22705078 16.12060547 C-8.21657715 15.37697754 -8.20610352 14.63334961 -8.1953125 13.8671875 C-8.18886719 13.06152344 -8.18242188 12.25585938 -8.17578125 11.42578125 C-8.15064453 10.16314453 -8.15064453 10.16314453 -8.125 8.875 C-8.11597656 8.02550781 -8.10695313 7.17601562 -8.09765625 6.30078125 C-8.07405647 4.20040116 -8.03818483 2.10016556 -8 0 C-4.67679974 -1.10773342 -3.30835256 -0.93312508 0 0 Z " fill="#FEFEFE" transform="translate(124,298)"/>
<path d="M0 0 C2.3125 0.875 2.3125 0.875 3.3125 2.875 C3.43663998 5.55411399 3.49765807 8.19583099 3.5 10.875 C3.51224609 11.61234375 3.52449219 12.3496875 3.53710938 13.109375 C3.54237395 15.03270058 3.43453447 16.95554263 3.3125 18.875 C1.3125 20.875 1.3125 20.875 -1.6875 21.1875 C-2.6775 21.084375 -3.6675 20.98125 -4.6875 20.875 C-7.11686835 17.23094748 -7.01697342 15.276183 -7.0625 10.9375 C-7.10503906 9.09865234 -7.10503906 9.09865234 -7.1484375 7.22265625 C-6.6875 3.875 -6.6875 3.875 -4.83203125 1.42578125 C-2.6875 -0.125 -2.6875 -0.125 0 0 Z " fill="#FEFEFE" transform="translate(377.6875,297.125)"/>
<path d="M0 0 C2.86067427 2.86067427 2.34292722 5.73527406 2.37109375 9.5703125 C2.38012222 10.32537079 2.3891507 11.08042908 2.39845276 11.85836792 C2.41297752 13.46055123 2.42184752 15.06279416 2.42553711 16.66503906 C2.4373563 19.09545001 2.48644592 21.5232563 2.53710938 23.953125 C2.69645049 39.1240459 2.69645049 39.1240459 -3 45 C-3.9923375 46.00760423 -4.99034418 47.00974997 -6 48 C-6.99 47.67 -7.98 47.34 -9 47 C-8.60167969 45.93072266 -8.60167969 45.93072266 -8.1953125 44.83984375 C-2.74028088 30.04754998 -0.8334849 15.66074254 0 0 Z " fill="#C1C3C6" transform="translate(396,299)"/>
<path d="M0 0 C0.33 0 0.66 0 1 0 C1.09916726 5.44428237 1.17160909 10.88803448 1.21972656 16.33300781 C1.23979339 18.18368696 1.26705345 20.03430309 1.30175781 21.88476562 C1.35049433 24.55093977 1.37301787 27.21627287 1.390625 29.8828125 C1.41127014 30.70492218 1.43191528 31.52703186 1.45318604 32.37405396 C1.45563798 38.70718996 -0.45525512 42.06375591 -4.625 46.875 C-6 48 -6 48 -8 48 C-7.566875 46.845 -7.13375 45.69 -6.6875 44.5 C-1.96792809 30.11866296 -1.09763946 14.99253324 0 0 Z " fill="#C9CACB" transform="translate(141,299)"/>
<path d="M0 0 C0.33 0 0.66 0 1 0 C1.04944705 4.50234373 1.08574161 9.0045293 1.10986328 13.50708008 C1.11991935 15.03868361 1.133566 16.57026795 1.15087891 18.10180664 C1.17514498 20.30359636 1.18648688 22.50513219 1.1953125 24.70703125 C1.20563507 25.39150833 1.21595764 26.07598541 1.22659302 26.78120422 C1.22745382 30.43061661 1.08567666 31.87148502 -1 35 C-4.5 35.3125 -4.5 35.3125 -8 35 C-8.66 34.34 -9.32 33.68 -10 33 C-9.55785156 32.62101562 -9.11570312 32.24203125 -8.66015625 31.8515625 C-1.26585871 23.60474595 -0.84128059 10.48461637 0 0 Z " fill="#C8C9CA" transform="translate(102,302)"/>
<path d="M0 0 C0.33 0 0.66 0 1 0 C1.09961729 4.41074704 1.17181669 8.82088095 1.21972656 13.23242188 C1.23971919 14.7299339 1.26692299 16.22736908 1.30175781 17.72460938 C1.65632434 33.36725022 1.65632434 33.36725022 -3 40 C-3.99 40.66 -4.98 41.32 -6 42 C-5.81824219 41.12601562 -5.81824219 41.12601562 -5.6328125 40.234375 C-2.90134854 26.87121286 -1.26056696 13.5712102 0 0 Z " fill="#C3C5C7" transform="translate(427,293)"/>
<path d="M0 0 C2.31 0 4.62 0 7 0 C5.35 1.65 3.7 3.3 2 5 C1.34 3.35 0.68 1.7 0 0 Z " fill="#DCDFE3" transform="translate(404,288)"/>
<path d="M0 0 C1.32 0 2.64 0 4 0 C2.92598892 2.91517292 2.22189824 4.77810176 0 7 C0 4.69 0 2.38 0 0 Z " fill="#C1C3C6" transform="translate(104,288)"/>
</svg>
