<?xml version="1.0" encoding="UTF-8"?>
<svg version="1.1" xmlns="http://www.w3.org/2000/svg" width="512" height="512">
<path d="M0 0 C2.03942244 -0.00420499 4.07913834 -0.01511077 6.11791992 -0.06640625 C26.25235915 -0.53697451 43.16287661 3.74719382 58.63671875 17.0625 C61.18270286 19.14978615 63.81917557 20.84292497 66.625 22.5625 C81.33277357 31.76003727 90.44949782 45.18367438 94.44140625 62.12109375 C95.7674901 71.32949417 95.79602346 80.70948821 96 90 C96.92554688 90.13019531 97.85109375 90.26039062 98.8046875 90.39453125 C104.06654002 91.39158154 107.0766619 93.80215597 110.3125 98 C114.24483014 104.99080914 114.21046642 114.61520455 112.46875 122.36328125 C109.83309555 128.82349949 106.15598341 132.07737759 100 135 C99.95036375 139.73224376 99.91416903 144.46433415 99.89013672 149.19677734 C99.88011237 150.80487713 99.86648934 152.41295885 99.84912109 154.02099609 C99.82471512 156.33956376 99.81348114 158.65788929 99.8046875 160.9765625 C99.79436493 161.68930328 99.78404236 162.40204407 99.77340698 163.13638306 C99.77243781 167.50068573 100.48692845 170.92620499 102 175 C103.16347016 187.05409197 101.77032731 196.83580318 94 206.3125 C87.58924507 212.9559886 79.33419713 217.57571831 70 218 C70.03480469 218.74121094 70.06960938 219.48242188 70.10546875 220.24609375 C70.82526224 248.24948819 59.8486422 274.25308096 40.765625 294.4765625 C37.91844061 297.41203495 35.07379595 300.30070134 32 303 C31.34 303 30.68 303 30 303 C30.33 313.23 30.66 323.46 31 334 C41.29487179 339.19230769 41.29487179 339.19230769 46 339 C46.31710937 338.05382812 46.63421875 337.10765625 46.9609375 336.1328125 C53.19620897 318.18773338 62.39173377 303.17334396 75 289 C75.75925781 288.13890625 76.51851563 287.2778125 77.30078125 286.390625 C95.59119486 266.96351902 121.89826918 254.3061231 148 250 C149.00804687 249.81695312 150.01609375 249.63390625 151.0546875 249.4453125 C169.89652847 247.31860966 190.29477327 247.71072048 208 255 C210.49502147 257.33908263 210.95485622 258.33789124 211.1875 261.75 C211.125625 262.4925 211.06375 263.235 211 264 C211.58007812 264.19335938 212.16015625 264.38671875 212.7578125 264.5859375 C217.171875 266.05729167 221.5859375 267.52864583 226 269 C226.66 268.34 227.32 267.68 228 267 C232.63792897 266.03741097 234.88796614 266.38519402 239.06640625 268.6953125 C246.23835115 273.5556388 252.74181501 279.00432277 259 285 C260.12148438 286.02673828 260.12148438 286.02673828 261.265625 287.07421875 C283.27577383 307.89150986 296.2074471 338.64015631 297.37890625 368.67578125 C298.3389542 405.21532609 288.44804992 437.82449634 263.37109375 464.9765625 C245.90386127 483.36632186 225.32545596 495.11132586 201 502 C199.23269531 502.51240234 199.23269531 502.51240234 197.4296875 503.03515625 C176.81109662 507.90658157 150.07299628 507.2856658 130.1493969 499.95051003 C126.85477108 498.95616889 124.20680485 498.7393768 120.77371216 498.7215271 C119.54541183 498.71036362 118.31711151 498.69920013 117.05158997 498.68769836 C115.70382721 498.68533383 114.35606412 498.6831581 113.00830078 498.68115234 C111.57885678 498.67184701 110.14941818 498.66167744 108.71998596 498.65071106 C104.85064139 498.6234651 100.98133312 498.60827773 97.11191797 498.59528303 C93.06398015 498.57962879 89.01611619 498.55284589 84.9682312 498.5272522 C77.30798513 498.48050498 69.64772509 498.44374126 61.98740947 498.41057932 C53.26429508 498.37232925 44.54125495 498.32292665 35.81820321 498.27259517 C17.87885652 498.16933566 -0.06053551 498.08005584 -18 498 C-18.28875 498.78375 -18.5775 499.5675 -18.875 500.375 C-20 503 -20 503 -22 505 C-29.10601719 505.68767908 -29.10601719 505.68767908 -32.4375 503.125 C-34 501 -34 501 -35 499 C-35.82091 498.99576806 -36.64181999 498.99153612 -37.48760605 498.98717594 C-57.45076319 498.88392686 -77.41388471 498.77529771 -97.37697983 498.66066074 C-107.03092996 498.60535358 -116.68488379 498.55187567 -126.33886719 498.50268555 C-134.75205871 498.45981303 -143.1652233 498.41352726 -151.57837319 498.36312145 C-156.03415086 498.33654526 -160.48992327 498.31169277 -164.94573212 498.29092598 C-169.13829982 498.27133217 -173.33081638 498.24718014 -177.52333832 498.21950912 C-179.06325348 498.21015324 -180.60317987 498.20247271 -182.14311218 498.19658089 C-184.24371861 498.18829483 -186.34420173 498.17401123 -188.44476318 498.15821838 C-189.62097103 498.15176583 -190.79717888 498.14531328 -192.00902939 498.1386652 C-194.5258442 498.02198247 -196.6054136 497.73798382 -199 497 C-199.45375 498.134375 -199.9075 499.26875 -200.375 500.4375 C-202 504 -202 504 -204 505 C-210.11878125 505.56655382 -210.11878125 505.56655382 -213.19335938 503.58984375 C-215.94679356 499.64275864 -215.57254115 495.95595883 -215.53125 491.25 C-215.53699036 489.79811279 -215.53699036 489.79811279 -215.54284668 488.31689453 C-215.54557037 486.25910407 -215.5381773 484.20127925 -215.52148438 482.14355469 C-215.50045256 479.0662179 -215.52107409 475.99131738 -215.546875 472.9140625 C-215.57198091 456.33001597 -213.87969756 439.94016022 -207.25 424.5625 C-206.91073486 423.74539551 -206.57146973 422.92829102 -206.22192383 422.08642578 C-198.67376412 404.44917608 -198.67376412 404.44917608 -192 400 C-186.65454545 399.67272727 -186.65454545 399.67272727 -184 401 C-183.74605469 400.41863281 -183.49210937 399.83726562 -183.23046875 399.23828125 C-181.87525872 396.77308968 -180.30068399 395.16761833 -178.3125 393.1875 C-176.39313403 391.16622543 -176.39313403 391.16622543 -175 389 C-175.15226157 385.3485263 -175.15226157 385.3485263 -176 382 C-173.94061592 377.2750735 -170.382856 374.62885215 -166.3125 371.6875 C-165.74466797 371.25244141 -165.17683594 370.81738281 -164.59179688 370.36914062 C-151.24914891 360.5976545 -134.96270989 354.9336585 -119.75 348.8125 C-116.84826193 347.63751408 -113.94725674 346.46073131 -111.04626465 345.28390503 C-109.19411545 344.53341675 -107.34134642 343.78445605 -105.48791504 343.03713989 C-99.67660395 340.69268061 -93.89847574 338.28682226 -88.15332031 335.78393555 C-86 335 -86 335 -83 335 C-82.94487205 330.71188786 -82.94270203 326.427849 -82.98779297 322.13989258 C-82.99586148 320.68417263 -82.98992228 319.22830043 -82.96923828 317.77270508 C-82.63989898 309.24272668 -82.63989898 309.24272668 -85.70922852 301.56933594 C-87.71969535 299.81486529 -89.72885093 298.39336861 -92 297 C-115.30198528 276.20493025 -122.1145381 247.80685739 -125 218 C-125.59022949 217.8860791 -126.18045898 217.7721582 -126.78857422 217.65478516 C-137.06610107 215.54555206 -145.00818364 210.78056068 -151 202 C-154.35187146 195.79699398 -156.14214916 190.25316095 -156.1875 183.1875 C-156.20167969 182.19105469 -156.21585938 181.19460937 -156.23046875 180.16796875 C-156 177 -156 177 -155.00878906 173.84179688 C-153.88467028 169.56078692 -153.65991813 165.76204701 -153.62890625 161.36328125 C-153.61987778 160.56141891 -153.6108493 159.75955658 -153.60154724 158.93339539 C-153.58712478 157.25014947 -153.57817808 155.56684852 -153.57446289 153.88354492 C-153.56248273 151.3087882 -153.51315474 148.73636747 -153.46289062 146.16210938 C-153.45343409 144.52084495 -153.44619538 142.87956593 -153.44140625 141.23828125 C-153.42187393 140.47155594 -153.40234161 139.70483063 -153.38221741 138.91487122 C-153.34859768 136.46632473 -153.34859768 136.46632473 -154 133 C-156.32493309 130.62357217 -156.32493309 130.62357217 -159 129 C-163.92519582 120.55680717 -163.97206932 111.56730608 -162.3125 102.0625 C-160.64081733 98.1619071 -159.05194414 95.98258177 -156 93 C-154.02167426 92.27152784 -152.02247557 91.59501008 -150 91 C-149.98541748 90.41210693 -149.97083496 89.82421387 -149.95581055 89.21850586 C-149.32439225 66.3379593 -147.28377055 46.74082488 -130 30 C-129.06220703 29.06607422 -129.06220703 29.06607422 -128.10546875 28.11328125 C-123.28153305 23.59401518 -117.83198644 20.35020079 -112.16796875 16.98046875 C-109.37833332 15.23651664 -106.90437413 13.40593173 -104.375 11.3125 C-91.62791425 1.19320408 -76.42373785 -0.27919996 -60.74755859 0.12548828 C-55.02984645 0.19974428 -50.49043624 -0.63545324 -45.2265625 -3.02734375 C-32.37379285 -8.6419747 -12.20511131 -6.10255565 0 0 Z " fill="#020202" transform="translate(215,6)"/>
<path d="M0 0 C1.93912584 0.78767592 3.87624766 1.5802867 5.8125 2.375 C7.43091797 3.03628906 7.43091797 3.03628906 9.08203125 3.7109375 C12 5 12 5 15 7 C15.0309375 8.794375 15.0309375 8.794375 15.0625 10.625 C15.33754911 13.67254409 15.78617525 14.775787 17.9296875 17.0234375 C20.56587685 19.10118175 23.259794 21.06171282 26 23 C43.36563137 36.21821556 55.09986172 51.2176681 64 71 C64.40992188 71.88558594 64.81984375 72.77117187 65.2421875 73.68359375 C76.60365893 101.2065381 73.58313857 131.94322449 63 159 C57.34932413 172.51769458 48.9728734 183.40610518 39 194 C38.46117187 194.60328125 37.92234375 195.2065625 37.3671875 195.828125 C23.01219945 211.26514732 2.94762016 219.65428249 -17 225 C-18.49853516 225.4021875 -18.49853516 225.4021875 -20.02734375 225.8125 C-47.91718418 231.70991119 -78.58890979 224.61123812 -102.35546875 209.4921875 C-108.34231262 205.50946154 -113.69750729 200.83888679 -119 196 C-119.73734375 195.34515625 -120.4746875 194.6903125 -121.234375 194.015625 C-141.23813145 175.29210896 -153.00696026 146.11704133 -154.16796875 119.08984375 C-154.5298073 86.26479447 -143.27364479 56.77097807 -120.29296875 33.2265625 C-105.26050016 18.60058413 -87.3333083 8.98884144 -67 4 C-66.15566406 3.78601563 -65.31132812 3.57203125 -64.44140625 3.3515625 C-47.94553744 -0.59372328 -31.43700761 0.12951806 -15.07421875 4.125 C-11.64077161 4.92074814 -8.54016697 5.37761781 -5 5 C-2.12359384 2.62499209 -2.12359384 2.62499209 0 0 Z " fill="#C6ECFB" transform="translate(425,269)"/>
<path d="M0 0 C8.20578039 -0.30213571 16.40921544 -0.53262372 24.61919403 -0.67355824 C28.43238095 -0.74122982 32.24174744 -0.83285168 36.05273438 -0.98071289 C39.73597641 -1.12271192 43.41556488 -1.19982729 47.10133362 -1.23340416 C48.502015 -1.25730241 49.90251051 -1.30398714 51.30162048 -1.37449074 C55.81697581 -1.59283159 59.72519653 -1.53289194 64 0 C67.62740828 3.97962896 69.61949759 8.17273914 72 13 C81.30432839 25.66008292 94.55927633 33.51521309 109.89453125 36.578125 C119.94545096 37.94353296 129.4491471 37.38901232 139 34 C139.82886719 33.73316406 140.65773437 33.46632812 141.51171875 33.19140625 C147.69553558 31.00716954 152.55802412 27.68213778 157.75 23.70703125 C160 22 160 22 162 21 C162.09325535 31.0411795 162.16404387 41.08225361 162.20724869 51.12378025 C162.22799951 55.7879996 162.2560843 60.45191964 162.30175781 65.1159668 C162.34566719 69.62882812 162.36923075 74.14140412 162.37950897 78.65446281 C162.38682039 80.36421123 162.40109413 82.07394651 162.42292023 83.78357124 C162.73986849 109.67263927 153.51036692 132.00740561 135.75 150.8125 C120.00583403 165.93313464 98.75687863 175.52250857 76.83984375 175.26953125 C55.95789568 173.8037587 36.64410493 161.61713969 22.4453125 146.84765625 C4.01068099 125.37985055 -0.68000799 100.80360999 -0.390625 73.2421875 C-0.38314285 71.11557555 -0.37745929 68.98895659 -0.37347412 66.86233521 C-0.35837298 61.32871672 -0.31922936 55.79553403 -0.2746582 50.26208496 C-0.23336612 44.59014782 -0.21539142 38.91813863 -0.1953125 33.24609375 C-0.1527165 22.1638735 -0.08465896 11.08197331 0 0 Z " fill="#FEEDE5" transform="translate(107,141)"/>
<path d="M0 0 C10.73647588 25.53325755 20.96821123 51.27087772 31.22192383 77.00073242 C33.46586079 82.630605 35.71530082 88.25824854 37.96748942 93.88482422 C40.15969818 99.36258362 42.34532129 104.84295526 44.52855873 110.32429695 C45.44956541 112.63395398 46.37256615 114.94281691 47.2976284 117.25085258 C48.58061699 120.45334623 49.85604466 123.65875111 51.12963867 126.86499023 C51.50927261 127.80773804 51.88890656 128.75048584 52.28004456 129.72180176 C52.62588593 130.59686874 52.97172729 131.47193573 53.32804871 132.3735199 C53.62863788 133.12675254 53.92922705 133.87998518 54.23892498 134.65604305 C55.13342886 137.41093387 55.58237893 140.1375543 56 143 C35.20767615 143.02334753 14.41535446 143.04098831 -6.37697983 143.05181217 C-16.03094674 143.05697118 -25.6849055 143.06400638 -35.33886719 143.07543945 C-43.75203591 143.08539833 -52.16519874 143.09185631 -60.57837319 143.09408849 C-65.03416692 143.09539355 -69.48994379 143.09846649 -73.94573212 143.10573006 C-78.13827381 143.11250923 -82.33079166 143.11461307 -86.52333832 143.11310768 C-88.06326426 143.11338315 -89.60319098 143.11537704 -91.14311218 143.11920547 C-93.24369193 143.12417232 -95.34418139 143.1229872 -97.44476318 143.12025452 C-98.62097103 143.12117631 -99.79717888 143.1220981 -101.00902939 143.12304783 C-103.5330275 143.01921114 -105.60067922 142.74302272 -108 142 C-108.45375 143.134375 -108.9075 144.26875 -109.375 145.4375 C-111 149 -111 149 -113 150 C-119.11878125 150.56655382 -119.11878125 150.56655382 -122.19335938 148.58984375 C-124.94679356 144.64275864 -124.57254115 140.95595883 -124.53125 136.25 C-124.5350769 135.2820752 -124.53890381 134.31415039 -124.54284668 133.31689453 C-124.54557037 131.25910407 -124.5381773 129.20127925 -124.52148438 127.14355469 C-124.50045256 124.0662179 -124.52107409 120.99131738 -124.546875 117.9140625 C-124.57198091 101.33001597 -122.87969756 84.94016022 -116.25 69.5625 C-115.74110229 68.33684326 -115.74110229 68.33684326 -115.22192383 67.08642578 C-107.67376412 49.44917608 -107.67376412 49.44917608 -101 45 C-95.65454545 44.67272727 -95.65454545 44.67272727 -93 46 C-92.74476562 45.42765625 -92.48953125 44.8553125 -92.2265625 44.265625 C-90.86912841 41.75826267 -89.28025896 39.8669544 -87.375 37.75 C-86.74335937 37.04359375 -86.11171875 36.3371875 -85.4609375 35.609375 C-84.97882813 35.07828125 -84.49671875 34.5471875 -84 34 C-83.484375 34.165 -82.96875 34.33 -82.4375 34.5 C-77.80803345 35.44963416 -74.3279613 35.79567168 -70.18359375 33.3125 C-69.27738281 32.549375 -68.37117188 31.78625 -67.4375 31 C-54.98242496 20.58762958 -40.18157314 14.94104199 -25.25 9.0625 C-23.30690481 8.28938305 -21.36419354 7.51530046 -19.421875 6.74023438 C-16.70628893 5.65666967 -13.99024146 4.57452041 -11.27105713 3.50001526 C-10.07775787 3.02833168 -10.07775787 3.02833168 -8.86035156 2.54711914 C-8.16089417 2.27146622 -7.46143677 1.99581329 -6.74078369 1.71180725 C-2.55441703 0 -2.55441703 0 0 0 Z " fill="#F7F3F2" transform="translate(124,361)"/>
<path d="M0 0 C5.40116452 2.37359602 11.33334268 1.47611815 17.09375 1.26171875 C31.87775071 1.00994226 40.63507563 3.3126214 52.48828125 12.48046875 C54.59866461 14.10230667 56.69089355 15.5190808 58.96875 16.88671875 C60.30407386 17.71685874 61.63723751 18.55047913 62.96875 19.38671875 C63.83371094 19.92296875 64.69867188 20.45921875 65.58984375 21.01171875 C74.85285444 27.17849425 82.57881309 36.12730398 85.55078125 47.09765625 C87.25754758 56.44499333 87.09479562 65.91929199 86.96875 75.38671875 C82.73613872 76.21207795 79.16893259 76.47949129 74.96875 75.38671875 C71.93962948 71.98092003 70.02454715 68.11239049 67.93408203 64.10107422 C60.83468743 51.49309525 47.13144063 43.66211195 33.65234375 39.70703125 C17.53989137 35.83154847 1.05248896 38.80257225 -13.03125 47.38671875 C-20.07109696 52.09174209 -28.15484326 58.29791016 -31.15869141 66.44433594 C-32.65433297 70.32572566 -33.94215986 72.56259913 -37.03125 75.38671875 C-44.10596101 77.5360324 -51.98552126 76.6978319 -59.28125 76.44921875 C-62.34193484 76.39322475 -65.40198635 76.35406848 -68.46307373 76.32872009 C-70.36320747 76.30782795 -72.26324977 76.26633417 -74.16241455 76.2021637 C-75.44955353 76.17375648 -75.44955353 76.17375648 -76.76269531 76.14477539 C-77.51657532 76.11968399 -78.27045532 76.09459259 -79.04718018 76.06874084 C-81.63994065 76.48427085 -82.48642616 77.29242038 -84.03125 79.38671875 C-84.63221793 84.01657858 -84.63221793 84.01657858 -82.7585907 88.07844543 C-80.67464041 89.65681185 -79.61084391 89.77820781 -77.01879883 89.8190918 C-76.21819534 89.83888596 -75.41759186 89.85868011 -74.59272766 89.8790741 C-73.73326035 89.88546402 -72.87379303 89.89185394 -71.98828125 89.8984375 C-70.66288582 89.9253643 -70.66288582 89.9253643 -69.31071472 89.95283508 C-66.4884417 90.00701871 -63.66633856 90.04085936 -60.84375 90.07421875 C-58.93031486 90.10738474 -57.01690216 90.14187373 -55.10351562 90.17773438 C-50.41288285 90.26274974 -45.72230116 90.32952237 -41.03125 90.38671875 C-41.03125 95.33671875 -41.03125 100.28671875 -41.03125 105.38671875 C-53.7915887 105.40983996 -66.55192245 105.4276327 -79.31227779 105.43853092 C-85.23675715 105.44376024 -91.16122222 105.45085876 -97.08569336 105.4621582 C-102.79797571 105.47298536 -108.51024428 105.47899522 -114.22253609 105.48159599 C-116.40713277 105.48345055 -118.59172865 105.48707175 -120.7763195 105.49244881 C-123.82477349 105.49965696 -126.87316979 105.50070979 -129.92163086 105.50024414 C-131.29079651 105.50563705 -131.29079651 105.50563705 -132.68762207 105.51113892 C-138.91719784 105.50077091 -138.91719784 105.50077091 -140.03125 104.38671875 C-140.1301794 102.22191078 -140.160961 100.0537809 -140.15625 97.88671875 C-140.15882813 96.70078125 -140.16140625 95.51484375 -140.1640625 94.29296875 C-140.03125 91.38671875 -140.03125 91.38671875 -139.03125 90.38671875 C-136.7026688 90.26444079 -134.37064446 90.20689184 -132.0390625 90.17578125 C-130.59764494 90.14771042 -129.15623884 90.11904594 -127.71484375 90.08984375 C-125.43473658 90.04857484 -123.15484286 90.01170249 -120.87451172 89.98535156 C-118.67890809 89.95775784 -116.48428801 89.9118853 -114.2890625 89.86328125 C-112.9705127 89.84346191 -111.65196289 89.82364258 -110.29345703 89.80322266 C-107.09915079 89.64593426 -107.09915079 89.64593426 -105.10498047 88.07568359 C-103.2570969 85.16898543 -103.61596212 82.70902179 -104.03125 79.38671875 C-105.8437528 77.24466999 -107.37657638 76.48839356 -110.14086914 76.05908203 C-112.68974292 75.86656968 -115.22602525 75.76526961 -117.78125 75.69921875 C-118.66941406 75.66505859 -119.55757812 75.63089844 -120.47265625 75.59570312 C-122.65872803 75.51343161 -124.84440951 75.44421703 -127.03125 75.38671875 C-127.47480871 57.79222319 -126.57456564 41.23196886 -114.03125 27.57421875 C-109.6296282 23.50479482 -104.66666771 20.58572501 -99.48608398 17.63085938 C-95.10645367 15.11967203 -91.48421585 12.34192708 -87.7890625 8.88671875 C-79.11681955 1.48640477 -69.2307934 1.22905033 -58.40625 1.57421875 C-48.30121819 1.75895553 -41.08961507 1.03789947 -32.03125 -3.61328125 C-22.09002038 -6.90706215 -9.08958708 -4.83762817 0 0 Z " fill="#B4ACB5" transform="translate(208.03125,20.61328125)"/>
<path d="M0 0 C1.35368683 0.84055644 2.69281564 1.70558742 4.0078125 2.60546875 C8.50572612 5.45909791 13.54443954 5.0642801 18.6640625 4.65625 C22.77198719 3.49233801 25.96697652 2.06791495 29.640625 -0.1015625 C40.32275503 -6.16704783 49.84168069 -6.98264843 61.90234375 -4.7421875 C71.86691521 -1.72603716 78.97683468 5.88032566 84.5078125 14.41796875 C89.02738082 23.16699797 89.27011804 34.59751533 86.4765625 44.03125 C83.16995056 51.82041687 77.54722316 58.50650063 72.48681641 65.21875 C69.40313173 69.34244513 66.41463461 73.53441586 63.4140625 77.71875 C62.3267546 79.23135638 61.23831948 80.74315352 60.1484375 82.25390625 C59.69178711 82.88820557 59.23513672 83.52250488 58.76464844 84.17602539 C57.6640625 85.65625 57.6640625 85.65625 56.6640625 86.65625 C56.33882174 89.41442103 56.06931983 92.15969736 55.83203125 94.92578125 C55.67203166 96.63614346 55.51119791 98.3464278 55.34960938 100.05664062 C55.098014 102.76184322 54.85170384 105.46709964 54.61987305 108.17407227 C54.39430678 110.78058928 54.14624769 113.38417678 53.89453125 115.98828125 C53.79896187 117.19941338 53.79896187 117.19941338 53.70146179 118.43501282 C53.32601688 122.1488873 53.04522572 124.15313009 50.74731445 127.1862793 C48.6640625 128.65625 48.6640625 128.65625 46.1015625 128.84375 C43.04669415 127.3554808 42.56020033 125.69561419 41.33340454 122.62908936 C40.29259262 119.56136824 39.77569602 116.48465355 39.26953125 113.2890625 C39.03394442 111.89440583 38.79759229 110.49987825 38.56054688 109.10546875 C38.20304455 106.94577296 37.85223615 104.78557567 37.51538086 102.62255859 C36.05467435 93.35557456 34.59436873 84.42542768 26.85229492 78.19921875 C20.98856765 74.35960095 13.34262254 74.62877922 6.6640625 75.65625 C1.00397066 78.19893741 -2.27987822 82.34082306 -5.3359375 87.65625 C-6.27366552 90.53133264 -6.84729279 93.43561659 -7.3984375 96.40625 C-7.5634375 97.22810791 -7.7284375 98.04996582 -7.8984375 98.89672852 C-8.73977087 103.17146834 -9.47364802 107.45230425 -10.11328125 111.76171875 C-10.23630615 112.57350586 -10.35933105 113.38529297 -10.48608398 114.22167969 C-10.71417613 115.7681858 -10.92670463 117.31709183 -11.12133789 118.86816406 C-11.61291741 122.2605687 -12.15653828 124.42310364 -14.265625 127.1640625 C-16.3359375 128.65625 -16.3359375 128.65625 -18.9609375 128.59375 C-21.3359375 127.65625 -21.3359375 127.65625 -23.3359375 124.65625 C-23.82250977 122.10351562 -23.82250977 122.10351562 -24.15234375 119.0625 C-24.27673828 117.94875 -24.40113281 116.835 -24.52929688 115.6875 C-24.65111328 114.5221875 -24.77292969 113.356875 -24.8984375 112.15625 C-25.02412109 111.021875 -25.14980469 109.8875 -25.27929688 108.71875 C-26.29332895 99.45973458 -26.29332895 99.45973458 -26.49853516 95.59008789 C-26.84021241 89.52815543 -27.70436217 85.99580401 -31.5859375 81.09375 C-32.49285537 79.91066792 -33.39906833 78.72704525 -34.3046875 77.54296875 C-34.79195313 76.92212402 -35.27921875 76.3012793 -35.78125 75.66162109 C-38.6388092 71.97569282 -41.35603233 68.1871432 -44.0859375 64.40625 C-44.92137085 63.25334473 -44.92137085 63.25334473 -45.77368164 62.07714844 C-55.40032732 48.71442336 -60.58563516 38.39345851 -58.3359375 21.65625 C-55.58162205 11.03943831 -48.79802202 3.96078093 -39.94921875 -1.93359375 C-27.68642813 -8.71287004 -11.78576649 -6.77977203 0 0 Z " fill="#F7F4F4" transform="translate(370.3359375,329.34375)"/>
<path d="M0 0 C0.86238281 0.54398437 1.72476563 1.08796875 2.61328125 1.6484375 C6.81379231 4.2804885 9.19047509 5.52984233 14.23828125 4.3984375 C17.24977718 2.7996377 20.12153114 1.0805762 22.98046875 -0.77734375 C30.66386753 -5.07967856 37.74670283 -6.15818458 46.48828125 -6.1015625 C48.00736084 -6.09406982 48.00736084 -6.09406982 49.55712891 -6.08642578 C61.56603093 -5.80750686 70.69652909 -1.88935745 80.23828125 5.3984375 C80.851875 5.83671875 81.46546875 6.275 82.09765625 6.7265625 C91.19100358 13.72763523 96.77543957 25.35599289 99.23828125 36.3984375 C100.82116302 62.11377911 89.49766925 79.13219615 73.7578125 98.44140625 C68.54328818 105.02367465 66.92195169 110.09276553 66.23828125 118.3984375 C65.99936532 120.79124833 65.74946456 123.18274182 65.49755859 125.57421875 C65.32950993 127.20217039 65.17041557 128.83108119 65.02197266 130.4609375 C64.12368071 139.89994336 63.09378826 147.91643103 55.80078125 154.6484375 C50.42285886 158.32116499 45.6687926 159.24795321 39.23828125 158.3984375 C33.07981576 156.52850343 28.73085135 152.748521 25.23828125 147.3984375 C23.60548115 143.75117474 22.73397361 140.28729723 22.0546875 136.35546875 C21.84908203 135.19853516 21.64347656 134.04160156 21.43164062 132.84960938 C21.01446913 130.44344685 20.59779414 128.03719818 20.18164062 125.63085938 C18.95225205 118.71794229 17.45574082 112.06420321 15.23828125 105.3984375 C12.43783079 104.54193097 12.43783079 104.54193097 9.23828125 104.3984375 C5.07996188 107.44870749 4.48410609 110.48396848 3.67578125 115.4375 C3.49873657 116.45884537 3.49873657 116.45884537 3.31811523 117.50082397 C2.94299017 119.67278197 2.58880589 121.84738438 2.23828125 124.0234375 C-1.87138528 149.16259596 -1.87138528 149.16259596 -10.046875 155.28125 C-15.10495017 158.57648804 -19.82140774 159.18319431 -25.76171875 158.3984375 C-31.79057276 156.56785819 -36.54973424 152.83016926 -39.76171875 147.3984375 C-41.33451969 142.58182726 -42.08096065 138.14075872 -42.41015625 133.09375 C-43.64771027 117.21210218 -44.95077286 104.56242554 -56.0546875 92.33056641 C-59.18144828 88.79149536 -61.92587757 84.96650055 -64.69921875 81.1484375 C-65.52619263 80.02405273 -65.52619263 80.02405273 -66.36987305 78.87695312 C-70.79019086 72.71821663 -73.61938218 66.70289358 -75.76171875 59.3984375 C-76.09171875 58.4084375 -76.42171875 57.4184375 -76.76171875 56.3984375 C-78.268749 39.56929715 -76.51807548 26.50454465 -65.91796875 12.8984375 C-49.85365927 -5.72684885 -22.06876679 -12.79801186 0 0 Z M-46.76171875 15.3984375 C-47.88126953 16.12353516 -47.88126953 16.12353516 -49.0234375 16.86328125 C-55.987447 22.07633979 -60.63521615 30.14486939 -62.17089844 38.66992188 C-64.29074971 57.23583951 -55.17405781 69.37830791 -44.38183594 83.38037109 C-42.79068808 85.36235244 -41.12446217 87.24670016 -39.42578125 89.13671875 C-29.10634634 101.22564004 -28.79655584 113.84872498 -28.00683594 129.125 C-27.53990646 136.92777052 -27.53990646 136.92777052 -23.76171875 143.3984375 C-20.72826921 143.3095875 -20.72826921 143.3095875 -17.76171875 142.3984375 C-15.46267235 138.94986789 -15.01054777 135.9459987 -14.39453125 131.94921875 C-14.14613473 130.44591371 -13.89742669 128.94266012 -13.6484375 127.43945312 C-13.26649587 125.08153816 -12.88863415 122.72310167 -12.51708984 120.36352539 C-9.19764827 99.45104349 -9.19764827 99.45104349 -2.13671875 93.9609375 C-1.54632813 93.48785156 -0.9559375 93.01476562 -0.34765625 92.52734375 C4.71922206 88.92062495 11.28966747 89.9539257 17.23828125 90.3984375 C23.2188086 91.78576986 26.53816275 95.30254111 29.79345703 100.33764648 C32.94083355 107.00521313 33.73113126 114.48811935 34.92578125 121.7109375 C35.34548655 124.17878539 35.77140617 126.64513 36.2101593 129.10966492 C36.48035818 130.63349039 36.73923914 132.15937999 36.98503113 133.68733215 C37.67641883 137.65259554 38.46729976 140.42148181 41.23828125 143.3984375 C44.17271527 143.13187178 44.17271527 143.13187178 47.23828125 142.3984375 C49.70222306 138.70252478 49.66788568 135.64795922 49.88671875 131.35546875 C52.07806504 98.26390096 52.07806504 98.26390096 63.52685547 87.17382812 C66.83772452 83.73921475 69.48350089 79.78115633 72.23828125 75.8984375 C72.77767334 75.1672168 73.31706543 74.43599609 73.87280273 73.68261719 C82.30496171 62.12866379 85.31600735 51.64681638 84.23828125 37.3984375 C82.22531049 27.32007384 74.80534775 19.66789288 66.61328125 13.8984375 C58.18182814 8.3420776 47.00131367 7.89836104 37.23828125 9.3984375 C32.19631103 10.97784986 27.7686607 13.72301657 23.23828125 16.3984375 C17.38224304 19.29647689 11.71139569 20.45767441 5.23828125 19.3984375 C1.70705675 18.05015178 -1.49020176 16.28009433 -4.76171875 14.3984375 C-6.21418808 13.63714323 -7.67213356 12.88615448 -9.13671875 12.1484375 C-9.74257813 11.83390625 -10.3484375 11.519375 -10.97265625 11.1953125 C-22.39681466 6.10682273 -36.84452099 8.58893305 -46.76171875 15.3984375 Z " fill="#030404" transform="translate(373.76171875,314.6015625)"/>
<path d="M0 0 C0.86560547 0.00451172 1.73121094 0.00902344 2.62304688 0.01367188 C4.72789539 0.02530087 6.83270758 0.04322927 8.9375 0.0625 C8.9375 0.3925 8.9375 0.7225 8.9375 1.0625 C7.64972656 1.29453125 6.36195313 1.5265625 5.03515625 1.765625 C-0.33565853 2.96357625 -4.81741206 5.19230609 -9.625 7.8125 C-10.42357422 8.23015625 -11.22214844 8.6478125 -12.04492188 9.078125 C-18.81588241 12.69813324 -25.58018687 16.74756759 -30.4375 22.8125 C-34.67024395 27.88000783 -39.3632839 32.42765672 -44.0625 37.0625 C-39.7725 37.3925 -35.4825 37.7225 -31.0625 38.0625 C-31.0625 38.3925 -31.0625 38.7225 -31.0625 39.0625 C-32.78533203 39.08376953 -32.78533203 39.08376953 -34.54296875 39.10546875 C-50.80380782 39.51484482 -62.92537605 43.70665728 -75.08984375 54.93359375 C-86.10418523 66.52636892 -88.76119908 80.16128196 -88.421875 95.5078125 C-87.64684465 111.71249629 -77.78857164 123.58720398 -68.3046875 135.984375 C-67.67296631 136.81880127 -67.04124512 137.65322754 -66.39038086 138.51293945 C-65.16143864 140.12978492 -63.91812851 141.73584411 -62.65844727 143.32885742 C-58.73158151 148.47630311 -56.85413773 152.64979564 -56.0625 159.0625 C-55.9394751 160.05241943 -55.8164502 161.04233887 -55.68969727 162.06225586 C-55.17696663 166.52660048 -54.72834111 170.99606867 -54.29492188 175.46875 C-53.25957505 186.47499561 -53.25957505 186.47499561 -48.4140625 196.18359375 C-43.96410927 199.57643139 -40.24026074 201.54178689 -34.74609375 202.85546875 C-30.89471741 204.1174786 -28.73290733 205.56740427 -25.625 208.125 C-20.82353238 211.87159974 -15.94365012 215.03503692 -10.625 218 C-9.95090088 218.37713135 -9.27680176 218.7542627 -8.58227539 219.14282227 C-2.36290946 222.55605009 2.87169446 224.3439435 9.9375 225.0625 C9.9375 225.3925 9.9375 225.7225 9.9375 226.0625 C-24.77951343 227.56110929 -54.2930618 218.57887257 -80.0625 195.0625 C-80.79984375 194.40765625 -81.5371875 193.7528125 -82.296875 193.078125 C-102.30063145 174.35460896 -114.06946026 145.17954133 -115.23046875 118.15234375 C-115.5923073 85.32729447 -104.33614479 55.83347807 -81.35546875 32.2890625 C-66.32300016 17.66308413 -48.3958083 8.05134144 -28.0625 3.0625 C-27.21816406 2.84851563 -26.37382812 2.63453125 -25.50390625 2.4140625 C-17.04361313 0.39063018 -8.67486573 -0.08748895 0 0 Z " fill="#97E3F8" transform="translate(386.0625,269.9375)"/>
<path d="M0 0 C1.32 0.33 2.64 0.66 4 1 C3.83886719 2.27617187 3.67773438 3.55234375 3.51171875 4.8671875 C-0.37622323 40.08574866 9.39172915 74.97287639 31.375 102.6875 C46.59332355 120.6083879 64.35444533 132.98101889 86 142 C86 142.33 86 142.66 86 143 C38.81 143 -8.38 143 -57 143 C-53.62705044 131.75683481 -53.62705044 131.75683481 -51.80712891 127.27807617 C-51.38233246 126.22477615 -50.95753601 125.17147614 -50.51986694 124.08625793 C-50.05182648 122.9375975 -49.58378601 121.78893707 -49.1015625 120.60546875 C-48.30819488 118.64264953 -47.51656741 116.67913316 -46.72491646 114.71562099 C-46.13753598 113.25910579 -45.54963048 111.80280223 -44.96125603 110.34668827 C-41.09630162 100.77736954 -37.28352735 91.18721983 -33.46346283 81.59991837 C-30.80295761 74.9252397 -28.13773331 68.25244414 -25.47318649 61.57937813 C-23.17419691 55.82128423 -20.87652726 50.06267009 -18.58154297 44.30297852 C-16.32728612 38.64567715 -14.06970388 32.98971357 -11.80977249 27.33467674 C-10.9561295 25.19688083 -10.10369841 23.05860057 -9.25251389 20.9198246 C-8.074357 17.95999704 -6.89195319 15.00190097 -5.70849609 12.04418945 C-5.36050964 11.16703278 -5.01252319 10.2898761 -4.6539917 9.38613892 C-4.33201813 8.58395432 -4.01004456 7.78176971 -3.67831421 6.95527649 C-3.40076986 6.25957204 -3.12322552 5.56386759 -2.83727074 4.84708118 C-2 3 -2 3 0 0 Z " fill="#F8F5F5" transform="translate(254,361)"/>
<path d="M0 0 C8.20578039 -0.30213571 16.40921544 -0.53262372 24.61919403 -0.67355824 C28.43238095 -0.74122982 32.24174744 -0.83285168 36.05273438 -0.98071289 C39.73597641 -1.12271192 43.41556488 -1.19982729 47.10133362 -1.23340416 C48.502015 -1.25730241 49.90251051 -1.30398714 51.30162048 -1.37449074 C55.81697581 -1.59283159 59.72519653 -1.53289194 64 0 C67.62740828 3.97962896 69.61949759 8.17273914 72 13 C81.30432839 25.66008292 94.55927633 33.51521309 109.89453125 36.578125 C119.94545096 37.94353296 129.4491471 37.38901232 139 34 C139.82886719 33.73316406 140.65773437 33.46632812 141.51171875 33.19140625 C147.69553558 31.00716954 152.55802412 27.68213778 157.75 23.70703125 C160 22 160 22 162 21 C162.55633701 24.47538921 162.7362328 27.54177974 162 31 C159.4627747 33.86203916 156.41200576 35.34599431 153 37 C152.12214844 37.45117188 151.24429688 37.90234375 150.33984375 38.3671875 C147.59714899 39.70104481 144.83460302 40.87572707 142 42 C141.21753906 42.32226562 140.43507812 42.64453125 139.62890625 42.9765625 C124.33231633 48.21411489 106.09646348 45.99211527 91.6484375 39.4921875 C78.47642097 32.85990752 68.65630414 23.73451512 60.625 11.4375 C59.22998107 8.90826598 59.22998107 8.90826598 57 8 C53.73654645 7.6826919 50.46449132 7.67580607 47.1875 7.625 C46.28451172 7.58761719 45.38152344 7.55023438 44.45117188 7.51171875 C43.57396484 7.50011719 42.69675781 7.48851562 41.79296875 7.4765625 C40.9939917 7.45674316 40.19501465 7.43692383 39.37182617 7.41650391 C35.77101754 8.3023436 34.32887756 10.16691513 32 13 C31.26039804 16.36581329 31.26039804 16.36581329 31.38476562 20.10668945 C31.37921661 20.80348312 31.3736676 21.50027679 31.36795044 22.21818542 C31.3561639 24.51725613 31.38044248 26.81434865 31.40625 29.11328125 C31.40796359 30.72690237 31.4078929 32.34052627 31.40612793 33.95414734 C31.40778138 37.34120246 31.42646213 40.72759603 31.45800781 44.11450195 C31.49733586 48.40983038 31.50209386 52.70427909 31.49454498 56.999753 C31.49143831 60.33831018 31.50373073 63.67667779 31.52067566 67.01518822 C31.52760859 68.59566235 31.53084228 70.176158 31.52998352 71.75664711 C31.55381492 100.66149933 40.61929995 126.26067577 60.9375 147.3125 C72.05024911 157.99914676 85.88625233 165.0573694 100 171 C95.36702445 175.63297555 86.47333483 175.1769848 80.25 175.375 C58.90993873 174.95656743 40.06141394 163.61815842 24.875 149.375 C4.42171393 128.09963651 -0.69017402 101.77184346 -0.390625 73.2421875 C-0.38314285 71.11557555 -0.37745929 68.98895659 -0.37347412 66.86233521 C-0.35837298 61.32871672 -0.31922936 55.79553403 -0.2746582 50.26208496 C-0.23336612 44.59014782 -0.21539142 38.91813863 -0.1953125 33.24609375 C-0.1527165 22.1638735 -0.08465896 11.08197331 0 0 Z " fill="#FDDECE" transform="translate(107,141)"/>
<path d="M0 0 C8.67367442 7.19604675 15.23797551 17.19764594 16.79638672 28.50756836 C16.95211063 30.83621296 16.99951818 33.13116744 16.98046875 35.46484375 C16.97474854 36.28968262 16.96902832 37.11452148 16.96313477 37.96435547 C16.56907105 51.59604118 10.40937592 61.7411817 0.73046875 70.96484375 C-8.66072471 78.79386577 -20.38708651 81.78281845 -32.41015625 81.5234375 C-45.13507629 80.26053714 -56.70277327 73.4254046 -64.80078125 63.66796875 C-72.88486216 52.12978054 -75.02981055 38.96342782 -72.89453125 25.21484375 C-70.43668866 14.44471406 -63.64244831 4.67260489 -54.76171875 -1.79296875 C-36.70067743 -13.06343579 -17.28908678 -12.24978706 0 0 Z " fill="#C5BBC4" transform="translate(255.51953125,82.78515625)"/>
<path d="M0 0 C2.75402544 1.33219958 4.85795682 2.59750389 7.06640625 4.72265625 C7.6289209 5.25689209 8.19143555 5.79112793 8.77099609 6.34155273 C9.36219238 6.90946533 9.95338867 7.47737793 10.5625 8.0625 C16.50206344 13.67243241 22.57625771 18.94474971 29 24 C29.71800781 24.58652344 30.43601563 25.17304688 31.17578125 25.77734375 C39.29803185 32.22783015 46.60314245 34.09928558 57 33 C66.76250494 31.27720501 73.11225592 25.11257424 80.17089844 18.65966797 C83.20965424 15.90239862 86.32378097 13.23439904 89.4375 10.5625 C89.99219971 10.07910156 90.54689941 9.59570312 91.1184082 9.09765625 C94.92186689 5.81163225 98.87517361 2.87329879 103 0 C100.87028383 6.68227594 98.40341513 13.18456981 95.77563477 19.68530273 C95.36221832 20.7141861 94.94880188 21.74306946 94.52285767 22.8031311 C93.16488673 26.18096907 91.80316829 29.55728258 90.44140625 32.93359375 C89.49097063 35.29564613 88.540774 37.65779469 87.59080505 40.02003479 C85.3487127 45.59370987 83.10427334 51.16643399 80.85865873 56.73869044 C78.31687091 63.04621951 75.77796189 69.35490588 73.23935616 75.6637162 C70.13804538 83.37091558 67.03633565 91.07795354 63.93226624 98.78404236 C63.49652786 99.8658226 63.06078949 100.94760284 62.61184692 102.06216431 C61.80573716 104.06329147 60.99952786 106.06437854 60.19319153 108.06541443 C59.83021973 108.96646912 59.46724792 109.8675238 59.09327698 110.79588318 C58.74554796 111.65450392 58.39781895 112.51312466 58.03955269 113.39776421 C57.31489449 115.21174779 56.60675193 117.03237911 55.91142082 118.85780525 C55.56210566 119.76715765 55.21279049 120.67651005 54.85289001 121.61341858 C54.54412902 122.43235627 54.23536802 123.25129396 53.91725063 124.09504795 C53 126 53 126 51 127 C45.53146055 113.39442783 40.06311365 99.78877828 34.59498596 86.18304062 C32.05511186 79.86336514 29.51517854 73.54371347 26.97509766 67.22412109 C24.51752904 61.10981453 22.06013623 54.99543733 19.60284424 48.88101959 C18.67170879 46.56417821 17.74051732 44.24735934 16.80926514 41.93056488 C11.19328395 27.95884888 5.58713676 13.98327734 0 0 Z " fill="#C6EDFC" transform="translate(137,355)"/>
<path d="M0 0 C0.67501053 -0.0049649 1.35002106 -0.00992981 2.04548645 -0.01504517 C4.28318292 -0.02967416 6.52080845 -0.03647056 8.75854492 -0.04199219 C10.31312563 -0.04774377 11.86770632 -0.0535015 13.42228699 -0.05926514 C16.68484834 -0.06977772 19.94738503 -0.07561845 23.20996094 -0.07910156 C27.38641071 -0.0845818 31.56253372 -0.10859842 35.73888111 -0.13707352 C38.95168502 -0.15571839 42.16441059 -0.16090651 45.37726402 -0.16243744 C46.91662059 -0.16546118 48.45597587 -0.17348034 49.99527931 -0.18662262 C52.15205166 -0.20371968 54.30803072 -0.20179426 56.46484375 -0.1953125 C57.69125076 -0.19895813 58.91765778 -0.20260376 60.18122864 -0.20635986 C65.12882472 0.35390073 67.57302601 2.12992664 70.70581055 5.91503906 C72.66883597 9.61827205 72.94192172 11.92993539 72.95776367 16.09863281 C72.96549805 18.05929687 72.96549805 18.05929687 72.97338867 20.05957031 C72.96082031 21.07035645 72.96082031 21.07035645 72.94799805 22.1015625 C72.92656227 24.15647405 72.94783874 26.20789099 72.97338867 28.26269531 C72.96823242 29.56980469 72.96307617 30.87691406 72.95776367 32.22363281 C72.95325195 33.41085937 72.94874023 34.59808594 72.9440918 35.82128906 C72.18364205 40.72834216 70.19953113 43.84287099 66.21420288 46.80601501 C62.79546862 48.46788881 60.34026322 48.5610874 56.54418945 48.59692383 C55.87195343 48.60699966 55.19971741 48.6170755 54.5071106 48.62745667 C52.29517777 48.65584389 50.08392957 48.66180828 47.87182617 48.66503906 C46.32632166 48.67468666 44.78081988 48.68477962 43.23532104 48.69529724 C39.9990199 48.71323544 36.76295866 48.71882068 33.52661133 48.71704102 C29.3914272 48.71673629 25.25779016 48.75768774 21.12297249 48.80935764 C17.93147804 48.84281149 14.74035403 48.84879588 11.54870224 48.84721184 C10.02491803 48.85073833 8.50112285 48.86393169 6.97751236 48.88720894 C-6.40037341 49.07246312 -6.40037341 49.07246312 -10.99975586 45.30541992 C-16.00877003 40.08910986 -14.90233905 32.83518554 -14.97851562 26.07470703 C-15.00005896 24.63924039 -15.03411999 23.20390384 -15.08105469 21.76904297 C-15.51642211 8.31758395 -15.51642211 8.31758395 -11.67114258 3.73925781 C-7.86107514 0.17199163 -5.19300746 0.02896837 0 0 Z " fill="#020303" transform="translate(60.573486328125,445.8388671875)"/>
<path d="M0 0 C6.05800753 4.24695982 10.02446611 10.37630809 12.3125 17.375 C13.41315046 27.85677585 12.12833478 36.74584538 5.625 45.1875 C-0.09737636 51.3300002 -8.573989 55.33658345 -16.9375 55.6875 C-26.45604193 55.40002726 -33.92874865 52.08032249 -40.6875 45.375 C-47.36357234 36.9403525 -48.84020071 27.95888837 -47.6875 17.375 C-46.46769844 13.69615625 -44.81218917 10.60526871 -42.6875 7.375 C-42.11 6.4675 -41.5325 5.56 -40.9375 4.625 C-28.94399639 -7.36850361 -14.23971364 -8.586762 0 0 Z " fill="#040403" transform="translate(244.6875,93.625)"/>
<path d="M0 0 C1.6252987 21.10137811 1.6252987 21.10137811 -1.83984375 27.28125 C-4.43005226 29.54001003 -7.04301005 31.25358983 -10 33 C-11.81321221 34.4526751 -13.60480395 35.93270452 -15.375 37.4375 C-16.2825 38.1696875 -17.19 38.901875 -18.125 39.65625 C-20.16908332 41.32262227 -22.1859011 43.0030938 -24.1875 44.71875 C-24.98534912 45.39852905 -24.98534912 45.39852905 -25.79931641 46.09204102 C-27.29417709 47.3684862 -28.78395725 48.65087423 -30.2734375 49.93359375 C-34.59589608 53.20949717 -38.414383 54.55795564 -43.90625 54.36328125 C-51.30011326 53.0803908 -56.88719634 46.51361675 -62.125 41.625 C-65.75149713 38.31385045 -69.54751647 35.25280086 -73.39453125 32.203125 C-74.25433594 31.47609375 -75.11414063 30.7490625 -76 30 C-76.54269531 29.60989746 -77.08539063 29.21979492 -77.64453125 28.81787109 C-80.44236206 26.55205705 -81.82443063 24.97416177 -82.47485352 21.36523438 C-82.59037295 18.26372787 -82.52388519 15.22486597 -82.375 12.125 C-82.34792969 11.05507813 -82.32085937 9.98515625 -82.29296875 8.8828125 C-82.22253052 6.25311847 -82.12409433 3.6276178 -82 1 C-77.03702074 1.91852932 -72.83598618 3.70798498 -68.23046875 5.74609375 C-49.74282028 12.92207339 -27.00006035 10.64518692 -9 3 C-7.34097656 2.15888672 -7.34097656 2.15888672 -5.6484375 1.30078125 C-3 0 -3 0 0 0 Z " fill="#FDDDCD" transform="translate(230,320)"/>
<path d="M0 0 C2.9375 2.625 2.9375 2.625 5 6 C4.75498582 11.01929055 2.85342227 14.33927929 0.25 18.5625 C-3.64308497 25.15226694 -6.7476637 31.64984914 -9 39 C-9.19609863 39.6285791 -9.39219727 40.2571582 -9.59423828 40.90478516 C-13.76212226 55.01015867 -13.304779 69.33198427 -12.94067383 83.88647461 C-12.92538635 84.69726471 -12.91009888 85.50805481 -12.89434814 86.34341431 C-12.86417811 87.87066861 -12.82101678 89.39774639 -12.762146 90.92416382 C-12.66545803 96.12313436 -13.60572726 99.48825952 -16 104 C-19.09173752 105.54586876 -21.59429552 105.29359521 -25 105 C-27.19335938 103.58984375 -27.19335938 103.58984375 -29 101 C-29.60086811 97.75198942 -29.56016517 94.54546648 -29.53125 91.25 C-29.5350769 90.2820752 -29.53890381 89.31415039 -29.54284668 88.31689453 C-29.54557037 86.25910407 -29.5381773 84.20127925 -29.52148438 82.14355469 C-29.50045256 79.0662179 -29.52107409 75.99131738 -29.546875 72.9140625 C-29.57198091 56.33001597 -27.87969756 39.94016022 -21.25 24.5625 C-20.91073486 23.74539551 -20.57146973 22.92829102 -20.22192383 22.08642578 C-10.07947476 -1.61271596 -10.07947476 -1.61271596 0 0 Z " fill="#010101" transform="translate(29,406)"/>
<path d="M0 0 C2.74732986 -0.35873731 5.19009734 -0.50966544 7.9375 -0.5 C8.66646484 -0.52835937 9.39542969 -0.55671875 10.14648438 -0.5859375 C12.27734375 -0.59375 12.27734375 -0.59375 16 0 C17.87890625 2.46875 17.87890625 2.46875 19 5 C22.38052274 6.69026137 26.22260142 6.24444959 29.9453125 6.31640625 C31.27283035 6.3475779 31.27283035 6.3475779 32.62716675 6.37937927 C35.45969741 6.44486598 38.29232225 6.50375562 41.125 6.5625 C43.04297857 6.60568606 44.96094754 6.64930037 46.87890625 6.69335938 C51.58584051 6.80054647 56.29286967 6.9018164 61 7 C61 11.95 61 16.9 61 22 C48.2396613 22.02312121 35.47932755 22.04091395 22.71897221 22.05181217 C16.79449285 22.05704149 10.87002778 22.06414001 4.94555664 22.07543945 C-0.76672571 22.08626661 -6.47899428 22.09227647 -12.19128609 22.09487724 C-14.37588277 22.0967318 -16.56047865 22.100353 -18.7450695 22.10573006 C-21.79352349 22.11293821 -24.84191979 22.11399104 -27.89038086 22.11352539 C-29.25954651 22.1189183 -29.25954651 22.1189183 -30.65637207 22.12442017 C-36.88594784 22.11405216 -36.88594784 22.11405216 -38 21 C-38.0989294 18.83519203 -38.129711 16.66706215 -38.125 14.5 C-38.12757812 13.3140625 -38.13015625 12.128125 -38.1328125 10.90625 C-38 8 -38 8 -37 7 C-34.6714188 6.87772204 -32.33939446 6.82017309 -30.0078125 6.7890625 C-28.56639494 6.76099167 -27.12498884 6.73232719 -25.68359375 6.703125 C-23.40348658 6.66185609 -21.12359286 6.62498374 -18.84326172 6.59863281 C-16.64765809 6.57103909 -14.45303801 6.52516655 -12.2578125 6.4765625 C-10.9392627 6.45674316 -9.62071289 6.43692383 -8.26220703 6.41650391 C-5.06683296 6.2764589 -5.06683296 6.2764589 -3.17138672 4.65771484 C-2.08744166 3.12374507 -1.04189179 1.56283769 0 0 Z " fill="#F5F2F2" transform="translate(106,104)"/>
<path d="M0 0 C18.81 0 37.62 0 57 0 C57 5.94 57 11.88 57 18 C38.19 18 19.38 18 0 18 C0 12.06 0 6.12 0 0 Z " fill="#C8EFFE" transform="translate(61,461)"/>
<path d="M0 0 C0 7.92 0 15.84 0 24 C-0.33 24 -0.66 24 -1 24 C-1.495 16.575 -1.495 16.575 -2 9 C-2.98097656 9.39832031 -3.96195312 9.79664063 -4.97265625 10.20703125 C-20.49422825 16.3736941 -34.01292926 18.43054875 -50.72192383 17.80224609 C-51.84751709 17.77340332 -52.97311035 17.74456055 -54.1328125 17.71484375 C-55.14230957 17.67480225 -56.15180664 17.63476074 -57.19189453 17.59350586 C-60.79162518 18.11459363 -62.40620421 19.51089043 -65 22 C-66.41634833 24.83269666 -66.3463005 27.47466438 -66.5625 30.625 C-66.64628906 31.81351562 -66.73007813 33.00203125 -66.81640625 34.2265625 C-66.87699219 35.14179688 -66.93757812 36.05703125 -67 37 C-68.19324657 36.1538797 -69.37919707 35.29747158 -70.5625 34.4375 C-71.55443359 33.72400391 -71.55443359 33.72400391 -72.56640625 32.99609375 C-73.36949219 32.33738281 -74.17257813 31.67867188 -75 31 C-75.60191162 30.55213135 -76.20382324 30.1042627 -76.82397461 29.64282227 C-79.86200836 27.10079403 -81.74505557 25.23784129 -82.56030273 21.27954102 C-82.68796853 18.17890543 -82.6124966 15.16051682 -82.4375 12.0625 C-82.40591797 10.99708984 -82.37433594 9.93167969 -82.34179688 8.83398438 C-82.25973625 6.21976725 -82.14502211 3.6113542 -82 1 C-77.03702074 1.91852932 -72.83598618 3.70798498 -68.23046875 5.74609375 C-49.74282028 12.92207339 -27.00006035 10.64518692 -9 3 C-7.34097656 2.15888672 -7.34097656 2.15888672 -5.6484375 1.30078125 C-3 0 -3 0 0 0 Z " fill="#F7C7B9" transform="translate(230,320)"/>
<path d="M0 0 C1.59863008 0.62910315 3.18144742 1.29926347 4.75 2 C11.05373775 4.67431299 17.10494947 5.32112825 23.671875 3.09375 C25.35757918 2.37860277 27.0376305 1.649942 28.7109375 0.90625 C31.98742429 -0.39092566 34.53509589 -0.55438466 38 0 C40.4375 1.625 40.4375 1.625 42 4 C42.5625 6.9375 42.5625 6.9375 42 10 C37.75058757 15.94917741 30.94599654 17.9706096 24.125 19.75 C11.47338401 20.76212928 1.45319303 19.58743515 -9 12 C-10 11 -10 11 -10.25 7.125 C-10.20006601 4.59198469 -10.13648888 3.25692025 -8.9375 1 C-5.75255967 -0.64384017 -3.56291209 -0.39587912 0 0 Z " fill="#050505" transform="translate(369,350)"/>
<path d="M0 0 C5.30683192 1.84114577 9.30579064 5.06369175 12 10 C13.02661794 14.8453256 12.63732053 19.3885524 10.5 23.875 C7.89999995 27.76121915 4.38726963 29.60891451 0 31 C-4.33406542 31.59780213 -6.31507656 31.36260653 -10.1875 29.3125 C-13.90038355 26.25968464 -16.46933176 23.59200472 -18 19 C-18.50201239 12.87544882 -18.09928344 9.87482354 -14 5 C-9.13691505 0.71585374 -6.54615737 -0.43641049 0 0 Z " fill="#F9E47A" transform="translate(230,103)"/>
<path d="M0 0 C7.38316482 1.8457912 11.63605265 4.88784482 16 11 C18.52610931 15.30469649 18.64308649 19.11254271 18 24 C16.14068623 29.91599837 13.03562512 33.50589277 8 37 C4.98564312 38.47212778 3.36369412 39 0 39 C0 26.13 0 13.26 0 0 Z " fill="#F1D3C4" transform="translate(284,169)"/>
<path d="M0 0 C0 12.54 0 25.08 0 38 C-6.48634127 36.91894312 -9.40465722 35.4634676 -14 31 C-17.75294693 25.13602042 -17.84641335 18.82836834 -17 12 C-13.64314531 4.89896123 -7.89921336 0 0 0 Z " fill="#F8C8BA" transform="translate(92,170)"/>
<path d="M0 0 C3.97921094 -0.02682614 7.95824341 -0.04675393 11.9375 -0.0625 C13.07380859 -0.07087891 14.21011719 -0.07925781 15.38085938 -0.08789062 C16.46044922 -0.09111328 17.54003906 -0.09433594 18.65234375 -0.09765625 C20.15269165 -0.10551147 20.15269165 -0.10551147 21.68334961 -0.11352539 C24 0 24 0 25 1 C25.0989294 3.16480797 25.129711 5.33293785 25.125 7.5 C25.12886719 9.27890625 25.12886719 9.27890625 25.1328125 11.09375 C25 14 25 14 24 15 C22.21928754 15.08726223 20.4351686 15.10699041 18.65234375 15.09765625 C17.57275391 15.09443359 16.49316406 15.09121094 15.38085938 15.08789062 C14.24455078 15.07951172 13.10824219 15.07113281 11.9375 15.0625 C10.79732422 15.05798828 9.65714844 15.05347656 8.48242188 15.04882812 C5.65492582 15.0369976 2.82745655 15.0190615 0 15 C0 10.05 0 5.1 0 0 Z " fill="#F2EFEF" transform="translate(287,111)"/>
<path d="M0 0 C0.99 0 1.98 0 3 0 C11.05571562 9.21679202 15.76954453 17.60149557 16 30 C16.02964844 30.94746094 16.05929687 31.89492188 16.08984375 32.87109375 C16.11852843 34.91408063 16.07041292 36.95802541 16 39 C12.71594387 35.94546844 11.0048422 32.3908219 9.125 28.375 C8.77566406 27.63241943 8.42632812 26.88983887 8.06640625 26.12475586 C0 8.41624085 0 8.41624085 0 0 Z " fill="#C1E8F6" transform="translate(315,406)"/>
<path d="M0 0 C4.62 0 9.24 0 14 0 C14 5.61 14 11.22 14 17 C9.38 16.01 4.76 15.02 0 14 C0 9.38 0 4.76 0 0 Z " fill="#AEA6AF" transform="translate(285,141)"/>
<path d="M0 0 C4.62 0 9.24 0 14 0 C14 4.62 14 9.24 14 14 C7.07 15.485 7.07 15.485 0 17 C0 11.39 0 5.78 0 0 Z " fill="#B0A8B1" transform="translate(78,141)"/>
<path d="M0 0 C2.82868857 1.29603412 4.9701021 2.69189598 7.234375 4.8203125 C8.09482422 5.62275391 8.09482422 5.62275391 8.97265625 6.44140625 C9.55917969 6.99699219 10.14570313 7.55257813 10.75 8.125 C11.35199219 8.68832031 11.95398438 9.25164062 12.57421875 9.83203125 C14.05334151 11.21724146 15.52719641 12.6080729 17 14 C14.64046906 16.35953094 13.22104383 16.49141413 10 17 C9.67 17.99 9.34 18.98 9 20 C7.39112606 17.58668908 6.34691596 15.63221894 5.2734375 12.98828125 C4.9640625 12.23095703 4.6546875 11.47363281 4.3359375 10.69335938 C4.01882812 9.90767578 3.70171875 9.12199219 3.375 8.3125 C2.88773438 7.11657227 2.88773438 7.11657227 2.390625 5.89648438 C1.59079299 3.93219104 0.79500369 1.96625244 0 0 Z " fill="#91D8ED" transform="translate(137,355)"/>
</svg>
