<?xml version="1.0" encoding="UTF-8"?>
<svg version="1.1" xmlns="http://www.w3.org/2000/svg" width="512" height="512">
<path d="M0 0 C0.68470367 0.00149048 1.36940735 0.00298096 2.07485962 0.0045166 C12.30212343 0.04456784 21.9316988 0.53239637 31.8125 3.3125 C32.81925781 3.57933594 33.82601563 3.84617188 34.86328125 4.12109375 C47.0269101 7.74601626 59.40691503 13.71865407 68.8125 22.3125 C69.65425781 23.07433594 70.49601562 23.83617188 71.36328125 24.62109375 C77.86243094 30.79287887 82.70323882 37.19000856 86.125 45.5 C87.89252677 48.44587795 89.33315513 49.60905893 92.0625 51.625 C104.5857441 60.91578337 109.42857592 74.34441087 111.8125 89.3125 C112.16367824 94.21469133 112.1616803 99.08332519 112.11328125 103.99609375 C112.11490011 105.34937457 112.11870583 106.70265432 112.1245575 108.05592346 C112.14607544 113.72552438 112.1352698 119.39469944 112.09741211 125.06420898 C112.07555655 128.56256347 112.08288691 132.0598961 112.1078701 135.55821419 C112.11316086 137.51408986 112.08556445 139.4699667 112.0572052 141.42564392 C112.05574425 149.08488054 112.05574425 149.08488054 115.76269531 155.52563477 C116.76875507 156.46599642 117.7839148 157.39683152 118.8125 158.3125 C124.25268429 166.83498192 123.29306786 176.16868651 121.32128906 185.68261719 C120.03929983 191.29270871 118.49548553 196.81068146 116.8125 202.3125 C116.49152344 203.3746875 116.17054688 204.436875 115.83984375 205.53125 C113.588853 212.00163035 109.98548159 216.2260092 103.8125 219.3125 C102.21174548 219.43432734 100.60533863 219.48796598 99 219.5 C98.14792969 219.51417969 97.29585938 219.52835938 96.41796875 219.54296875 C93.56103695 219.29025664 91.4121593 218.49331473 88.8125 217.3125 C88.77511719 218.20710937 88.73773438 219.10171875 88.69921875 220.0234375 C87.83101739 235.99153312 82.87817202 247.85533852 72.8125 260.3125 C73.50730469 260.02375 74.20210938 259.735 74.91796875 259.4375 C90.35189004 253.80382531 107.19101943 254.54074569 122.08789062 261.35302734 C125.44377692 262.91450149 128.78928151 264.49111318 132.10400391 266.13842773 C147.86717925 273.93727777 163.81093692 273.81300242 180.4375 268.46875 C186.63086892 266.10549081 192.4683371 262.99336213 198.3203125 259.8984375 C211.04526764 254.11954288 228.02253821 254.24738204 241.03125 259.05859375 C255.65674479 265.65239126 266.82714665 276.00916629 272.91137695 291.02441406 C276.16711495 300.29102311 276.4092145 308.87654752 276.25 318.5625 C276.24185272 319.35672363 276.23370544 320.15094727 276.22531128 320.96923828 C275.88047711 352.92893304 268.99161742 383.7830084 261.87890625 414.83203125 C259.11886082 426.99323877 256.7578095 438.98997735 255.2578125 451.375 C255.12994858 452.42672897 255.00208466 453.47845795 254.87034607 454.5620575 C254.24508661 459.77972185 253.6564375 464.99866269 253.11645508 470.22583008 C251.72833122 482.95361503 249.90942543 494.66609736 239.9453125 503.78125 C228.886149 511.72116226 218.04251429 513.36385297 204.8125 512.3125 C194.37557591 510.27182933 186.46743627 503.99700753 180.1015625 495.6953125 C176.28393 488.63847667 174.97481282 480.76326303 173.625 472.9375 C173.44775391 471.95394531 173.27050781 470.97039062 173.08789062 469.95703125 C171.8125 462.75772201 171.8125 462.75772201 171.8125 459.3125 C162.9025 459.3125 153.9925 459.3125 144.8125 459.3125 C144.44125 462.7775 144.44125 462.7775 144.0625 466.3125 C142.2240074 481.50052661 139.6433719 495.63097924 127.109375 505.73828125 C117.03640377 512.64203534 106.67897309 513.69428988 94.8125 512.3125 C84.36246122 510.1976112 76.49515766 504.03315882 70.1015625 495.6953125 C66.09690919 488.29277154 65.06006195 480.38726872 64.125 472.125 C63.99544922 471.07119141 63.86589844 470.01738281 63.73242188 468.93164062 C63.14201959 463.9741357 62.8125 459.3314011 62.8125 454.3125 C50.6025 454.3125 38.3925 454.3125 25.8125 454.3125 C25.4825 456.6225 25.1525 458.9325 24.8125 461.3125 C21.64789173 466.15248911 18.31961208 468.71463355 12.8125 470.3125 C9.55535389 470.71995137 6.33770504 470.71802378 3.05834961 470.69345093 C2.09358924 470.6981309 1.12882887 470.70281087 0.13483334 470.70763266 C-3.08863755 470.71957119 -6.31168242 470.7101297 -9.53515625 470.70068359 C-11.84992724 470.70474979 -14.16469629 470.71009194 -16.47946167 470.71661377 C-22.76035702 470.73028734 -29.04110449 470.72498844 -35.32200241 470.71547651 C-41.89574329 470.7078802 -48.46947152 470.71492545 -55.04321289 470.71963501 C-66.78960487 470.72604177 -78.53593465 470.71612034 -90.28231585 470.700857 C-100.92619961 470.68745429 -111.5699852 470.68978253 -122.21386719 470.70361328 C-134.58319446 470.71967863 -146.95245917 470.72563812 -159.32179546 470.71677649 C-165.86625716 470.71209988 -172.41065129 470.71147489 -178.95510864 470.72138596 C-185.1078273 470.73005293 -191.2603606 470.72403836 -197.41305923 470.70670319 C-199.6709271 470.70273695 -201.92881056 470.70387472 -204.18667221 470.71049118 C-207.2691085 470.71869108 -210.35095112 470.70840339 -213.43334961 470.69345093 C-214.32644868 470.70014309 -215.21954775 470.70683526 -216.13971043 470.71373022 C-222.1438652 470.6572533 -227.24950592 469.90136025 -231.9296875 465.77734375 C-236.65419475 459.40740467 -236.62800045 455.16091548 -236.1875 447.3125 C-235.60342591 443.49503726 -234.70850047 439.79855563 -233.73828125 436.0625 C-233.48378708 435.0425293 -233.22929291 434.02255859 -232.96708679 432.97167969 C-232.42991149 430.83226924 -231.88586691 428.69457266 -231.33520508 426.55859375 C-230.50309978 423.32454754 -229.69625201 420.08496458 -228.89257812 416.84375 C-223.08129409 393.71679136 -215.01623717 373.86387934 -194.25 360.125 C-189.50661732 357.42767069 -184.77557574 355.22231249 -179.640625 353.36328125 C-178.85222733 353.07526642 -178.06382965 352.78725159 -177.25154114 352.49050903 C-168.27264498 349.26395059 -159.20070889 346.31237983 -150.13671875 343.3359375 C-149.32324541 343.06850676 -148.50977207 342.80107601 -147.67164803 342.52554131 C-139.99754157 340.00281673 -132.32310218 337.48121385 -124.63989258 334.98632812 C-120.39954257 333.60890512 -116.16373622 332.21824002 -111.93058205 330.81886673 C-110.33229988 330.29328087 -108.73239749 329.77259383 -107.13083458 329.25709152 C-104.90019141 328.53856295 -102.67574332 327.80323959 -100.4519043 327.06396484 C-99.47707848 326.75677269 -99.47707848 326.75677269 -98.4825592 326.44337463 C-93.02188415 324.5949422 -88.90846853 321.81495051 -85.61328125 317.0234375 C-82.70834942 310.92817703 -80.68653953 304.89569456 -79.1875 298.3125 C-78.8471875 296.8275 -78.8471875 296.8275 -78.5 295.3125 C-78.3453125 293.8275 -78.3453125 293.8275 -78.1875 292.3125 C-78.07664063 291.47976563 -77.96578125 290.64703125 -77.8515625 289.7890625 C-77.39200753 284.22297088 -77.39200753 284.22297088 -79.62109375 279.28125 C-80.9772342 277.99332587 -82.36438376 276.73762266 -83.7734375 275.5078125 C-97.70423946 262.83934858 -105.61575791 245.07217378 -107.33203125 226.6171875 C-108.39195296 222.5226954 -110.16734361 221.21361373 -113.1875 218.3125 C-116.55122279 212.97308103 -118.47201627 206.99582768 -120.3125 201 C-120.57111816 200.16114258 -120.82973633 199.32228516 -121.09619141 198.45800781 C-124.72313167 186.4610269 -128.79175782 171.64710735 -122.9375 159.8125 C-121.43249329 157.2484145 -119.84052576 154.81629175 -118.13549805 152.37792969 C-115.34762221 147.4492681 -115.5746031 142.46200106 -115.53515625 136.921875 C-115.47989352 134.66145648 -115.42455236 132.40103987 -115.36914062 130.140625 C-115.30606104 126.61985882 -115.25053063 123.09908508 -115.19946289 119.578125 C-114.59945195 83.15514307 -102.63630711 55.79696193 -76.25 30.0703125 C-54.89042157 10.40216665 -29.00553296 -0.15585664 0 0 Z " fill="#CED7DB" transform="translate(236.1875,-0.3125)"/>
<path d="M0 0 C15.76317535 7.79885003 31.70693301 7.67457469 48.33349609 2.33032227 C54.52686502 -0.03293693 60.3643332 -3.1450656 66.21630859 -6.23999023 C78.94126373 -12.01888485 95.9185343 -11.89104569 108.92724609 -7.07983398 C123.55274089 -0.48603647 134.72314274 9.87073855 140.80737305 24.88598633 C144.06311104 34.15259538 144.30521059 42.73811979 144.14599609 52.42407227 C144.13784882 53.2182959 144.12970154 54.01251953 144.12130737 54.83081055 C143.7764732 86.79050531 136.88761351 117.64458067 129.77490234 148.69360352 C127.01485691 160.85481104 124.65380559 172.85154962 123.15380859 185.23657227 C123.02594467 186.28830124 122.89808075 187.34003021 122.76634216 188.42362976 C122.1410827 193.64129411 121.55243359 198.86023495 121.01245117 204.08740234 C119.62432731 216.81518729 117.80542153 228.52766963 107.84130859 237.64282227 C96.78214509 245.58273453 85.93851039 247.22542523 72.70849609 246.17407227 C62.27157201 244.1334016 54.36343236 237.85857979 47.99755859 229.55688477 C44.17992609 222.50004893 42.87080891 214.62483529 41.52099609 206.79907227 C41.25512695 205.32374023 41.25512695 205.32374023 40.98388672 203.81860352 C39.70849609 196.61929427 39.70849609 196.61929427 39.70849609 193.17407227 C30.79849609 193.17407227 21.88849609 193.17407227 12.70849609 193.17407227 C12.33724609 196.63907227 12.33724609 196.63907227 11.95849609 200.17407227 C10.1200035 215.36209888 7.539368 229.4925515 -4.99462891 239.59985352 C-15.06760013 246.50360761 -25.42503082 247.55586215 -37.29150391 246.17407227 C-47.74154269 244.05918346 -55.60884625 237.89473108 -62.00244141 229.55688477 C-65.865231 222.41657673 -66.96645183 214.83529865 -67.85400391 206.86157227 C-67.98057373 205.80542725 -68.10714355 204.74928223 -68.23754883 203.66113281 C-68.80524903 198.83985272 -69.3234222 194.02089302 -69.71337891 189.18188477 C-70.80710542 175.75025361 -73.46118162 162.80840934 -76.32177734 149.65112305 C-78.0416219 141.73069234 -79.71338503 133.80001387 -81.38327026 125.868927 C-81.96141807 123.13231332 -82.54614048 120.39716841 -83.1315918 117.66210938 C-87.58699163 96.69274575 -90.48643411 76.20889429 -90.64160156 54.74755859 C-90.65818677 53.07521676 -90.68551086 51.40294656 -90.72363281 49.73095703 C-91.07827674 33.9893925 -88.26477635 22.84704486 -78.29150391 10.17407227 C-77.68048828 9.35938477 -77.06947266 8.54469727 -76.43994141 7.70532227 C-55.83449185 -16.57164376 -25.66786231 -12.75613404 0 0 Z " fill="#000001" transform="translate(368.29150390625,265.825927734375)"/>
<path d="M0 0 C0.68470367 0.00149048 1.36940735 0.00298096 2.07485962 0.0045166 C12.30212343 0.04456784 21.9316988 0.53239637 31.8125 3.3125 C32.81925781 3.57933594 33.82601563 3.84617188 34.86328125 4.12109375 C47.0269101 7.74601626 59.40691503 13.71865407 68.8125 22.3125 C69.65425781 23.07433594 70.49601562 23.83617188 71.36328125 24.62109375 C77.86243094 30.79287887 82.70323882 37.19000856 86.125 45.5 C87.89252677 48.44587795 89.33315513 49.60905893 92.0625 51.625 C104.5857441 60.91578337 109.42857592 74.34441087 111.8125 89.3125 C112.16367824 94.21469133 112.1616803 99.08332519 112.11328125 103.99609375 C112.11490011 105.34937457 112.11870583 106.70265432 112.1245575 108.05592346 C112.14607544 113.72552438 112.1352698 119.39469944 112.09741211 125.06420898 C112.07555655 128.56256347 112.08288691 132.0598961 112.1078701 135.55821419 C112.11316086 137.51408986 112.08556445 139.4699667 112.0572052 141.42564392 C112.05574425 149.08488054 112.05574425 149.08488054 115.76269531 155.52563477 C116.76875507 156.46599642 117.7839148 157.39683152 118.8125 158.3125 C124.25268429 166.83498192 123.29306786 176.16868651 121.32128906 185.68261719 C120.03929983 191.29270871 118.49548553 196.81068146 116.8125 202.3125 C116.49152344 203.3746875 116.17054688 204.436875 115.83984375 205.53125 C113.588853 212.00163035 109.98548159 216.2260092 103.8125 219.3125 C99.34188922 219.72395444 95.19920979 219.86718391 91 218.1875 C86.84793496 214.62858711 83.32740549 210.99039633 82.5390625 205.359375 C82.22673877 198.29605378 84.2001567 192.45748321 86.62109375 185.92578125 C87.82001552 182.28970701 88.38970816 179.09818784 88.8125 175.3125 C87.94625 174.9721875 87.94625 174.9721875 87.0625 174.625 C83.67027937 172.64620463 81.55756529 169.80263058 79.8125 166.3125 C79.70673868 164.02723249 79.66639457 161.73885592 79.65478516 159.45117188 C79.64970444 158.74517853 79.64462372 158.03918518 79.63938904 157.3117981 C79.62867551 155.77527615 79.62005919 154.23873851 79.61326981 152.70219421 C79.60147351 150.26284691 79.58201443 147.82367607 79.56015015 145.38439941 C79.49859034 138.44740773 79.44467633 131.51043025 79.41113281 124.57324219 C79.39006475 120.33028366 79.35465587 116.08764081 79.31037521 111.84486389 C79.29629972 110.2343368 79.28751206 108.62375377 79.28432083 107.01316833 C79.52183073 92.51895001 79.52183073 92.51895001 73.75 79.625 C70.95955968 77.36335451 70.95955968 77.36335451 68.44140625 75.7421875 C62.3188922 71.68477106 57.06809849 67.81781644 55.35546875 60.30859375 C55.17951172 59.32052734 55.17951172 59.32052734 55 58.3125 C53.65135208 52.00231247 48.53495844 48.31430767 43.5546875 44.65234375 C26.37817886 33.56981095 3.51152617 30.2912852 -16.45654297 34.33984375 C-39.67745298 39.88035173 -58.69080149 56.51620795 -71.1875 76.3125 C-78.18127378 88.24454113 -81.59106612 99.11487535 -81.75282097 112.97781754 C-81.77793102 115.05642639 -81.82178025 117.13393947 -81.87025452 119.21212769 C-82.00427338 125.11251274 -82.10247563 131.01340457 -82.19604492 136.91455078 C-82.25487203 140.54455763 -82.3323868 144.17381002 -82.42044258 147.80321884 C-82.46386881 149.83714957 -82.48537664 151.87054932 -82.5063324 153.90481567 C-82.68018715 161.12621005 -83.19849942 166.20978922 -87.1875 172.3125 C-88.51084259 173.32568417 -89.84129778 174.32989257 -91.1875 175.3125 C-92.2583336 182.36661631 -89.11387856 191.00413903 -86.1875 197.3125 C-84.52774746 199.4740382 -82.73424031 201.38826287 -80.859375 203.36328125 C-75.6014304 209.49345498 -74.85800661 217.10095663 -73.8125 224.8125 C-72.73399488 232.52195212 -71.11042389 238.1104758 -66.1875 244.3125 C-65.51460937 245.21097656 -64.84171875 246.10945312 -64.1484375 247.03515625 C-59.70223742 252.74608816 -54.90468742 257.60576891 -49.3515625 262.2421875 C-45.61894724 265.81310102 -44.05304304 268.57199513 -43.7890625 273.7265625 C-43.77596993 275.46350989 -43.78501732 277.20072069 -43.8125 278.9375 C-43.82265137 279.8646582 -43.83280273 280.79181641 -43.84326172 281.74707031 C-44.36019604 305.30164343 -50.33400014 327.83263026 -66.234375 345.70703125 C-74.58920746 353.07829216 -84.20842196 356.35771152 -94.61105347 359.77758789 C-97.25055941 360.6457407 -99.88458331 361.52904742 -102.51782227 362.41601562 C-108.40317865 364.39519987 -114.29501103 366.35467117 -120.1875 368.3125 C-128.06358247 370.9297571 -135.93647156 373.5560734 -143.8034668 376.20053101 C-147.06831916 377.29352463 -150.33766738 378.37221618 -153.60742188 379.45043945 C-155.6434612 380.13293448 -157.67927922 380.81609018 -159.71484375 381.5 C-160.62685043 381.7964592 -161.53885712 382.0929184 -162.47850037 382.39836121 C-174.33610821 386.42483966 -183.71695173 392.38280007 -189.6484375 403.6640625 C-192.81665612 410.14242257 -194.36869394 416.94413055 -196 423.9375 C-196.3133378 425.24115399 -196.62778435 426.54454201 -196.94335938 427.84765625 C-197.70229906 431.00017496 -198.45004463 434.1548996 -199.1875 437.3125 C-198.10651504 437.30973462 -197.02553007 437.30696924 -195.91178799 437.30412006 C-169.61362179 437.23753253 -143.31546653 437.18822799 -117.01723385 437.15706348 C-104.29962608 437.14159214 -91.58207399 437.12049741 -78.86450195 437.08618164 C-67.78035859 437.05628759 -56.69625556 437.03692695 -45.612073 437.03023452 C-39.74264794 437.02632229 -33.87333823 437.01712227 -28.00395012 436.99530983 C-22.47924323 436.97494471 -16.95469921 436.96866631 -11.42995834 436.97317696 C-9.40267998 436.97235177 -7.37539615 436.96638636 -5.34815025 436.95488358 C-2.57845303 436.9399392 0.19063073 436.94355359 2.96034241 436.95173645 C3.76094261 436.94299793 4.56154281 436.9342594 5.38640362 436.92525607 C11.32554782 436.97262391 15.88622636 438.16734323 20.7734375 441.75 C24.67293616 446.05883829 25.82821833 449.86189496 26.04296875 455.66015625 C25.67011987 459.95107812 24.51032478 461.92292528 21.8125 465.3125 C17.57255412 468.6006213 14.14878761 470.43452346 8.77721024 470.44392776 C7.95347263 470.44776891 7.12973502 470.45161005 6.28103566 470.4555676 C5.37628523 470.45470112 4.47153479 470.45383463 3.53936768 470.45294189 C2.09735367 470.45739858 2.09735367 470.45739858 0.62620807 470.4619453 C-2.6095549 470.47064794 -5.84528093 470.47214187 -9.08105469 470.47363281 C-11.39523396 470.47825989 -13.70941247 470.4832844 -16.02359009 470.48867798 C-22.32120198 470.50181488 -28.6188032 470.50824949 -34.91642666 470.51268864 C-38.84912447 470.51561737 -42.78181935 470.5197218 -46.71451569 470.52419281 C-57.60399137 470.53630349 -68.49346383 470.54668484 -79.38294601 470.5500679 C-80.07993597 470.55028747 -80.77692593 470.55050703 -81.4950368 470.55073325 C-82.19369201 470.55095153 -82.89234722 470.55116981 -83.6121738 470.5513947 C-85.02790753 470.55183817 -86.44364127 470.55228473 -87.859375 470.55273438 C-88.91275361 470.55306652 -88.91275361 470.55306652 -89.9874126 470.55340537 C-101.3636091 470.55735245 -112.7397415 470.5748035 -124.11591324 470.5980939 C-135.79698386 470.62181535 -147.47801917 470.63401221 -159.15911412 470.63543582 C-165.71706285 470.63648485 -172.27492121 470.64241357 -178.8328476 470.66025543 C-185.00190844 470.67671236 -191.17081076 470.67890309 -197.33988571 470.67011642 C-199.60420785 470.66934477 -201.86853844 470.6737056 -204.1328392 470.68357468 C-207.22422667 470.69625842 -210.31504968 470.69043648 -213.40643311 470.67999268 C-214.30226065 470.68804908 -215.1980882 470.69610548 -216.12106204 470.70440602 C-222.13599214 470.65688871 -227.24046759 469.90932453 -231.9296875 465.77734375 C-236.65419475 459.40740467 -236.62800045 455.16091548 -236.1875 447.3125 C-235.60342591 443.49503726 -234.70850047 439.79855563 -233.73828125 436.0625 C-233.48378708 435.0425293 -233.22929291 434.02255859 -232.96708679 432.97167969 C-232.42991149 430.83226924 -231.88586691 428.69457266 -231.33520508 426.55859375 C-230.50309978 423.32454754 -229.69625201 420.08496458 -228.89257812 416.84375 C-223.08129409 393.71679136 -215.01623717 373.86387934 -194.25 360.125 C-189.50661732 357.42767069 -184.77557574 355.22231249 -179.640625 353.36328125 C-178.85222733 353.07526642 -178.06382965 352.78725159 -177.25154114 352.49050903 C-168.27264498 349.26395059 -159.20070889 346.31237983 -150.13671875 343.3359375 C-149.32324541 343.06850676 -148.50977207 342.80107601 -147.67164803 342.52554131 C-139.99754157 340.00281673 -132.32310218 337.48121385 -124.63989258 334.98632812 C-120.39954257 333.60890512 -116.16373622 332.21824002 -111.93058205 330.81886673 C-110.33229988 330.29328087 -108.73239749 329.77259383 -107.13083458 329.25709152 C-104.90019141 328.53856295 -102.67574332 327.80323959 -100.4519043 327.06396484 C-99.47707848 326.75677269 -99.47707848 326.75677269 -98.4825592 326.44337463 C-93.02188415 324.5949422 -88.90846853 321.81495051 -85.61328125 317.0234375 C-82.70834942 310.92817703 -80.68653953 304.89569456 -79.1875 298.3125 C-78.8471875 296.8275 -78.8471875 296.8275 -78.5 295.3125 C-78.3453125 293.8275 -78.3453125 293.8275 -78.1875 292.3125 C-78.07664063 291.47976563 -77.96578125 290.64703125 -77.8515625 289.7890625 C-77.39200753 284.22297088 -77.39200753 284.22297088 -79.62109375 279.28125 C-80.9772342 277.99332587 -82.36438376 276.73762266 -83.7734375 275.5078125 C-97.70423946 262.83934858 -105.61575791 245.07217378 -107.33203125 226.6171875 C-108.39195296 222.5226954 -110.16734361 221.21361373 -113.1875 218.3125 C-116.55122279 212.97308103 -118.47201627 206.99582768 -120.3125 201 C-120.57111816 200.16114258 -120.82973633 199.32228516 -121.09619141 198.45800781 C-124.72313167 186.4610269 -128.79175782 171.64710735 -122.9375 159.8125 C-121.43249329 157.2484145 -119.84052576 154.81629175 -118.13549805 152.37792969 C-115.34762221 147.4492681 -115.5746031 142.46200106 -115.53515625 136.921875 C-115.47989352 134.66145648 -115.42455236 132.40103987 -115.36914062 130.140625 C-115.30606104 126.61985882 -115.25053063 123.09908508 -115.19946289 119.578125 C-114.59945195 83.15514307 -102.63630711 55.79696193 -76.25 30.0703125 C-54.89042157 10.40216665 -29.00553296 -0.15585664 0 0 Z " fill="#000000" transform="translate(236.1875,-0.3125)"/>
<path d="M0 0 C23.27832896 11.14179013 48.7107451 14.47742841 73.62890625 6.28515625 C78.4605607 4.52602991 83.11207777 2.53380049 87.69921875 0.21484375 C104.12352278 -8.05746387 104.12352278 -8.05746387 114.171875 -4.8203125 C121.26810248 -1.75651102 125.00812039 2.75661183 128.6328125 9.41015625 C129.94797683 13.8578029 129.78682403 18.20320181 129.7421875 22.81640625 C129.73469482 23.83959961 129.72720215 24.86279297 129.71948242 25.91699219 C129.40795121 48.47950949 125.7794574 70.64592379 120.1862793 92.48706055 C119.15473365 96.69197878 118.37986797 100.93097326 117.6171875 105.19140625 C116.64768521 110.51633489 115.66362025 115.81061579 114.30078125 121.05078125 C110.42667116 136.11897416 108.80282288 151.34669548 107.19165039 166.79150391 C107.09273499 167.71737305 106.99381958 168.64324219 106.89190674 169.59716797 C106.70526432 171.35374633 106.52543829 173.11106652 106.35345459 174.86914062 C106.26944397 175.65949707 106.18543335 176.44985352 106.09887695 177.26416016 C106.02957474 177.95281158 105.96027252 178.64146301 105.88887024 179.35098267 C105.42197365 181.66429121 104.78524828 183.33722578 103.4921875 185.31640625 C100.0546875 186.19140625 100.0546875 186.19140625 96.4921875 186.31640625 C93.4921875 184.31640625 93.4921875 184.31640625 92.77197266 181.96820068 C92.61003418 180.984505 92.4480957 180.00080933 92.28125 178.98730469 C92.09095215 177.87143982 91.9006543 176.75557495 91.70458984 175.605896 C91.41382568 173.7842392 91.41382568 173.7842392 91.1171875 171.92578125 C90.90658691 170.67444397 90.69598633 169.42310669 90.47900391 168.1338501 C89.91867869 164.79344578 89.36922609 161.45163139 88.82543945 158.10852051 C88.0645824 153.44611109 87.2845451 148.78687925 86.50537109 144.12750244 C86.09228322 141.65051596 85.68347164 139.17281093 85.27978516 136.6942749 C81.84163882 112.80560887 81.84163882 112.80560887 67.4921875 94.31640625 C58.32497687 88.50557758 48.29837685 86.12235218 37.4921875 87.31640625 C26.97447047 89.87319934 17.71525243 95.38157748 11.4921875 104.31640625 C6.64258806 112.43867006 5.63516971 121.96532277 4.0546875 131.12890625 C3.7534729 132.82246394 3.45113418 134.51582205 3.14770508 136.20898438 C2.39151761 140.44324087 1.64797228 144.67958161 0.91003418 148.91705322 C0.05226489 153.84252334 -0.81260121 158.76673531 -1.68188477 163.69018555 C-2.09667571 166.04616638 -2.50631257 168.40306254 -2.90991211 170.76098633 C-3.78363597 175.76846573 -4.67856149 180.5487656 -6.5078125 185.31640625 C-9.8203125 186.00390625 -9.8203125 186.00390625 -13.5078125 186.31640625 C-15.6256618 184.79845482 -16.38435819 183.75476449 -17.09204102 181.24194336 C-17.18928467 180.45053955 -17.28652832 179.65913574 -17.38671875 178.84375 C-17.50176758 177.95461914 -17.61681641 177.06548828 -17.73535156 176.14941406 C-17.84588867 175.19389648 -17.95642578 174.23837891 -18.0703125 173.25390625 C-18.19760742 172.25584961 -18.32490234 171.25779297 -18.45605469 170.22949219 C-19.00657665 165.84352713 -19.51338198 161.45872323 -19.89453125 157.0546875 C-21.25411385 141.7221409 -24.77573116 126.74846609 -27.99304199 111.72192383 C-29.41667692 105.06929163 -30.82911648 98.41428656 -32.2387085 91.75866699 C-32.74008885 89.3997918 -33.24685039 87.04212575 -33.75439453 84.68457031 C-36.78884288 70.49497206 -39.54760236 56.2362833 -40.6953125 41.75390625 C-40.77209229 40.79137939 -40.84887207 39.82885254 -40.92797852 38.8371582 C-41.14070121 35.99779313 -41.33083566 33.15820681 -41.5078125 30.31640625 C-41.56130859 29.48560547 -41.61480469 28.65480469 -41.66992188 27.79882812 C-42.18057696 18.80685816 -42.31072697 10.76533973 -36.5078125 3.31640625 C-25.00252171 -9.07033827 -14.06566039 -6.75089045 0 0 Z " fill="#00BBD2" transform="translate(350.5078125,293.68359375)"/>
<path d="M0 0 C2.63926893 2.63926893 2.68332234 4.52160841 3.375 8.1875 C3.49657471 8.8280835 3.61814941 9.46866699 3.7434082 10.12866211 C4.17248384 12.41733183 4.58648711 14.70846804 5 17 C5.17354004 17.94456055 5.34708008 18.88912109 5.52587891 19.86230469 C6.08739341 22.92771047 6.63918467 25.99470736 7.1875 29.0625 C7.36651855 30.04951904 7.54553711 31.03653809 7.72998047 32.0534668 C7.8951416 32.99617432 8.06030273 33.93888184 8.23046875 34.91015625 C8.37895264 35.74683838 8.52743652 36.58352051 8.68041992 37.44555664 C9 40 9 40 9 46 C0.09 46 -8.82 46 -18 46 C-17.15282059 37.52820589 -16.01579116 29.25638443 -14.58081055 20.8840332 C-14.31668649 19.32502908 -14.05995025 17.76475682 -13.81030273 16.20336914 C-13.44581264 13.92548411 -13.05946467 11.65228571 -12.66796875 9.37890625 C-12.56050827 8.68205215 -12.45304779 7.98519806 -12.34233093 7.26722717 C-11.79099055 4.20207941 -11.29424742 2.3091683 -9.12231445 0.02709961 C-5.86418377 -1.54968123 -3.43434851 -0.82678761 0 0 Z " fill="#F9F9F9" transform="translate(399,413)"/>
</svg>
